<svg width="24px" height="24px" viewBox="0 0 24px 24px" fill="none" xmlns="http://www.w3.org/2000/svg">
    <rect x="0.5" y="0.5" width="23" height="23" rx="3.5" fill="#F2F2F2" stroke="#9D9D9D"/>
    <path d="M19.3195 9.33928C19.3195 9.11607 19.2303 8.89286 19.0695 8.73214L17.8553 7.51786C17.6945 7.35714 17.4713 7.26786 17.2481 7.26786C17.0249 7.26786 16.8017 7.35714 16.641 7.51786L10.7838 13.3839L8.15883 10.75C7.99812 10.5893 7.7749 10.5 7.55169 10.5C7.32847 10.5 7.10526 10.5893 6.94455 10.75L5.73026 11.9643C5.56955 12.125 5.48026 12.3482 5.48026 12.5714C5.48026 12.7946 5.56955 13.0179 5.73026 13.1786L8.9624 16.4107L10.1767 17.625C10.3374 17.7857 10.5606 17.875 10.7838 17.875C11.007 17.875 11.2303 17.7857 11.391 17.625L12.6053 16.4107L19.0695 9.94643C19.2303 9.78571 19.3195 9.5625 19.3195 9.33928Z" fill="#B91A29"/>
</svg>
