<svg width="30px" height="30px" viewBox="0 0 30px 30px" fill="none" xmlns="http://www.w3.org/2000/svg">
    <path d="M24.7854 11.7835C24.7854 12.106 24.6716 12.4096 24.4439 12.6373L14.1415 22.9397C13.9138 23.1674 13.5912 23.3002 13.2687 23.3002C12.9651 23.3002 12.6426 23.1674 12.4149 22.9397L5.5466 16.0714C5.31892 15.8438 5.20508 15.5402 5.20508 15.2176C5.20508 14.8951 5.31892 14.5725 5.5466 14.3449L7.27316 12.6373C7.50084 12.4096 7.80441 12.2768 8.12695 12.2768C8.4495 12.2768 8.75307 12.4096 8.98075 12.6373L13.2687 16.9252L21.0098 9.20312C21.2374 8.97545 21.541 8.84263 21.8636 8.84263C22.1861 8.84263 22.4897 8.97545 22.7174 9.20312L24.4439 10.9107C24.6716 11.1384 24.7854 11.4609 24.7854 11.7835ZM29.5667 14.8571C29.5667 6.8125 23.0399 0.285713 14.9953 0.285713C6.95061 0.285713 0.423828 6.8125 0.423828 14.8571C0.423828 22.9018 6.95061 29.4286 14.9953 29.4286C23.0399 29.4286 29.5667 22.9018 29.5667 14.8571Z" fill="#9D9D9D"/>
</svg>
