<svg width="44" height="44" viewBox="0 0 44 44" fill="none" xmlns="http://www.w3.org/2000/svg">
<rect width="44" height="44" rx="4" fill="#111111"/>
<path d="M22.5 17.6094C19.5 17.6094 17.1094 20.0469 17.1094 23C17.1094 26 19.5 28.3906 22.5 28.3906C25.4531 28.3906 27.8906 26 27.8906 23C27.8906 20.0469 25.4531 17.6094 22.5 17.6094ZM22.5 26.5156C20.5781 26.5156 18.9844 24.9688 18.9844 23C18.9844 21.0781 20.5312 19.5312 22.5 19.5312C24.4219 19.5312 25.9688 21.0781 25.9688 23C25.9688 24.9688 24.4219 26.5156 22.5 26.5156ZM29.3438 17.4219C29.3438 16.7188 28.7812 16.1562 28.0781 16.1562C27.375 16.1562 26.8125 16.7188 26.8125 17.4219C26.8125 18.125 27.375 18.6875 28.0781 18.6875C28.7812 18.6875 29.3438 18.125 29.3438 17.4219ZM32.9062 18.6875C32.8125 17 32.4375 15.5 31.2188 14.2812C30 13.0625 28.5 12.6875 26.8125 12.5938C25.0781 12.5 19.875 12.5 18.1406 12.5938C16.4531 12.6875 15 13.0625 13.7344 14.2812C12.5156 15.5 12.1406 17 12.0469 18.6875C11.9531 20.4219 11.9531 25.625 12.0469 27.3594C12.1406 29.0469 12.5156 30.5 13.7344 31.7656C15 32.9844 16.4531 33.3594 18.1406 33.4531C19.875 33.5469 25.0781 33.5469 26.8125 33.4531C28.5 33.3594 30 32.9844 31.2188 31.7656C32.4375 30.5 32.8125 29.0469 32.9062 27.3594C33 25.625 33 20.4219 32.9062 18.6875ZM30.6562 29.1875C30.3281 30.125 29.5781 30.8281 28.6875 31.2031C27.2812 31.7656 24 31.625 22.5 31.625C20.9531 31.625 17.6719 31.7656 16.3125 31.2031C15.375 30.8281 14.6719 30.125 14.2969 29.1875C13.7344 27.8281 13.875 24.5469 13.875 23C13.875 21.5 13.7344 18.2188 14.2969 16.8125C14.6719 15.9219 15.375 15.2188 16.3125 14.8438C17.6719 14.2812 20.9531 14.4219 22.5 14.4219C24 14.4219 27.2812 14.2812 28.6875 14.8438C29.5781 15.1719 30.2812 15.9219 30.6562 16.8125C31.2188 18.2188 31.0781 21.5 31.0781 23C31.0781 24.5469 31.2188 27.8281 30.6562 29.1875Z" fill="white"/>
</svg>
