<svg width="44" height="44" viewBox="0 0 44 44" fill="none" xmlns="http://www.w3.org/2000/svg">
<rect width="44" height="44" rx="4" fill="#111111"/>
<path d="M31.5156 18.125C32.4531 17.4219 33.2969 16.5781 33.9531 15.5938C33.1094 15.9688 32.125 16.25 31.1406 16.3438C32.1719 15.7344 32.9219 14.7969 33.2969 13.625C32.3594 14.1875 31.2812 14.6094 30.2031 14.8438C29.2656 13.8594 28 13.2969 26.5938 13.2969C23.875 13.2969 21.6719 15.5 21.6719 18.2188C21.6719 18.5938 21.7188 18.9688 21.8125 19.3438C17.7344 19.1094 14.0781 17.1406 11.6406 14.1875C11.2188 14.8906 10.9844 15.7344 10.9844 16.6719C10.9844 18.3594 11.8281 19.8594 13.1875 20.75C12.3906 20.7031 11.5938 20.5156 10.9375 20.1406V20.1875C10.9375 22.5781 12.625 24.5469 14.875 25.0156C14.5 25.1094 14.0312 25.2031 13.6094 25.2031C13.2812 25.2031 13 25.1562 12.6719 25.1094C13.2812 27.0781 15.1094 28.4844 17.2656 28.5312C15.5781 29.8438 13.4688 30.6406 11.1719 30.6406C10.75 30.6406 10.375 30.5938 10 30.5469C12.1562 31.9531 14.7344 32.75 17.5469 32.75C26.5938 32.75 31.5156 25.2969 31.5156 18.7812C31.5156 18.5469 31.5156 18.3594 31.5156 18.125Z" fill="white"/>
</svg>
