<svg width="44" height="44" viewBox="0 0 44 44" fill="none" xmlns="http://www.w3.org/2000/svg">
<rect width="44" height="44" rx="4" fill="#111111"/>
<path d="M34.7344 16.8594C34.4531 15.7344 33.5625 14.8438 32.4844 14.5625C30.4688 14 22.5 14 22.5 14C22.5 14 14.4844 14 12.4688 14.5625C11.3906 14.8438 10.5 15.7344 10.2188 16.8594C9.65625 18.8281 9.65625 23.0469 9.65625 23.0469C9.65625 23.0469 9.65625 27.2188 10.2188 29.2344C10.5 30.3594 11.3906 31.2031 12.4688 31.4844C14.4844 32 22.5 32 22.5 32C22.5 32 30.4688 32 32.4844 31.4844C33.5625 31.2031 34.4531 30.3594 34.7344 29.2344C35.2969 27.2188 35.2969 23.0469 35.2969 23.0469C35.2969 23.0469 35.2969 18.8281 34.7344 16.8594ZM19.875 26.8438V19.25L26.5312 23.0469L19.875 26.8438Z" fill="white"/>
</svg>
