<svg width="148" height="30" viewBox="0 0 148 30" fill="none" xmlns="http://www.w3.org/2000/svg">
<g clip-path="url(#clip0)">
<path d="M20.2492 25.8019H12.723L11.9738 24.4985H20.0082H21.8039L17.0329 16.1919H11.7282H6.24151H1.50586L3.63767 19.9044H4.10879H9.59552H13.6481L14.333 21.0056H8.96313H4.27097L9.02565 29.2858H9.67706H19.836H24.5662L22.5658 25.8019H20.2492Z" fill="white"/>
<path d="M15.1297 10.2688L16.197 12.126L24.0457 25.7937H29.5324L15.1297 0.714355L6.99023 14.8876H12.4779L15.1297 10.2688Z" fill="white"/>
<path d="M0.726562 25.7936H5.52201L3.12474 21.6184L0.726562 25.7936Z" fill="white"/>
<path d="M61.1502 6.29126L57.384 21.623H51.9924L55.7577 6.29126H51.6671L46.8916 25.7354H60.4644L65.2408 6.29126H61.1502Z" fill="white"/>
<path d="M76.3766 6.29141L74.7123 13.0533L74.0771 15.6519L73.1458 13.0533L71.2595 6.24951H66.9044L65.2301 13.0533L62.1279 25.6936H63.8693H66.2194L69.0126 14.3194L72.4219 25.6936H75.7016L78.8028 13.0533L80.4672 6.29141H76.3766Z" fill="white"/>
<path d="M84.4919 13.0533L85.2358 9.99753H94.6763L95.5922 6.24951H82.0602L80.4013 13.0533H80.3859L79.1628 18.0492H88.645L87.7671 21.6232H78.3266L77.3164 25.7355H90.8475L93.7458 13.9368H84.2636L84.4765 13.0533H84.4919Z" fill="#FFD913"/>
<path d="M112.868 6.20752H108.778L107.017 13.2782H107.038L106.869 13.9786H99.4733L99.697 13.0532H99.6825L101.382 6.20752H97.2916L95.5919 13.0532H95.6064L92.4844 25.7783H96.575L98.4631 18.091H105.859L103.991 25.6935H108.082L111.183 13.0532H111.163L112.868 6.20752Z" fill="#FFD913"/>
<path d="M143.183 6.20752L141.568 12.78L141.451 13.2554L139.799 19.9818C139.562 20.9464 138.701 21.624 137.713 21.624H135.823L137.865 13.3957H133.774L131.733 21.624H128.16L130.216 13.2554L130.333 12.78L131.947 6.20752H127.857L126.242 12.78L126.125 13.2554L123.06 25.7364H138.648C140.897 25.7364 142.856 24.1943 143.395 22.0002L145.543 13.2563L145.66 12.7809L147.274 6.20843H143.183V6.20752Z" fill="#FFD913"/>
<path d="M118.477 14.2691C119.705 14.2691 120.701 13.2684 120.701 12.034C120.701 10.7995 119.705 9.79883 118.477 9.79883C117.249 9.79883 116.254 10.7995 116.254 12.034C116.254 13.2684 117.249 14.2691 118.477 14.2691Z" fill="#FFD913"/>
<path d="M128.204 11.0776H126.541C126.105 7.33962 123.147 4.3658 119.429 3.9277V2.25635H117.527V3.9277C113.808 4.3658 110.85 7.33962 110.414 11.0776H108.752V12.9903H110.414C110.85 16.7283 113.808 19.7021 117.527 20.1403V21.8116H119.429V20.1403C123.147 19.7021 126.105 16.7283 126.541 12.9903H128.204V11.0776ZM119.428 18.2111V16.6691H117.526V18.2111C114.857 17.7976 112.744 15.6727 112.332 12.9903H113.866V11.0776H112.332C112.744 8.39526 114.857 6.27032 117.526 5.85681V7.39973H119.428V5.85681C122.096 6.27032 124.21 8.39526 124.621 11.0776H123.088V12.9903H124.621C124.21 15.6727 122.096 17.7976 119.428 18.2111Z" fill="white"/>
<path d="M49.9625 6.29321H40.1324C38.0939 6.29321 36.0165 7.96821 35.5137 10.0166L32.5483 22.0895C32.0518 24.1106 33.2695 25.7355 35.2799 25.7355H45.226L48.0953 13.9577H41.1073L40.2013 17.6702H43.0951L42.1383 21.6086H38.0323C37.3411 21.6086 36.8346 20.9546 37.0049 20.2806L39.3198 11.1069C39.481 10.4666 40.0545 10.0185 40.7114 10.0185H49.0547L49.9625 6.29321Z" fill="white"/>
</g>
<defs>
<clipPath id="clip0">
<rect width="146.546" height="28.5714" fill="white" transform="translate(0.726562 0.714355)"/>
</clipPath>
</defs>
</svg>
