<svg width="514" height="192" viewBox="0 0 514 192" fill="none" xmlns="http://www.w3.org/2000/svg">
<g clip-path="url(#clip0)">
<path d="M76.2109 183.443H18.5414C10.3047 183.443 4.72023 181.101 1.94355 176.478C-3.81451 166.895 4.70466 150.639 8.34238 143.699L8.45808 143.479C9.7285 141.054 11.949 137.493 14.759 132.984C22.7175 120.221 34.7431 100.929 39.3086 84.7006C41.7849 75.8977 41.667 69.8443 38.9504 66.194C36.5586 62.9817 32.3046 61.6629 27.8036 60.268C27.2474 60.0959 26.6934 59.9238 26.1416 59.7472C22.5729 58.6094 21.3403 56.4746 20.9376 54.883C19.7317 50.1329 24.3417 44.3723 26.0237 42.47V14.5168C26.0237 10.3881 29.3677 7.02832 33.4771 7.02832H258.798C262.907 7.02832 266.251 10.3881 266.251 14.5168V61.2806C266.251 65.4094 262.907 68.7691 258.798 68.7691H188.426C185.044 68.7691 182.662 69.5627 181.144 71.1922C178.158 74.3978 178.581 80.7283 178.988 86.8487C179.124 88.8919 179.264 91.0021 179.264 92.9423C179.264 98.372 177.288 102.367 173.388 104.814C170.66 106.529 167.067 107.396 162.715 107.396H135.803C128.303 107.396 121.971 107.077 114.488 103.069C112.662 102.089 111.082 101.859 109.656 102.367C107.351 103.187 105.235 105.952 103.183 110.823C102.038 113.543 102.661 115.153 103.446 117.189C104.196 119.13 105.046 121.329 104.227 124.343C103.284 127.819 100.979 128.724 99.1275 129.453C97.3475 130.152 95.8101 130.758 94.5063 133.575C93.1936 136.413 93.7276 137.987 94.404 139.981C95.0937 142.013 95.9503 144.544 94.5575 148.185C93.0535 152.115 90.1722 153.697 87.8583 154.969C85.7669 156.12 84.5565 156.849 84.0137 158.483C83.1749 161.014 84.8614 164.847 86.2163 167.925C87.1886 170.134 87.9562 171.88 87.9562 173.333C87.954 177.466 83.7734 183.443 76.2109 183.443ZM33.4749 10.8284C31.4503 10.8284 29.8038 12.4826 29.8038 14.5168V43.9744L29.2787 44.5266C27.1206 46.7955 23.9412 51.3623 24.602 53.9486C24.6932 54.3063 24.9691 55.3904 27.2852 56.1281C27.8281 56.3002 28.3732 56.4701 28.9205 56.64C33.8042 58.1534 38.8525 59.7204 41.9807 63.9206C45.5005 68.6462 45.8076 75.578 42.9508 85.7355C38.2384 102.49 26.0393 122.056 17.9673 135.005C15.1995 139.447 13.0125 142.954 11.8066 145.252L11.6909 145.471C8.6383 151.294 0.528512 166.768 5.18302 174.515C7.2277 177.918 11.722 179.643 18.5414 179.643H76.2109C81.88 179.643 84.1716 175.19 84.1716 173.335C84.1716 172.685 83.3862 170.898 82.7544 169.463C81.1346 165.784 79.1211 161.208 80.4227 157.283C81.4617 154.153 83.8935 152.817 86.0406 151.636C88.1742 150.463 90.0187 149.45 91.0243 146.821C91.9254 144.465 91.4382 143.028 90.8219 141.208C90.0654 138.977 89.1243 136.199 91.0733 131.979C93.0156 127.778 95.7501 126.703 97.7458 125.916C99.3855 125.272 100.133 124.977 100.576 123.346C101.065 121.539 100.558 120.227 99.9173 118.566C99.0429 116.302 97.9549 113.483 99.697 109.345C101.283 105.577 103.913 100.382 108.39 98.7878C110.839 97.916 113.487 98.229 116.266 99.7177C122.987 103.321 128.603 103.598 135.801 103.598H162.713C171.183 103.598 175.48 100.013 175.48 92.9446C175.48 91.1317 175.351 89.1758 175.213 87.1058C174.752 80.1762 174.274 73.0096 178.381 68.5992C180.621 66.1917 184.001 64.9712 188.424 64.9712H258.793C260.818 64.9712 262.465 63.3171 262.465 61.2829V14.5168C262.465 12.4826 260.818 10.8284 258.793 10.8284H33.4749Z" fill="#333333"/>
<path d="M60.1111 165.819H25.5094C21.1174 165.819 18.2406 164.702 16.7143 162.404C14.3804 158.892 16.0869 153.583 17.8357 149.349C20.8593 142.031 28.8712 130.63 35.9398 120.571C37.3103 118.622 38.6052 116.78 39.8155 115.032C45.9941 106.124 48.8398 98.479 52.4397 88.7999C53.0448 87.1725 53.6723 85.4893 54.3375 83.7345C56.6314 77.6923 61.1524 74.2521 67.7693 73.51C73.1869 72.902 79.014 74.2029 83.268 75.153C89.0705 76.4495 93.2244 78.9665 95.278 82.4336C96.7732 84.9573 97.0958 87.9348 96.208 91.0487C95.2402 94.4486 90.688 107.405 85.8667 121.121C81.1031 134.674 76.1772 148.69 75.0581 152.541C72.8777 160.066 70.3902 165.819 60.1111 165.819ZM70.6817 77.1559C69.8384 77.1559 69.0063 77.1961 68.1898 77.2877C62.9501 77.8756 59.6706 80.3547 57.8729 85.0892C57.2121 86.8305 56.5869 88.5093 55.9839 90.1299C52.2906 100.059 49.3715 107.903 42.9193 117.205C41.7 118.962 40.4029 120.808 39.0302 122.762C32.42 132.168 24.1923 143.877 21.3288 150.807C19.3242 155.662 18.8436 158.765 19.8581 160.294C20.6191 161.438 22.5191 162.019 25.5094 162.019H60.1111C67.5891 162.019 69.3045 158.807 71.4315 151.477C72.5795 147.525 77.5233 133.458 82.3046 119.856C86.8946 106.797 91.6403 93.2952 92.5748 90.0047C93.1755 87.8923 92.993 85.999 92.0297 84.3761C90.5434 81.868 87.1415 79.9098 82.4492 78.8614C79.1319 78.1238 74.8 77.1559 70.6817 77.1559Z" fill="#333333"/>
<path d="M158.951 99.1878H129.635C125.791 99.1878 121.703 97.2833 118.707 94.0934C115.71 90.9035 112.263 84.877 112.844 74.2612C112.822 73.5437 112.882 70.7517 115.038 68.4292C116.873 66.4531 119.628 65.4517 123.228 65.4517H159.271C162.588 65.4517 169.492 65.4517 169.492 73.9505V90.0452C169.492 97.632 165.278 99.1878 158.951 99.1878ZM123.228 69.2518C120.718 69.2518 118.893 69.8464 117.803 71.0222C116.559 72.3612 116.622 74.1226 116.624 74.1405L116.633 74.2612L116.626 74.3819C116.097 83.7079 118.96 88.8314 121.457 91.4847C123.755 93.928 126.812 95.3877 129.635 95.3877H158.951C164.822 95.3877 165.71 94.1851 165.71 90.0452V73.9505C165.71 70.2622 164.326 69.2518 159.271 69.2518H123.228Z" fill="#333333"/>
<path d="M144.693 98.7049C144.164 98.7049 143.637 98.4836 143.263 98.0477C137.062 90.8521 135.131 82.8897 134.601 77.4756C134.027 71.61 134.919 67.4411 134.957 67.2667C135.182 66.2429 136.19 65.5924 137.211 65.8182C138.23 66.044 138.875 67.0544 138.653 68.0804C138.635 68.1586 137.845 71.9722 138.381 77.2432C139.096 84.2644 141.701 90.4296 146.126 95.5642C146.809 96.3578 146.725 97.5582 145.935 98.2444C145.574 98.5529 145.134 98.7049 144.693 98.7049Z" fill="#333333"/>
<path d="M131.4 91.3016C130.746 91.3016 130.11 90.9596 129.758 90.3493C125.844 83.5114 126.054 77.7307 126.065 77.4871C126.111 76.4387 127.001 75.6228 128.038 75.6742C129.079 75.7211 129.887 76.6063 129.843 77.6502C129.84 77.7508 129.72 82.6619 133.038 88.4538C133.558 89.3635 133.247 90.5259 132.341 91.049C132.043 91.2211 131.72 91.3016 131.4 91.3016Z" fill="#333333"/>
<path d="M263.877 45.7533H27.8589C26.8155 45.7533 25.9678 44.9016 25.9678 43.8532C25.9678 42.8048 26.8155 41.9531 27.8589 41.9531H263.877C264.92 41.9531 265.768 42.8048 265.768 43.8532C265.768 44.9016 264.92 45.7533 263.877 45.7533Z" fill="#333333"/>
<path d="M46.442 45.9682C45.3985 45.9682 44.5508 45.1165 44.5508 44.0682V21.4284C44.5508 20.38 45.3985 19.5283 46.442 19.5283C47.4854 19.5283 48.3331 20.38 48.3331 21.4284V44.0682C48.3331 45.1165 47.4877 45.9682 46.442 45.9682Z" fill="#333333"/>
<path d="M53.3296 45.9682C52.2862 45.9682 51.4385 45.1165 51.4385 44.0682V21.4284C51.4385 20.38 52.2862 19.5283 53.3296 19.5283C54.3731 19.5283 55.2208 20.38 55.2208 21.4284V44.0682C55.2208 45.1165 54.3754 45.9682 53.3296 45.9682Z" fill="#333333"/>
<path d="M60.2183 45.9682C59.1748 45.9682 58.3271 45.1165 58.3271 44.0682V21.4284C58.3271 20.38 59.1748 19.5283 60.2183 19.5283C61.2618 19.5283 62.1095 20.38 62.1095 21.4284V44.0682C62.1095 45.1165 61.264 45.9682 60.2183 45.9682Z" fill="#333333"/>
<path d="M67.107 45.9682C66.0635 45.9682 65.2158 45.1165 65.2158 44.0682V21.4284C65.2158 20.38 66.0635 19.5283 67.107 19.5283C68.1505 19.5283 68.9982 20.38 68.9982 21.4284V44.0682C68.9982 45.1165 68.1527 45.9682 67.107 45.9682Z" fill="#333333"/>
<path d="M73.9947 45.9682C72.9512 45.9682 72.1035 45.1165 72.1035 44.0682V21.4284C72.1035 20.38 72.9512 19.5283 73.9947 19.5283C75.0382 19.5283 75.8859 20.38 75.8859 21.4284V44.0682C75.8859 45.1165 75.0382 45.9682 73.9947 45.9682Z" fill="#333333"/>
<path d="M198.412 68.7151C197.368 68.7151 196.521 67.8634 196.521 66.815V44.3898C196.521 43.3414 197.368 42.4897 198.412 42.4897C199.455 42.4897 200.303 43.3414 200.303 44.3898V66.815C200.303 67.8634 199.457 68.7151 198.412 68.7151Z" fill="#333333"/>
<path d="M49.6699 10.6672C48.7866 10.6672 47.9968 10.0435 47.8166 9.14041C47.1491 5.7896 45.4003 3.85377 44.833 3.80012H38.0025C36.2337 3.80012 34.9455 7.43706 34.6273 9.0957C34.4315 10.124 33.4437 10.8013 32.4158 10.6046C31.3901 10.4079 30.7181 9.41759 30.9095 8.38709C31.0741 7.53095 32.6405 0 38.0047 0H44.8396C48.1325 0 50.6956 4.22261 51.5255 8.3938C51.7302 9.42207 51.0671 10.4235 50.0415 10.6292C49.9169 10.656 49.7923 10.6672 49.6699 10.6672Z" fill="#333333"/>
<path d="M177.372 26.3329H135.295C130.825 26.3329 128.918 24.5133 128.918 20.2482C128.918 19.0277 128.758 18.2856 126.538 18.2856H105.285C103.41 18.2856 99.0156 18.2856 99.0156 13.9177V9.84036C99.0156 8.79197 99.8633 7.9403 100.907 7.9403C101.95 7.9403 102.798 8.79197 102.798 9.84036V13.9177C102.798 14.0697 102.814 14.1568 102.825 14.1993C102.969 14.2865 103.492 14.4854 105.285 14.4854H126.538C132.1 14.4854 132.701 18.5158 132.701 20.2482C132.701 21.5939 132.905 22.0007 133.028 22.1237C133.15 22.2466 133.615 22.5328 135.295 22.5328H177.372C182.281 22.5328 182.743 21.3771 182.743 18.3169V9.30387C182.743 8.25548 183.591 7.40381 184.634 7.40381C185.678 7.40381 186.526 8.25548 186.526 9.30387V18.3169C186.526 24.0103 183.874 26.3329 177.372 26.3329Z" fill="#333333"/>
<path d="M67.8013 192H21.986C19.2939 192 18.1191 190.8 17.6051 189.791C16.0967 186.825 18.9134 182.513 19.8123 181.264C20.4241 180.412 21.6055 180.222 22.4532 180.837C23.2987 181.451 23.49 182.638 22.8804 183.488C21.5944 185.285 20.7667 187.462 20.9648 188.039C21.0337 188.077 21.3052 188.202 21.986 188.202H67.8013C68.9182 188.202 69.7102 187.943 69.9238 187.507C70.242 186.852 69.8504 185.198 68.2329 183.117C67.5899 182.29 67.7367 181.096 68.56 180.45C69.3832 179.804 70.5713 179.951 71.2143 180.778C73.6683 183.937 74.4181 186.919 73.3213 189.172C72.8095 190.227 71.4101 192 67.8013 192Z" fill="#333333"/>
<path d="M318.824 32.2339H262.467V18.4551H315.86C316.904 18.4551 317.751 19.3068 317.751 20.3551C317.751 21.4035 316.904 22.2552 315.86 22.2552H266.249V28.4337H318.824C319.867 28.4337 320.715 29.2854 320.715 30.3338C320.715 31.3822 319.867 32.2339 318.824 32.2339Z" fill="#333333"/>
<path d="M514.001 144.092H338.825L338.351 143.779C338.029 143.567 330.404 138.441 324.624 127.631C321.24 121.3 319.193 114.319 318.541 106.884C317.731 97.65 319.086 87.6937 322.566 77.2948C327.34 63.0309 324.677 48.0093 321.604 37.9211C318.238 26.8761 313.653 19.1485 313.608 19.0725L313.339 18.6209V18.0934C313.339 12.3463 314.36 7.02832 321.773 7.02832H468.35C476.062 7.02832 483.649 10.8553 487.231 16.551C491.138 22.7608 494.001 28.7941 495.276 38.0462C496.609 47.712 496.064 60.4603 493.567 78.1688C490.927 96.89 495.899 112.978 500.536 123.178C505.562 134.234 511.238 140.882 511.293 140.949L514.001 144.092ZM339.995 140.292H506.011C503.773 137.178 500.322 131.856 497.094 124.756C492.248 114.093 487.051 97.2655 489.821 77.6346C495.152 39.8323 490.784 29.3149 484.034 18.5807C481.161 14.0161 474.714 10.8284 468.35 10.8284H321.773C318.625 10.8284 317.197 11.4789 317.123 17.5837C318.196 19.4614 322.127 26.6884 325.193 36.714C328.45 47.361 331.258 63.2545 326.152 78.5086C320.176 96.3625 320.752 112.229 327.865 125.664C332.42 134.263 338.354 139.067 339.995 140.292Z" fill="#333333"/>
<path d="M357.668 93.4674C354.139 93.4674 350.916 92.6694 347.999 91.0733C345.08 89.4773 342.746 87.2218 340.999 84.3069C339.25 81.3897 338.376 78.0635 338.376 74.326C338.376 70.8791 339.186 67.7048 340.806 64.8033C342.425 61.9018 344.71 59.5748 347.66 57.8178C350.611 56.0631 353.946 55.1846 357.668 55.1846C361.228 55.1846 364.467 55.9826 367.387 57.5786C370.306 59.1747 372.637 61.4302 374.386 64.3451C376.133 67.2622 377.007 70.5885 377.007 74.326C377.007 77.7752 376.197 80.9494 374.577 83.8486C372.958 86.7479 370.664 89.0772 367.698 90.8319C364.732 92.5889 361.39 93.4674 357.668 93.4674ZM357.668 86.8932C359.849 86.8932 361.831 86.3768 363.611 85.3463C365.391 84.3158 366.801 82.8338 367.845 80.9002C368.886 78.9666 369.409 76.776 369.409 74.326C369.409 72.0057 368.928 69.8955 367.965 67.9932C367.004 66.0909 365.624 64.5776 363.829 63.4487C362.031 62.3221 359.98 61.7565 357.67 61.7565C355.49 61.7565 353.516 62.2729 351.752 63.3034C349.988 64.3362 348.584 65.8093 347.543 67.7272C346.499 69.6451 345.978 71.8447 345.978 74.326C345.978 76.6463 346.459 78.7565 347.422 80.6588C348.386 82.5611 349.756 84.0744 351.536 85.2033C353.314 86.3277 355.359 86.8932 357.668 86.8932Z" fill="#F21313"/>
<path d="M394.762 93.4672C392.357 93.4672 390.152 92.9195 388.147 91.8242C386.142 90.7289 384.547 89.182 383.359 87.1836C382.171 85.1852 381.579 82.914 381.579 80.3679C381.579 78.0163 382.133 75.848 383.239 73.8675C384.345 71.8847 385.909 70.2999 387.929 69.1062C389.949 67.9147 392.228 67.3179 394.762 67.3179C397.167 67.3179 399.372 67.8566 401.376 68.9363C403.381 70.016 404.976 71.5539 406.164 73.5523C407.35 75.5507 407.944 77.8219 407.944 80.3679C407.944 82.7531 407.39 84.937 406.285 86.9176C405.179 88.8981 403.615 90.4874 401.594 91.6789C399.574 92.8703 397.296 93.4672 394.762 93.4672ZM394.762 87.4719C396.655 87.4719 398.208 86.8125 399.43 85.4914C400.649 84.1703 401.258 82.4625 401.258 80.3679C401.258 78.3069 400.658 76.6148 399.454 75.2937C398.25 73.9726 396.686 73.3109 394.762 73.3109C392.837 73.3109 391.273 73.9726 390.072 75.2937C388.868 76.6148 388.267 78.3069 388.267 80.3679C388.267 82.4625 388.877 84.1703 390.096 85.4914C391.315 86.8125 392.871 87.4719 394.762 87.4719Z" fill="#F21313"/>
<path d="M413.671 68.0894H420.07L420.166 71.2792C421.832 68.637 424.544 67.3159 428.295 67.3159C430.445 67.3159 432.376 67.8479 434.094 68.912C435.809 69.976 437.164 71.4983 438.158 73.4788C439.153 75.4616 439.649 77.7417 439.649 80.319C439.649 82.7042 439.16 84.8859 438.181 86.8686C437.202 88.8514 435.816 90.4452 434.02 91.6546C432.225 92.8639 430.202 93.4674 427.957 93.4674C426.322 93.4674 424.847 93.1523 423.532 92.5241C422.217 91.896 421.158 91.0018 420.357 89.8417V104.537H413.669V68.0894H413.671ZM426.469 87.4722C428.393 87.4722 429.957 86.8128 431.159 85.4917C432.363 84.1706 432.963 82.4784 432.963 80.4151C432.963 78.3206 432.354 76.6128 431.134 75.2917C429.915 73.9706 428.36 73.3089 426.469 73.3089C424.575 73.3089 423.02 73.9706 421.801 75.2917C420.582 76.6128 419.972 78.3206 419.972 80.4151C419.972 82.4784 420.573 84.1706 421.776 85.4917C422.98 86.8128 424.544 87.4722 426.469 87.4722Z" fill="#F21313"/>
<path d="M452.929 93.4672C451.069 93.4672 449.305 93.2504 447.636 92.8145C445.968 92.3808 444.684 91.8085 443.787 91.0977L444.604 85.6367C445.694 86.3788 446.969 86.9735 448.428 87.425C449.888 87.8765 451.29 88.1023 452.638 88.1023C455.363 88.1023 456.727 87.4093 456.727 86.0234C456.727 85.2813 456.438 84.718 455.862 84.3313C455.283 83.9445 454.082 83.493 452.253 82.9788C449.365 82.1741 447.305 81.1503 446.07 79.9097C444.835 78.6691 444.217 77.0015 444.217 74.9069C444.217 72.5553 445.1 70.7022 446.862 69.3476C448.626 67.9952 451.047 67.3179 454.126 67.3179C455.635 67.3179 457.141 67.4945 458.649 67.8499C460.158 68.2053 461.391 68.6703 462.354 69.2515L461.584 74.5694C460.59 73.9882 459.444 73.53 458.144 73.1924C456.845 72.8549 455.601 72.685 454.415 72.685C452.073 72.685 450.902 73.3131 450.902 74.5694C450.902 75.278 451.183 75.8346 451.743 76.237C452.304 76.6393 453.419 77.082 455.087 77.567C458.167 78.4701 460.338 79.5341 461.606 80.7569C462.872 81.9819 463.506 83.6741 463.506 85.8334C463.506 88.2186 462.57 90.0873 460.692 91.4397C458.823 92.7899 456.231 93.4672 452.929 93.4672Z" fill="#F21313"/>
<path d="M473.953 92.9822C472.765 92.9822 471.788 92.6045 471.018 91.8467C470.248 91.0889 469.863 90.1299 469.863 88.9698C469.863 87.8431 470.248 86.9088 471.018 86.1666C471.788 85.4267 472.765 85.0556 473.953 85.0556C475.139 85.0556 476.126 85.4178 476.912 86.1443C477.697 86.8685 478.091 87.8118 478.091 88.972C478.091 90.1322 477.706 91.0911 476.936 91.8489C476.167 92.6045 475.172 92.9822 473.953 92.9822ZM470.346 54.5049H477.564L476.985 80.4128H470.971L470.346 54.5049Z" fill="#F21313"/>
<path d="M495.911 34.2724C494.647 34.2724 493.39 34.0019 492.242 33.4789C491.29 33.0452 490.869 31.9186 491.301 30.9641C491.733 30.0073 492.854 29.5849 493.804 30.0185C494.563 30.365 495.373 30.5148 496.214 30.4634C499.024 30.2935 501.171 27.8592 501.002 25.0359C500.919 23.6679 500.312 22.416 499.293 21.5063C498.274 20.5965 496.961 20.1427 495.602 20.2254C493.72 20.3394 492.06 21.4794 491.27 23.2029C490.832 24.1552 489.708 24.5732 488.76 24.1328C487.812 23.6924 487.396 22.5658 487.835 21.6113C489.21 18.6137 492.1 16.6287 495.375 16.432C497.742 16.2867 500.027 17.0802 501.803 18.6629C503.578 20.2455 504.635 22.4272 504.777 24.8079C505.071 29.7212 501.331 33.9617 496.441 34.2568C496.263 34.268 496.087 34.2724 495.911 34.2724Z" fill="#333333"/>
</g>
<defs>
<clipPath id="clip0">
<rect width="514" height="192" fill="white"/>
</clipPath>
</defs>
</svg>
