<svg width="19px" height="16px" viewBox="0 0 19px 16px" fill="none" xmlns="http://www.w3.org/2000/svg">
    <path d="M17.7471 2C17.9763 2 18.1638 2.09375 18.3096 2.28125C18.4763 2.46875 18.5284 2.67708 18.4659 2.90625L17.0596 9.40625C17.018 9.57292 16.9242 9.71875 16.7784 9.84375C16.6534 9.94792 16.5075 10 16.3409 10H6.55963L6.87213 11.5H15.6846C15.9138 11.5 16.1013 11.5938 16.2471 11.7812C16.4138 11.9688 16.4659 12.1771 16.4034 12.4062L16.3721 12.5625C16.7888 12.9583 16.9971 13.4375 16.9971 14C16.9971 14.5625 16.7992 15.0312 16.4034 15.4062C16.0284 15.8021 15.5596 16 14.9971 16C14.4346 16 13.9555 15.8021 13.5596 15.4062C13.1846 15.0312 12.9971 14.5625 12.9971 14C12.9971 13.6458 13.0909 13.3125 13.2784 13H8.71588C8.90338 13.3125 8.99713 13.6458 8.99713 14C8.99713 14.5625 8.79921 15.0312 8.40338 15.4062C8.02838 15.8021 7.55963 16 6.99713 16C6.43463 16 5.95546 15.8021 5.55963 15.4062C5.18463 15.0312 4.99713 14.5625 4.99713 14C4.99713 13.4583 5.18463 13 5.55963 12.625L3.37213 1.5H0.872131C0.622131 1.5 0.497131 1.375 0.497131 1.125V0.375C0.497131 0.125 0.622131 0 0.872131 0H3.99713C4.12213 0 4.23671 0.03125 4.34088 0.09375C4.44505 0.135417 4.52838 0.208333 4.59088 0.3125C4.65338 0.395833 4.70546 0.489583 4.74713 0.59375L4.99713 2H17.7471ZM15.5284 13.4688C15.3825 13.3229 15.2055 13.25 14.9971 13.25C14.7888 13.25 14.6117 13.3229 14.4659 13.4688C14.32 13.6146 14.2471 13.7917 14.2471 14C14.2471 14.2083 14.32 14.3854 14.4659 14.5312C14.6117 14.6771 14.7888 14.75 14.9971 14.75C15.2055 14.75 15.3825 14.6771 15.5284 14.5312C15.6742 14.3854 15.7471 14.2083 15.7471 14C15.7471 13.7917 15.6742 13.6146 15.5284 13.4688ZM7.52838 13.4688C7.38255 13.3229 7.20546 13.25 6.99713 13.25C6.7888 13.25 6.61171 13.3229 6.46588 13.4688C6.32005 13.6146 6.24713 13.7917 6.24713 14C6.24713 14.2083 6.32005 14.3854 6.46588 14.5312C6.61171 14.6771 6.7888 14.75 6.99713 14.75C7.20546 14.75 7.38255 14.6771 7.52838 14.5312C7.67421 14.3854 7.74713 14.2083 7.74713 14C7.74713 13.7917 7.67421 13.6146 7.52838 13.4688ZM15.7159 8.5L16.8096 3.5H5.30963L6.27838 8.5H15.7159ZM8.99713 6.25V5.75C8.99713 5.5 9.12213 5.375 9.37213 5.375H10.3721V4.375C10.3721 4.125 10.4971 4 10.7471 4H11.2471C11.4971 4 11.6221 4.125 11.6221 4.375V5.375H12.6221C12.8721 5.375 12.9971 5.5 12.9971 5.75V6.25C12.9971 6.5 12.8721 6.625 12.6221 6.625H11.6221V7.625C11.6221 7.875 11.4971 8 11.2471 8H10.7471C10.4971 8 10.3721 7.875 10.3721 7.625V6.625H9.37213C9.12213 6.625 8.99713 6.5 8.99713 6.25Z" fill="#FF881A"/>
</svg>
