<svg width="19px" height="19px" viewBox="0 0 19px 19px" fill="none" xmlns="http://www.w3.org/2000/svg">
    <path d="M17.332 2.85156C17.8008 3.32031 18.0352 3.88281 18.0352 4.53906C18.0352 5.19531 17.8008 5.75781 17.332 6.22656L6.25781 17.3711L1.01953 18.25C0.738281 18.2969 0.492188 18.2148 0.28125 18.0039C0.0703125 17.793 -0.0117188 17.5469 0.0351562 17.2656L0.914062 12.0273L12.0586 0.953125C12.5273 0.484375 13.0898 0.25 13.7461 0.25C14.4023 0.25 14.9648 0.484375 15.4336 0.953125L17.332 2.85156ZM4.28906 10.8672H5.73047V12.5547H7.41797V13.9961L13.3594 8.01953L10.2656 4.92578L4.28906 10.8672ZM2.91797 16.3516L5.51953 15.9297L6.15234 15.2969V13.8203H4.46484V12.1328H2.98828L2.35547 12.7656L1.93359 15.3672L2.91797 16.3516ZM16.2422 5.13672C16.4062 4.97266 16.4883 4.77344 16.4883 4.53906C16.4883 4.30469 16.3945 4.10547 16.207 3.94141L14.3438 2.04297C14.1797 1.87891 13.9805 1.79688 13.7461 1.79688C13.5117 1.79688 13.3125 1.87891 13.1484 2.04297L11.4609 3.73047L14.5547 6.82422L16.2422 5.13672Z" fill="#333333"/>
</svg>
