<svg width="41px" height="38px" viewBox="0 0 41px 38px" fill="none" xmlns="http://www.w3.org/2000/svg">
    <path d="M27 13.6172L34.3828 16.3594C35.4609 16.7812 36 17.5781 36 18.75V26.2734C36 27.3047 35.5312 28.0547 34.5938 28.5234L27.7031 31.9688C26.9062 32.3438 26.1328 32.3438 25.3828 31.9688L18 28.3125L10.6172 31.9688C9.86719 32.3438 9.09375 32.3438 8.29688 31.9688L1.40625 28.5234C0.46875 28.0547 0 27.3047 0 26.2734V18.75C0 17.5781 0.539062 16.7812 1.61719 16.3594L9 13.6172V5.67188C9 4.54688 9.53906 3.77344 10.6172 3.35156L17.0859 0.890625C17.6953 0.65625 18.3047 0.65625 18.9141 0.890625L25.3828 3.35156C26.4609 3.77344 27 4.54688 27 5.67188V13.6172ZM18.8438 16.0781L25.3125 13.8281V6.9375L18.8438 9.1875V16.0781ZM10.6875 5.10938L18 7.71094L25.3125 5.10938L18 2.36719L10.6875 5.10938ZM10.6875 6.9375V13.8281L17.1562 16.0781V9.1875L10.6875 6.9375ZM8.57812 30.1406V22.8984L1.75781 20.1562V26.6953L8.57812 30.1406ZM1.75781 18.2578L9.49219 21.3516L17.0859 18.2578V18.1875L9.49219 15.375L1.75781 18.2578ZM10.3359 22.8984V30.1406L17.0859 26.7656V20.1562L10.3359 22.8984ZM25.6641 30.1406V22.8984L18.9141 20.2266V26.7656L25.6641 30.1406ZM34.2422 26.6953V20.1562L27.4219 22.8984V30.1406L34.2422 26.6953ZM34.2422 18.2578L26.5078 15.375L18.9141 18.1875V18.2578L26.5078 21.3516L34.2422 18.2578Z" fill="#333333"/>
</svg>
