<svg width="27px" height="24px" viewBox="0 0 27px 24px" fill="none" xmlns="http://www.w3.org/2000/svg">
    <path d="M25.875 3C26.2188 3 26.5 3.14062 26.7188 3.42188C26.9688 3.70312 27.0469 4.01563 26.9531 4.35938L24.9375 14.1094C24.9062 14.2344 24.8594 14.3594 24.7969 14.4844C24.7344 14.5781 24.6562 14.6719 24.5625 14.7656C24.4688 14.8281 24.3594 14.8906 24.2344 14.9531C24.1094 14.9844 23.9844 15 23.8594 15H8.29688L8.85938 18H22.7344C23.3281 18 23.7031 18.2812 23.8594 18.8438C24.4531 19.4375 24.75 20.1562 24.75 21C24.75 21.8438 24.4531 22.5469 23.8594 23.1094C23.2969 23.7031 22.5938 24 21.75 24C20.9062 24 20.1875 23.7031 19.5938 23.1094C19.0312 22.5469 18.75 21.8438 18.75 21C18.75 20.4688 18.8906 19.9688 19.1719 19.5H12.3281C12.6094 19.9688 12.75 20.4688 12.75 21C12.75 21.8438 12.4531 22.5469 11.8594 23.1094C11.2969 23.7031 10.5938 24 9.75 24C8.90625 24 8.1875 23.7031 7.59375 23.1094C7.03125 22.5469 6.75 21.8438 6.75 21C6.75 20.2188 7.01562 19.5469 7.54688 18.9844L4.26562 1.5H0.5625C0.1875 1.5 0 1.3125 0 0.9375V0.5625C0 0.1875 0.1875 0 0.5625 0H4.54688C4.82812 0 5.0625 0.09375 5.25 0.28125C5.46875 0.4375 5.60938 0.65625 5.67188 0.9375L6.04688 3H25.875ZM10.7812 22.0312C11.0938 21.75 11.25 21.4062 11.25 21C11.25 20.5938 11.0938 20.25 10.7812 19.9688C10.5 19.6562 10.1562 19.5 9.75 19.5C9.34375 19.5 8.98438 19.6562 8.67188 19.9688C8.39062 20.25 8.25 20.5938 8.25 21C8.25 21.4062 8.39062 21.75 8.67188 22.0312C8.98438 22.3438 9.34375 22.5 9.75 22.5C10.1562 22.5 10.5 22.3438 10.7812 22.0312ZM20.6719 22.0312C20.9844 22.3438 21.3438 22.5 21.75 22.5C22.1562 22.5 22.5 22.3438 22.7812 22.0312C23.0938 21.75 23.25 21.4062 23.25 21C23.25 20.5938 23.0938 20.25 22.7812 19.9688C22.5 19.6562 22.1562 19.5 21.75 19.5C21.3438 19.5 20.9844 19.6562 20.6719 19.9688C20.3906 20.25 20.25 20.5938 20.25 21C20.25 21.4062 20.3906 21.75 20.6719 22.0312ZM23.5312 13.5L25.4062 4.5H6.32812L8.01562 13.5H23.5312Z" fill="#333333"/>
</svg>
