<svg width="22px" height="22px" viewBox="0 0 22px 22px" fill="none" xmlns="http://www.w3.org/2000/svg">
    <path d="M0.46875 21.3125L0.234375 21.0781C-0.046875 20.7969 -0.046875 20.5312 0.234375 20.2812L7.96875 12.5H5.10938C4.73438 12.5 4.54688 12.3125 4.54688 11.9375V11.5625C4.54688 11.1875 4.73438 11 5.10938 11H9.79688C10.0156 11 10.1875 11.0781 10.3125 11.2344C10.4688 11.3594 10.5469 11.5312 10.5469 11.75V16.4375C10.5469 16.8125 10.3594 17 9.98438 17H9.60938C9.23438 17 9.04688 16.8125 9.04688 16.4375V13.5781L1.26562 21.3125C1.01562 21.5938 0.75 21.5938 0.46875 21.3125ZM11.2969 11C11.0781 11 10.8906 10.9375 10.7344 10.8125C10.6094 10.6562 10.5469 10.4688 10.5469 10.25V5.5625C10.5469 5.1875 10.7344 5 11.1094 5H11.4844C11.8594 5 12.0469 5.1875 12.0469 5.5625V8.42188L19.8281 0.6875C20.0781 0.40625 20.3438 0.40625 20.625 0.6875L20.8594 0.921875C21.1406 1.20312 21.1406 1.46875 20.8594 1.71875L13.125 9.5H15.9844C16.3594 9.5 16.5469 9.6875 16.5469 10.0625V10.4375C16.5469 10.8125 16.3594 11 15.9844 11H11.2969Z" fill="#333333"/>
</svg>

