<svg width="27" height="37" viewBox="0 0 27 37" fill="none" xmlns="http://www.w3.org/2000/svg">
<path d="M23.625 5C24.5625 5 25.3594 5.32813 26.0156 5.98438C26.6719 6.64062 27 7.4375 27 8.375V33.125C27 34.0625 26.6719 34.8594 26.0156 35.5156C25.3594 36.1719 24.5625 36.5 23.625 36.5H3.375C2.4375 36.5 1.64062 36.1719 0.984375 35.5156C0.328125 34.8594 0 34.0625 0 33.125V8.375C0 7.4375 0.328125 6.64062 0.984375 5.98438C1.64062 5.32813 2.4375 5 3.375 5H9.63281C9.58594 4.8125 9.5625 4.625 9.5625 4.4375C9.5625 3.35938 9.9375 2.44531 10.6875 1.69531C11.4844 0.898438 12.4219 0.5 13.5 0.5C14.5781 0.5 15.4922 0.898438 16.2422 1.69531C17.0391 2.44531 17.4375 3.35938 17.4375 4.4375C17.4375 4.625 17.4141 4.8125 17.3672 5H23.625ZM14.6953 3.24219C14.3672 2.91406 13.9688 2.75 13.5 2.75C13.0312 2.75 12.6328 2.91406 12.3047 3.24219C11.9766 3.57031 11.8125 3.96875 11.8125 4.4375C11.8125 4.90625 11.9766 5.30469 12.3047 5.63281C12.6328 5.96094 13.0312 6.125 13.5 6.125C13.9688 6.125 14.3672 5.96094 14.6953 5.63281C15.0234 5.30469 15.1875 4.90625 15.1875 4.4375C15.1875 3.96875 15.0234 3.57031 14.6953 3.24219ZM24.75 33.125V8.375C24.75 8.04687 24.6328 7.78906 24.3984 7.60156C24.2109 7.36719 23.9531 7.25 23.625 7.25H20.25V8.65625C20.25 9.21875 19.9688 9.5 19.4062 9.5H7.59375C7.03125 9.5 6.75 9.21875 6.75 8.65625V7.25H3.375C3.04688 7.25 2.76562 7.36719 2.53125 7.60156C2.34375 7.78906 2.25 8.04687 2.25 8.375V33.125C2.25 33.4531 2.34375 33.7109 2.53125 33.8984C2.76562 34.1328 3.04688 34.25 3.375 34.25H23.625C23.9531 34.25 24.2109 34.1328 24.3984 33.8984C24.6328 33.7109 24.75 33.4531 24.75 33.125ZM6.67969 24.0547C7.00781 23.7266 7.40625 23.5625 7.875 23.5625C8.34375 23.5625 8.74219 23.7266 9.07031 24.0547C9.39844 24.3828 9.5625 24.7812 9.5625 25.25C9.5625 25.7188 9.39844 26.1172 9.07031 26.4453C8.74219 26.7734 8.34375 26.9375 7.875 26.9375C7.40625 26.9375 7.00781 26.7734 6.67969 26.4453C6.35156 26.1172 6.1875 25.7188 6.1875 25.25C6.1875 24.7812 6.35156 24.3828 6.67969 24.0547ZM19.6875 24.125C20.0625 24.125 20.25 24.3125 20.25 24.6875V25.8125C20.25 26.1875 20.0625 26.375 19.6875 26.375H11.8125C11.4375 26.375 11.25 26.1875 11.25 25.8125V24.6875C11.25 24.3125 11.4375 24.125 11.8125 24.125H19.6875ZM8.85938 19.4844C8.67188 19.6719 8.50781 19.6719 8.36719 19.4844L5.76562 16.8828C5.57812 16.6953 5.57812 16.5078 5.76562 16.3203L6.60938 15.4766C6.79688 15.2891 6.98438 15.2891 7.17188 15.4766L8.64844 16.9531L11.9531 13.5781C12.1406 13.4375 12.3281 13.4375 12.5156 13.5781L13.3594 14.4922C13.5469 14.6797 13.5469 14.8672 13.3594 15.0547L8.85938 19.4844ZM19.6875 17.375C20.0625 17.375 20.25 17.5625 20.25 17.9375V19.0625C20.25 19.4375 20.0625 19.625 19.6875 19.625H11.9531L14.2031 17.375H19.6875Z" fill="#333333"/>
</svg>
