<svg width="127" height="108" viewBox="0 0 127 108" fill="none" xmlns="http://www.w3.org/2000/svg">
<path d="M19.2251 104.224C18.5531 104.224 17.9371 104.07 17.3771 103.762C16.8264 103.445 16.3831 103.001 16.0471 102.432C15.7204 101.863 15.5571 101.219 15.5571 100.5C15.5571 99.8373 15.7111 99.226 16.0191 98.666C16.3364 98.0967 16.7751 97.6393 17.3351 97.294C17.8951 96.9487 18.5251 96.776 19.2251 96.776C19.8971 96.776 20.5084 96.9347 21.0591 97.252C21.6191 97.56 22.0624 97.9987 22.3891 98.568C22.7251 99.1373 22.8931 99.7813 22.8931 100.5C22.8931 101.163 22.7344 101.779 22.4171 102.348C22.1091 102.908 21.6751 103.361 21.1151 103.706C20.5551 104.051 19.9251 104.224 19.2251 104.224ZM19.2251 103.16C19.9438 103.16 20.5318 102.913 20.9891 102.418C21.4464 101.923 21.6751 101.284 21.6751 100.5C21.6751 99.716 21.4464 99.0767 20.9891 98.582C20.5318 98.0873 19.9438 97.84 19.2251 97.84C18.5064 97.84 17.9184 98.0873 17.4611 98.582C17.0038 99.0767 16.7751 99.716 16.7751 100.5C16.7751 101.284 17.0038 101.923 17.4611 102.418C17.9184 102.913 18.5064 103.16 19.2251 103.16ZM24.9202 97H26.0402L26.0542 98.456C26.2502 97.9613 26.5348 97.5787 26.9082 97.308C27.2815 97.0373 27.7062 96.902 28.1822 96.902C28.3222 96.902 28.4715 96.9207 28.6302 96.958C28.7982 96.986 28.9242 97.0187 29.0082 97.056L28.8822 98.176C28.6115 98.064 28.3315 98.008 28.0422 98.008C27.4355 98.008 26.9595 98.2367 26.6142 98.694C26.2782 99.142 26.1102 99.7627 26.1102 100.556V104H24.9202V97ZM36.7726 104.224C36.1472 104.224 35.5779 104.07 35.0646 103.762C34.5606 103.454 34.1592 103.015 33.8606 102.446C33.5619 101.877 33.4126 101.228 33.4126 100.5C33.4126 99.8467 33.5572 99.24 33.8466 98.68C34.1452 98.1107 34.5652 97.6533 35.1066 97.308C35.6479 96.9533 36.2499 96.776 36.9126 96.776C37.4446 96.776 37.9299 96.9067 38.3686 97.168C38.8166 97.4293 39.1759 97.798 39.4466 98.274V92.66H40.6366V104H39.4746L39.4466 102.726C39.1759 103.211 38.8072 103.585 38.3406 103.846C37.8832 104.098 37.3606 104.224 36.7726 104.224ZM37.0806 103.16C37.7992 103.16 38.3872 102.913 38.8446 102.418C39.3019 101.923 39.5306 101.284 39.5306 100.5C39.5306 99.716 39.3019 99.0767 38.8446 98.582C38.3872 98.0873 37.7992 97.84 37.0806 97.84C36.3619 97.84 35.7739 98.0873 35.3166 98.582C34.8592 99.0767 34.6306 99.716 34.6306 100.5C34.6306 101.284 34.8592 101.923 35.3166 102.418C35.7739 102.913 36.3619 103.16 37.0806 103.16ZM43.1584 97H44.2784L44.2924 98.456C44.4884 97.9613 44.7731 97.5787 45.1464 97.308C45.5198 97.0373 45.9444 96.902 46.4204 96.902C46.5604 96.902 46.7098 96.9207 46.8684 96.958C47.0364 96.986 47.1624 97.0187 47.2464 97.056L47.1204 98.176C46.8498 98.064 46.5698 98.008 46.2804 98.008C45.6738 98.008 45.1978 98.2367 44.8524 98.694C44.5164 99.142 44.3484 99.7627 44.3484 100.556V104H43.1584V97ZM51.5929 104.224C50.9676 104.224 50.3982 104.07 49.8849 103.762C49.3809 103.454 48.9796 103.015 48.6809 102.446C48.3822 101.877 48.2329 101.228 48.2329 100.5C48.2329 99.8467 48.3776 99.24 48.6669 98.68C48.9656 98.1107 49.3856 97.6533 49.9269 97.308C50.4682 96.9533 51.0702 96.776 51.7329 96.776C52.2649 96.776 52.7502 96.9067 53.1889 97.168C53.6369 97.4293 53.9962 97.798 54.2669 98.274L54.2949 97H55.4569V104H54.2949L54.2669 102.726C53.9962 103.211 53.6276 103.585 53.1609 103.846C52.7036 104.098 52.1809 104.224 51.5929 104.224ZM51.9009 103.16C52.6196 103.16 53.2076 102.913 53.6649 102.418C54.1222 101.923 54.3509 101.284 54.3509 100.5C54.3509 99.716 54.1222 99.0767 53.6649 98.582C53.2076 98.0873 52.6196 97.84 51.9009 97.84C51.1822 97.84 50.5942 98.0873 50.1369 98.582C49.6796 99.0767 49.4509 99.716 49.4509 100.5C49.4509 101.284 49.6796 101.923 50.1369 102.418C50.5942 102.913 51.1822 103.16 51.9009 103.16ZM60.9048 107.556C60.3914 107.556 59.8874 107.495 59.3928 107.374C58.9074 107.262 58.5388 107.113 58.2868 106.926L58.4408 105.862C58.7581 106.058 59.1314 106.212 59.5608 106.324C59.9994 106.445 60.4474 106.506 60.9048 106.506C61.7914 106.506 62.4494 106.277 62.8788 105.82C63.3081 105.363 63.5228 104.663 63.5228 103.72V102.726C63.2521 103.211 62.8834 103.585 62.4168 103.846C61.9594 104.098 61.4368 104.224 60.8488 104.224C60.2234 104.224 59.6541 104.07 59.1408 103.762C58.6368 103.454 58.2354 103.015 57.9368 102.446C57.6381 101.877 57.4888 101.228 57.4888 100.5C57.4888 99.8467 57.6334 99.24 57.9228 98.68C58.2214 98.1107 58.6414 97.6533 59.1828 97.308C59.7241 96.9533 60.3261 96.776 60.9888 96.776C61.5208 96.776 62.0061 96.9067 62.4448 97.168C62.8928 97.4293 63.2521 97.798 63.5228 98.274L63.5508 97H64.7128V103.594C64.7128 104.901 64.3908 105.885 63.7468 106.548C63.1121 107.22 62.1648 107.556 60.9048 107.556ZM61.1568 103.16C61.8754 103.16 62.4634 102.913 62.9208 102.418C63.3781 101.923 63.6068 101.284 63.6068 100.5C63.6068 99.716 63.3781 99.0767 62.9208 98.582C62.4634 98.0873 61.8754 97.84 61.1568 97.84C60.4381 97.84 59.8501 98.0873 59.3928 98.582C58.9354 99.0767 58.7068 99.716 58.7068 100.5C58.7068 101.284 58.9354 101.923 59.3928 102.418C59.8501 102.913 60.4381 103.16 61.1568 103.16ZM70.3791 97H71.5691V104H70.3791V97ZM70.9671 95.124C70.7338 95.124 70.5378 95.0447 70.3791 94.886C70.2298 94.7273 70.1551 94.5267 70.1551 94.284C70.1551 94.0413 70.2298 93.8407 70.3791 93.682C70.5378 93.5233 70.7338 93.444 70.9671 93.444C71.2005 93.444 71.3918 93.5233 71.5411 93.682C71.6998 93.8407 71.7791 94.0413 71.7791 94.284C71.7791 94.5267 71.6998 94.7273 71.5411 94.886C71.3918 95.0447 71.2005 95.124 70.9671 95.124ZM74.7702 98.022H73.1602V97H74.7702V94.984H75.9602V97H77.9202V98.022H75.9602V104H74.7702V98.022ZM82.7385 92.66H83.9285V98.106C84.1338 97.686 84.4372 97.3593 84.8385 97.126C85.2398 96.8927 85.6972 96.776 86.2105 96.776C87.0412 96.776 87.6805 97.0373 88.1285 97.56C88.5765 98.0733 88.8005 98.8107 88.8005 99.772V104H87.6105V99.982C87.6105 99.254 87.4705 98.7127 87.1905 98.358C86.9198 98.0033 86.4998 97.826 85.9305 97.826C85.3052 97.826 84.8152 98.0313 84.4605 98.442C84.1058 98.8527 83.9285 99.4173 83.9285 100.136V104H82.7385V92.66ZM94.6714 104.224C93.4768 104.224 92.5294 103.893 91.8294 103.23C91.1388 102.567 90.7934 101.667 90.7934 100.528C90.7934 99.828 90.9334 99.1933 91.2134 98.624C91.5028 98.0547 91.9134 97.6067 92.4454 97.28C92.9774 96.944 93.5841 96.776 94.2654 96.776C95.2081 96.776 95.9688 97.0933 96.5474 97.728C97.1354 98.3627 97.4294 99.1933 97.4294 100.22C97.4294 100.341 97.4248 100.453 97.4154 100.556C97.4154 100.659 97.4108 100.766 97.4014 100.878H91.9694C92.0534 101.615 92.3334 102.18 92.8094 102.572C93.2854 102.964 93.9248 103.16 94.7274 103.16C95.5488 103.16 96.3514 102.969 97.1354 102.586L97.2754 103.594C96.9581 103.79 96.5661 103.944 96.0994 104.056C95.6421 104.168 95.1661 104.224 94.6714 104.224ZM96.2814 99.94C96.2441 99.2587 96.0434 98.7313 95.6794 98.358C95.3248 97.9847 94.8301 97.798 94.1954 97.798C93.5888 97.798 93.0894 97.9893 92.6974 98.372C92.3054 98.7453 92.0674 99.268 91.9834 99.94H96.2814ZM99.5959 97H100.716L100.73 98.456C100.926 97.9613 101.211 97.5787 101.584 97.308C101.957 97.0373 102.382 96.902 102.858 96.902C102.998 96.902 103.147 96.9207 103.306 96.958C103.474 96.986 103.6 97.0187 103.684 97.056L103.558 98.176C103.287 98.064 103.007 98.008 102.718 98.008C102.111 98.008 101.635 98.2367 101.29 98.694C100.954 99.142 100.786 99.7627 100.786 100.556V104H99.5959V97ZM108.548 104.224C107.354 104.224 106.406 103.893 105.706 103.23C105.016 102.567 104.67 101.667 104.67 100.528C104.67 99.828 104.81 99.1933 105.09 98.624C105.38 98.0547 105.79 97.6067 106.322 97.28C106.854 96.944 107.461 96.776 108.142 96.776C109.085 96.776 109.846 97.0933 110.424 97.728C111.012 98.3627 111.306 99.1933 111.306 100.22C111.306 100.341 111.302 100.453 111.292 100.556C111.292 100.659 111.288 100.766 111.278 100.878H105.846C105.93 101.615 106.21 102.18 106.686 102.572C107.162 102.964 107.802 103.16 108.604 103.16C109.426 103.16 110.228 102.969 111.012 102.586L111.152 103.594C110.835 103.79 110.443 103.944 109.976 104.056C109.519 104.168 109.043 104.224 108.548 104.224ZM110.158 99.94C110.121 99.2587 109.92 98.7313 109.556 98.358C109.202 97.9847 108.707 97.798 108.072 97.798C107.466 97.798 106.966 97.9893 106.574 98.372C106.182 98.7453 105.944 99.268 105.86 99.94H110.158Z" fill="#666666"/>
<path d="M55.6875 11.625L62.625 4.6875C62.875 4.40625 63.125 4.40625 63.375 4.6875L70.3125 11.625C70.5938 11.875 70.5938 12.1406 70.3125 12.4219L69.9844 12.75C69.7344 13.0312 69.4688 13.0312 69.1875 12.75L63.7969 7.3125V21.9375C63.7969 22.3125 63.6094 22.5 63.2344 22.5H62.7656C62.3906 22.5 62.2031 22.3125 62.2031 21.9375V7.3125L56.8125 12.75C56.5312 13.0312 56.2656 13.0312 56.0156 12.75L55.6875 12.4219C55.4062 12.1719 55.4062 11.9062 55.6875 11.625ZM54 2.0625C54 1.6875 54.1875 1.5 54.5625 1.5H71.4375C71.8125 1.5 72 1.6875 72 2.0625V2.4375C72 2.8125 71.8125 3 71.4375 3H54.5625C54.1875 3 54 2.8125 54 2.4375V2.0625Z" fill="#666666"/>
<rect x="16" y="33" width="94" height="49" rx="3" stroke="#333333" stroke-width="2"/>
<path d="M32.7492 54.154C31.6759 54.154 30.7146 53.9347 29.8652 53.496C29.0252 53.0573 28.3579 52.4273 27.8632 51.606C27.3779 50.7847 27.1352 49.8327 27.1352 48.75C27.1352 47.6953 27.3686 46.7527 27.8352 45.922C28.3112 45.082 28.9832 44.4193 29.8512 43.934C30.7286 43.4487 31.7366 43.206 32.8752 43.206C33.4539 43.206 34.0372 43.2853 34.6252 43.444C35.2226 43.6027 35.7359 43.8127 36.1652 44.074L35.8712 45.586C35.2926 45.306 34.7606 45.1007 34.2752 44.97C33.7992 44.8393 33.3186 44.774 32.8332 44.774C32.0866 44.774 31.4192 44.9327 30.8312 45.25C30.2526 45.5673 29.7952 46.0247 29.4592 46.622C29.1232 47.2193 28.9552 47.91 28.9552 48.694C28.9552 49.4687 29.1092 50.15 29.4172 50.738C29.7346 51.3167 30.1872 51.7693 30.7752 52.096C31.3726 52.4227 32.0726 52.586 32.8752 52.586C33.3699 52.586 33.8972 52.516 34.4572 52.376C35.0172 52.236 35.5539 52.04 36.0672 51.788L36.2492 53.314C35.1852 53.874 34.0186 54.154 32.7492 54.154ZM38.2326 42.66H39.8426V47.756C40.048 47.42 40.3326 47.1633 40.6966 46.986C41.07 46.7993 41.4993 46.706 41.9846 46.706C42.834 46.706 43.4826 46.9673 43.9306 47.49C44.388 48.0033 44.6166 48.7453 44.6166 49.716V54H43.0066V50.01C43.0066 49.3753 42.8853 48.904 42.6426 48.596C42.4093 48.288 42.0453 48.134 41.5506 48.134C41.0093 48.134 40.5893 48.3113 40.2906 48.666C39.992 49.0207 39.8426 49.5153 39.8426 50.15V54H38.2326V42.66ZM50.1639 54.224C49.4732 54.224 48.8432 54.07 48.2739 53.762C47.7046 53.4447 47.2472 52.9967 46.9019 52.418C46.5659 51.8393 46.3979 51.186 46.3979 50.458C46.3979 49.786 46.5566 49.1653 46.8739 48.596C47.1912 48.0267 47.6392 47.5693 48.2179 47.224C48.7966 46.8787 49.4452 46.706 50.1639 46.706C50.8546 46.706 51.4846 46.8647 52.0539 47.182C52.6232 47.49 53.0759 47.9333 53.4119 48.512C53.7572 49.0813 53.9299 49.73 53.9299 50.458C53.9299 51.1393 53.7712 51.7647 53.4539 52.334C53.1366 52.9033 52.6886 53.3607 52.1099 53.706C51.5312 54.0513 50.8826 54.224 50.1639 54.224ZM50.1639 52.782C50.7986 52.782 51.3119 52.5673 51.7039 52.138C52.1052 51.6993 52.3059 51.1393 52.3059 50.458C52.3059 49.7767 52.1052 49.2213 51.7039 48.792C51.3026 48.3627 50.7892 48.148 50.1639 48.148C49.5386 48.148 49.0252 48.3627 48.6239 48.792C48.2226 49.2213 48.0219 49.7767 48.0219 50.458C48.0219 51.1393 48.2179 51.6993 48.6099 52.138C49.0112 52.5673 49.5292 52.782 50.1639 52.782ZM59.1737 54.224C58.483 54.224 57.853 54.07 57.2837 53.762C56.7143 53.4447 56.257 52.9967 55.9117 52.418C55.5757 51.8393 55.4077 51.186 55.4077 50.458C55.4077 49.786 55.5663 49.1653 55.8837 48.596C56.201 48.0267 56.649 47.5693 57.2277 47.224C57.8063 46.8787 58.455 46.706 59.1737 46.706C59.8643 46.706 60.4943 46.8647 61.0637 47.182C61.633 47.49 62.0857 47.9333 62.4217 48.512C62.767 49.0813 62.9397 49.73 62.9397 50.458C62.9397 51.1393 62.781 51.7647 62.4637 52.334C62.1463 52.9033 61.6983 53.3607 61.1197 53.706C60.541 54.0513 59.8923 54.224 59.1737 54.224ZM59.1737 52.782C59.8083 52.782 60.3217 52.5673 60.7137 52.138C61.115 51.6993 61.3157 51.1393 61.3157 50.458C61.3157 49.7767 61.115 49.2213 60.7137 48.792C60.3123 48.3627 59.799 48.148 59.1737 48.148C58.5483 48.148 58.035 48.3627 57.6337 48.792C57.2323 49.2213 57.0317 49.7767 57.0317 50.458C57.0317 51.1393 57.2277 51.6993 57.6197 52.138C58.021 52.5673 58.539 52.782 59.1737 52.782ZM66.7301 54.224C66.2447 54.224 65.7687 54.1633 65.3021 54.042C64.8447 53.9207 64.4807 53.7573 64.2101 53.552L64.4201 52.194C64.7187 52.3993 65.0781 52.572 65.4981 52.712C65.9181 52.8427 66.3147 52.908 66.6881 52.908C67.6401 52.908 68.1161 52.6467 68.1161 52.124C68.1161 51.9373 68.0694 51.7927 67.9761 51.69C67.8921 51.578 67.7427 51.48 67.5281 51.396C67.3227 51.3027 67.0147 51.1953 66.6041 51.074C65.8014 50.8407 65.2227 50.5513 64.8681 50.206C64.5134 49.8513 64.3361 49.3987 64.3361 48.848C64.3361 48.1853 64.5834 47.6627 65.0781 47.28C65.5727 46.8973 66.2494 46.706 67.1081 46.706C67.5187 46.706 67.9341 46.7573 68.3541 46.86C68.7741 46.9627 69.1147 47.098 69.3761 47.266L69.1661 48.582C68.8767 48.414 68.5454 48.2787 68.1721 48.176C67.8081 48.0733 67.4627 48.022 67.1361 48.022C66.7347 48.022 66.4267 48.0827 66.2121 48.204C65.9974 48.3253 65.8901 48.5027 65.8901 48.736C65.8901 48.9133 65.9321 49.058 66.0161 49.17C66.1001 49.2727 66.2354 49.3707 66.4221 49.464C66.6181 49.548 66.9027 49.6413 67.2761 49.744C68.1534 49.996 68.7787 50.2993 69.1521 50.654C69.5254 51.0087 69.7121 51.48 69.7121 52.068C69.7121 52.7307 69.4414 53.258 68.9001 53.65C68.3681 54.0327 67.6447 54.224 66.7301 54.224ZM75.0256 54.224C74.223 54.224 73.5183 54.0793 72.9116 53.79C72.305 53.4913 71.8336 53.0573 71.4976 52.488C71.1616 51.9187 70.9936 51.2513 70.9936 50.486C70.9936 49.7673 71.1383 49.1233 71.4276 48.554C71.7263 47.9847 72.1463 47.5367 72.6876 47.21C73.229 46.874 73.8543 46.706 74.5636 46.706C75.2076 46.706 75.777 46.846 76.2716 47.126C76.7756 47.406 77.1676 47.812 77.4476 48.344C77.7276 48.876 77.8676 49.4967 77.8676 50.206C77.8676 50.5607 77.849 50.8267 77.8116 51.004H72.6036C72.7063 51.6107 72.977 52.082 73.4156 52.418C73.8636 52.7447 74.447 52.908 75.1656 52.908C76.0056 52.908 76.799 52.726 77.5456 52.362L77.7136 53.622C77.3683 53.8087 76.9576 53.9533 76.4816 54.056C76.0056 54.168 75.5203 54.224 75.0256 54.224ZM76.2996 49.786C76.2623 49.2073 76.0896 48.7593 75.7816 48.442C75.4736 48.1247 75.049 47.966 74.5076 47.966C73.9756 47.966 73.5416 48.1247 73.2056 48.442C72.8696 48.7593 72.6643 49.2073 72.5896 49.786H76.2996ZM85.7833 54.224C85.1486 54.224 84.5746 54.07 84.0613 53.762C83.5573 53.454 83.156 53.0153 82.8573 52.446C82.568 51.8767 82.4233 51.2187 82.4233 50.472C82.4233 49.8 82.568 49.1793 82.8573 48.61C83.1466 48.0407 83.5526 47.5833 84.0753 47.238C84.6073 46.8833 85.2 46.706 85.8533 46.706C86.376 46.706 86.8473 46.8133 87.2673 47.028C87.6873 47.2333 88.0186 47.5273 88.2613 47.91L88.2893 46.93H89.8433V54H88.2893L88.2613 53.034C87.748 53.8273 86.922 54.224 85.7833 54.224ZM86.1893 52.782C86.824 52.782 87.3373 52.5673 87.7293 52.138C88.1306 51.6993 88.3313 51.1393 88.3313 50.458C88.3313 49.7767 88.1306 49.2213 87.7293 48.792C87.328 48.3627 86.8146 48.148 86.1893 48.148C85.564 48.148 85.0506 48.3627 84.6493 48.792C84.248 49.2213 84.0473 49.7767 84.0473 50.458C84.0473 51.1393 84.2433 51.6993 84.6353 52.138C85.0366 52.5673 85.5546 52.782 86.1893 52.782ZM92.1135 46.93H93.6535L93.6675 47.84C93.8635 47.476 94.1528 47.196 94.5355 47C94.9182 46.804 95.3615 46.706 95.8655 46.706C96.7148 46.706 97.3635 46.9673 97.8115 47.49C98.2688 48.0033 98.4975 48.7453 98.4975 49.716V54H96.8875V50.01C96.8875 49.3753 96.7662 48.904 96.5235 48.596C96.2902 48.288 95.9262 48.134 95.4315 48.134C94.8902 48.134 94.4702 48.3113 94.1715 48.666C93.8728 49.0207 93.7235 49.5153 93.7235 50.15V54H92.1135V46.93ZM42.177 63.93H43.787V71H42.177V63.93ZM42.975 62.292C42.6856 62.292 42.443 62.1987 42.247 62.012C42.0603 61.816 41.967 61.5733 41.967 61.284C41.967 60.9947 42.0603 60.7567 42.247 60.57C42.443 60.3833 42.6856 60.29 42.975 60.29C43.2643 60.29 43.5023 60.3833 43.689 60.57C43.885 60.7567 43.983 60.9947 43.983 61.284C43.983 61.5733 43.885 61.816 43.689 62.012C43.5023 62.1987 43.2643 62.292 42.975 62.292ZM46.0598 63.93H47.5998L47.6138 64.84C47.8098 64.476 48.0991 64.196 48.4818 64C48.8644 63.804 49.3171 63.706 49.8398 63.706C50.3531 63.706 50.7918 63.818 51.1558 64.042C51.5291 64.2567 51.8184 64.574 52.0238 64.994C52.2384 64.5927 52.5558 64.28 52.9758 64.056C53.3958 63.8227 53.8624 63.706 54.3758 63.706C55.2344 63.706 55.8878 63.9673 56.3358 64.49C56.7931 65.0033 57.0218 65.7453 57.0218 66.716V71H55.4118V67.01C55.4118 66.3753 55.2904 65.904 55.0478 65.596C54.8144 65.288 54.4551 65.134 53.9698 65.134C53.4564 65.134 53.0551 65.3113 52.7658 65.666C52.4858 66.0207 52.3458 66.5153 52.3458 67.15V71H50.7358V67.01C50.7358 66.366 50.6191 65.8947 50.3858 65.596C50.1618 65.288 49.8024 65.134 49.3078 65.134C48.8038 65.134 48.4024 65.316 48.1038 65.68C47.8144 66.0347 47.6698 66.52 47.6698 67.136V71H46.0598V63.93ZM62.1651 71.224C61.5305 71.224 60.9565 71.07 60.4431 70.762C59.9391 70.454 59.5378 70.0153 59.2391 69.446C58.9498 68.8767 58.8051 68.2187 58.8051 67.472C58.8051 66.8 58.9498 66.1793 59.2391 65.61C59.5285 65.0407 59.9345 64.5833 60.4571 64.238C60.9891 63.8833 61.5818 63.706 62.2351 63.706C62.7578 63.706 63.2291 63.8133 63.6491 64.028C64.0691 64.2333 64.4005 64.5273 64.6431 64.91L64.6711 63.93H66.2251V71H64.6711L64.6431 70.034C64.1298 70.8273 63.3038 71.224 62.1651 71.224ZM62.5711 69.782C63.2058 69.782 63.7191 69.5673 64.1111 69.138C64.5125 68.6993 64.7131 68.1393 64.7131 67.458C64.7131 66.7767 64.5125 66.2213 64.1111 65.792C63.7098 65.3627 63.1965 65.148 62.5711 65.148C61.9458 65.148 61.4325 65.3627 61.0311 65.792C60.6298 66.2213 60.4291 66.7767 60.4291 67.458C60.4291 68.1393 60.6251 68.6993 61.0171 69.138C61.4185 69.5673 61.9365 69.782 62.5711 69.782ZM71.5473 74.556C71.0713 74.556 70.5767 74.5 70.0633 74.388C69.55 74.276 69.1487 74.1407 68.8593 73.982L69.0413 72.498C69.3493 72.694 69.7133 72.848 70.1333 72.96C70.5627 73.072 70.9967 73.128 71.4353 73.128C72.2753 73.128 72.8913 72.9273 73.2833 72.526C73.6847 72.1247 73.8853 71.4993 73.8853 70.65V70.034C73.372 70.8273 72.546 71.224 71.4073 71.224C70.7727 71.224 70.1987 71.07 69.6853 70.762C69.1813 70.454 68.78 70.0153 68.4813 69.446C68.192 68.8767 68.0473 68.2187 68.0473 67.472C68.0473 66.8 68.192 66.1793 68.4813 65.61C68.7707 65.0407 69.1767 64.5833 69.6993 64.238C70.2313 63.8833 70.824 63.706 71.4773 63.706C72 63.706 72.4713 63.8133 72.8913 64.028C73.3113 64.2333 73.6427 64.5273 73.8853 64.91L73.9133 63.93H75.4673V70.538C75.4673 71.8633 75.136 72.862 74.4733 73.534C73.82 74.2153 72.8447 74.556 71.5473 74.556ZM71.8133 69.782C72.448 69.782 72.9613 69.5673 73.3533 69.138C73.7547 68.6993 73.9553 68.1393 73.9553 67.458C73.9553 66.7767 73.7547 66.2213 73.3533 65.792C72.952 65.3627 72.4387 65.148 71.8133 65.148C71.188 65.148 70.6747 65.3627 70.2733 65.792C69.872 66.2213 69.6713 66.7767 69.6713 67.458C69.6713 68.1393 69.8673 68.6993 70.2593 69.138C70.6607 69.5673 71.1787 69.782 71.8133 69.782ZM81.3215 71.224C80.5188 71.224 79.8142 71.0793 79.2075 70.79C78.6008 70.4913 78.1295 70.0573 77.7935 69.488C77.4575 68.9187 77.2895 68.2513 77.2895 67.486C77.2895 66.7673 77.4342 66.1233 77.7235 65.554C78.0222 64.9847 78.4422 64.5367 78.9835 64.21C79.5248 63.874 80.1502 63.706 80.8595 63.706C81.5035 63.706 82.0728 63.846 82.5675 64.126C83.0715 64.406 83.4635 64.812 83.7435 65.344C84.0235 65.876 84.1635 66.4967 84.1635 67.206C84.1635 67.5607 84.1448 67.8267 84.1075 68.004H78.8995C79.0022 68.6107 79.2728 69.082 79.7115 69.418C80.1595 69.7447 80.7428 69.908 81.4615 69.908C82.3015 69.908 83.0948 69.726 83.8415 69.362L84.0095 70.622C83.6642 70.8087 83.2535 70.9533 82.7775 71.056C82.3015 71.168 81.8162 71.224 81.3215 71.224ZM82.5955 66.786C82.5582 66.2073 82.3855 65.7593 82.0775 65.442C81.7695 65.1247 81.3448 64.966 80.8035 64.966C80.2715 64.966 79.8375 65.1247 79.5015 65.442C79.1655 65.7593 78.9602 66.2073 78.8855 66.786H82.5955Z" fill="#333333"/>
</svg>
