<svg width="40px" height="40px" viewBox="0 0 40px 40px" fill="none" xmlns="http://www.w3.org/2000/svg">
    <rect x="1" y="1" width="38" height="38" rx="3" stroke="#795548" stroke-width="2"/>
    <path d="M15.6406 27H12.3711V16.4883H15.6406V27ZM14.0234 15.0469C13.5078 15.0469 13.0625 14.8594 12.6875 14.4844C12.3125 14.1094 12.125 13.6641 12.125 13.1484C12.125 12.6328 12.3125 12.1875 12.6875 11.8125C13.0625 11.4375 13.5078 11.25 14.0234 11.25C14.3516 11.25 14.6562 11.332 14.9375 11.4961C15.2422 11.6602 15.4766 11.8945 15.6406 12.1992C15.8281 12.4805 15.9219 12.7969 15.9219 13.1484C15.9219 13.4766 15.8281 13.793 15.6406 14.0977C15.4766 14.3789 15.2422 14.6133 14.9375 14.8008C14.6562 14.9648 14.3516 15.0469 14.0234 15.0469ZM27.875 27H24.6055V21.8672C24.6055 21.4688 24.5938 21.1523 24.5703 20.918C24.5469 20.6602 24.4883 20.3789 24.3945 20.0742C24.3008 19.7461 24.125 19.5 23.8672 19.3359C23.6328 19.1719 23.3164 19.0898 22.918 19.0898C22.1445 19.0898 21.6172 19.3359 21.3359 19.8281C21.0781 20.3203 20.9492 20.9766 20.9492 21.7969V27H17.6797V16.4883H20.8438V17.9297H20.8789C21.1133 17.4609 21.5 17.0625 22.0391 16.7344C22.5781 16.3828 23.2227 16.207 23.9727 16.207C24.7695 16.207 25.4258 16.3359 25.9414 16.5938C26.4805 16.8281 26.8789 17.1914 27.1367 17.6836C27.418 18.1523 27.6055 18.668 27.6992 19.2305C27.8164 19.793 27.875 20.4609 27.875 21.2344V27Z" fill="#795548"/>
</svg>
