<svg width="32px" height="33px" viewBox="0 0 32px 33px" fill="none" xmlns="http://www.w3.org/2000/svg">
    <path d="M10.0547 10.8047C11.6484 9.21094 13.5703 8.41406 15.8203 8.41406C18.0703 8.41406 19.9688 9.21094 21.5156 10.8047C23.1094 12.3516 23.9062 14.25 23.9062 16.5C23.9062 18.75 23.1094 20.6719 21.5156 22.2656C19.9688 23.8125 18.0703 24.5859 15.8203 24.5859C13.5703 24.5859 11.6484 23.8125 10.0547 22.2656C8.50781 20.6719 7.73438 18.75 7.73438 16.5C7.73438 14.25 8.50781 12.3516 10.0547 10.8047ZM12.0938 20.2266C13.125 21.2578 14.3672 21.7734 15.8203 21.7734C17.2734 21.7734 18.5156 21.2578 19.5469 20.2266C20.5781 19.1953 21.0938 17.9531 21.0938 16.5C21.0938 15.0469 20.5781 13.8047 19.5469 12.7734C18.5156 11.7422 17.2734 11.2266 15.8203 11.2266C14.3672 11.2266 13.125 11.7422 12.0938 12.7734C11.0625 13.8047 10.5469 15.0469 10.5469 16.5C10.5469 17.9531 11.0625 19.1953 12.0938 20.2266ZM25.5234 6.79688C25.8984 7.125 26.0859 7.54688 26.0859 8.0625C26.0859 8.57812 25.8984 9.02344 25.5234 9.39844C25.1953 9.77344 24.7734 9.96094 24.2578 9.96094C23.7422 9.96094 23.2969 9.77344 22.9219 9.39844C22.5469 9.02344 22.3594 8.57812 22.3594 8.0625C22.3594 7.54688 22.5469 7.125 22.9219 6.79688C23.2969 6.42188 23.7422 6.23438 24.2578 6.23438C24.7734 6.23438 25.1953 6.42188 25.5234 6.79688ZM31.5 10.0312C31.5469 11.2969 31.5703 13.4531 31.5703 16.5C31.5703 19.5469 31.5469 21.7031 31.5 22.9688C31.3594 25.8281 30.4922 28.0547 28.8984 29.6484C27.3516 31.1953 25.1484 32.0156 22.2891 32.1094C21.0234 32.2031 18.8672 32.25 15.8203 32.25C12.7734 32.25 10.6172 32.2031 9.35156 32.1094C6.49219 31.9688 4.28906 31.125 2.74219 29.5781C2.13281 29.0156 1.64062 28.3594 1.26562 27.6094C0.890625 26.8594 0.609375 26.1328 0.421875 25.4297C0.28125 24.7266 0.210938 23.9062 0.210938 22.9688C0.117187 21.7031 0.0703125 19.5469 0.0703125 16.5C0.0703125 13.4531 0.117187 11.2734 0.210938 9.96094C0.351562 7.14844 1.19531 4.96875 2.74219 3.42188C4.28906 1.82812 6.49219 0.960938 9.35156 0.820312C10.6172 0.773437 12.7734 0.75 15.8203 0.75C18.8672 0.75 21.0234 0.773437 22.2891 0.820312C25.1484 0.960938 27.3516 1.82812 28.8984 3.42188C30.4922 4.96875 31.3594 7.17187 31.5 10.0312ZM28.125 25.7812C28.2656 25.4062 28.3828 24.9375 28.4766 24.375C28.5703 23.7656 28.6406 23.0625 28.6875 22.2656C28.7344 21.4219 28.7578 20.7422 28.7578 20.2266C28.7578 19.7109 28.7578 18.9844 28.7578 18.0469C28.7578 17.1094 28.7578 16.5938 28.7578 16.5C28.7578 16.3594 28.7578 15.8438 28.7578 14.9531C28.7578 14.0156 28.7578 13.2891 28.7578 12.7734C28.7578 12.2578 28.7344 11.6016 28.6875 10.8047C28.6406 9.96094 28.5703 9.25781 28.4766 8.69531C28.3828 8.08594 28.2656 7.59375 28.125 7.21875C27.5625 5.76562 26.5547 4.75781 25.1016 4.19531C24.7266 4.05469 24.2344 3.9375 23.625 3.84375C23.0625 3.75 22.3594 3.67969 21.5156 3.63281C20.7188 3.58594 20.0625 3.5625 19.5469 3.5625C19.0781 3.5625 18.3516 3.5625 17.3672 3.5625C16.4297 3.5625 15.9141 3.5625 15.8203 3.5625C15.7266 3.5625 15.2109 3.5625 14.2734 3.5625C13.3359 3.5625 12.6094 3.5625 12.0938 3.5625C11.5781 3.5625 10.8984 3.58594 10.0547 3.63281C9.25781 3.67969 8.55469 3.75 7.94531 3.84375C7.38281 3.9375 6.91406 4.05469 6.53906 4.19531C5.08594 4.75781 4.07812 5.76562 3.51562 7.21875C3.375 7.59375 3.25781 8.08594 3.16406 8.69531C3.07031 9.25781 3 9.96094 2.95312 10.8047C2.90625 11.6016 2.88281 12.2578 2.88281 12.7734C2.88281 13.2422 2.88281 13.9688 2.88281 14.9531C2.88281 15.8906 2.88281 16.4062 2.88281 16.5C2.88281 16.6875 2.88281 17.1328 2.88281 17.8359C2.88281 18.4922 2.88281 19.0547 2.88281 19.5234C2.88281 19.9453 2.88281 20.5078 2.88281 21.2109C2.92969 21.9141 2.97656 22.5234 3.02344 23.0391C3.07031 23.5078 3.14062 24 3.23438 24.5156C3.32812 25.0312 3.42188 25.4531 3.51562 25.7812C4.125 27.2344 5.13281 28.2422 6.53906 28.8047C6.91406 28.9453 7.38281 29.0625 7.94531 29.1562C8.55469 29.25 9.25781 29.3203 10.0547 29.3672C10.8984 29.4141 11.5547 29.4375 12.0234 29.4375C12.5391 29.4375 13.2656 29.4375 14.2031 29.4375C15.1875 29.4375 15.7266 29.4375 15.8203 29.4375C15.9609 29.4375 16.4766 29.4375 17.3672 29.4375C18.3047 29.4375 19.0312 29.4375 19.5469 29.4375C20.0625 29.4375 20.7188 29.4141 21.5156 29.3672C22.3594 29.3203 23.0625 29.25 23.625 29.1562C24.2344 29.0625 24.7266 28.9453 25.1016 28.8047C26.5547 28.1953 27.5625 27.1875 28.125 25.7812Z" fill="white"/>
</svg>
