<svg width="16px" height="19px" viewBox="0 0 16px 19px" fill="none" xmlns="http://www.w3.org/2000/svg">
    <path d="M9.42188 14.875C9.14062 14.875 9 14.7344 9 14.4531V6.85938C9 6.57812 9.14062 6.4375 9.42188 6.4375H10.2656C10.5469 6.4375 10.6875 6.57812 10.6875 6.85938V14.4531C10.6875 14.7344 10.5469 14.875 10.2656 14.875H9.42188ZM15.1875 3.0625C15.3516 3.0625 15.4805 3.12109 15.5742 3.23828C15.6914 3.33203 15.75 3.46094 15.75 3.625V4.1875C15.75 4.35156 15.6914 4.49219 15.5742 4.60938C15.4805 4.70313 15.3516 4.75 15.1875 4.75H14.625V16.5625C14.625 17.0312 14.4609 17.4297 14.1328 17.7578C13.8047 18.0859 13.4062 18.25 12.9375 18.25H2.8125C2.34375 18.25 1.94531 18.0859 1.61719 17.7578C1.28906 17.4297 1.125 17.0312 1.125 16.5625V4.75H0.5625C0.398438 4.75 0.257812 4.70313 0.140625 4.60938C0.046875 4.49219 0 4.35156 0 4.1875V3.625C0 3.46094 0.046875 3.33203 0.140625 3.23828C0.257812 3.12109 0.398438 3.0625 0.5625 3.0625H3.44531L4.64062 1.05859C4.78125 0.847656 4.99219 0.660156 5.27344 0.496094C5.55469 0.332031 5.83594 0.25 6.11719 0.25H9.63281C9.82031 0.25 10.0078 0.285156 10.1953 0.355469C10.3828 0.425781 10.5586 0.53125 10.7227 0.671875C10.8867 0.789062 11.0156 0.917969 11.1094 1.05859L12.3047 3.0625H15.1875ZM6.04688 2.04297L5.41406 3.0625H10.3359L9.70312 2.04297C9.65625 1.97266 9.59766 1.9375 9.52734 1.9375H6.22266C6.15234 1.9375 6.09375 1.97266 6.04688 2.04297ZM12.9375 16.5625V4.75H2.8125V16.5625H12.9375ZM5.48438 14.875C5.20312 14.875 5.0625 14.7344 5.0625 14.4531V6.85938C5.0625 6.57812 5.20312 6.4375 5.48438 6.4375H6.32812C6.60938 6.4375 6.75 6.57812 6.75 6.85938V14.4531C6.75 14.7344 6.60938 14.875 6.32812 14.875H5.48438Z" fill="#666666"/>
</svg>
