<svg width="19px" height="21px" viewBox="0 0 19px 21px" fill="none" xmlns="http://www.w3.org/2000/svg">
    <path d="M1.42857 19.4286V16.2143H4.64286V19.4286H1.42857ZM5.35714 19.4286V16.2143H8.92857V19.4286H5.35714ZM1.42857 15.5V11.9286H4.64286V15.5H1.42857ZM5.35714 15.5V11.9286H8.92857V15.5H5.35714ZM1.42857 11.2143V8H4.64286V11.2143H1.42857ZM9.64286 19.4286V16.2143H13.2143V19.4286H9.64286ZM5.35714 11.2143V8H8.92857V11.2143H5.35714ZM13.9286 19.4286V16.2143H17.1429V19.4286H13.9286ZM9.64286 15.5V11.9286H13.2143V15.5H9.64286ZM5.71429 5.85714C5.71429 6.04688 5.54688 6.21429 5.35714 6.21429H4.64286C4.45313 6.21429 4.28571 6.04688 4.28571 5.85714V2.64286C4.28571 2.45312 4.45313 2.28571 4.64286 2.28571H5.35714C5.54688 2.28571 5.71429 2.45312 5.71429 2.64286V5.85714ZM13.9286 15.5V11.9286H17.1429V15.5H13.9286ZM9.64286 11.2143V8H13.2143V11.2143H9.64286ZM13.9286 11.2143V8H17.1429V11.2143H13.9286ZM14.2857 5.85714C14.2857 6.04688 14.1183 6.21429 13.9286 6.21429H13.2143C13.0246 6.21429 12.8571 6.04688 12.8571 5.85714V2.64286C12.8571 2.45312 13.0246 2.28571 13.2143 2.28571H13.9286C14.1183 2.28571 14.2857 2.45312 14.2857 2.64286V5.85714ZM18.5714 5.14286C18.5714 4.36161 17.9241 3.71429 17.1429 3.71429H15.7143V2.64286C15.7143 1.66071 14.9107 0.857141 13.9286 0.857141H13.2143C12.2321 0.857141 11.4286 1.66071 11.4286 2.64286V3.71429H7.14286V2.64286C7.14286 1.66071 6.33929 0.857141 5.35714 0.857141H4.64286C3.66071 0.857141 2.85714 1.66071 2.85714 2.64286V3.71429H1.42857C0.647321 3.71429 0 4.36161 0 5.14286V19.4286C0 20.2098 0.647321 20.8571 1.42857 20.8571H17.1429C17.9241 20.8571 18.5714 20.2098 18.5714 19.4286V5.14286Z" fill="#333333"/>
</svg>
