<svg width="24px" height="24px" viewBox="0 0 24px 24px" fill="none" xmlns="http://www.w3.org/2000/svg">
    <path d="M4.125 3.79688C6.40625 1.51562 9.15625 0.375 12.375 0.375C15.5938 0.375 18.3281 1.51562 20.5781 3.79688C22.8594 6.04688 24 8.78125 24 12C24 15.2188 22.8594 17.9688 20.5781 20.25C18.3281 22.5 15.5938 23.625 12.375 23.625C9.15625 23.625 6.40625 22.5 4.125 20.25C1.875 17.9688 0.75 15.2188 0.75 12C0.75 8.78125 1.875 6.04688 4.125 3.79688ZM18.375 20.1562V19.5C18.375 18.6875 18.0781 17.9844 17.4844 17.3906C16.8906 16.7969 16.1875 16.5 15.375 16.5C15.3125 16.5 14.9531 16.5938 14.2969 16.7812C13.6719 16.9375 13.0312 17.0156 12.375 17.0156C11.7188 17.0156 11.0625 16.9375 10.4062 16.7812C9.78125 16.5938 9.4375 16.5 9.375 16.5C8.5625 16.5 7.85938 16.7969 7.26562 17.3906C6.67188 17.9844 6.375 18.6875 6.375 19.5V20.1562C8.15625 21.4688 10.1562 22.125 12.375 22.125C14.5938 22.125 16.5938 21.4688 18.375 20.1562ZM19.8281 18.8438C21.6094 16.9062 22.5 14.625 22.5 12C22.5 9.21875 21.5 6.84375 19.5 4.875C17.5312 2.875 15.1562 1.875 12.375 1.875C9.59375 1.875 7.20312 2.875 5.20312 4.875C3.23438 6.84375 2.25 9.21875 2.25 12C2.25 14.625 3.14062 16.9062 4.92188 18.8438C5.10938 17.75 5.60938 16.8438 6.42188 16.125C7.26562 15.375 8.25 15 9.375 15C9.65625 15 10.0781 15.0938 10.6406 15.2812C11.2344 15.4375 11.8125 15.5156 12.375 15.5156C12.9375 15.5156 13.5 15.4375 14.0625 15.2812C14.6562 15.0938 15.0938 15 15.375 15C16.5 15 17.4688 15.375 18.2812 16.125C19.125 16.8438 19.6406 17.75 19.8281 18.8438ZM9.46875 6.84375C10.2812 6.03125 11.25 5.625 12.375 5.625C13.5 5.625 14.4688 6.03125 15.2812 6.84375C16.0938 7.65625 16.5 8.625 16.5 9.75C16.5 10.875 16.0938 11.8438 15.2812 12.6562C14.4688 13.4688 13.5 13.875 12.375 13.875C11.25 13.875 10.2812 13.4688 9.46875 12.6562C8.65625 11.8438 8.25 10.875 8.25 9.75C8.25 8.625 8.65625 7.65625 9.46875 6.84375ZM10.5 11.625C11.0312 12.125 11.6562 12.375 12.375 12.375C13.0938 12.375 13.7031 12.125 14.2031 11.625C14.7344 11.0938 15 10.4688 15 9.75C15 9.03125 14.7344 8.42188 14.2031 7.92188C13.7031 7.39063 13.0938 7.125 12.375 7.125C11.6562 7.125 11.0312 7.39063 10.5 7.92188C10 8.42188 9.75 9.03125 9.75 9.75C9.75 10.4688 10 11.0938 10.5 11.625Z" fill="#ffffff"/>
</svg>
