<svg width="21px" height="19px" viewBox="0 0 21px 19px" fill="none" xmlns="http://www.w3.org/2000/svg">
    <path d="M19.4062 2.5C19.6641 2.5 19.875 2.60547 20.0391 2.81641C20.2266 3.02734 20.2852 3.26172 20.2148 3.51953L18.6328 10.832C18.5859 11.0195 18.4805 11.1836 18.3164 11.3242C18.1758 11.4414 18.0117 11.5 17.8242 11.5H6.82031L7.17188 13.1875H17.0859C17.3438 13.1875 17.5547 13.293 17.7188 13.5039C17.9062 13.7148 17.9648 13.9492 17.8945 14.207L17.8594 14.3828C18.3281 14.8281 18.5625 15.3672 18.5625 16C18.5625 16.6328 18.3398 17.1602 17.8945 17.582C17.4727 18.0273 16.9453 18.25 16.3125 18.25C15.6797 18.25 15.1406 18.0273 14.6953 17.582C14.2734 17.1602 14.0625 16.6328 14.0625 16C14.0625 15.6016 14.168 15.2266 14.3789 14.875H9.24609C9.45703 15.2266 9.5625 15.6016 9.5625 16C9.5625 16.6328 9.33984 17.1602 8.89453 17.582C8.47266 18.0273 7.94531 18.25 7.3125 18.25C6.67969 18.25 6.14062 18.0273 5.69531 17.582C5.27344 17.1602 5.0625 16.6328 5.0625 16C5.0625 15.3906 5.27344 14.875 5.69531 14.4531L3.23438 1.9375H0.421875C0.140625 1.9375 0 1.79688 0 1.51562V0.671875C0 0.390625 0.140625 0.25 0.421875 0.25H3.9375C4.07812 0.25 4.20703 0.285156 4.32422 0.355469C4.44141 0.402344 4.53516 0.484375 4.60547 0.601562C4.67578 0.695313 4.73438 0.800781 4.78125 0.917969L5.0625 2.5H19.4062ZM6.71484 16.5977C6.87891 16.7617 7.07812 16.8438 7.3125 16.8438C7.54688 16.8438 7.74609 16.7617 7.91016 16.5977C8.07422 16.4336 8.15625 16.2344 8.15625 16C8.15625 15.7656 8.07422 15.5664 7.91016 15.4023C7.74609 15.2383 7.54688 15.1562 7.3125 15.1562C7.07812 15.1562 6.87891 15.2383 6.71484 15.4023C6.55078 15.5664 6.46875 15.7656 6.46875 16C6.46875 16.2344 6.55078 16.4336 6.71484 16.5977ZM15.7148 16.5977C15.8789 16.7617 16.0781 16.8438 16.3125 16.8438C16.5469 16.8438 16.7461 16.7617 16.9102 16.5977C17.0742 16.4336 17.1562 16.2344 17.1562 16C17.1562 15.7656 17.0742 15.5664 16.9102 15.4023C16.7461 15.2383 16.5469 15.1562 16.3125 15.1562C16.0781 15.1562 15.8789 15.2383 15.7148 15.4023C15.5508 15.5664 15.4688 15.7656 15.4688 16C15.4688 16.2344 15.5508 16.4336 15.7148 16.5977ZM17.1211 9.8125L18.3516 4.1875H5.41406L6.50391 9.8125H17.1211Z" fill="#0C91A6"/>
</svg>
