<svg width="32px" height="33px" viewBox="0 0 32px 33px" fill="none" xmlns="http://www.w3.org/2000/svg">
    <path d="M13.1484 12.7031L19.8281 16.5L13.1484 20.2969V12.7031ZM31.5 4.125V28.875C31.5 29.8125 31.1719 30.6094 30.5156 31.2656C29.8594 31.9219 29.0625 32.25 28.125 32.25H3.375C2.4375 32.25 1.64062 31.9219 0.984375 31.2656C0.328125 30.6094 0 29.8125 0 28.875V4.125C0 3.1875 0.328125 2.39062 0.984375 1.73438C1.64062 1.07813 2.4375 0.75 3.375 0.75H28.125C29.0625 0.75 29.8594 1.07813 30.5156 1.73438C31.1719 2.39062 31.5 3.1875 31.5 4.125ZM28.5469 16.5C28.5469 13.7344 28.3594 11.6719 27.9844 10.3125C27.7031 9.09375 26.9531 8.34375 25.7344 8.0625C25.1719 7.875 24.0469 7.73437 22.3594 7.64062C20.7188 7.54688 19.1953 7.5 17.7891 7.5H15.75C10.4062 7.5 7.07812 7.6875 5.76562 8.0625C4.54688 8.34375 3.79688 9.09375 3.51562 10.3125C3.32812 10.9219 3.1875 11.7422 3.09375 12.7734C3 13.8047 2.95312 14.6953 2.95312 15.4453V16.5C2.95312 19.3125 3.14062 21.375 3.51562 22.6875C3.79688 23.9062 4.54688 24.6562 5.76562 24.9375C6.32812 25.125 7.42969 25.2656 9.07031 25.3594C10.7578 25.4531 12.3047 25.5 13.7109 25.5H15.75C21.0938 25.5 24.4219 25.3125 25.7344 24.9375C26.9531 24.6094 27.7031 23.8594 27.9844 22.6875C28.1719 22.125 28.3125 21.3281 28.4062 20.2969C28.5 19.2656 28.5469 18.375 28.5469 17.625V16.5Z" fill="white"/>
</svg>
