<svg width="18px" height="12px" viewBox="0 0 18px 12px" fill="none" xmlns="http://www.w3.org/2000/svg">
    <path d="M9 2.5C9.97917 2.5 10.8021 2.84375 11.4688 3.53125C12.1562 4.19792 12.5 5.02083 12.5 6C12.5 6.95833 12.1562 7.78125 11.4688 8.46875C10.8021 9.13542 9.97917 9.46875 9 9.46875C8.04167 9.46875 7.21875 9.13542 6.53125 8.46875C5.86458 7.78125 5.53125 6.95833 5.53125 6C5.53125 5.66667 5.57292 5.34375 5.65625 5.03125C5.92708 5.17708 6.20833 5.25 6.5 5.25C6.97917 5.25 7.38542 5.08333 7.71875 4.75C8.07292 4.39583 8.25 3.97917 8.25 3.5C8.25 3.20833 8.17708 2.92708 8.03125 2.65625C8.34375 2.55208 8.66667 2.5 9 2.5ZM17.9062 5.53125C17.9688 5.67708 18 5.83333 18 6C18 6.16667 17.9688 6.32292 17.9062 6.46875C17.0312 8.13542 15.8021 9.47917 14.2188 10.5C12.6354 11.5 10.8958 12 9 12C7.75 12 6.54167 11.7708 5.375 11.3125C4.22917 10.8333 3.20833 10.1875 2.3125 9.375C1.41667 8.54167 0.677083 7.57292 0.09375 6.46875C0.03125 6.32292 0 6.16667 0 6C0 5.83333 0.03125 5.67708 0.09375 5.53125C0.96875 3.86458 2.19792 2.53125 3.78125 1.53125C5.36458 0.510417 7.10417 0 9 0C10.8958 0 12.6354 0.510417 14.2188 1.53125C15.8021 2.53125 17.0312 3.86458 17.9062 5.53125ZM9 10.5C10.5417 10.5 11.9688 10.1042 13.2812 9.3125C14.6146 8.5 15.6667 7.39583 16.4375 6C15.6667 4.60417 14.6146 3.51042 13.2812 2.71875C11.9688 1.90625 10.5417 1.5 9 1.5C7.45833 1.5 6.02083 1.90625 4.6875 2.71875C3.375 3.51042 2.33333 4.60417 1.5625 6C2.0625 6.91667 2.69792 7.71875 3.46875 8.40625C4.23958 9.07292 5.09375 9.59375 6.03125 9.96875C6.98958 10.3229 7.97917 10.5 9 10.5Z" fill="#333333"/>
</svg>
