<svg width="40px" height="40px" viewBox="0 0 40px 40px" fill="none" xmlns="http://www.w3.org/2000/svg">
    <rect x="1" y="1" width="38" height="38" rx="3" stroke="#795548" stroke-width="2"/>
    <path d="M27.1367 16.5938C27.1602 16.6875 27.1719 16.8398 27.1719 17.0508C27.1719 18.293 26.9375 19.5352 26.4688 20.7773C26 21.9961 25.332 23.1211 24.4648 24.1523C23.6211 25.1602 22.5195 25.9805 21.1602 26.6133C19.8008 27.2461 18.3008 27.5625 16.6602 27.5625C14.5977 27.5625 12.7109 27.0117 11 25.9102C11.2578 25.9336 11.5508 25.9453 11.8789 25.9453C13.5898 25.9453 15.125 25.418 16.4844 24.3633C15.6641 24.3633 14.9375 24.1289 14.3047 23.6602C13.6953 23.168 13.2734 22.5586 13.0391 21.832C13.2734 21.8555 13.4961 21.8672 13.707 21.8672C14.0352 21.8672 14.3633 21.832 14.6914 21.7617C14.1289 21.6445 13.625 21.4102 13.1797 21.0586C12.7344 20.707 12.3828 20.2852 12.125 19.793C11.8672 19.2773 11.7383 18.7266 11.7383 18.1406V18.0703C12.2539 18.375 12.8047 18.5391 13.3906 18.5625C12.2891 17.8125 11.7383 16.7812 11.7383 15.4688C11.7383 14.8125 11.9141 14.1914 12.2656 13.6055C13.1797 14.7539 14.293 15.668 15.6055 16.3477C16.9414 17.0273 18.3594 17.4023 19.8594 17.4727C19.8125 17.1914 19.7891 16.9102 19.7891 16.6289C19.7891 15.6211 20.1406 14.7539 20.8438 14.0273C21.5703 13.3008 22.4375 12.9375 23.4453 12.9375C24.5234 12.9375 25.4258 13.3242 26.1523 14.0977C26.9961 13.9336 27.7812 13.6406 28.5078 13.2188C28.2266 14.0859 27.6875 14.7656 26.8906 15.2578C27.5938 15.1641 28.2969 14.9648 29 14.6602C28.4844 15.4102 27.8633 16.0547 27.1367 16.5938Z" fill="#795548"/>
</svg>
