<svg width="40px" height="40px" viewBox="0 0 40px 40px" fill="none" xmlns="http://www.w3.org/2000/svg">
    <rect x="1" y="1" width="38" height="38" rx="3" stroke="#795548" stroke-width="2"/>
    <path d="M22.3203 19.2656C22.3906 19.6641 22.4258 20.0391 22.4258 20.3906C22.4258 22.3359 21.8281 23.9297 20.6328 25.1719C19.4375 26.3906 17.8789 27 15.957 27C14.082 27 12.4883 26.3438 11.1758 25.0312C9.86328 23.7188 9.20703 22.125 9.20703 20.25C9.20703 18.375 9.86328 16.7812 11.1758 15.4688C12.4883 14.1562 14.082 13.5 15.957 13.5C17.7148 13.5 19.2148 14.0859 20.457 15.2578L18.6289 17.0156C17.9258 16.3359 17.0352 15.9961 15.957 15.9961C15.207 15.9961 14.5039 16.1836 13.8477 16.5586C13.2148 16.9336 12.7109 17.4492 12.3359 18.1055C11.9609 18.7617 11.7734 19.4766 11.7734 20.25C11.7734 21.4219 12.1836 22.4297 13.0039 23.2734C13.8242 24.0938 14.8086 24.5039 15.957 24.5039C17.1289 24.5039 18.0312 24.1875 18.6641 23.5547C19.2969 22.9219 19.6719 22.2773 19.7891 21.6211H15.957V19.2656H22.3203ZM28.8242 19.5117H30.793V21.4805H28.8242V23.4492H26.8555V21.4805H24.9219V19.5117H26.8555V17.543H28.8242V19.5117Z" fill="#795548"/>
</svg>
