<svg width="127" height="108" viewBox="0 0 127 108" fill="none" xmlns="http://www.w3.org/2000/svg">
<path d="M19.2251 104.224C18.5531 104.224 17.9371 104.07 17.3771 103.762C16.8264 103.445 16.3831 103.001 16.0471 102.432C15.7204 101.863 15.5571 101.219 15.5571 100.5C15.5571 99.8373 15.7111 99.226 16.0191 98.666C16.3364 98.0967 16.7751 97.6393 17.3351 97.294C17.8951 96.9487 18.5251 96.776 19.2251 96.776C19.8971 96.776 20.5084 96.9347 21.0591 97.252C21.6191 97.56 22.0624 97.9987 22.3891 98.568C22.7251 99.1373 22.8931 99.7813 22.8931 100.5C22.8931 101.163 22.7344 101.779 22.4171 102.348C22.1091 102.908 21.6751 103.361 21.1151 103.706C20.5551 104.051 19.9251 104.224 19.2251 104.224ZM19.2251 103.16C19.9438 103.16 20.5318 102.913 20.9891 102.418C21.4464 101.923 21.6751 101.284 21.6751 100.5C21.6751 99.716 21.4464 99.0767 20.9891 98.582C20.5318 98.0873 19.9438 97.84 19.2251 97.84C18.5064 97.84 17.9184 98.0873 17.4611 98.582C17.0038 99.0767 16.7751 99.716 16.7751 100.5C16.7751 101.284 17.0038 101.923 17.4611 102.418C17.9184 102.913 18.5064 103.16 19.2251 103.16ZM24.9202 97H26.0402L26.0542 98.456C26.2502 97.9613 26.5348 97.5787 26.9082 97.308C27.2815 97.0373 27.7062 96.902 28.1822 96.902C28.3222 96.902 28.4715 96.9207 28.6302 96.958C28.7982 96.986 28.9242 97.0187 29.0082 97.056L28.8822 98.176C28.6115 98.064 28.3315 98.008 28.0422 98.008C27.4355 98.008 26.9595 98.2367 26.6142 98.694C26.2782 99.142 26.1102 99.7627 26.1102 100.556V104H24.9202V97ZM36.7726 104.224C36.1472 104.224 35.5779 104.07 35.0646 103.762C34.5606 103.454 34.1592 103.015 33.8606 102.446C33.5619 101.877 33.4126 101.228 33.4126 100.5C33.4126 99.8467 33.5572 99.24 33.8466 98.68C34.1452 98.1107 34.5652 97.6533 35.1066 97.308C35.6479 96.9533 36.2499 96.776 36.9126 96.776C37.4446 96.776 37.9299 96.9067 38.3686 97.168C38.8166 97.4293 39.1759 97.798 39.4466 98.274V92.66H40.6366V104H39.4746L39.4466 102.726C39.1759 103.211 38.8072 103.585 38.3406 103.846C37.8832 104.098 37.3606 104.224 36.7726 104.224ZM37.0806 103.16C37.7992 103.16 38.3872 102.913 38.8446 102.418C39.3019 101.923 39.5306 101.284 39.5306 100.5C39.5306 99.716 39.3019 99.0767 38.8446 98.582C38.3872 98.0873 37.7992 97.84 37.0806 97.84C36.3619 97.84 35.7739 98.0873 35.3166 98.582C34.8592 99.0767 34.6306 99.716 34.6306 100.5C34.6306 101.284 34.8592 101.923 35.3166 102.418C35.7739 102.913 36.3619 103.16 37.0806 103.16ZM43.1584 97H44.2784L44.2924 98.456C44.4884 97.9613 44.7731 97.5787 45.1464 97.308C45.5198 97.0373 45.9444 96.902 46.4204 96.902C46.5604 96.902 46.7098 96.9207 46.8684 96.958C47.0364 96.986 47.1624 97.0187 47.2464 97.056L47.1204 98.176C46.8498 98.064 46.5698 98.008 46.2804 98.008C45.6738 98.008 45.1978 98.2367 44.8524 98.694C44.5164 99.142 44.3484 99.7627 44.3484 100.556V104H43.1584V97ZM51.5929 104.224C50.9676 104.224 50.3982 104.07 49.8849 103.762C49.3809 103.454 48.9796 103.015 48.6809 102.446C48.3822 101.877 48.2329 101.228 48.2329 100.5C48.2329 99.8467 48.3776 99.24 48.6669 98.68C48.9656 98.1107 49.3856 97.6533 49.9269 97.308C50.4682 96.9533 51.0702 96.776 51.7329 96.776C52.2649 96.776 52.7502 96.9067 53.1889 97.168C53.6369 97.4293 53.9962 97.798 54.2669 98.274L54.2949 97H55.4569V104H54.2949L54.2669 102.726C53.9962 103.211 53.6276 103.585 53.1609 103.846C52.7036 104.098 52.1809 104.224 51.5929 104.224ZM51.9009 103.16C52.6196 103.16 53.2076 102.913 53.6649 102.418C54.1222 101.923 54.3509 101.284 54.3509 100.5C54.3509 99.716 54.1222 99.0767 53.6649 98.582C53.2076 98.0873 52.6196 97.84 51.9009 97.84C51.1822 97.84 50.5942 98.0873 50.1369 98.582C49.6796 99.0767 49.4509 99.716 49.4509 100.5C49.4509 101.284 49.6796 101.923 50.1369 102.418C50.5942 102.913 51.1822 103.16 51.9009 103.16ZM60.9048 107.556C60.3914 107.556 59.8874 107.495 59.3928 107.374C58.9074 107.262 58.5388 107.113 58.2868 106.926L58.4408 105.862C58.7581 106.058 59.1314 106.212 59.5608 106.324C59.9994 106.445 60.4474 106.506 60.9048 106.506C61.7914 106.506 62.4494 106.277 62.8788 105.82C63.3081 105.363 63.5228 104.663 63.5228 103.72V102.726C63.2521 103.211 62.8834 103.585 62.4168 103.846C61.9594 104.098 61.4368 104.224 60.8488 104.224C60.2234 104.224 59.6541 104.07 59.1408 103.762C58.6368 103.454 58.2354 103.015 57.9368 102.446C57.6381 101.877 57.4888 101.228 57.4888 100.5C57.4888 99.8467 57.6334 99.24 57.9228 98.68C58.2214 98.1107 58.6414 97.6533 59.1828 97.308C59.7241 96.9533 60.3261 96.776 60.9888 96.776C61.5208 96.776 62.0061 96.9067 62.4448 97.168C62.8928 97.4293 63.2521 97.798 63.5228 98.274L63.5508 97H64.7128V103.594C64.7128 104.901 64.3908 105.885 63.7468 106.548C63.1121 107.22 62.1648 107.556 60.9048 107.556ZM61.1568 103.16C61.8754 103.16 62.4634 102.913 62.9208 102.418C63.3781 101.923 63.6068 101.284 63.6068 100.5C63.6068 99.716 63.3781 99.0767 62.9208 98.582C62.4634 98.0873 61.8754 97.84 61.1568 97.84C60.4381 97.84 59.8501 98.0873 59.3928 98.582C58.9354 99.0767 58.7068 99.716 58.7068 100.5C58.7068 101.284 58.9354 101.923 59.3928 102.418C59.8501 102.913 60.4381 103.16 61.1568 103.16ZM70.3791 97H71.5691V104H70.3791V97ZM70.9671 95.124C70.7338 95.124 70.5378 95.0447 70.3791 94.886C70.2298 94.7273 70.1551 94.5267 70.1551 94.284C70.1551 94.0413 70.2298 93.8407 70.3791 93.682C70.5378 93.5233 70.7338 93.444 70.9671 93.444C71.2005 93.444 71.3918 93.5233 71.5411 93.682C71.6998 93.8407 71.7791 94.0413 71.7791 94.284C71.7791 94.5267 71.6998 94.7273 71.5411 94.886C71.3918 95.0447 71.2005 95.124 70.9671 95.124ZM74.7702 98.022H73.1602V97H74.7702V94.984H75.9602V97H77.9202V98.022H75.9602V104H74.7702V98.022ZM82.7385 92.66H83.9285V98.106C84.1338 97.686 84.4372 97.3593 84.8385 97.126C85.2398 96.8927 85.6972 96.776 86.2105 96.776C87.0412 96.776 87.6805 97.0373 88.1285 97.56C88.5765 98.0733 88.8005 98.8107 88.8005 99.772V104H87.6105V99.982C87.6105 99.254 87.4705 98.7127 87.1905 98.358C86.9198 98.0033 86.4998 97.826 85.9305 97.826C85.3052 97.826 84.8152 98.0313 84.4605 98.442C84.1058 98.8527 83.9285 99.4173 83.9285 100.136V104H82.7385V92.66ZM94.6714 104.224C93.4768 104.224 92.5294 103.893 91.8294 103.23C91.1388 102.567 90.7934 101.667 90.7934 100.528C90.7934 99.828 90.9334 99.1933 91.2134 98.624C91.5028 98.0547 91.9134 97.6067 92.4454 97.28C92.9774 96.944 93.5841 96.776 94.2654 96.776C95.2081 96.776 95.9688 97.0933 96.5474 97.728C97.1354 98.3627 97.4294 99.1933 97.4294 100.22C97.4294 100.341 97.4248 100.453 97.4154 100.556C97.4154 100.659 97.4108 100.766 97.4014 100.878H91.9694C92.0534 101.615 92.3334 102.18 92.8094 102.572C93.2854 102.964 93.9248 103.16 94.7274 103.16C95.5488 103.16 96.3514 102.969 97.1354 102.586L97.2754 103.594C96.9581 103.79 96.5661 103.944 96.0994 104.056C95.6421 104.168 95.1661 104.224 94.6714 104.224ZM96.2814 99.94C96.2441 99.2587 96.0434 98.7313 95.6794 98.358C95.3248 97.9847 94.8301 97.798 94.1954 97.798C93.5888 97.798 93.0894 97.9893 92.6974 98.372C92.3054 98.7453 92.0674 99.268 91.9834 99.94H96.2814ZM99.5959 97H100.716L100.73 98.456C100.926 97.9613 101.211 97.5787 101.584 97.308C101.957 97.0373 102.382 96.902 102.858 96.902C102.998 96.902 103.147 96.9207 103.306 96.958C103.474 96.986 103.6 97.0187 103.684 97.056L103.558 98.176C103.287 98.064 103.007 98.008 102.718 98.008C102.111 98.008 101.635 98.2367 101.29 98.694C100.954 99.142 100.786 99.7627 100.786 100.556V104H99.5959V97ZM108.548 104.224C107.354 104.224 106.406 103.893 105.706 103.23C105.016 102.567 104.67 101.667 104.67 100.528C104.67 99.828 104.81 99.1933 105.09 98.624C105.38 98.0547 105.79 97.6067 106.322 97.28C106.854 96.944 107.461 96.776 108.142 96.776C109.085 96.776 109.846 97.0933 110.424 97.728C111.012 98.3627 111.306 99.1933 111.306 100.22C111.306 100.341 111.302 100.453 111.292 100.556C111.292 100.659 111.288 100.766 111.278 100.878H105.846C105.93 101.615 106.21 102.18 106.686 102.572C107.162 102.964 107.802 103.16 108.604 103.16C109.426 103.16 110.228 102.969 111.012 102.586L111.152 103.594C110.835 103.79 110.443 103.944 109.976 104.056C109.519 104.168 109.043 104.224 108.548 104.224ZM110.158 99.94C110.121 99.2587 109.92 98.7313 109.556 98.358C109.202 97.9847 108.707 97.798 108.072 97.798C107.466 97.798 106.966 97.9893 106.574 98.372C106.182 98.7453 105.944 99.268 105.86 99.94H110.158Z" fill="#666666"/>
<path d="M55.6875 11.625L62.625 4.6875C62.875 4.40625 63.125 4.40625 63.375 4.6875L70.3125 11.625C70.5938 11.875 70.5938 12.1406 70.3125 12.4219L69.9844 12.75C69.7344 13.0312 69.4688 13.0312 69.1875 12.75L63.7969 7.3125V21.9375C63.7969 22.3125 63.6094 22.5 63.2344 22.5H62.7656C62.3906 22.5 62.2031 22.3125 62.2031 21.9375V7.3125L56.8125 12.75C56.5312 13.0312 56.2656 13.0312 56.0156 12.75L55.6875 12.4219C55.4062 12.1719 55.4062 11.9062 55.6875 11.625ZM54 2.0625C54 1.6875 54.1875 1.5 54.5625 1.5H71.4375C71.8125 1.5 72 1.6875 72 2.0625V2.4375C72 2.8125 71.8125 3 71.4375 3H54.5625C54.1875 3 54 2.8125 54 2.4375V2.0625Z" fill="#666666"/>
<rect x="16" y="33" width="94" height="49" rx="3" stroke="#333333" stroke-width="2"/>
<path d="M41.9641 54.154C40.8907 54.154 39.9294 53.9347 39.0801 53.496C38.2401 53.0573 37.5727 52.4273 37.0781 51.606C36.5927 50.7847 36.3501 49.8327 36.3501 48.75C36.3501 47.6953 36.5834 46.7527 37.0501 45.922C37.5261 45.082 38.1981 44.4193 39.0661 43.934C39.9434 43.4487 40.9514 43.206 42.0901 43.206C42.6687 43.206 43.2521 43.2853 43.8401 43.444C44.4374 43.6027 44.9507 43.8127 45.3801 44.074L45.0861 45.586C44.5074 45.306 43.9754 45.1007 43.4901 44.97C43.0141 44.8393 42.5334 44.774 42.0481 44.774C41.3014 44.774 40.6341 44.9327 40.0461 45.25C39.4674 45.5673 39.0101 46.0247 38.6741 46.622C38.3381 47.2193 38.1701 47.91 38.1701 48.694C38.1701 49.4687 38.3241 50.15 38.6321 50.738C38.9494 51.3167 39.4021 51.7693 39.9901 52.096C40.5874 52.4227 41.2874 52.586 42.0901 52.586C42.5847 52.586 43.1121 52.516 43.6721 52.376C44.2321 52.236 44.7687 52.04 45.2821 51.788L45.4641 53.314C44.4001 53.874 43.2334 54.154 41.9641 54.154ZM47.4475 42.66H49.0575V47.756C49.2628 47.42 49.5475 47.1633 49.9115 46.986C50.2848 46.7993 50.7141 46.706 51.1995 46.706C52.0488 46.706 52.6975 46.9673 53.1455 47.49C53.6028 48.0033 53.8315 48.7453 53.8315 49.716V54H52.2215V50.01C52.2215 49.3753 52.1001 48.904 51.8575 48.596C51.6241 48.288 51.2601 48.134 50.7655 48.134C50.2241 48.134 49.8041 48.3113 49.5055 48.666C49.2068 49.0207 49.0575 49.5153 49.0575 50.15V54H47.4475V42.66ZM58.9728 54.224C58.3381 54.224 57.7641 54.07 57.2508 53.762C56.7468 53.454 56.3454 53.0153 56.0468 52.446C55.7574 51.8767 55.6128 51.2187 55.6128 50.472C55.6128 49.8 55.7574 49.1793 56.0468 48.61C56.3361 48.0407 56.7421 47.5833 57.2648 47.238C57.7968 46.8833 58.3894 46.706 59.0428 46.706C59.5654 46.706 60.0368 46.8133 60.4568 47.028C60.8768 47.2333 61.2081 47.5273 61.4508 47.91L61.4788 46.93H63.0328V54H61.4788L61.4508 53.034C60.9374 53.8273 60.1114 54.224 58.9728 54.224ZM59.3788 52.782C60.0134 52.782 60.5268 52.5673 60.9188 52.138C61.3201 51.6993 61.5208 51.1393 61.5208 50.458C61.5208 49.7767 61.3201 49.2213 60.9188 48.792C60.5174 48.3627 60.0041 48.148 59.3788 48.148C58.7534 48.148 58.2401 48.3627 57.8388 48.792C57.4374 49.2213 57.2368 49.7767 57.2368 50.458C57.2368 51.1393 57.4328 51.6993 57.8248 52.138C58.2261 52.5673 58.7441 52.782 59.3788 52.782ZM65.3029 46.93H66.8429L66.8569 47.84C67.0529 47.476 67.3423 47.196 67.7249 47C68.1076 46.804 68.5509 46.706 69.0549 46.706C69.9043 46.706 70.5529 46.9673 71.0009 47.49C71.4583 48.0033 71.6869 48.7453 71.6869 49.716V54H70.0769V50.01C70.0769 49.3753 69.9556 48.904 69.7129 48.596C69.4796 48.288 69.1156 48.134 68.6209 48.134C68.0796 48.134 67.6596 48.3113 67.3609 48.666C67.0623 49.0207 66.9129 49.5153 66.9129 50.15V54H65.3029V46.93ZM76.9682 57.556C76.4922 57.556 75.9976 57.5 75.4842 57.388C74.9709 57.276 74.5696 57.1407 74.2802 56.982L74.4622 55.498C74.7702 55.694 75.1342 55.848 75.5542 55.96C75.9836 56.072 76.4176 56.128 76.8562 56.128C77.6962 56.128 78.3122 55.9273 78.7042 55.526C79.1056 55.1247 79.3062 54.4993 79.3062 53.65V53.034C78.7929 53.8273 77.9669 54.224 76.8282 54.224C76.1936 54.224 75.6196 54.07 75.1062 53.762C74.6022 53.454 74.2009 53.0153 73.9022 52.446C73.6129 51.8767 73.4682 51.2187 73.4682 50.472C73.4682 49.8 73.6129 49.1793 73.9022 48.61C74.1916 48.0407 74.5976 47.5833 75.1202 47.238C75.6522 46.8833 76.2449 46.706 76.8982 46.706C77.4209 46.706 77.8922 46.8133 78.3122 47.028C78.7322 47.2333 79.0636 47.5273 79.3062 47.91L79.3342 46.93H80.8882V53.538C80.8882 54.8633 80.5569 55.862 79.8942 56.534C79.2409 57.2153 78.2656 57.556 76.9682 57.556ZM77.2342 52.782C77.8689 52.782 78.3822 52.5673 78.7742 52.138C79.1756 51.6993 79.3762 51.1393 79.3762 50.458C79.3762 49.7767 79.1756 49.2213 78.7742 48.792C78.3729 48.3627 77.8596 48.148 77.2342 48.148C76.6089 48.148 76.0956 48.3627 75.6942 48.792C75.2929 49.2213 75.0922 49.7767 75.0922 50.458C75.0922 51.1393 75.2882 51.6993 75.6802 52.138C76.0816 52.5673 76.5996 52.782 77.2342 52.782ZM86.7424 54.224C85.9397 54.224 85.2351 54.0793 84.6284 53.79C84.0217 53.4913 83.5504 53.0573 83.2144 52.488C82.8784 51.9187 82.7104 51.2513 82.7104 50.486C82.7104 49.7673 82.8551 49.1233 83.1444 48.554C83.4431 47.9847 83.8631 47.5367 84.4044 47.21C84.9457 46.874 85.5711 46.706 86.2804 46.706C86.9244 46.706 87.4937 46.846 87.9884 47.126C88.4924 47.406 88.8844 47.812 89.1644 48.344C89.4444 48.876 89.5844 49.4967 89.5844 50.206C89.5844 50.5607 89.5657 50.8267 89.5284 51.004H84.3204C84.4231 51.6107 84.6937 52.082 85.1324 52.418C85.5804 52.7447 86.1637 52.908 86.8824 52.908C87.7224 52.908 88.5157 52.726 89.2624 52.362L89.4304 53.622C89.0851 53.8087 88.6744 53.9533 88.1984 54.056C87.7224 54.168 87.2371 54.224 86.7424 54.224ZM88.0164 49.786C87.9791 49.2073 87.8064 48.7593 87.4984 48.442C87.1904 48.1247 86.7657 47.966 86.2244 47.966C85.6924 47.966 85.2584 48.1247 84.9224 48.442C84.5864 48.7593 84.3811 49.2073 84.3064 49.786H88.0164ZM29.9837 65.288H28.4997V63.93H29.9837V61.956H31.5937V63.93H33.3997V65.288H31.5937V71H29.9837V65.288ZM34.9992 59.66H36.6092V64.756C36.8146 64.42 37.0992 64.1633 37.4632 63.986C37.8366 63.7993 38.2659 63.706 38.7512 63.706C39.6006 63.706 40.2492 63.9673 40.6972 64.49C41.1546 65.0033 41.3832 65.7453 41.3832 66.716V71H39.7732V67.01C39.7732 66.3753 39.6519 65.904 39.4092 65.596C39.1759 65.288 38.8119 65.134 38.3172 65.134C37.7759 65.134 37.3559 65.3113 37.0572 65.666C36.7586 66.0207 36.6092 66.5153 36.6092 67.15V71H34.9992V59.66ZM47.1965 71.224C46.3938 71.224 45.6892 71.0793 45.0825 70.79C44.4758 70.4913 44.0045 70.0573 43.6685 69.488C43.3325 68.9187 43.1645 68.2513 43.1645 67.486C43.1645 66.7673 43.3092 66.1233 43.5985 65.554C43.8972 64.9847 44.3172 64.5367 44.8585 64.21C45.3998 63.874 46.0252 63.706 46.7345 63.706C47.3785 63.706 47.9478 63.846 48.4425 64.126C48.9465 64.406 49.3385 64.812 49.6185 65.344C49.8985 65.876 50.0385 66.4967 50.0385 67.206C50.0385 67.5607 50.0198 67.8267 49.9825 68.004H44.7745C44.8772 68.6107 45.1478 69.082 45.5865 69.418C46.0345 69.7447 46.6178 69.908 47.3365 69.908C48.1765 69.908 48.9698 69.726 49.7165 69.362L49.8845 70.622C49.5392 70.8087 49.1285 70.9533 48.6525 71.056C48.1765 71.168 47.6912 71.224 47.1965 71.224ZM48.4705 66.786C48.4332 66.2073 48.2605 65.7593 47.9525 65.442C47.6445 65.1247 47.2198 64.966 46.6785 64.966C46.1465 64.966 45.7125 65.1247 45.3765 65.442C45.0405 65.7593 44.8352 66.2073 44.7605 66.786H48.4705ZM55.0422 63.93H56.6522V71H55.0422V63.93ZM55.8402 62.292C55.5509 62.292 55.3082 62.1987 55.1122 62.012C54.9255 61.816 54.8322 61.5733 54.8322 61.284C54.8322 60.9947 54.9255 60.7567 55.1122 60.57C55.3082 60.3833 55.5509 60.29 55.8402 60.29C56.1295 60.29 56.3675 60.3833 56.5542 60.57C56.7502 60.7567 56.8482 60.9947 56.8482 61.284C56.8482 61.5733 56.7502 61.816 56.5542 62.012C56.3675 62.1987 56.1295 62.292 55.8402 62.292ZM58.925 63.93H60.465L60.479 64.84C60.675 64.476 60.9643 64.196 61.347 64C61.7297 63.804 62.1823 63.706 62.705 63.706C63.2183 63.706 63.657 63.818 64.021 64.042C64.3943 64.2567 64.6837 64.574 64.889 64.994C65.1037 64.5927 65.421 64.28 65.841 64.056C66.261 63.8227 66.7277 63.706 67.241 63.706C68.0997 63.706 68.753 63.9673 69.201 64.49C69.6583 65.0033 69.887 65.7453 69.887 66.716V71H68.277V67.01C68.277 66.3753 68.1557 65.904 67.913 65.596C67.6797 65.288 67.3203 65.134 66.835 65.134C66.3217 65.134 65.9203 65.3113 65.631 65.666C65.351 66.0207 65.211 66.5153 65.211 67.15V71H63.601V67.01C63.601 66.366 63.4843 65.8947 63.251 65.596C63.027 65.288 62.6677 65.134 62.173 65.134C61.669 65.134 61.2677 65.316 60.969 65.68C60.6797 66.0347 60.535 66.52 60.535 67.136V71H58.925V63.93ZM75.0304 71.224C74.3957 71.224 73.8217 71.07 73.3084 70.762C72.8044 70.454 72.403 70.0153 72.1044 69.446C71.815 68.8767 71.6704 68.2187 71.6704 67.472C71.6704 66.8 71.815 66.1793 72.1044 65.61C72.3937 65.0407 72.7997 64.5833 73.3224 64.238C73.8544 63.8833 74.447 63.706 75.1004 63.706C75.623 63.706 76.0944 63.8133 76.5144 64.028C76.9344 64.2333 77.2657 64.5273 77.5084 64.91L77.5364 63.93H79.0904V71H77.5364L77.5084 70.034C76.995 70.8273 76.169 71.224 75.0304 71.224ZM75.4364 69.782C76.071 69.782 76.5844 69.5673 76.9764 69.138C77.3777 68.6993 77.5784 68.1393 77.5784 67.458C77.5784 66.7767 77.3777 66.2213 76.9764 65.792C76.575 65.3627 76.0617 65.148 75.4364 65.148C74.811 65.148 74.2977 65.3627 73.8964 65.792C73.495 66.2213 73.2944 66.7767 73.2944 67.458C73.2944 68.1393 73.4904 68.6993 73.8824 69.138C74.2837 69.5673 74.8017 69.782 75.4364 69.782ZM84.4126 74.556C83.9366 74.556 83.4419 74.5 82.9286 74.388C82.4152 74.276 82.0139 74.1407 81.7246 73.982L81.9066 72.498C82.2146 72.694 82.5786 72.848 82.9986 72.96C83.4279 73.072 83.8619 73.128 84.3006 73.128C85.1406 73.128 85.7566 72.9273 86.1486 72.526C86.5499 72.1247 86.7506 71.4993 86.7506 70.65V70.034C86.2372 70.8273 85.4112 71.224 84.2726 71.224C83.6379 71.224 83.0639 71.07 82.5506 70.762C82.0466 70.454 81.6452 70.0153 81.3466 69.446C81.0572 68.8767 80.9126 68.2187 80.9126 67.472C80.9126 66.8 81.0572 66.1793 81.3466 65.61C81.6359 65.0407 82.0419 64.5833 82.5646 64.238C83.0966 63.8833 83.6892 63.706 84.3426 63.706C84.8652 63.706 85.3366 63.8133 85.7566 64.028C86.1766 64.2333 86.5079 64.5273 86.7506 64.91L86.7786 63.93H88.3326V70.538C88.3326 71.8633 88.0012 72.862 87.3386 73.534C86.6852 74.2153 85.7099 74.556 84.4126 74.556ZM84.6786 69.782C85.3132 69.782 85.8266 69.5673 86.2186 69.138C86.6199 68.6993 86.8206 68.1393 86.8206 67.458C86.8206 66.7767 86.6199 66.2213 86.2186 65.792C85.8172 65.3627 85.3039 65.148 84.6786 65.148C84.0532 65.148 83.5399 65.3627 83.1386 65.792C82.7372 66.2213 82.5366 66.7767 82.5366 67.458C82.5366 68.1393 82.7326 68.6993 83.1246 69.138C83.5259 69.5673 84.0439 69.782 84.6786 69.782ZM94.1868 71.224C93.3841 71.224 92.6794 71.0793 92.0728 70.79C91.4661 70.4913 90.9948 70.0573 90.6588 69.488C90.3228 68.9187 90.1548 68.2513 90.1548 67.486C90.1548 66.7673 90.2994 66.1233 90.5888 65.554C90.8874 64.9847 91.3074 64.5367 91.8488 64.21C92.3901 63.874 93.0154 63.706 93.7248 63.706C94.3688 63.706 94.9381 63.846 95.4328 64.126C95.9368 64.406 96.3288 64.812 96.6088 65.344C96.8888 65.876 97.0288 66.4967 97.0288 67.206C97.0288 67.5607 97.0101 67.8267 96.9728 68.004H91.7648C91.8674 68.6107 92.1381 69.082 92.5768 69.418C93.0248 69.7447 93.6081 69.908 94.3268 69.908C95.1668 69.908 95.9601 69.726 96.7068 69.362L96.8748 70.622C96.5294 70.8087 96.1188 70.9533 95.6428 71.056C95.1668 71.168 94.6814 71.224 94.1868 71.224ZM95.4608 66.786C95.4234 66.2073 95.2508 65.7593 94.9428 65.442C94.6348 65.1247 94.2101 64.966 93.6688 64.966C93.1368 64.966 92.7028 65.1247 92.3668 65.442C92.0308 65.7593 91.8254 66.2073 91.7508 66.786H95.4608Z" fill="#333333"/>
</svg>
