<svg width="19px" height="17px" viewBox="0 0 19px 17px" fill="none" xmlns="http://www.w3.org/2000/svg">
    <path d="M16.1367 1.5C16.9805 2.22656 17.543 3.09375 17.8242 4.10156C18.1055 5.08594 18.1172 6.03516 17.8594 6.94922C17.6016 7.86328 17.1562 8.64844 16.5234 9.30469L10.3711 15.5625C9.99609 15.9375 9.55078 16.125 9.03516 16.125C8.51953 16.125 8.07422 15.9375 7.69922 15.5625L1.54688 9.30469C0.914062 8.64844 0.46875 7.86328 0.210938 6.94922C-0.046875 6.01172 -0.0351562 5.05078 0.246094 4.06641C0.527344 3.08203 1.08984 2.22656 1.93359 1.5C2.94141 0.65625 4.125 0.292969 5.48438 0.410156C6.86719 0.503906 8.05078 1.04297 9.03516 2.02734C10.0195 1.04297 11.1914 0.503906 12.5508 0.410156C13.9336 0.292969 15.1289 0.65625 16.1367 1.5ZM15.3281 8.10938C16.0078 7.40625 16.3477 6.55078 16.3477 5.54297C16.3477 4.51172 15.9258 3.59766 15.082 2.80078C14.3789 2.23828 13.5586 1.99219 12.6211 2.0625C11.707 2.13281 10.9219 2.50781 10.2656 3.1875L9.03516 4.41797L7.80469 3.1875C7.14844 2.50781 6.35156 2.13281 5.41406 2.0625C4.5 1.99219 3.69141 2.23828 2.98828 2.80078C2.14453 3.59766 1.72266 4.51172 1.72266 5.54297C1.72266 6.55078 2.0625 7.40625 2.74219 8.10938L8.92969 14.3672C9 14.4609 9.07031 14.4609 9.14062 14.3672L15.3281 8.10938Z" fill="#666666"/>
</svg>
