<svg width="32px" height="33px" viewBox="0 0 32px 33px" fill="none" xmlns="http://www.w3.org/2000/svg">
    <path d="M28.125 0.75C29.0625 0.75 29.8594 1.07813 30.5156 1.73438C31.1719 2.39062 31.5 3.1875 31.5 4.125V28.875C31.5 29.8125 31.1719 30.6094 30.5156 31.2656C29.8594 31.9219 29.0625 32.25 28.125 32.25H18.4922V21.5625H22.5703L23.3438 16.5H18.4922V13.1953C18.4922 11.4141 19.4297 10.5234 21.3047 10.5234H23.4844V6.23438C22.1719 6 20.8828 5.88281 19.6172 5.88281C18.2578 5.88281 17.0859 6.14063 16.1016 6.65625C15.1641 7.17187 14.4141 7.94531 13.8516 8.97656C13.2891 10.0078 13.0078 11.2266 13.0078 12.6328V16.5H8.57812V21.5625H13.0078V32.25H3.375C2.4375 32.25 1.64062 31.9219 0.984375 31.2656C0.328125 30.6094 0 29.8125 0 28.875V4.125C0 3.1875 0.328125 2.39062 0.984375 1.73438C1.64062 1.07813 2.4375 0.75 3.375 0.75H28.125Z" fill="white"/>
</svg>
