<svg width="40px" height="40px" viewBox="0 0 40px 40px" fill="none" xmlns="http://www.w3.org/2000/svg">
    <rect x="1" y="1" width="38" height="38" rx="3" stroke="#795548" stroke-width="2"/>
    <path d="M17.1523 17.4023C17.9492 16.6055 18.9102 16.207 20.0352 16.207C21.1602 16.207 22.1094 16.6055 22.8828 17.4023C23.6797 18.1758 24.0781 19.125 24.0781 20.25C24.0781 21.375 23.6797 22.3359 22.8828 23.1328C22.1094 23.9062 21.1602 24.293 20.0352 24.293C18.9102 24.293 17.9492 23.9062 17.1523 23.1328C16.3789 22.3359 15.9922 21.375 15.9922 20.25C15.9922 19.125 16.3789 18.1758 17.1523 17.4023ZM18.1719 22.1133C18.6875 22.6289 19.3086 22.8867 20.0352 22.8867C20.7617 22.8867 21.3828 22.6289 21.8984 22.1133C22.4141 21.5977 22.6719 20.9766 22.6719 20.25C22.6719 19.5234 22.4141 18.9023 21.8984 18.3867C21.3828 17.8711 20.7617 17.6133 20.0352 17.6133C19.3086 17.6133 18.6875 17.8711 18.1719 18.3867C17.6562 18.9023 17.3984 19.5234 17.3984 20.25C17.3984 20.9766 17.6562 21.5977 18.1719 22.1133ZM24.8867 15.3984C25.0742 15.5625 25.168 15.7734 25.168 16.0312C25.168 16.2891 25.0742 16.5117 24.8867 16.6992C24.7227 16.8867 24.5117 16.9805 24.2539 16.9805C23.9961 16.9805 23.7734 16.8867 23.5859 16.6992C23.3984 16.5117 23.3047 16.2891 23.3047 16.0312C23.3047 15.7734 23.3984 15.5625 23.5859 15.3984C23.7734 15.2109 23.9961 15.1172 24.2539 15.1172C24.5117 15.1172 24.7227 15.2109 24.8867 15.3984ZM27.875 17.0156C27.8984 17.6484 27.9102 18.7266 27.9102 20.25C27.9102 21.7734 27.8984 22.8516 27.875 23.4844C27.8047 24.9141 27.3711 26.0273 26.5742 26.8242C25.8008 27.5977 24.6992 28.0078 23.2695 28.0547C22.6367 28.1016 21.5586 28.125 20.0352 28.125C18.5117 28.125 17.4336 28.1016 16.8008 28.0547C15.3711 27.9844 14.2695 27.5625 13.4961 26.7891C13.1914 26.5078 12.9453 26.1797 12.7578 25.8047C12.5703 25.4297 12.4297 25.0664 12.3359 24.7148C12.2656 24.3633 12.2305 23.9531 12.2305 23.4844C12.1836 22.8516 12.1602 21.7734 12.1602 20.25C12.1602 18.7266 12.1836 17.6367 12.2305 16.9805C12.3008 15.5742 12.7227 14.4844 13.4961 13.7109C14.2695 12.9141 15.3711 12.4805 16.8008 12.4102C17.4336 12.3867 18.5117 12.375 20.0352 12.375C21.5586 12.375 22.6367 12.3867 23.2695 12.4102C24.6992 12.4805 25.8008 12.9141 26.5742 13.7109C27.3711 14.4844 27.8047 15.5859 27.875 17.0156ZM26.1875 24.8906C26.2578 24.7031 26.3164 24.4688 26.3633 24.1875C26.4102 23.8828 26.4453 23.5312 26.4688 23.1328C26.4922 22.7109 26.5039 22.3711 26.5039 22.1133C26.5039 21.8555 26.5039 21.4922 26.5039 21.0234C26.5039 20.5547 26.5039 20.2969 26.5039 20.25C26.5039 20.1797 26.5039 19.9219 26.5039 19.4766C26.5039 19.0078 26.5039 18.6445 26.5039 18.3867C26.5039 18.1289 26.4922 17.8008 26.4688 17.4023C26.4453 16.9805 26.4102 16.6289 26.3633 16.3477C26.3164 16.043 26.2578 15.7969 26.1875 15.6094C25.9062 14.8828 25.4023 14.3789 24.6758 14.0977C24.4883 14.0273 24.2422 13.9688 23.9375 13.9219C23.6562 13.875 23.3047 13.8398 22.8828 13.8164C22.4844 13.793 22.1562 13.7812 21.8984 13.7812C21.6641 13.7812 21.3008 13.7812 20.8086 13.7812C20.3398 13.7812 20.082 13.7812 20.0352 13.7812C19.9883 13.7812 19.7305 13.7812 19.2617 13.7812C18.793 13.7812 18.4297 13.7812 18.1719 13.7812C17.9141 13.7812 17.5742 13.793 17.1523 13.8164C16.7539 13.8398 16.4023 13.875 16.0977 13.9219C15.8164 13.9688 15.582 14.0273 15.3945 14.0977C14.668 14.3789 14.1641 14.8828 13.8828 15.6094C13.8125 15.7969 13.7539 16.043 13.707 16.3477C13.6602 16.6289 13.625 16.9805 13.6016 17.4023C13.5781 17.8008 13.5664 18.1289 13.5664 18.3867C13.5664 18.6211 13.5664 18.9844 13.5664 19.4766C13.5664 19.9453 13.5664 20.2031 13.5664 20.25C13.5664 20.3438 13.5664 20.5664 13.5664 20.918C13.5664 21.2461 13.5664 21.5273 13.5664 21.7617C13.5664 21.9727 13.5664 22.2539 13.5664 22.6055C13.5898 22.957 13.6133 23.2617 13.6367 23.5195C13.6602 23.7539 13.6953 24 13.7422 24.2578C13.7891 24.5156 13.8359 24.7266 13.8828 24.8906C14.1875 25.6172 14.6914 26.1211 15.3945 26.4023C15.582 26.4727 15.8164 26.5312 16.0977 26.5781C16.4023 26.625 16.7539 26.6602 17.1523 26.6836C17.5742 26.707 17.9023 26.7188 18.1367 26.7188C18.3945 26.7188 18.7578 26.7188 19.2266 26.7188C19.7188 26.7188 19.9883 26.7188 20.0352 26.7188C20.1055 26.7188 20.3633 26.7188 20.8086 26.7188C21.2773 26.7188 21.6406 26.7188 21.8984 26.7188C22.1562 26.7188 22.4844 26.707 22.8828 26.6836C23.3047 26.6602 23.6562 26.625 23.9375 26.5781C24.2422 26.5312 24.4883 26.4727 24.6758 26.4023C25.4023 26.0977 25.9062 25.5938 26.1875 24.8906Z" fill="#795548"/>
</svg>
