<svg width="21" height="24" viewBox="0 0 21 24" fill="none" xmlns="http://www.w3.org/2000/svg">
<path d="M12.5625 19.5C12.1875 19.5 12 19.3125 12 18.9375V8.8125C12 8.4375 12.1875 8.25 12.5625 8.25H13.6875C14.0625 8.25 14.25 8.4375 14.25 8.8125V18.9375C14.25 19.3125 14.0625 19.5 13.6875 19.5H12.5625ZM20.25 3.75C20.4688 3.75 20.6406 3.82813 20.7656 3.98438C20.9219 4.10938 21 4.28125 21 4.5V5.25C21 5.46875 20.9219 5.65625 20.7656 5.8125C20.6406 5.9375 20.4688 6 20.25 6H19.5V21.75C19.5 22.375 19.2812 22.9062 18.8438 23.3438C18.4062 23.7812 17.875 24 17.25 24H3.75C3.125 24 2.59375 23.7812 2.15625 23.3438C1.71875 22.9062 1.5 22.375 1.5 21.75V6H0.75C0.53125 6 0.34375 5.9375 0.1875 5.8125C0.0625 5.65625 0 5.46875 0 5.25V4.5C0 4.28125 0.0625 4.10938 0.1875 3.98438C0.34375 3.82813 0.53125 3.75 0.75 3.75H4.59375L6.1875 1.07812C6.375 0.796875 6.65625 0.546875 7.03125 0.328125C7.40625 0.109375 7.78125 0 8.15625 0H12.8438C13.0938 0 13.3438 0.046875 13.5938 0.140625C13.8438 0.234375 14.0781 0.375 14.2969 0.5625C14.5156 0.71875 14.6875 0.890625 14.8125 1.07812L16.4062 3.75H20.25ZM8.0625 2.39062L7.21875 3.75H13.7812L12.9375 2.39062C12.875 2.29688 12.7969 2.25 12.7031 2.25H8.29688C8.20312 2.25 8.125 2.29688 8.0625 2.39062ZM17.25 21.75V6H3.75V21.75H17.25ZM7.3125 19.5C6.9375 19.5 6.75 19.3125 6.75 18.9375V8.8125C6.75 8.4375 6.9375 8.25 7.3125 8.25H8.4375C8.8125 8.25 9 8.4375 9 8.8125V18.9375C9 19.3125 8.8125 19.5 8.4375 19.5H7.3125Z" fill="white"/>
</svg>
