<svg width="23px" height="23px" viewBox="0 0 23px 23px" fill="none" xmlns="http://www.w3.org/2000/svg">
    <path d="M13.7109 11.5L22.4297 20.2188C22.6641 20.4531 22.6641 20.7109 22.4297 20.9922L20.8125 22.6094C20.5312 22.8438 20.2734 22.8438 20.0391 22.6094L18.5625 21.0625L11.3203 13.8906L2.60156 22.6094C2.36719 22.8438 2.10938 22.8438 1.82812 22.6094L0.210938 20.9922C-0.0234375 20.7109 -0.0234375 20.4531 0.210938 20.2188L8.92969 11.5L0.210938 2.78125C-0.0234375 2.54688 -0.0234375 2.28906 0.210938 2.00781L1.82812 0.390625C2.10938 0.15625 2.36719 0.15625 2.60156 0.390625L11.3203 9.10938L20.0391 0.390625C20.2734 0.15625 20.5312 0.15625 20.8125 0.390625L22.4297 2.00781C22.6641 2.28906 22.6641 2.54688 22.4297 2.78125L20.8828 4.25781L13.7109 11.5Z" fill="#666666"/>
</svg>
