<svg width="18px" height="16px" viewBox="0 0 18px 16px" fill="none" xmlns="http://www.w3.org/2000/svg">
    <path d="M0.492188 12.6797C0.820312 12.3516 1.21875 12.1875 1.6875 12.1875C2.15625 12.1875 2.55469 12.3516 2.88281 12.6797C3.21094 13.0078 3.375 13.4062 3.375 13.875C3.375 14.3438 3.21094 14.7422 2.88281 15.0703C2.55469 15.3984 2.15625 15.5625 1.6875 15.5625C1.21875 15.5625 0.820312 15.3984 0.492188 15.0703C0.164063 14.7422 0 14.3438 0 13.875C0 13.4062 0.164063 13.0078 0.492188 12.6797ZM0.492188 7.05469C0.820312 6.72656 1.21875 6.5625 1.6875 6.5625C2.15625 6.5625 2.55469 6.72656 2.88281 7.05469C3.21094 7.38281 3.375 7.78125 3.375 8.25C3.375 8.71875 3.21094 9.11719 2.88281 9.44531C2.55469 9.77344 2.15625 9.9375 1.6875 9.9375C1.21875 9.9375 0.820312 9.77344 0.492188 9.44531C0.164063 9.11719 0 8.71875 0 8.25C0 7.78125 0.164063 7.38281 0.492188 7.05469ZM0.492188 1.42969C0.820312 1.10156 1.21875 0.9375 1.6875 0.9375C2.15625 0.9375 2.55469 1.10156 2.88281 1.42969C3.21094 1.75781 3.375 2.15625 3.375 2.625C3.375 3.09375 3.21094 3.49219 2.88281 3.82031C2.55469 4.14844 2.15625 4.3125 1.6875 4.3125C1.21875 4.3125 0.820312 4.14844 0.492188 3.82031C0.164063 3.49219 0 3.09375 0 2.625C0 2.15625 0.164063 1.75781 0.492188 1.42969ZM17.4375 1.78125C17.6016 1.78125 17.7305 1.83984 17.8242 1.95703C17.9414 2.05078 18 2.17969 18 2.34375V2.90625C18 3.07031 17.9414 3.21094 17.8242 3.32812C17.7305 3.42188 17.6016 3.46875 17.4375 3.46875H6.1875C6.02344 3.46875 5.88281 3.42188 5.76562 3.32812C5.67188 3.21094 5.625 3.07031 5.625 2.90625V2.34375C5.625 2.17969 5.67188 2.05078 5.76562 1.95703C5.88281 1.83984 6.02344 1.78125 6.1875 1.78125H17.4375ZM17.4375 7.40625C17.6016 7.40625 17.7305 7.46484 17.8242 7.58203C17.9414 7.67578 18 7.80469 18 7.96875V8.53125C18 8.69531 17.9414 8.83594 17.8242 8.95312C17.7305 9.04688 17.6016 9.09375 17.4375 9.09375H6.1875C6.02344 9.09375 5.88281 9.04688 5.76562 8.95312C5.67188 8.83594 5.625 8.69531 5.625 8.53125V7.96875C5.625 7.80469 5.67188 7.67578 5.76562 7.58203C5.88281 7.46484 6.02344 7.40625 6.1875 7.40625H17.4375ZM17.4375 13.0312C17.6016 13.0312 17.7305 13.0898 17.8242 13.207C17.9414 13.3008 18 13.4297 18 13.5938V14.1562C18 14.3203 17.9414 14.4609 17.8242 14.5781C17.7305 14.6719 17.6016 14.7188 17.4375 14.7188H6.1875C6.02344 14.7188 5.88281 14.6719 5.76562 14.5781C5.67188 14.4609 5.625 14.3203 5.625 14.1562V13.5938C5.625 13.4297 5.67188 13.3008 5.76562 13.207C5.88281 13.0898 6.02344 13.0312 6.1875 13.0312H17.4375Z" fill="#333333"/>
</svg>
