<svg width="32px" height="33px" viewBox="0 0 32px 33px" fill="none" xmlns="http://www.w3.org/2000/svg">
    <path d="M28.125 0.75C29.0625 0.75 29.8594 1.07813 30.5156 1.73438C31.1719 2.39062 31.5 3.1875 31.5 4.125V28.875C31.5 29.8125 31.1719 30.6094 30.5156 31.2656C29.8594 31.9219 29.0625 32.25 28.125 32.25H3.375C2.4375 32.25 1.64062 31.9219 0.984375 31.2656C0.328125 30.6094 0 29.8125 0 28.875V4.125C0 3.1875 0.328125 2.39062 0.984375 1.73438C1.64062 1.07813 2.4375 0.75 3.375 0.75H28.125ZM24.6797 11.9297C25.5703 11.2734 26.3438 10.4766 27 9.53906C26.1094 9.91406 25.2188 10.1484 24.3281 10.2422C25.3125 9.63281 25.9922 8.78906 26.3672 7.71094C25.4297 8.27344 24.4453 8.64844 23.4141 8.83594C22.5234 7.85156 21.4219 7.35938 20.1094 7.35938C18.6562 7.35938 17.4609 7.92188 16.5234 9.04688C15.5859 10.1719 15.2812 11.5078 15.6094 13.0547C11.7188 12.8203 8.53125 11.2031 6.04688 8.20312C5.625 8.90625 5.41406 9.67969 5.41406 10.5234C5.41406 10.9922 5.50781 11.4844 5.69531 12C5.88281 12.4688 6.14062 12.9141 6.46875 13.3359C6.79688 13.7578 7.14844 14.1094 7.52344 14.3906C6.77344 14.3438 6.07031 14.1328 5.41406 13.7578V13.8281C5.41406 14.9531 5.76562 15.9375 6.46875 16.7812C7.17188 17.625 8.0625 18.1641 9.14062 18.3984C8.48438 18.5391 7.78125 18.5625 7.03125 18.4688C7.3125 19.4062 7.85156 20.1797 8.64844 20.7891C9.44531 21.3516 10.3359 21.6328 11.3203 21.6328C9.63281 22.9453 7.73438 23.6016 5.625 23.6016C5.20312 23.6016 4.82812 23.5781 4.5 23.5312C6.65625 24.9375 9.02344 25.6406 11.6016 25.6406C14.2734 25.6406 16.6406 24.9609 18.7031 23.6016C20.7656 22.2422 22.2656 20.5781 23.2031 18.6094C24.1875 16.6406 24.6797 14.6016 24.6797 12.4922C24.6797 12.2578 24.6797 12.0703 24.6797 11.9297Z" fill="white"/>
</svg>
