<svg width="40px" height="40px" viewBox="0 0 40px 40px" fill="none" xmlns="http://www.w3.org/2000/svg">
    <rect x="1" y="1" width="38" height="38" rx="3" stroke="#795548" stroke-width="2"/>
    <path d="M24.1836 21.375H21.5469V29.25H18.0312V21.375H15.1836V18.1055H18.0312V15.6445C18.0312 14.707 18.207 13.9102 18.5586 13.2539C18.9102 12.5977 19.4023 12.1055 20.0352 11.7773C20.6914 11.4258 21.4414 11.25 22.2852 11.25C22.6602 11.25 23.0586 11.2734 23.4805 11.3203C23.9023 11.3438 24.2305 11.3789 24.4648 11.4258L24.8164 11.4609V14.2383H23.4102C22.7539 14.2383 22.2734 14.4141 21.9688 14.7656C21.6875 15.0938 21.5469 15.5039 21.5469 15.9961V18.1055H24.6758L24.1836 21.375Z" fill="#795548"/>
</svg>
