<svg width="36px" height="35px" viewBox="0 0 36px 35px" fill="none" xmlns="http://www.w3.org/2000/svg">
    <path d="M18 2.3125C13.7812 2.3125 10.1953 3.8125 7.24219 6.8125C4.28906 9.76562 2.8125 13.3281 2.8125 17.5C2.8125 21.7188 4.28906 25.3047 7.24219 28.2578C10.2422 31.2109 13.8281 32.6875 18 32.6875C22.2188 32.6875 25.8047 31.2109 28.7578 28.2578C31.7109 25.2578 33.1875 21.6719 33.1875 17.5C33.1875 13.2812 31.6875 9.69531 28.6875 6.74219C25.7344 3.78906 22.1719 2.3125 18 2.3125ZM5.625 5.19531C9.04688 1.77344 13.1719 0.0625 18 0.0625C22.8281 0.0625 26.9297 1.77344 30.3047 5.19531C33.7266 8.57031 35.4375 12.6719 35.4375 17.5C35.4375 22.3281 33.7266 26.4531 30.3047 29.875C26.9297 33.25 22.8281 34.9375 18 34.9375C13.1719 34.9375 9.04688 33.25 5.625 29.875C2.25 26.4531 0.5625 22.3281 0.5625 17.5C0.5625 12.6719 2.25 8.57031 5.625 5.19531ZM15.4688 24.25H16.3125V15.8125H15.4688C14.9062 15.8125 14.625 15.5312 14.625 14.9688V14.4062C14.625 13.8438 14.9062 13.5625 15.4688 13.5625H18.8438C19.4062 13.5625 19.6875 13.8438 19.6875 14.4062V24.25H20.5312C21.0938 24.25 21.375 24.5312 21.375 25.0938V25.6562C21.375 26.2188 21.0938 26.5 20.5312 26.5H15.4688C14.9062 26.5 14.625 26.2188 14.625 25.6562V25.0938C14.625 24.5312 14.9062 24.25 15.4688 24.25ZM16.3828 8.07812C16.8516 7.60937 17.3906 7.375 18 7.375C18.6094 7.375 19.125 7.60937 19.5469 8.07812C20.0156 8.5 20.25 9.01562 20.25 9.625C20.25 10.2344 20.0156 10.7734 19.5469 11.2422C19.125 11.6641 18.6094 11.875 18 11.875C17.3906 11.875 16.8516 11.6641 16.3828 11.2422C15.9609 10.7734 15.75 10.2344 15.75 9.625C15.75 9.01562 15.9609 8.5 16.3828 8.07812Z" fill="#0C91A6"/>
</svg>
