<svg width="52px" height="38px" viewBox="0 0 52px 38px" fill="none" xmlns="http://www.w3.org/2000/svg">
    <path d="M40.2188 15.3047C41.6719 16.1016 42.8203 17.2266 43.6641 18.6797C44.5547 20.0859 45 21.6094 45 23.25C45 25.7344 44.1094 27.8672 42.3281 29.6484C40.5938 31.3828 38.4844 32.25 36 32.25H10.125C7.3125 32.25 4.92188 31.2656 2.95312 29.2969C0.984375 27.3281 0 24.9375 0 22.125C0 19.9688 0.609375 18.0234 1.82812 16.2891C3.09375 14.5078 4.73438 13.2656 6.75 12.5625C6.89062 9.28125 8.15625 6.49219 10.5469 4.19531C12.9375 1.89844 15.7969 0.75 19.125 0.75C21.1875 0.75 23.1094 1.21875 24.8906 2.15625C26.6719 3.09375 28.125 4.38281 29.25 6.02344C30.3281 5.50781 31.4531 5.25 32.625 5.25C34.7812 5.25 36.6328 6.02344 38.1797 7.57031C39.7266 9.11719 40.5 10.9687 40.5 13.125C40.5 13.875 40.4062 14.6016 40.2188 15.3047ZM36 30C37.875 30 39.4688 29.3438 40.7812 28.0312C42.0938 26.7188 42.75 25.125 42.75 23.25C42.75 21.5625 42.2109 20.1094 41.1328 18.8906C40.0547 17.625 38.6953 16.8516 37.0547 16.5703C37.8516 15.5859 38.25 14.4375 38.25 13.125C38.25 11.5781 37.6875 10.2656 36.5625 9.1875C35.4844 8.0625 34.1719 7.5 32.625 7.5C30.9844 7.5 29.6016 8.10938 28.4766 9.32812C27.7266 7.45312 26.5078 5.92969 24.8203 4.75781C23.1328 3.58594 21.2344 3 19.125 3C16.3125 3 13.9219 3.98438 11.9531 5.95312C9.98438 7.92188 9 10.3125 9 13.125C9 13.5469 9.02344 13.9453 9.07031 14.3203C7.14844 14.6016 5.53125 15.4922 4.21875 16.9922C2.90625 18.4453 2.25 20.1562 2.25 22.125C2.25 24.2812 3.02344 26.1328 4.57031 27.6797C6.11719 29.2266 7.96875 30 10.125 30H36ZM27 15.9375C28.0312 15.9375 28.7344 16.4297 29.1094 17.4141C29.4844 18.3516 29.2734 19.1719 28.4766 19.875L22.8516 24.9375C22.4297 25.3125 21.9375 25.5 21.375 25.5C20.8125 25.5 20.3203 25.3125 19.8984 24.9375L14.2734 19.875C13.4766 19.1719 13.2656 18.3516 13.6406 17.4141C14.0156 16.4297 14.7188 15.9375 15.75 15.9375H20.25V10.0312C20.25 9.46875 20.5312 9.1875 21.0938 9.1875H21.6562C22.2188 9.1875 22.5 9.46875 22.5 10.0312V15.9375H27ZM21.375 23.25L27 18.1875H15.75L21.375 23.25Z" fill="#ffffff"/>
</svg>
