<svg width="36px" height="35px" viewBox="0 0 36px 35px" fill="none" xmlns="http://www.w3.org/2000/svg">
    <path d="M34.0312 1.46875C34.2656 1.23438 34.5469 1.1875 34.875 1.32812C35.25 1.46875 35.4375 1.72656 35.4375 2.10156V12.1562C35.4375 12.7188 35.1562 13 34.5938 13H24.5391C24.1641 13 23.9062 12.8359 23.7656 12.5078C23.625 12.1328 23.6719 11.8281 23.9062 11.5938L27.7734 7.72656C25.0547 5.05469 21.7969 3.71875 18 3.71875C14.3438 3.71875 11.1797 4.98438 8.50781 7.51562C5.88281 10 4.45312 13.0703 4.21875 16.7266C4.21875 17.2422 3.9375 17.5 3.375 17.5H1.40625C1.17188 17.5 0.960938 17.4297 0.773438 17.2891C0.632812 17.1016 0.5625 16.8672 0.5625 16.5859C0.796875 11.9922 2.60156 8.10156 5.97656 4.91406C9.35156 1.67969 13.3594 0.0625 18 0.0625C22.8281 0.0625 26.9297 1.77344 30.3047 5.19531L34.0312 1.46875ZM34.5938 17.5C34.8281 17.5 35.0156 17.5938 35.1562 17.7812C35.3438 17.9219 35.4375 18.1328 35.4375 18.4141C35.2031 23.0078 33.3984 26.9219 30.0234 30.1562C26.6484 33.3438 22.6406 34.9375 18 34.9375C13.1719 34.9375 9.07031 33.2266 5.69531 29.8047L1.96875 33.5312C1.73438 33.7656 1.42969 33.8125 1.05469 33.6719C0.726562 33.5312 0.5625 33.2734 0.5625 32.8984V22.8438C0.5625 22.2812 0.84375 22 1.40625 22H11.4609C11.8359 22 12.0938 22.1875 12.2344 22.5625C12.375 22.8906 12.3281 23.1719 12.0938 23.4062L8.22656 27.2734C10.9453 29.9453 14.2031 31.2812 18 31.2812C21.6562 31.2812 24.7969 30.0391 27.4219 27.5547C30.0938 25.0234 31.5469 21.9297 31.7812 18.2734C31.7812 17.7578 32.0625 17.5 32.625 17.5H34.5938Z" fill="#2ECEE8"/>
</svg>
