<svg width="24" height="24" viewBox="0 0 24 24" fill="none" xmlns="http://www.w3.org/2000/svg">
<path d="M11.9991 14.6985C13.4419 14.6985 14.6116 13.5217 14.6116 12.07C14.6116 10.6183 13.4419 9.44141 11.9991 9.44141C10.5562 9.44141 9.38647 10.6183 9.38647 12.07C9.38647 13.5217 10.5562 14.6985 11.9991 14.6985Z" fill="#FAE31B"/>
<path d="M23.4287 10.9452H21.4751C20.963 6.54928 17.4871 3.05203 13.1179 2.53682V0.571289H10.8823V2.53682C6.51311 3.05203 3.03716 6.54928 2.52509 10.9452H0.571533V13.1946H2.52509C3.03716 17.5905 6.51311 21.0878 10.8823 21.603V23.5685H13.1179V21.603C17.4871 21.0878 20.963 17.5905 21.4751 13.1946H23.4287V10.9452ZM13.1169 19.3343V17.5209H10.8812V19.3343C7.74594 18.848 5.2622 16.3491 4.77887 13.1946H6.58125V10.9452H4.77887C5.2622 7.79072 7.74594 5.29177 10.8812 4.80547V6.61997H13.1169V4.80547C16.2522 5.29177 18.7359 7.79072 19.2192 10.9452H17.4168V13.1946H19.2192C18.7359 16.3491 16.2522 18.848 13.1169 19.3343Z" fill="#333333"/>
</svg>
