<svg width="25" height="24" viewBox="0 0 25 24" fill="none" xmlns="http://www.w3.org/2000/svg">
    <path d="M16.3423 8.34375L17.4204 9.46875C17.6392 9.6875 17.6392 9.90625 17.4204 10.125L11.8892 15.6094C11.6704 15.8281 11.4517 15.8281 11.2329 15.6094L8.04541 12.375C7.82666 12.1562 7.82666 11.9375 8.04541 11.7188L9.17041 10.6406C9.38916 10.4219 9.60791 10.4219 9.82666 10.6406L11.561 12.4219L15.686 8.34375C15.9048 8.125 16.1235 8.125 16.3423 8.34375ZM22.5298 7.92188C23.9985 8.89062 24.7329 10.25 24.7329 12C24.7329 13.75 23.9985 15.1094 22.5298 16.0781C22.9048 17.7656 22.4673 19.2344 21.2173 20.4844C19.9673 21.7344 18.4985 22.1719 16.811 21.7969C15.8423 23.2656 14.4829 24 12.7329 24C10.9829 24 9.62354 23.2656 8.65479 21.7969C6.93604 22.1719 5.45166 21.7344 4.20166 20.4844C2.98291 19.2344 2.56104 17.7656 2.93604 16.0781C1.46729 15.1094 0.73291 13.75 0.73291 12C0.73291 10.25 1.46729 8.89062 2.93604 7.92188C2.56104 6.23438 2.99854 4.76563 4.24854 3.51562C5.49854 2.26562 6.96729 1.82812 8.65479 2.20312C9.62354 0.734375 10.9829 0 12.7329 0C14.4829 0 15.8423 0.734375 16.811 2.20312C18.4985 1.82812 19.9673 2.26562 21.2173 3.51562C22.4673 4.76563 22.9048 6.23438 22.5298 7.92188ZM19.6704 14.8594C19.7017 14.8594 19.8267 14.8281 20.0454 14.7656C20.2954 14.6719 20.4673 14.6094 20.561 14.5781C20.686 14.5156 20.8579 14.4219 21.0767 14.2969C21.3267 14.1719 21.5142 14.0469 21.6392 13.9219C21.7642 13.7969 21.9048 13.6406 22.061 13.4531C22.2173 13.2656 22.3267 13.0469 22.3892 12.7969C22.4517 12.5469 22.4829 12.2812 22.4829 12C22.4829 11.7812 22.4517 11.5781 22.3892 11.3906C22.3579 11.2031 22.2954 11.0312 22.2017 10.875C22.1392 10.7188 22.061 10.5781 21.9673 10.4531C21.8735 10.2969 21.7485 10.1719 21.5923 10.0781C21.4673 9.98438 21.3423 9.90625 21.2173 9.84375C21.1235 9.75 20.9829 9.67188 20.7954 9.60938C20.6392 9.51562 20.5142 9.45312 20.4204 9.42188C20.3267 9.39062 20.186 9.34375 19.9985 9.28125C19.811 9.21875 19.7017 9.17188 19.6704 9.14062C19.6704 9.10938 19.7173 8.98438 19.811 8.76562C19.936 8.54688 20.0142 8.375 20.0454 8.25C20.1079 8.125 20.1704 7.95313 20.2329 7.73438C20.3267 7.48438 20.3735 7.26562 20.3735 7.07812C20.3735 6.89062 20.3579 6.6875 20.3267 6.46875C20.3267 6.21875 20.2642 5.98438 20.1392 5.76562C20.0142 5.54687 19.8423 5.32813 19.6235 5.10938C19.4673 4.95313 19.2954 4.82812 19.1079 4.73438C18.9517 4.60937 18.7798 4.53125 18.5923 4.5C18.436 4.4375 18.2798 4.39063 18.1235 4.35938C17.9985 4.32812 17.8423 4.32812 17.6548 4.35938C17.4673 4.39063 17.311 4.42187 17.186 4.45312C17.061 4.45312 16.9048 4.5 16.7173 4.59375C16.5298 4.65625 16.3892 4.70312 16.2954 4.73438C16.2329 4.76563 16.1079 4.82812 15.9204 4.92188C15.7642 5.01562 15.6548 5.0625 15.5923 5.0625C15.5923 5.0625 15.5454 4.9375 15.4517 4.6875C15.3892 4.4375 15.3267 4.26562 15.2642 4.17188C15.2017 4.04687 15.1079 3.875 14.9829 3.65625C14.8892 3.40625 14.7798 3.21875 14.6548 3.09375C14.5298 2.96875 14.3735 2.82812 14.186 2.67188C13.9985 2.51563 13.7798 2.40625 13.5298 2.34375C13.2798 2.28125 13.0142 2.25 12.7329 2.25C12.4829 2.25 12.2485 2.28125 12.0298 2.34375C11.811 2.40625 11.6235 2.48438 11.4673 2.57812C11.311 2.64062 11.1548 2.75 10.9985 2.90625C10.8735 3.0625 10.7642 3.1875 10.6704 3.28125C10.5767 3.375 10.4829 3.53125 10.3892 3.75C10.2954 3.96875 10.2173 4.125 10.1548 4.21875C10.1235 4.3125 10.061 4.46875 9.96729 4.6875C9.90479 4.90625 9.87354 5.03125 9.87354 5.0625C9.84229 5.0625 9.70166 5.01562 9.45166 4.92188C9.23291 4.79687 9.06104 4.71875 8.93604 4.6875C8.84229 4.625 8.67041 4.5625 8.42041 4.5C8.17041 4.40625 7.95166 4.35938 7.76416 4.35938C7.60791 4.35938 7.40479 4.375 7.15479 4.40625C6.93604 4.40625 6.71729 4.46875 6.49854 4.59375C6.27979 4.71875 6.06104 4.89062 5.84229 5.10938C5.65479 5.29688 5.49854 5.48438 5.37354 5.67188C5.27979 5.85938 5.20166 6.04688 5.13916 6.23438C5.10791 6.39062 5.09229 6.57812 5.09229 6.79688C5.09229 7.01563 5.09229 7.1875 5.09229 7.3125C5.12354 7.4375 5.17041 7.60937 5.23291 7.82812C5.32666 8.04688 5.38916 8.20312 5.42041 8.29688C5.45166 8.39062 5.51416 8.54688 5.60791 8.76562C5.73291 8.98438 5.79541 9.10938 5.79541 9.14062C5.76416 9.14062 5.62354 9.1875 5.37354 9.28125C5.15479 9.34375 4.98291 9.40625 4.85791 9.46875C4.76416 9.53125 4.59229 9.625 4.34229 9.75C4.12354 9.84375 3.95166 9.95312 3.82666 10.0781C3.70166 10.2031 3.56104 10.3594 3.40479 10.5469C3.24854 10.7344 3.13916 10.9531 3.07666 11.2031C3.01416 11.4531 2.98291 11.7188 2.98291 12C2.98291 12.2188 2.99854 12.4375 3.02979 12.6562C3.09229 12.8438 3.15479 13.0156 3.21729 13.1719C3.31104 13.3281 3.40479 13.4688 3.49854 13.5938C3.59229 13.7188 3.70166 13.8438 3.82666 13.9688C3.98291 14.0625 4.10791 14.1406 4.20166 14.2031C4.32666 14.2656 4.46729 14.3438 4.62354 14.4375C4.81104 14.5 4.95166 14.5625 5.04541 14.625C5.13916 14.6562 5.27979 14.7031 5.46729 14.7656C5.65479 14.8281 5.76416 14.8594 5.79541 14.8594C5.79541 14.8906 5.73291 15.0312 5.60791 15.2812C5.51416 15.5 5.43604 15.6719 5.37354 15.7969C5.34229 15.8906 5.27979 16.0625 5.18604 16.3125C5.12354 16.5625 5.09229 16.7812 5.09229 16.9688C5.09229 17.125 5.09229 17.3281 5.09229 17.5781C5.12354 17.7969 5.20166 18.0156 5.32666 18.2344C5.45166 18.4531 5.62354 18.6719 5.84229 18.8906C5.99854 19.0469 6.15479 19.1875 6.31104 19.3125C6.46729 19.4062 6.62354 19.4844 6.77979 19.5469C6.96729 19.5781 7.13916 19.6094 7.29541 19.6406C7.45166 19.6719 7.60791 19.6719 7.76416 19.6406C7.95166 19.6094 8.10791 19.5938 8.23291 19.5938C8.35791 19.5625 8.51416 19.5156 8.70166 19.4531C8.88916 19.3594 9.02979 19.2969 9.12354 19.2656C9.21729 19.2344 9.34229 19.1875 9.49854 19.125C9.68604 19.0312 9.81104 18.9688 9.87354 18.9375C9.87354 18.9688 9.90479 19.1094 9.96729 19.3594C10.061 19.5781 10.1392 19.75 10.2017 19.875C10.2642 19.9688 10.3423 20.1406 10.436 20.3906C10.561 20.6094 10.686 20.7812 10.811 20.9062C10.936 21.0312 11.0923 21.1719 11.2798 21.3281C11.4673 21.4844 11.686 21.5938 11.936 21.6562C12.186 21.7188 12.4517 21.75 12.7329 21.75C12.9829 21.75 13.2173 21.7188 13.436 21.6562C13.6548 21.5938 13.8423 21.5156 13.9985 21.4219C14.1548 21.3594 14.2954 21.25 14.4204 21.0938C14.5767 20.9375 14.7017 20.8125 14.7954 20.7188C14.8892 20.625 14.9829 20.4688 15.0767 20.25C15.1704 20.0312 15.2329 19.875 15.2642 19.7812C15.3267 19.6875 15.3892 19.5312 15.4517 19.3125C15.5454 19.0938 15.5923 18.9688 15.5923 18.9375C16.2485 19.2188 16.7329 19.4219 17.0454 19.5469C17.3579 19.6406 17.7642 19.6562 18.2642 19.5938C18.7642 19.5312 19.2173 19.2969 19.6235 18.8906C19.811 18.7031 19.9517 18.5156 20.0454 18.3281C20.1704 18.1406 20.2485 17.9688 20.2798 17.8125C20.3423 17.625 20.3735 17.4219 20.3735 17.2031C20.3735 16.9844 20.3579 16.8125 20.3267 16.6875C20.3267 16.5625 20.2798 16.3906 20.186 16.1719C20.1235 15.9531 20.0767 15.7969 20.0454 15.7031C20.0142 15.6094 19.936 15.4531 19.811 15.2344C19.7173 15.0156 19.6704 14.8906 19.6704 14.8594Z" fill="#FFED4E"/>
</svg>
