<svg width="24" height="24" viewBox="0 0 24 24" fill="none" xmlns="http://www.w3.org/2000/svg">
    <path d="M11.9989 14.6985C13.4418 14.6985 14.6114 13.5217 14.6114 12.07C14.6114 10.6183 13.4418 9.44141 11.9989 9.44141C10.556 9.44141 9.38629 10.6183 9.38629 12.07C9.38629 13.5217 10.556 14.6985 11.9989 14.6985Z" fill="#FAE31B"/>
    <path d="M23.4286 10.9452H21.475C20.9629 6.54928 17.487 3.05203 13.1178 2.53682V0.571289H10.8821V2.53682C6.51299 3.05203 3.03704 6.54928 2.52496 10.9452H0.571411V13.1946H2.52496C3.03704 17.5905 6.51299 21.0878 10.8821 21.603V23.5685H13.1178V21.603C17.487 21.0878 20.9629 17.5905 21.475 13.1946H23.4286V10.9452ZM13.1168 19.3343V17.5209H10.8811V19.3343C7.74582 18.848 5.26208 16.3491 4.77874 13.1946H6.58113V10.9452H4.77874C5.26208 7.79072 7.74582 5.29177 10.8811 4.80547V6.61997H13.1168V4.80547C16.252 5.29177 18.7358 7.79072 19.2191 10.9452H17.4167V13.1946H19.2191C18.7358 16.3491 16.252 18.848 13.1168 19.3343Z" fill="#333333"/>
</svg>
