<svg width="40" height="41" viewBox="0 0 40 41" fill="none" xmlns="http://www.w3.org/2000/svg">
    <path d="M19.998 24.7225C22.5231 24.7225 24.57 22.663 24.57 20.1225C24.57 17.582 22.5231 15.5226 19.998 15.5226C17.473 15.5226 15.426 17.582 15.426 20.1225C15.426 22.663 17.473 24.7225 19.998 24.7225Z" fill="#FFED4E"/>
    <path d="M40 18.1544H36.5813C35.6851 10.4615 29.6022 4.3413 21.9562 3.43967V0H18.0438V3.43967C10.3978 4.3413 4.31485 10.4615 3.41872 18.1544H0V22.0908H3.41872C4.31485 29.7836 10.3978 35.9038 18.0438 36.8054V40.2451H21.9562V36.8054C29.6022 35.9038 35.6851 29.7836 36.5813 22.0908H40V18.1544ZM21.9544 32.8353V29.6618H18.0419V32.8353C12.5552 31.9843 8.20866 27.6111 7.36283 22.0908H10.517V18.1544H7.36283C8.20866 12.634 12.5552 8.26084 18.0419 7.40982V10.5852H21.9544V7.40982C27.4411 8.26084 31.7876 12.634 32.6334 18.1544H29.4793V22.0908H32.6334C31.7876 27.6111 27.4411 31.9843 21.9544 32.8353Z" fill="white"/>
</svg>
