<svg width="178" height="60" viewBox="0 0 178 60" fill="none" xmlns="http://www.w3.org/2000/svg">
    <g clip-path="url(#clip0)">
        <g clip-path="url(#clip1)">
            <path d="M35.2493 40.8019H27.7232L26.974 39.4985H35.0083H36.804L32.033 31.1919H26.7284H21.2417H16.506L18.6379 34.9044H19.109H24.5957H28.6482L29.3332 36.0056H23.9633H19.2712L24.0258 44.2858H24.6772H34.8362H39.5664L37.566 40.8019H35.2493Z" fill="white"/>
            <path d="M30.1296 25.2688L31.1969 27.126L39.0455 40.7937H44.5323L30.1296 15.7144L21.9901 29.8876H27.4777L30.1296 25.2688Z" fill="white"/>
            <path d="M15.7269 40.7938H20.5224L18.1251 36.6187L15.7269 40.7938Z" fill="white"/>
            <path d="M76.1506 21.2915L72.3844 36.6233H66.9928L70.7581 21.2915H66.6676L61.892 40.7356H75.4648L80.2412 21.2915H76.1506Z" fill="white"/>
            <path d="M91.3769 21.2914L89.7126 28.0533L89.0775 30.6519L88.1462 28.0533L86.2599 21.2495H81.9047L80.2304 28.0533L77.1283 40.6936H78.8696H81.2198L84.013 29.3194L87.4223 40.6936H90.702L93.8032 28.0533L95.4675 21.2914H91.3769Z" fill="white"/>
            <path d="M99.4919 28.0533L100.236 24.9975H109.676L110.592 21.2495H97.0602L95.4013 28.0533H95.3859L94.1628 33.0492H103.645L102.767 36.6232H93.3266L92.3164 40.7355H105.848L108.746 28.9368H99.2636L99.4765 28.0533H99.4919Z" fill="#FFE600"/>
            <path d="M127.869 21.2075H123.778L122.017 28.2782H122.039L121.869 28.9786H114.473L114.697 28.0532H114.683L116.382 21.2075H112.292L110.592 28.0532H110.607L107.485 40.7783H111.575L113.463 33.091H120.859L118.992 40.6935H123.082L126.184 28.0532H126.164L127.869 21.2075Z" fill="#FFE600"/>
            <path d="M158.182 21.2075L156.568 27.78L156.451 28.2554L154.799 34.9818C154.562 35.9464 153.7 36.624 152.713 36.624H150.823L152.864 28.3957H148.774L146.732 36.624H143.16L145.216 28.2554L145.333 27.78L146.947 21.2075H142.857L141.242 27.78L141.125 28.2554L138.059 40.7364H153.648C155.897 40.7364 157.855 39.1943 158.394 37.0002L160.543 28.2563L160.659 27.7809L162.274 21.2084H158.182V21.2075Z" fill="#FFE600"/>
            <path d="M133.478 29.2691C134.706 29.2691 135.701 28.2684 135.701 27.034C135.701 25.7995 134.706 24.7988 133.478 24.7988C132.25 24.7988 131.254 25.7995 131.254 27.034C131.254 28.2684 132.25 29.2691 133.478 29.2691Z" fill="#FFE600"/>
            <path d="M143.205 26.0776H141.542C141.106 22.3396 138.148 19.3658 134.43 18.9277V17.2563H132.527V18.9277C128.809 19.3658 125.851 22.3396 125.415 26.0776H123.753V27.9903H125.415C125.851 31.7283 128.809 34.7021 132.527 35.1403V36.8116H134.43V35.1403C138.148 34.7021 141.106 31.7283 141.542 27.9903H143.205V26.0776ZM134.429 33.2111V31.6691H132.527V33.2111C129.858 32.7976 127.745 30.6727 127.333 27.9903H128.867V26.0776H127.333C127.745 23.3953 129.858 21.2703 132.527 20.8568V22.3997H134.429V20.8568C137.097 21.2703 139.211 23.3953 139.622 26.0776H138.088V27.9903H139.622C139.211 30.6727 137.097 32.7976 134.429 33.2111Z" fill="white"/>
            <path d="M64.9626 21.293H55.1325C53.094 21.293 51.0166 22.968 50.5137 25.0164L47.5484 37.0893C47.0519 39.1104 48.2696 40.7353 50.28 40.7353H60.226L63.0953 28.9575H56.1074L55.2014 32.67H58.0951L57.1384 36.6084H53.0324C52.3411 36.6084 51.8347 35.9544 52.005 35.2804L54.3198 26.1066C54.4811 25.4663 55.0546 25.0182 55.7114 25.0182H64.0548L64.9626 21.293Z" fill="white"/>
        </g>
    </g>
    <defs>
        <clipPath id="clip0">
            <path d="M0 0H178V60H0V0Z" fill="white"/>
        </clipPath>
        <clipPath id="clip1">
            <rect x="15.7269" y="15.7144" width="146.546" height="28.5714" fill="white"/>
        </clipPath>
    </defs>
</svg>