<svg width="48" height="48" viewBox="0 0 48 48" fill="none" xmlns="http://www.w3.org/2000/svg">
<path d="M23.9979 28.9959C26.9593 28.9959 29.36 26.5805 29.36 23.601C29.36 20.6214 26.9593 18.2061 23.9979 18.2061C21.0365 18.2061 18.6357 20.6214 18.6357 23.601C18.6357 26.5805 21.0365 28.9959 23.9979 28.9959Z" fill="#FAE31B"/>
<path d="M47.4565 21.2917H43.4469C42.3959 12.2694 35.2618 5.09153 26.2945 4.03409V0H21.7059V4.03409C12.7386 5.09153 5.60446 12.2694 4.55346 21.2917H0.543945V25.9083H4.55346C5.60446 34.9306 12.7386 42.1085 21.7059 43.1659V47.2H26.2945V43.1659C35.2618 42.1085 42.3959 34.9306 43.4469 25.9083H47.4565V21.2917ZM26.2923 38.5097V34.7877H21.7038V38.5097C15.2689 37.5116 10.1712 32.3827 9.17917 25.9083H12.8784V21.2917H9.17917C10.1712 14.8173 15.2689 9.68842 21.7038 8.69034V12.4145H26.2923V8.69034C32.7272 9.68842 37.8249 14.8173 38.8169 21.2917H35.1176V25.9083H38.8169C37.8249 32.3827 32.7272 37.5116 26.2923 38.5097Z" fill="#111111"/>
</svg>
