<svg width="24px" height="37px" viewBox="0 0 24 37" fill="none" xmlns="http://www.w3.org/2000/svg">
    <path d="M13.5469 28.2031C14.0156 28.625 14.25 29.1406 14.25 29.75C14.25 30.3594 14.0156 30.8984 13.5469 31.3672C13.125 31.7891 12.6094 32 12 32C11.3906 32 10.8516 31.7891 10.3828 31.3672C9.96094 30.8984 9.75 30.3594 9.75 29.75C9.75 29.1406 9.96094 28.625 10.3828 28.2031C10.8516 27.7344 11.3906 27.5 12 27.5C12.6094 27.5 13.125 27.7344 13.5469 28.2031ZM23.25 3.875V33.125C23.25 34.0625 22.9219 34.8594 22.2656 35.5156C21.6094 36.1719 20.8125 36.5 19.875 36.5H4.125C3.1875 36.5 2.39062 36.1719 1.73438 35.5156C1.07812 34.8594 0.75 34.0625 0.75 33.125V3.875C0.75 2.9375 1.07812 2.14062 1.73438 1.48438C2.39062 0.828125 3.1875 0.5 4.125 0.5H19.875C20.8125 0.5 21.6094 0.828125 22.2656 1.48438C22.9219 2.14062 23.25 2.9375 23.25 3.875ZM21 3.875C21 3.54687 20.8828 3.28906 20.6484 3.10156C20.4609 2.86719 20.2031 2.75 19.875 2.75H4.125C3.79688 2.75 3.51562 2.86719 3.28125 3.10156C3.09375 3.28906 3 3.54687 3 3.875V33.125C3 33.4531 3.09375 33.7109 3.28125 33.8984C3.51562 34.1328 3.79688 34.25 4.125 34.25H19.875C20.2031 34.25 20.4609 34.1328 20.6484 33.8984C20.8828 33.7109 21 33.4531 21 33.125V3.875Z" fill="#ffffff"/>
</svg>
