<svg width="16" height="17" viewBox="0 0 16 17" fill="none" xmlns="http://www.w3.org/2000/svg">
<path d="M0.496094 8.46094C0.308594 8.25 0.308594 8.05078 0.496094 7.86328L7.87891 0.515625C8.06641 0.304688 8.25391 0.304688 8.44141 0.515625L15.8242 7.86328C16.0117 8.05078 16.0117 8.25 15.8242 8.46094L15.1211 9.16406C14.9336 9.35156 14.7344 9.35156 14.5234 9.16406L9.07422 3.71484V15.7031C9.07422 15.9844 8.93359 16.125 8.65234 16.125H7.66797C7.38672 16.125 7.24609 15.9844 7.24609 15.7031V3.71484L1.79688 9.16406C1.58594 9.35156 1.38672 9.35156 1.19922 9.16406L0.496094 8.46094Z" fill="#28A745"/>
</svg>
