<svg width="42px" height="27px" viewBox="0 0 42 27" fill="none" xmlns="http://www.w3.org/2000/svg">
    <path d="M39.5625 0C40.0312 0 40.4297 0.164062 40.7578 0.492188C41.0859 0.820313 41.25 1.21875 41.25 1.6875V25.3125C41.25 25.7812 41.0859 26.1797 40.7578 26.5078C40.4297 26.8359 40.0312 27 39.5625 27H4.125C3.1875 27 2.39062 26.6719 1.73438 26.0156C1.07812 25.3594 0.75 24.5625 0.75 23.625V3.9375C0.75 3.46875 0.914062 3.07031 1.24219 2.74219C1.57031 2.41406 1.96875 2.25 2.4375 2.25H5.25V1.6875C5.25 1.21875 5.41406 0.820313 5.74219 0.492188C6.07031 0.164062 6.46875 0 6.9375 0H39.5625ZM3 23.625C3 23.9531 3.09375 24.2344 3.28125 24.4688C3.51562 24.6562 3.79688 24.75 4.125 24.75C4.45312 24.75 4.71094 24.6562 4.89844 24.4688C5.13281 24.2344 5.25 23.9531 5.25 23.625V4.5H3V23.625ZM39 24.75V2.25H7.5V23.625C7.5 24 7.42969 24.375 7.28906 24.75H39ZM10.5938 18C10.0312 18 9.75 17.7188 9.75 17.1562V5.34375C9.75 4.78125 10.0312 4.5 10.5938 4.5H22.4062C22.9688 4.5 23.25 4.78125 23.25 5.34375V17.1562C23.25 17.7188 22.9688 18 22.4062 18H10.5938ZM12 6.75V15.75H21V6.75H12ZM9.75 21.6562V21.0938C9.75 20.5312 10.0312 20.25 10.5938 20.25H22.4062C22.9688 20.25 23.25 20.5312 23.25 21.0938V21.6562C23.25 22.2188 22.9688 22.5 22.4062 22.5H10.5938C10.0312 22.5 9.75 22.2188 9.75 21.6562ZM25.5 21.6562V21.0938C25.5 20.5312 25.7812 20.25 26.3438 20.25H35.9062C36.4688 20.25 36.75 20.5312 36.75 21.0938V21.6562C36.75 22.2188 36.4688 22.5 35.9062 22.5H26.3438C25.7812 22.5 25.5 22.2188 25.5 21.6562ZM25.5 17.1562V16.5938C25.5 16.0312 25.7812 15.75 26.3438 15.75H35.9062C36.4688 15.75 36.75 16.0312 36.75 16.5938V17.1562C36.75 17.7188 36.4688 18 35.9062 18H26.3438C25.7812 18 25.5 17.7188 25.5 17.1562ZM25.5 8.15625V7.59375C25.5 7.03125 25.7812 6.75 26.3438 6.75H35.9062C36.4688 6.75 36.75 7.03125 36.75 7.59375V8.15625C36.75 8.71875 36.4688 9 35.9062 9H26.3438C25.7812 9 25.5 8.71875 25.5 8.15625ZM25.5 12.6562V12.0938C25.5 11.5312 25.7812 11.25 26.3438 11.25H35.9062C36.4688 11.25 36.75 11.5312 36.75 12.0938V12.6562C36.75 13.2188 36.4688 13.5 35.9062 13.5H26.3438C25.7812 13.5 25.5 13.2188 25.5 12.6562Z" fill="#828282"/>
</svg>
