<svg width="42px" height="33px" viewBox="0 0 42 33" fill="none" xmlns="http://www.w3.org/2000/svg">
<path d="M37.875 0.75C38.8125 0.75 39.6094 1.07813 40.2656 1.73438C40.9219 2.39062 41.25 3.1875 41.25 4.125V28.875C41.25 29.8125 40.9219 30.6094 40.2656 31.2656C39.6094 31.9219 38.8125 32.25 37.875 32.25H4.125C3.1875 32.25 2.39062 31.9219 1.73438 31.2656C1.07812 30.6094 0.75 29.8125 0.75 28.875V4.125C0.75 3.1875 1.07812 2.39062 1.73438 1.73438C2.39062 1.07813 3.1875 0.75 4.125 0.75H37.875ZM4.125 3C3.79688 3 3.51562 3.11719 3.28125 3.35156C3.09375 3.53906 3 3.79687 3 4.125V7.5H39V4.125C39 3.79687 38.8828 3.53906 38.6484 3.35156C38.4609 3.11719 38.2031 3 37.875 3H4.125ZM37.875 30C38.2031 30 38.4609 29.9062 38.6484 29.7188C38.8828 29.4844 39 29.2031 39 28.875V14.25H3V28.875C3 29.2031 3.09375 29.4844 3.28125 29.7188C3.51562 29.9062 3.79688 30 4.125 30H37.875ZM14.25 24.0938V24.6562C14.25 25.2188 13.9688 25.5 13.4062 25.5H8.34375C7.78125 25.5 7.5 25.2188 7.5 24.6562V24.0938C7.5 23.5312 7.78125 23.25 8.34375 23.25H13.4062C13.9688 23.25 14.25 23.5312 14.25 24.0938ZM27.75 24.0938V24.6562C27.75 25.2188 27.4688 25.5 26.9062 25.5H17.3438C16.7812 25.5 16.5 25.2188 16.5 24.6562V24.0938C16.5 23.5312 16.7812 23.25 17.3438 23.25H26.9062C27.4688 23.25 27.75 23.5312 27.75 24.0938Z" fill="#828282"/>
</svg>
