<svg width="42px" height="33px" viewBox="0 0 42 33" fill="none" xmlns="http://www.w3.org/2000/svg">
<path d="M22.1953 8.69531C21.8672 9.02344 21.4688 9.1875 21 9.1875C20.5312 9.1875 20.1328 9.02344 19.8047 8.69531C19.4766 8.36719 19.3125 7.96875 19.3125 7.5C19.3125 7.03125 19.4766 6.63281 19.8047 6.30469C20.1328 5.97656 20.5312 5.8125 21 5.8125C21.4688 5.8125 21.8672 5.97656 22.1953 6.30469C22.5234 6.63281 22.6875 7.03125 22.6875 7.5C22.6875 7.96875 22.5234 8.36719 22.1953 8.69531ZM10.2422 10.2422C10.5703 9.91406 10.9688 9.75 11.4375 9.75C11.9062 9.75 12.3047 9.91406 12.6328 10.2422C12.9609 10.5703 13.125 10.9687 13.125 11.4375C13.125 11.9063 12.9609 12.3047 12.6328 12.6328C12.3047 12.9609 11.9062 13.125 11.4375 13.125C10.9688 13.125 10.5703 12.9609 10.2422 12.6328C9.91406 12.3047 9.75 11.9063 9.75 11.4375C9.75 10.9687 9.91406 10.5703 10.2422 10.2422ZM29.3672 10.2422C29.6953 9.91406 30.0938 9.75 30.5625 9.75C31.0312 9.75 31.4297 9.91406 31.7578 10.2422C32.0859 10.5703 32.25 10.9687 32.25 11.4375C32.25 11.9063 32.0859 12.3047 31.7578 12.6328C31.4297 12.9609 31.0312 13.125 30.5625 13.125C30.0938 13.125 29.6953 12.9609 29.3672 12.6328C29.0391 12.3047 28.875 11.9063 28.875 11.4375C28.875 10.9687 29.0391 10.5703 29.3672 10.2422ZM33.3047 19.8047C33.6328 19.4766 34.0312 19.3125 34.5 19.3125C34.9688 19.3125 35.3672 19.4766 35.6953 19.8047C36.0234 20.1328 36.1875 20.5312 36.1875 21C36.1875 21.4688 36.0234 21.8672 35.6953 22.1953C35.3672 22.5234 34.9688 22.6875 34.5 22.6875C34.0312 22.6875 33.6328 22.5234 33.3047 22.1953C32.9766 21.8672 32.8125 21.4688 32.8125 21C32.8125 20.5312 32.9766 20.1328 33.3047 19.8047ZM6.65625 6.72656C10.6406 2.74219 15.4219 0.75 21 0.75C26.5781 0.75 31.3359 2.74219 35.2734 6.72656C39.2578 10.6641 41.25 15.4219 41.25 21C41.25 24.6562 40.3359 28.0547 38.5078 31.1953C38.0859 31.8984 37.4531 32.25 36.6094 32.25H5.39062C4.54688 32.25 3.91406 31.8984 3.49219 31.1953C1.66406 28.0547 0.75 24.6562 0.75 21C0.75 15.4219 2.71875 10.6641 6.65625 6.72656ZM36.6094 30C38.2031 27.2344 39 24.2344 39 21C39 16.0312 37.2422 11.7891 33.7266 8.27344C30.2109 4.75781 25.9688 3 21 3C16.0312 3 11.7891 4.75781 8.27344 8.27344C4.75781 11.7891 3 16.0312 3 21C3 24.2344 3.82031 27.2578 5.46094 30.0703L36.6094 30ZM6.30469 19.8047C6.63281 19.4766 7.03125 19.3125 7.5 19.3125C7.96875 19.3125 8.36719 19.4766 8.69531 19.8047C9.02344 20.1328 9.1875 20.5312 9.1875 21C9.1875 21.4688 9.02344 21.8672 8.69531 22.1953C8.36719 22.5234 7.96875 22.6875 7.5 22.6875C7.03125 22.6875 6.63281 22.5234 6.30469 22.1953C5.97656 21.8672 5.8125 21.4688 5.8125 21C5.8125 20.5312 5.97656 20.1328 6.30469 19.8047ZM26.4141 7.57031C26.5547 7.61719 26.6719 7.6875 26.7656 7.78125C26.9062 7.875 27 7.99219 27.0469 8.13281C27.1406 8.27344 27.1875 8.41406 27.1875 8.55469C27.1875 8.69531 27.1641 8.83594 27.1172 8.97656L23.4609 19.5234C24.8203 20.4141 25.5 21.6562 25.5 23.25C25.5 24.5156 25.0547 25.5938 24.1641 26.4844C23.3203 27.3281 22.2656 27.75 21 27.75C19.7344 27.75 18.6562 27.3281 17.7656 26.4844C16.9219 25.5938 16.5 24.5156 16.5 23.25C16.5 21.9844 16.9219 20.9297 17.7656 20.0859C18.6562 19.1953 19.7344 18.75 21 18.75C21.0469 18.75 21.1172 18.75 21.2109 18.75C21.3047 18.75 21.3516 18.7734 21.3516 18.8203L25.0078 8.27344C25.1016 7.99219 25.2891 7.78125 25.5703 7.64062C25.8516 7.5 26.1328 7.47656 26.4141 7.57031ZM19.3828 24.8672C19.8516 25.2891 20.3906 25.5 21 25.5C21.6094 25.5 22.125 25.2891 22.5469 24.8672C23.0156 24.3984 23.25 23.8594 23.25 23.25C23.25 22.6406 23.0156 22.125 22.5469 21.7031C22.125 21.2344 21.6094 21 21 21C20.3906 21 19.8516 21.2344 19.3828 21.7031C18.9609 22.125 18.75 22.6406 18.75 23.25C18.75 23.8594 18.9609 24.3984 19.3828 24.8672Z" fill="#828282"/>
</svg>

