<svg width="46px" height="37px" viewBox="0 0 46 37" fill="none" xmlns="http://www.w3.org/2000/svg">
<path d="M45.3594 10.6953C45.5938 10.9297 45.5938 11.1875 45.3594 11.4688L36.0781 20.4688C35.6562 20.8906 35.2344 20.8906 34.8125 20.4688L29.8906 15.5469C29.6562 15.2656 29.6562 15.0078 29.8906 14.7734L30.875 13.7891C31.1562 13.5078 31.4375 13.5078 31.7188 13.7891L35.4453 17.5156L43.5312 9.64062C43.8125 9.40625 44.0938 9.40625 44.375 9.64062L45.3594 10.6953ZM22.5781 20.75C25.1562 20.75 27.3594 21.6875 29.1875 23.5625C31.0625 25.3906 32 27.5938 32 30.1719V33.125C32 34.0625 31.6719 34.8594 31.0156 35.5156C30.3594 36.1719 29.5625 36.5 28.625 36.5H3.875C2.9375 36.5 2.14062 36.1719 1.48438 35.5156C0.828125 34.8594 0.5 34.0625 0.5 33.125V30.1719C0.5 27.5938 1.41406 25.3906 3.24219 23.5625C5.11719 21.6875 7.34375 20.75 9.92188 20.75C10.5312 20.75 11.4219 20.9375 12.5938 21.3125C13.8125 21.6875 15.0312 21.875 16.25 21.875C17.4688 21.875 18.6875 21.6875 19.9062 21.3125C21.125 20.9375 22.0156 20.75 22.5781 20.75ZM29.75 33.125V30.1719C29.75 28.2031 29.0469 26.5156 27.6406 25.1094C26.2344 23.7031 24.5469 23 22.5781 23C22.2969 23 21.5 23.1875 20.1875 23.5625C18.9219 23.9375 17.6094 24.125 16.25 24.125C14.8906 24.125 13.5547 23.9375 12.2422 23.5625C10.9766 23.1875 10.2031 23 9.92188 23C7.95312 23 6.26562 23.7031 4.85938 25.1094C3.45312 26.5156 2.75 28.2031 2.75 30.1719V33.125C2.75 33.4531 2.84375 33.7109 3.03125 33.8984C3.26562 34.1328 3.54688 34.25 3.875 34.25H28.625C28.9531 34.25 29.2109 34.1328 29.3984 33.8984C29.6328 33.7109 29.75 33.4531 29.75 33.125ZM22.5781 15.8984C20.8438 17.6328 18.7344 18.5 16.25 18.5C13.7656 18.5 11.6328 17.6328 9.85156 15.8984C8.11719 14.1172 7.25 11.9844 7.25 9.5C7.25 7.01563 8.11719 4.90625 9.85156 3.17188C11.6328 1.39063 13.7656 0.5 16.25 0.5C18.7344 0.5 20.8438 1.39063 22.5781 3.17188C24.3594 4.90625 25.25 7.01563 25.25 9.5C25.25 11.9844 24.3594 14.1172 22.5781 15.8984ZM21.0312 4.71875C19.7188 3.40625 18.125 2.75 16.25 2.75C14.375 2.75 12.7812 3.40625 11.4688 4.71875C10.1562 6.03125 9.5 7.625 9.5 9.5C9.5 11.375 10.1562 12.9687 11.4688 14.2812C12.7812 15.5938 14.375 16.25 16.25 16.25C18.125 16.25 19.7188 15.5938 21.0312 14.2812C22.3438 12.9687 23 11.375 23 9.5C23 7.625 22.3438 6.03125 21.0312 4.71875Z" fill="#FFE600"/>
</svg>
