<svg width="36px" height="33px" viewBox="0 0 36 33" fill="none" xmlns="http://www.w3.org/2000/svg">
    <path d="M32.625 0.75C33.5625 0.75 34.3594 1.07813 35.0156 1.73438C35.6719 2.39062 36 3.1875 36 4.125V28.875C36 29.8125 35.6719 30.6094 35.0156 31.2656C34.3594 31.9219 33.5625 32.25 32.625 32.25H3.375C2.4375 32.25 1.64062 31.9219 0.984375 31.2656C0.328125 30.6094 0 29.8125 0 28.875V4.125C0 3.1875 0.328125 2.39062 0.984375 1.73438C1.64062 1.07813 2.4375 0.75 3.375 0.75H32.625ZM2.25 4.125V7.5H6.75V3H3.375C3.04688 3 2.76562 3.11719 2.53125 3.35156C2.34375 3.53906 2.25 3.79687 2.25 4.125ZM33.75 28.875V9.75H2.25V28.875C2.25 29.2031 2.34375 29.4844 2.53125 29.7188C2.76562 29.9062 3.04688 30 3.375 30H32.625C32.9531 30 33.2109 29.9062 33.3984 29.7188C33.6328 29.4844 33.75 29.2031 33.75 28.875ZM33.75 7.5V4.125C33.75 3.79687 33.6328 3.53906 33.3984 3.35156C33.2109 3.11719 32.9531 3 32.625 3H9V7.5H33.75Z" fill="#828282"/>
</svg>
