<svg width="46px" height="33px" viewBox="0 0 46 33" fill="none" xmlns="http://www.w3.org/2000/svg">
    <path d="M42.6875 12.6328C41.6094 13.7109 40.2969 14.25 38.75 14.25C37.2031 14.25 35.8672 13.7109 34.7422 12.6328C33.6641 11.5078 33.125 10.1719 33.125 8.625C33.125 7.07812 33.6641 5.76562 34.7422 4.6875C35.8672 3.5625 37.2031 3 38.75 3C40.2969 3 41.6094 3.5625 42.6875 4.6875C43.8125 5.76562 44.375 7.07812 44.375 8.625C44.375 10.1719 43.8125 11.5078 42.6875 12.6328ZM41.1406 6.23438C40.4844 5.57813 39.6875 5.25 38.75 5.25C37.8125 5.25 37.0156 5.57813 36.3594 6.23438C35.7031 6.89062 35.375 7.6875 35.375 8.625C35.375 9.5625 35.7031 10.3594 36.3594 11.0156C37.0156 11.6719 37.8125 12 38.75 12C39.6875 12 40.4844 11.6719 41.1406 11.0156C41.7969 10.3594 42.125 9.5625 42.125 8.625C42.125 7.6875 41.7969 6.89062 41.1406 6.23438ZM28.5547 14.1797C27.0078 15.7266 25.1562 16.5 23 16.5C20.8438 16.5 18.9922 15.7266 17.4453 14.1797C15.8984 12.6328 15.125 10.7813 15.125 8.625C15.125 6.46875 15.8984 4.61719 17.4453 3.07031C18.9922 1.52344 20.8438 0.75 23 0.75C25.1562 0.75 27.0078 1.52344 28.5547 3.07031C30.1016 4.61719 30.875 6.46875 30.875 8.625C30.875 10.7813 30.1016 12.6328 28.5547 14.1797ZM26.9375 4.6875C25.8594 3.5625 24.5469 3 23 3C21.4531 3 20.1172 3.5625 18.9922 4.6875C17.9141 5.76562 17.375 7.07812 17.375 8.625C17.375 10.1719 17.9141 11.5078 18.9922 12.6328C20.1172 13.7109 21.4531 14.25 23 14.25C24.5469 14.25 25.8594 13.7109 26.9375 12.6328C28.0625 11.5078 28.625 10.1719 28.625 8.625C28.625 7.07812 28.0625 5.76562 26.9375 4.6875ZM40.1562 16.5C41.6094 16.5 42.8516 17.0625 43.8828 18.1875C44.9609 19.2656 45.5 20.5781 45.5 22.125C45.5 22.4531 45.3828 22.7344 45.1484 22.9688C44.9609 23.1562 44.7031 23.25 44.375 23.25C44.0469 23.25 43.7656 23.1562 43.5312 22.9688C43.3438 22.7344 43.25 22.4531 43.25 22.125C43.25 21.1875 42.9453 20.3906 42.3359 19.7344C41.7266 19.0781 41 18.75 40.1562 18.75H37.3438C36.9688 18.75 36.5938 18.8203 36.2188 18.9609C35.7031 18.3984 35.1172 17.8828 34.4609 17.4141C35.3516 16.8047 36.3125 16.5 37.3438 16.5H40.1562ZM11.1875 12.6328C10.1094 13.7109 8.79688 14.25 7.25 14.25C5.70312 14.25 4.36719 13.7109 3.24219 12.6328C2.16406 11.5078 1.625 10.1719 1.625 8.625C1.625 7.07812 2.16406 5.76562 3.24219 4.6875C4.36719 3.5625 5.70312 3 7.25 3C8.79688 3 10.1094 3.5625 11.1875 4.6875C12.3125 5.76562 12.875 7.07812 12.875 8.625C12.875 10.1719 12.3125 11.5078 11.1875 12.6328ZM9.64062 6.23438C8.98438 5.57813 8.1875 5.25 7.25 5.25C6.3125 5.25 5.51562 5.57813 4.85938 6.23438C4.20312 6.89062 3.875 7.6875 3.875 8.625C3.875 9.5625 4.20312 10.3594 4.85938 11.0156C5.51562 11.6719 6.3125 12 7.25 12C8.1875 12 8.98438 11.6719 9.64062 11.0156C10.2969 10.3594 10.625 9.5625 10.625 8.625C10.625 7.6875 10.2969 6.89062 9.64062 6.23438ZM28.625 17.9062C31.4844 17.9062 33.6406 19.0078 35.0938 21.2109C36.0312 22.5703 36.5 24.0703 36.5 25.7109V28.875C36.5 29.8125 36.1719 30.6094 35.5156 31.2656C34.8594 31.9219 34.0625 32.25 33.125 32.25H12.875C11.9375 32.25 11.1406 31.9219 10.4844 31.2656C9.82812 30.6094 9.5 29.8125 9.5 28.875V25.7109C9.5 24.0703 9.96875 22.5703 10.9062 21.2109C12.3594 19.0078 14.5156 17.9062 17.375 17.9062C18.125 17.9062 19.0156 18.0469 20.0469 18.3281C21.0781 18.6094 22.0625 18.75 23 18.75C23.9375 18.75 24.9219 18.6094 25.9531 18.3281C26.9844 18.0469 27.875 17.9062 28.625 17.9062ZM34.25 28.875V25.7109C34.25 24.5391 33.9219 23.4609 33.2656 22.4766C32.2344 20.9297 30.6875 20.1562 28.625 20.1562C28.0625 20.1562 27.2422 20.2969 26.1641 20.5781C25.1328 20.8594 24.0781 21 23 21C21.9219 21 20.8438 20.8594 19.7656 20.5781C18.7344 20.2969 17.9375 20.1562 17.375 20.1562C15.3125 20.1562 13.7656 20.9297 12.7344 22.4766C12.0781 23.4609 11.75 24.5391 11.75 25.7109V28.875C11.75 29.2031 11.8438 29.4844 12.0312 29.7188C12.2656 29.9062 12.5469 30 12.875 30H33.125C33.4531 30 33.7109 29.9062 33.8984 29.7188C34.1328 29.4844 34.25 29.2031 34.25 28.875ZM11.5391 17.4141C10.8828 17.8828 10.2969 18.3984 9.78125 18.9609C9.40625 18.8203 9.03125 18.75 8.65625 18.75H5.84375C5 18.75 4.27344 19.0781 3.66406 19.7344C3.05469 20.3906 2.75 21.1875 2.75 22.125C2.75 22.4531 2.63281 22.7344 2.39844 22.9688C2.21094 23.1562 1.95312 23.25 1.625 23.25C1.29688 23.25 1.01562 23.1562 0.78125 22.9688C0.59375 22.7344 0.5 22.4531 0.5 22.125C0.5 20.5781 1.01562 19.2656 2.04688 18.1875C3.125 17.0625 4.39062 16.5 5.84375 16.5H8.65625C9.6875 16.5 10.6484 16.8047 11.5391 17.4141Z" fill="#ffffff"/>
</svg>
