<svg width="34px" height="35px" viewBox="0 0 34 35" fill="none" xmlns="http://www.w3.org/2000/svg">
    <path d="M32.9609 20.5234C33.7109 20.9922 33.9688 21.6484 33.7344 22.4922C32.9375 25.1172 31.5781 27.4375 29.6562 29.4531C29.0469 30.1094 28.3672 30.2266 27.6172 29.8047L25.2969 28.4688C24.4062 29.1719 23.4219 29.7344 22.3438 30.1562V32.8281C22.3438 33.7188 21.8984 34.2578 21.0078 34.4453C18.3359 35.1016 15.6641 35.1016 12.9922 34.4453C12.1016 34.2578 11.6562 33.7188 11.6562 32.8281V30.1562C10.5781 29.7344 9.59375 29.1719 8.70312 28.4688L6.38281 29.8047C5.63281 30.2266 4.95312 30.1094 4.34375 29.4531C2.42188 27.4375 1.0625 25.1172 0.265625 22.4922C0.03125 21.6484 0.289062 20.9922 1.03906 20.5234L3.35938 19.1875C3.26562 18.625 3.21875 18.0625 3.21875 17.5C3.21875 16.9375 3.26562 16.375 3.35938 15.8125L1.03906 14.4766C0.289062 14.0078 0.03125 13.3516 0.265625 12.5078C1.0625 9.88281 2.42188 7.5625 4.34375 5.54688C4.95312 4.89063 5.63281 4.77344 6.38281 5.19531L8.70312 6.53125C9.59375 5.82812 10.5781 5.26562 11.6562 4.84375V2.17188C11.6562 1.28125 12.1016 0.742188 12.9922 0.554688C15.6641 -0.101562 18.3359 -0.101562 21.0078 0.554688C21.8984 0.742188 22.3438 1.28125 22.3438 2.17188V4.84375C23.4219 5.26562 24.4062 5.82812 25.2969 6.53125L27.6172 5.19531C28.3672 4.77344 29.0469 4.89063 29.6562 5.54688C31.5781 7.5625 32.9375 9.88281 33.7344 12.5078C33.9688 13.3516 33.7109 14.0078 32.9609 14.4766L30.6406 15.8125C30.7344 16.375 30.7812 16.9375 30.7812 17.5C30.7812 18.0625 30.7344 18.625 30.6406 19.1875L32.9609 20.5234ZM28.3203 27.625C29.7266 26.0312 30.7578 24.25 31.4141 22.2812L28.1797 20.3828C28.4141 19.1172 28.5312 18.1562 28.5312 17.5C28.5312 16.8438 28.4141 15.8828 28.1797 14.6172L31.4141 12.7188C30.7578 10.75 29.7266 8.96875 28.3203 7.375L25.0859 9.27344C24.1016 8.42969 23.3047 7.84375 22.6953 7.51562C22.1328 7.1875 21.2656 6.8125 20.0938 6.39062V2.59375C19.0625 2.40625 18.0312 2.3125 17 2.3125C15.9688 2.3125 14.9375 2.40625 13.9062 2.59375V6.39062C12.7344 6.8125 11.8438 7.1875 11.2344 7.51562C10.6719 7.84375 9.89844 8.42969 8.91406 9.27344L5.67969 7.375C4.27344 8.96875 3.24219 10.75 2.58594 12.7188L5.82031 14.6172C5.58594 15.8828 5.46875 16.8438 5.46875 17.5C5.46875 18.1562 5.58594 19.1172 5.82031 20.3828L2.58594 22.2812C3.24219 24.25 4.27344 26.0312 5.67969 27.625L8.91406 25.7266C9.89844 26.5703 10.6719 27.1562 11.2344 27.4844C11.8438 27.8125 12.7344 28.1875 13.9062 28.6094V32.4062C14.9375 32.5938 15.9688 32.6875 17 32.6875C18.0312 32.6875 19.0625 32.5938 20.0938 32.4062V28.6094C21.2656 28.1875 22.1328 27.8125 22.6953 27.4844C23.3047 27.1094 24.1016 26.5234 25.0859 25.7266L28.3203 27.625ZM12.2188 12.7188C13.5312 11.4062 15.125 10.75 17 10.75C18.875 10.75 20.4688 11.4062 21.7812 12.7188C23.0938 14.0312 23.75 15.625 23.75 17.5C23.75 19.375 23.0938 20.9688 21.7812 22.2812C20.4688 23.5938 18.875 24.25 17 24.25C15.125 24.25 13.5312 23.5938 12.2188 22.2812C10.9062 20.9688 10.25 19.375 10.25 17.5C10.25 15.625 10.9062 14.0312 12.2188 12.7188ZM13.8359 20.6641C14.7266 21.5547 15.7812 22 17 22C18.2188 22 19.2734 21.5547 20.1641 20.6641C21.0547 19.7734 21.5 18.7188 21.5 17.5C21.5 16.2812 21.0547 15.2266 20.1641 14.3359C19.2734 13.4453 18.2188 13 17 13C15.7812 13 14.7266 13.4453 13.8359 14.3359C12.9453 15.2266 12.5 16.2812 12.5 17.5C12.5 18.7188 12.9453 19.7734 13.8359 20.6641Z" fill="#828282"/>
</svg>
