<svg id="Layer_1" data-name="Layer 1" xmlns="http://www.w3.org/2000/svg" viewBox="0 0 18 18"><defs><style>.cls-1{fill:#0c91a6;}</style></defs><title>Icon-custom-Package</title><path class="cls-1" d="M15.19,6.19a2.7,2.7,0,0,1,2,.82A2.73,2.73,0,0,1,18,9v4.5a.55.55,0,0,1-.56.56H15.19v3.38a.56.56,0,0,1-.16.4.54.54,0,0,1-.4.16H3.38A.54.54,0,0,1,3,17.84a.56.56,0,0,1-.16-.4V14.06H.56a.52.52,0,0,1-.4-.16A.52.52,0,0,1,0,13.5V9A2.73,2.73,0,0,1,.83,7a2.7,2.7,0,0,1,2-.82V1.13a1.14,1.14,0,0,1,.32-.8A1,1,0,0,1,3.87,0h7.8a1.63,1.63,0,0,1,1.2.49L14.7,2.32a1.67,1.67,0,0,1,.49,1.2Zm1.12,6.19V9a1.13,1.13,0,0,0-1.12-1.12H2.81A1.13,1.13,0,0,0,1.69,9v3.38ZM4.5,1.69v4.5h9V3.94H11.81a.56.56,0,0,1-.4-.16.54.54,0,0,1-.16-.4V1.69Zm9,14.62V14.06h-9v2.25Zm0-6.78a.82.82,0,0,1,.6-.25.79.79,0,0,1,.6.25.83.83,0,0,1,0,1.19.79.79,0,0,1-.6.25.82.82,0,0,1-.6-.25.86.86,0,0,1,0-1.19Z"/></svg>