<svg width="21px" height="19px" viewBox="0 0 21 19" fill="none" xmlns="http://www.w3.org/2000/svg">
    <path d="M20.1094 10.0586C20.3203 10.2695 20.3203 10.4805 20.1094 10.6914L17.6133 13.2227C17.4727 13.3633 17.3086 13.3984 17.1211 13.3281C16.957 13.2578 16.875 13.1289 16.875 12.9414V11.2188H6.04688C5.92969 11.2188 5.82422 11.1836 5.73047 11.1133C5.66016 11.0195 5.625 10.9141 5.625 10.7969V9.95312C5.625 9.83594 5.66016 9.74219 5.73047 9.67188C5.82422 9.57812 5.92969 9.53125 6.04688 9.53125H11.8125V6.4375H8.15625C7.92188 6.4375 7.72266 6.35547 7.55859 6.19141C7.39453 6.02734 7.3125 5.82813 7.3125 5.59375V1.9375H1.6875V16.5625H11.8125V12.9062H13.5V16.5625C13.5 17.0312 13.3359 17.4297 13.0078 17.7578C12.6797 18.0859 12.2812 18.25 11.8125 18.25H1.6875C1.21875 18.25 0.820312 18.0859 0.492188 17.7578C0.164063 17.4297 0 17.0312 0 16.5625V1.9375C0 1.63281 0.0703125 1.35156 0.210938 1.09375C0.375 0.835938 0.585938 0.636719 0.84375 0.496094C1.10156 0.332031 1.38281 0.25 1.6875 0.25H8.85938C9.32812 0.25 9.72656 0.414063 10.0547 0.742188L13.0078 3.69531C13.3359 4.02344 13.5 4.42188 13.5 4.89062V9.53125H16.875V7.80859C16.875 7.62109 16.957 7.49219 17.1211 7.42188C17.3086 7.35156 17.4727 7.38672 17.6133 7.52734L20.1094 10.0586ZM9 4.75H11.6719L9 2.07812V4.75Z" fill="#FFFFFF"/>
</svg>