<svg width="16" height="17" viewBox="0 0 16 17" fill="none" xmlns="http://www.w3.org/2000/svg">
<path d="M15.8242 8.03906C16.0117 8.25 16.0117 8.44922 15.8242 8.63672L8.44141 15.9844C8.25391 16.1953 8.06641 16.1953 7.87891 15.9844L0.496094 8.63672C0.308594 8.44922 0.308594 8.25 0.496094 8.03906L1.19922 7.33594C1.38672 7.14844 1.58594 7.14844 1.79688 7.33594L7.24609 12.7852V0.796875C7.24609 0.515625 7.38672 0.375 7.66797 0.375H8.65234C8.93359 0.375 9.07422 0.515625 9.07422 0.796875V12.7852L14.5234 7.33594C14.7344 7.14844 14.9336 7.14844 15.1211 7.33594L15.8242 8.03906Z" fill="#EC2828"/>
</svg>
