<svg width="36px" height="37px" viewBox="0 0 36 37" fill="none" xmlns="http://www.w3.org/2000/svg">
    <path d="M24.6094 12.7344C24.8438 12.9687 24.8438 13.2266 24.6094 13.5078L13.0078 25.1094C12.7266 25.3438 12.4688 25.3438 12.2344 25.1094L11.3906 24.2656C11.1562 24.0312 11.1562 23.7734 11.3906 23.4922L22.9922 11.8906C23.2734 11.6563 23.5312 11.6563 23.7656 11.8906L24.6094 12.7344ZM15.8906 11.6094C16.5469 12.2656 16.875 13.0625 16.875 14C16.875 14.9375 16.5469 15.7344 15.8906 16.3906C15.2344 17.0469 14.4375 17.375 13.5 17.375C12.5625 17.375 11.7656 17.0469 11.1094 16.3906C10.4531 15.7344 10.125 14.9375 10.125 14C10.125 13.0625 10.4531 12.2656 11.1094 11.6094C11.7656 10.9531 12.5625 10.625 13.5 10.625C14.4375 10.625 15.2344 10.9531 15.8906 11.6094ZM12.6562 13.2266C12.4688 13.4141 12.375 13.6719 12.375 14C12.375 14.3281 12.4688 14.6094 12.6562 14.8438C12.8906 15.0312 13.1719 15.125 13.5 15.125C13.8281 15.125 14.0859 15.0312 14.2734 14.8438C14.5078 14.6094 14.625 14.3281 14.625 14C14.625 13.6719 14.5078 13.4141 14.2734 13.2266C14.0859 12.9922 13.8281 12.875 13.5 12.875C13.1719 12.875 12.8906 12.9922 12.6562 13.2266ZM20.1094 20.6094C20.7656 19.9531 21.5625 19.625 22.5 19.625C23.4375 19.625 24.2344 19.9531 24.8906 20.6094C25.5469 21.2656 25.875 22.0625 25.875 23C25.875 23.9375 25.5469 24.7344 24.8906 25.3906C24.2344 26.0469 23.4375 26.375 22.5 26.375C21.5625 26.375 20.7656 26.0469 20.1094 25.3906C19.4531 24.7344 19.125 23.9375 19.125 23C19.125 22.0625 19.4531 21.2656 20.1094 20.6094ZM21.6562 23.8438C21.8906 24.0312 22.1719 24.125 22.5 24.125C22.8281 24.125 23.0859 24.0312 23.2734 23.8438C23.5078 23.6094 23.625 23.3281 23.625 23C23.625 22.6719 23.5078 22.4141 23.2734 22.2266C23.0859 21.9922 22.8281 21.875 22.5 21.875C22.1719 21.875 21.8906 21.9922 21.6562 22.2266C21.4688 22.4141 21.375 22.6719 21.375 23C21.375 23.3281 21.4688 23.6094 21.6562 23.8438ZM36 18.5C36 19.3438 35.8594 20.1406 35.5781 20.8906C35.2969 21.6406 34.875 22.3438 34.3125 23C33.7969 23.6094 33.1875 24.125 32.4844 24.5469C32.8125 25.7188 32.8125 26.9141 32.4844 28.1328C32.2031 29.3047 31.6172 30.3359 30.7266 31.2266C29.8359 32.1172 28.7812 32.7031 27.5625 32.9844C26.3438 33.3125 25.1719 33.3125 24.0469 32.9844C23.3906 34.0625 22.5234 34.9062 21.4453 35.5156C20.3672 36.1719 19.2188 36.5 18 36.5C16.7812 36.5 15.6328 36.1719 14.5547 35.5156C13.4766 34.9062 12.6094 34.0625 11.9531 32.9844C10.875 33.3125 9.70312 33.3125 8.4375 32.9844C7.21875 32.7031 6.16406 32.1172 5.27344 31.2266C4.38281 30.3359 3.77344 29.3047 3.44531 28.1328C3.16406 26.9141 3.1875 25.7188 3.51562 24.5469C2.4375 23.8906 1.57031 23.0234 0.914062 21.9453C0.304688 20.8672 0 19.7188 0 18.5C0 17.2812 0.304688 16.1328 0.914062 15.0547C1.57031 13.9766 2.4375 13.1094 3.51562 12.4531C3.1875 11.2812 3.16406 10.1094 3.44531 8.9375C3.77344 7.71875 4.38281 6.66406 5.27344 5.77344C6.16406 4.88281 7.19531 4.29688 8.36719 4.01562C9.58594 3.6875 10.7812 3.6875 11.9531 4.01562C12.6094 2.9375 13.4766 2.09375 14.5547 1.48438C15.6328 0.828125 16.7812 0.5 18 0.5C19.2188 0.5 20.3672 0.828125 21.4453 1.48438C22.5234 2.09375 23.3906 2.9375 24.0469 4.01562C25.2188 3.6875 26.3906 3.6875 27.5625 4.01562C28.7812 4.29688 29.8359 4.88281 30.7266 5.77344C31.6172 6.66406 32.2031 7.71875 32.4844 8.9375C32.8125 10.1094 32.8125 11.2812 32.4844 12.4531C33.5625 13.1094 34.4062 13.9766 35.0156 15.0547C35.6719 16.1328 36 17.2812 36 18.5ZM29.6016 23.2812C29.6016 23.2812 29.6953 23.2578 29.8828 23.2109C30.1172 23.1172 30.2812 23.0469 30.375 23C30.5156 22.9531 30.7031 22.8828 30.9375 22.7891C31.2188 22.6484 31.4297 22.5312 31.5703 22.4375C31.7578 22.2969 31.9688 22.1328 32.2031 21.9453C32.4375 21.7578 32.625 21.5469 32.7656 21.3125C32.9531 21.0781 33.1172 20.8203 33.2578 20.5391C33.4453 20.2578 33.5625 19.9531 33.6094 19.625C33.7031 19.25 33.75 18.875 33.75 18.5C33.75 18.125 33.7031 17.7734 33.6094 17.4453C33.5625 17.0703 33.4688 16.7422 33.3281 16.4609C33.1875 16.1797 33.0234 15.9453 32.8359 15.7578C32.6953 15.5234 32.5078 15.3125 32.2734 15.125C32.0391 14.9375 31.8281 14.7969 31.6406 14.7031C31.5 14.5625 31.2891 14.4219 31.0078 14.2812C30.7734 14.1406 30.5859 14.0469 30.4453 14C30.3516 13.9531 30.1875 13.9063 29.9531 13.8594C29.7188 13.7656 29.6016 13.7188 29.6016 13.7188C29.6016 13.7188 29.6484 13.625 29.7422 13.4375C29.8359 13.2031 29.9062 13.0391 29.9531 12.9453C30 12.8047 30.0703 12.6172 30.1641 12.3828C30.2578 12.1016 30.3281 11.8672 30.375 11.6797C30.4219 11.4453 30.4453 11.1875 30.4453 10.9062C30.4922 10.5781 30.4922 10.2734 30.4453 9.99219C30.3984 9.71094 30.3281 9.42969 30.2344 9.14844C30.1875 8.82031 30.0469 8.51562 29.8125 8.23438C29.625 7.95312 29.3906 7.67188 29.1094 7.39062C28.875 7.10938 28.6172 6.89844 28.3359 6.75781C28.1016 6.57031 27.8438 6.42969 27.5625 6.33594C27.3281 6.19531 27.0703 6.10156 26.7891 6.05469C26.5078 6.00781 26.25 5.98438 26.0156 5.98438C25.8281 5.98438 25.5938 6.00781 25.3125 6.05469C25.0312 6.10156 24.7969 6.14844 24.6094 6.19531C24.4688 6.24219 24.2812 6.3125 24.0469 6.40625C23.8125 6.45313 23.6484 6.5 23.5547 6.54688C23.4609 6.59375 23.3203 6.66406 23.1328 6.75781C22.9453 6.85156 22.8281 6.89844 22.7812 6.89844C22.7812 6.89844 22.7344 6.80469 22.6406 6.61719C22.5938 6.38281 22.5469 6.21875 22.5 6.125C22.4531 5.98438 22.3594 5.79687 22.2188 5.5625C22.125 5.28125 22.0078 5.07031 21.8672 4.92969C21.7734 4.74219 21.6328 4.53125 21.4453 4.29688C21.2578 4.0625 21.0469 3.875 20.8125 3.73438C20.5781 3.54687 20.3203 3.38281 20.0391 3.24219C19.7578 3.05469 19.4297 2.9375 19.0547 2.89062C18.7266 2.79688 18.375 2.75 18 2.75C17.625 2.75 17.25 2.79688 16.875 2.89062C16.5469 2.9375 16.2422 3.03125 15.9609 3.17188C15.6797 3.3125 15.4219 3.47656 15.1875 3.66406C15 3.80469 14.8125 3.99219 14.625 4.22656C14.4375 4.46094 14.2734 4.67187 14.1328 4.85938C14.0391 5 13.9219 5.21094 13.7812 5.49219C13.6406 5.72656 13.5469 5.91406 13.5 6.05469C13.4531 6.14844 13.3828 6.3125 13.2891 6.54688C13.2422 6.78125 13.2188 6.89844 13.2188 6.89844C13.1719 6.89844 13.0547 6.85156 12.8672 6.75781C12.7266 6.66406 12.5859 6.59375 12.4453 6.54688C12.3047 6.5 12.0938 6.42969 11.8125 6.33594C11.5781 6.24219 11.3438 6.17188 11.1094 6.125C10.9219 6.07812 10.6641 6.05469 10.3359 6.05469C10.0547 6.00781 9.77344 6.00781 9.49219 6.05469C9.21094 6.10156 8.90625 6.17188 8.57812 6.26562C8.29688 6.3125 8.01562 6.45313 7.73438 6.6875C7.45312 6.875 7.17188 7.10938 6.89062 7.39062C6.60938 7.625 6.375 7.88281 6.1875 8.16406C6.04688 8.39844 5.90625 8.65625 5.76562 8.9375C5.67188 9.17187 5.60156 9.42969 5.55469 9.71094C5.50781 9.99219 5.48438 10.25 5.48438 10.4844C5.48438 10.6719 5.50781 10.9062 5.55469 11.1875C5.60156 11.4688 5.64844 11.7031 5.69531 11.8906C5.74219 12.0312 5.78906 12.2188 5.83594 12.4531C5.92969 12.6875 6 12.8516 6.04688 12.9453C6.09375 13.0391 6.16406 13.1797 6.25781 13.3672C6.35156 13.5547 6.39844 13.6719 6.39844 13.7188C6.39844 13.7188 6.30469 13.7422 6.11719 13.7891C5.97656 13.8359 5.83594 13.8828 5.69531 13.9297C5.60156 13.9766 5.4375 14.0469 5.20312 14.1406C5.01562 14.2344 4.82812 14.3281 4.64062 14.4219C4.5 14.5156 4.3125 14.6562 4.07812 14.8438C3.84375 14.9844 3.65625 15.1484 3.51562 15.3359C3.375 15.4766 3.21094 15.6641 3.02344 15.8984C2.83594 16.1328 2.69531 16.3906 2.60156 16.6719C2.50781 16.9062 2.41406 17.1875 2.32031 17.5156C2.27344 17.7969 2.25 18.125 2.25 18.5C2.25 18.8281 2.27344 19.1562 2.32031 19.4844C2.41406 19.8125 2.50781 20.0938 2.60156 20.3281C2.69531 20.5625 2.8125 20.7969 2.95312 21.0312C3.14062 21.2656 3.30469 21.4766 3.44531 21.6641C3.58594 21.8047 3.77344 21.9688 4.00781 22.1562C4.24219 22.2969 4.42969 22.4141 4.57031 22.5078C4.71094 22.6016 4.89844 22.6953 5.13281 22.7891C5.36719 22.8828 5.53125 22.9531 5.625 23C5.76562 23.0469 5.92969 23.1172 6.11719 23.2109C6.30469 23.2578 6.39844 23.2812 6.39844 23.2812C6.39844 23.2812 6.35156 23.3984 6.25781 23.6328C6.16406 23.8203 6.09375 23.9844 6.04688 24.125C6 24.2188 5.92969 24.4062 5.83594 24.6875C5.74219 24.9219 5.67188 25.1562 5.625 25.3906C5.57812 25.5781 5.53125 25.8359 5.48438 26.1641C5.48438 26.4453 5.50781 26.7266 5.55469 27.0078C5.60156 27.2891 5.64844 27.5938 5.69531 27.9219C5.78906 28.2031 5.92969 28.4844 6.11719 28.7656C6.35156 29.0469 6.60938 29.3281 6.89062 29.6094C7.35938 30.125 7.85156 30.5 8.36719 30.7344C8.88281 30.9688 9.39844 31.0625 9.91406 31.0156C10.4766 30.9688 10.9922 30.875 11.4609 30.7344C11.9766 30.5938 12.5625 30.3828 13.2188 30.1016C13.2188 30.1016 13.2422 30.2188 13.2891 30.4531C13.3828 30.6406 13.4531 30.8047 13.5 30.9453C13.5469 31.0391 13.6172 31.2266 13.7109 31.5078C13.8516 31.7422 13.9688 31.9297 14.0625 32.0703C14.2031 32.2578 14.3672 32.4688 14.5547 32.7031C14.7422 32.9375 14.9531 33.125 15.1875 33.2656C15.4219 33.4531 15.6797 33.6172 15.9609 33.7578C16.2422 33.9453 16.5469 34.0625 16.875 34.1094C17.25 34.2031 17.625 34.25 18 34.25C18.375 34.25 18.7266 34.2031 19.0547 34.1094C19.4297 34.0625 19.7578 33.9688 20.0391 33.8281C20.3203 33.6875 20.5547 33.5234 20.7422 33.3359C20.9766 33.1953 21.1875 33.0078 21.375 32.7734C21.5625 32.5391 21.7031 32.3281 21.7969 32.1406C21.9375 32 22.0781 31.8125 22.2188 31.5781C22.3594 31.2969 22.4531 31.1094 22.5 31.0156C22.5469 30.875 22.5938 30.6875 22.6406 30.4531C22.7344 30.2188 22.7812 30.1016 22.7812 30.1016C23.4375 30.3828 24 30.5938 24.4688 30.7344C24.9844 30.875 25.5 30.9688 26.0156 31.0156C26.5781 31.0625 27.1172 30.9688 27.6328 30.7344C28.1484 30.5 28.6406 30.125 29.1094 29.6094C29.3906 29.375 29.6016 29.1406 29.7422 28.9062C29.9297 28.625 30.0703 28.3672 30.1641 28.1328C30.3047 27.8516 30.3984 27.5703 30.4453 27.2891C30.4922 27.0078 30.5156 26.7734 30.5156 26.5859C30.5156 26.3516 30.4922 26.0938 30.4453 25.8125C30.3984 25.5312 30.3516 25.3203 30.3047 25.1797C30.2578 24.9922 30.1875 24.7812 30.0938 24.5469C30.0469 24.3125 30 24.1484 29.9531 24.0547C29.9062 23.9609 29.8359 23.8203 29.7422 23.6328C29.6484 23.4453 29.6016 23.3281 29.6016 23.2812Z" fill="#828282"/>
</svg>
