<svg width="28px" height="37px" viewBox="0 0 28 37" fill="none" xmlns="http://www.w3.org/2000/svg">
    <path d="M24.125 5C25.0625 5 25.8594 5.32813 26.5156 5.98438C27.1719 6.64062 27.5 7.4375 27.5 8.375V33.125C27.5 34.0625 27.1719 34.8594 26.5156 35.5156C25.8594 36.1719 25.0625 36.5 24.125 36.5H3.875C2.9375 36.5 2.14062 36.1719 1.48438 35.5156C0.828125 34.8594 0.5 34.0625 0.5 33.125V8.375C0.5 7.4375 0.828125 6.64062 1.48438 5.98438C2.14062 5.32813 2.9375 5 3.875 5H10.1328C10.0859 4.8125 10.0625 4.625 10.0625 4.4375C10.0625 3.35938 10.4375 2.44531 11.1875 1.69531C11.9844 0.898438 12.9219 0.5 14 0.5C15.0781 0.5 15.9922 0.898438 16.7422 1.69531C17.5391 2.44531 17.9375 3.35938 17.9375 4.4375C17.9375 4.625 17.9141 4.8125 17.8672 5H24.125ZM15.1953 3.24219C14.8672 2.91406 14.4688 2.75 14 2.75C13.5312 2.75 13.1328 2.91406 12.8047 3.24219C12.4766 3.57031 12.3125 3.96875 12.3125 4.4375C12.3125 4.90625 12.4766 5.30469 12.8047 5.63281C13.1328 5.96094 13.5312 6.125 14 6.125C14.4688 6.125 14.8672 5.96094 15.1953 5.63281C15.5234 5.30469 15.6875 4.90625 15.6875 4.4375C15.6875 3.96875 15.5234 3.57031 15.1953 3.24219ZM25.25 33.125V8.375C25.25 8.04687 25.1328 7.78906 24.8984 7.60156C24.7109 7.36719 24.4531 7.25 24.125 7.25H20.75V8.65625C20.75 9.21875 20.4688 9.5 19.9062 9.5H8.09375C7.53125 9.5 7.25 9.21875 7.25 8.65625V7.25H3.875C3.54688 7.25 3.26562 7.36719 3.03125 7.60156C2.84375 7.78906 2.75 8.04687 2.75 8.375V33.125C2.75 33.4531 2.84375 33.7109 3.03125 33.8984C3.26562 34.1328 3.54688 34.25 3.875 34.25H24.125C24.4531 34.25 24.7109 34.1328 24.8984 33.8984C25.1328 33.7109 25.25 33.4531 25.25 33.125ZM7.17969 24.0547C7.50781 23.7266 7.90625 23.5625 8.375 23.5625C8.84375 23.5625 9.24219 23.7266 9.57031 24.0547C9.89844 24.3828 10.0625 24.7812 10.0625 25.25C10.0625 25.7188 9.89844 26.1172 9.57031 26.4453C9.24219 26.7734 8.84375 26.9375 8.375 26.9375C7.90625 26.9375 7.50781 26.7734 7.17969 26.4453C6.85156 26.1172 6.6875 25.7188 6.6875 25.25C6.6875 24.7812 6.85156 24.3828 7.17969 24.0547ZM20.1875 24.125C20.5625 24.125 20.75 24.3125 20.75 24.6875V25.8125C20.75 26.1875 20.5625 26.375 20.1875 26.375H12.3125C11.9375 26.375 11.75 26.1875 11.75 25.8125V24.6875C11.75 24.3125 11.9375 24.125 12.3125 24.125H20.1875ZM9.35938 19.4844C9.17188 19.6719 9.00781 19.6719 8.86719 19.4844L6.26562 16.8828C6.07812 16.6953 6.07812 16.5078 6.26562 16.3203L7.10938 15.4766C7.29688 15.2891 7.48438 15.2891 7.67188 15.4766L9.14844 16.9531L12.4531 13.5781C12.6406 13.4375 12.8281 13.4375 13.0156 13.5781L13.8594 14.4922C14.0469 14.6797 14.0469 14.8672 13.8594 15.0547L9.35938 19.4844ZM20.1875 17.375C20.5625 17.375 20.75 17.5625 20.75 17.9375V19.0625C20.75 19.4375 20.5625 19.625 20.1875 19.625H12.4531L14.7031 17.375H20.1875Z" fill="#828282"/>
</svg>
