<svg width="16px" height="19px" viewBox="0 0 16 19" fill="none" xmlns="http://www.w3.org/2000/svg">
    <path d="M9.54688 14.875C9.26562 14.875 9.125 14.7344 9.125 14.4531V6.85938C9.125 6.57812 9.26562 6.4375 9.54688 6.4375H10.3906C10.6719 6.4375 10.8125 6.57812 10.8125 6.85938V14.4531C10.8125 14.7344 10.6719 14.875 10.3906 14.875H9.54688ZM15.3125 3.0625C15.4766 3.0625 15.6055 3.12109 15.6992 3.23828C15.8164 3.33203 15.875 3.46094 15.875 3.625V4.1875C15.875 4.35156 15.8164 4.49219 15.6992 4.60938C15.6055 4.70313 15.4766 4.75 15.3125 4.75H14.75V16.5625C14.75 17.0312 14.5859 17.4297 14.2578 17.7578C13.9297 18.0859 13.5312 18.25 13.0625 18.25H2.9375C2.46875 18.25 2.07031 18.0859 1.74219 17.7578C1.41406 17.4297 1.25 17.0312 1.25 16.5625V4.75H0.6875C0.523438 4.75 0.382812 4.70313 0.265625 4.60938C0.171875 4.49219 0.125 4.35156 0.125 4.1875V3.625C0.125 3.46094 0.171875 3.33203 0.265625 3.23828C0.382812 3.12109 0.523438 3.0625 0.6875 3.0625H3.57031L4.76562 1.05859C4.90625 0.847656 5.11719 0.660156 5.39844 0.496094C5.67969 0.332031 5.96094 0.25 6.24219 0.25H9.75781C9.94531 0.25 10.1328 0.285156 10.3203 0.355469C10.5078 0.425781 10.6836 0.53125 10.8477 0.671875C11.0117 0.789062 11.1406 0.917969 11.2344 1.05859L12.4297 3.0625H15.3125ZM6.17188 2.04297L5.53906 3.0625H10.4609L9.82812 2.04297C9.78125 1.97266 9.72266 1.9375 9.65234 1.9375H6.34766C6.27734 1.9375 6.21875 1.97266 6.17188 2.04297ZM13.0625 16.5625V4.75H2.9375V16.5625H13.0625ZM5.60938 14.875C5.32812 14.875 5.1875 14.7344 5.1875 14.4531V6.85938C5.1875 6.57812 5.32812 6.4375 5.60938 6.4375H6.45312C6.73438 6.4375 6.875 6.57812 6.875 6.85938V14.4531C6.875 14.7344 6.73438 14.875 6.45312 14.875H5.60938Z" fill="#FF881A"/>
</svg>
