<svg width="19px" height="19px" viewBox="0 0 19 19" fill="none" xmlns="http://www.w3.org/2000/svg">
    <path d="M17.3672 2.21875C17.8125 2.66406 18.0352 3.20312 18.0352 3.83594C18.0352 4.44531 17.8125 4.97266 17.3672 5.41797L14.7656 8.01953L13.5352 9.25L4.99219 17.793L0.984375 18.25C0.9375 18.25 0.902344 18.25 0.878906 18.25C0.621094 18.25 0.410156 18.1562 0.246094 17.9688C0.0820313 17.7812 0.0117187 17.5586 0.0351562 17.3008L0.492188 13.293L9.03516 4.75L10.2656 3.51953L12.8672 0.917969C13.3125 0.472656 13.8398 0.25 14.4492 0.25C15.082 0.25 15.6211 0.472656 16.0664 0.917969L17.3672 2.21875ZM4.21875 16.1758L12.3398 8.05469L13.4297 6.96484L11.3203 4.85547L10.2305 5.94531L2.10938 14.0664L1.82812 16.457L4.21875 16.1758ZM16.1719 4.22266C16.4531 3.96484 16.4531 3.69531 16.1719 3.41406L14.8711 2.11328C14.7539 1.99609 14.6133 1.9375 14.4492 1.9375C14.3086 1.9375 14.1797 1.99609 14.0625 2.11328L12.5156 3.66016L14.625 5.76953L16.1719 4.22266Z" fill="#1E88E5"/>
</svg>
