<svg width="18" height="14" viewBox="0 0 18 14" fill="none" xmlns="http://www.w3.org/2000/svg">
<path d="M0 9.5V8.44531C0.421875 8.9375 0.984375 9.40625 1.6875 9.85156V12.1016C0.5625 11.3281 0 10.4609 0 9.5ZM15.3633 9.14844C13.6055 10.1328 11.4844 10.625 9 10.625C6.51562 10.625 4.39453 10.1328 2.63672 9.14844C0.878906 8.16406 0 6.96875 0 5.5625C0 4.15625 0.878906 2.96094 2.63672 1.97656C4.39453 0.992188 6.51562 0.5 9 0.5C11.4844 0.5 13.6055 0.992188 15.3633 1.97656C17.1211 2.96094 18 4.15625 18 5.5625C18 6.96875 17.1211 8.16406 15.3633 9.14844ZM2.8125 12.7695V10.4844C3.82031 10.9531 4.94531 11.293 6.1875 11.5039V13.7539C4.92188 13.543 3.79688 13.2148 2.8125 12.7695ZM16.3125 12.1016V9.85156C17.0156 9.40625 17.5781 8.9375 18 8.44531V9.5C18 10.4609 17.4375 11.3281 16.3125 12.1016ZM11.8125 13.7539V11.5039C13.0547 11.293 14.1797 10.9531 15.1875 10.4844V12.7695C14.2031 13.2148 13.0781 13.543 11.8125 13.7539ZM7.3125 11.6445C7.875 11.7148 8.4375 11.75 9 11.75C9.5625 11.75 10.125 11.7148 10.6875 11.6445V13.8945C10.0312 13.9648 9.46875 14 9 14C8.53125 14 7.96875 13.9648 7.3125 13.8945V11.6445Z" fill="#111111"/>
</svg>
