<svg width="37px" height="37px" viewBox="0 0 37 37" fill="none" xmlns="http://www.w3.org/2000/svg">
    <path d="M35.4375 27.9219C35.8594 28.3438 36.0703 28.8594 36.0703 29.4688C36.0703 30.0781 35.8594 30.6172 35.4375 31.0859L30.6562 35.8672C30.2344 36.2891 29.6953 36.5 29.0391 36.5C28.4297 36.5 27.9141 36.2891 27.4922 35.8672L18.7031 27.0781C17.7656 26.1406 17.2266 25.0156 17.0859 23.7031C16.9453 22.3438 17.25 21.125 18 20.0469L11.9531 14H6.82031L0.0703125 5L4.57031 0.5L13.5703 7.25V12.3828L19.6172 18.4297C20.5078 17.8203 21.5391 17.5156 22.7109 17.5156C24.2578 17.5156 25.5703 18.0547 26.6484 19.1328L35.4375 27.9219ZM11.3203 11.6094V8.375L4.78125 3.45312L3.02344 5.21094L7.94531 11.75H11.3203V11.6094ZM29.0391 34.25L33.8203 29.4688L25.1016 20.75C24.4453 20.0938 23.6484 19.7656 22.7109 19.7656C21.7734 19.7656 20.9766 20.0938 20.3203 20.75C19.6641 21.4062 19.3359 22.2031 19.3359 23.1406C19.3359 24.0312 19.6641 24.8281 20.3203 25.5312L29.0391 34.25ZM4.85156 31.7188C4.66406 31.4844 4.57031 31.2031 4.57031 30.875C4.57031 30.5469 4.66406 30.2891 4.85156 30.1016C5.08594 29.8672 5.36719 29.75 5.69531 29.75C6.02344 29.75 6.28125 29.8672 6.46875 30.1016C6.70312 30.2891 6.82031 30.5469 6.82031 30.875C6.82031 31.2031 6.70312 31.4844 6.46875 31.7188C6.28125 31.9062 6.02344 32 5.69531 32C5.36719 32 5.08594 31.9062 4.85156 31.7188ZM19.5469 5.21094C18.5156 6.24219 17.8125 7.46094 17.4375 8.86719C17.0625 10.2266 17.0391 11.6094 17.3672 13.0156L15.8203 11.4688V6.6875C16.3359 5.51562 17.0391 4.48438 17.9297 3.59375C19.2891 2.28125 20.8594 1.39063 22.6406 0.921875C24.4219 0.40625 26.2031 0.382812 27.9844 0.851562C28.7344 1.03906 29.2031 1.48438 29.3906 2.1875C29.5781 2.89062 29.4141 3.5 28.8984 4.01562L24.3984 8.51562L24.9609 11.6094L28.0547 12.1719L32.5547 7.67188C33.0703 7.15625 33.6797 6.99219 34.3828 7.17969C35.1328 7.36719 35.5781 7.8125 35.7188 8.51562C36.1875 10.3438 36.1641 12.1484 35.6484 13.9297C35.1797 15.7109 34.2891 17.2812 32.9766 18.6406C32.3672 19.2031 31.6875 19.7188 30.9375 20.1875L29.25 18.5703C30.0469 18.1484 30.75 17.6328 31.3594 17.0234C33.4219 15.0078 34.1953 12.5703 33.6797 9.71094L28.8281 14.5625L22.9922 13.5781L22.0078 7.74219L26.8594 2.89062C26.3906 2.79688 25.9219 2.75 25.4531 2.75C23.1562 2.75 21.1875 3.57031 19.5469 5.21094ZM7.59375 33.3359L15.2578 25.6719C15.5391 26.4688 15.8906 27.1719 16.3125 27.7812L9.21094 34.9531C8.13281 35.9844 6.84375 36.5 5.34375 36.5C3.89062 36.5 2.64844 35.9844 1.61719 34.9531C0.585938 33.9219 0.0703125 32.6797 0.0703125 31.2266C0.0703125 29.7266 0.585938 28.4375 1.61719 27.3594L11.8828 17.0938L13.5 18.7109L3.23438 28.9766C2.625 29.5859 2.32031 30.3125 2.32031 31.1562C2.32031 32 2.625 32.7266 3.23438 33.3359C3.79688 33.9453 4.52344 34.25 5.41406 34.25C6.30469 34.25 7.03125 33.9453 7.59375 33.3359Z" fill="#828282"/>
</svg>
