<svg width="28px" height="37px" viewBox="0 0 28 37" fill="none" xmlns="http://www.w3.org/2000/svg">
    <path d="M10.0625 23C10.4375 23 10.625 23.1875 10.625 23.5625V30.3125C10.625 30.6875 10.4375 30.875 10.0625 30.875H8.9375C8.5625 30.875 8.375 30.6875 8.375 30.3125V23.5625C8.375 23.1875 8.5625 23 8.9375 23H10.0625ZM14.5625 16.25C14.9375 16.25 15.125 16.4375 15.125 16.8125V30.3125C15.125 30.6875 14.9375 30.875 14.5625 30.875H13.4375C13.0625 30.875 12.875 30.6875 12.875 30.3125V16.8125C12.875 16.4375 13.0625 16.25 13.4375 16.25H14.5625ZM17.375 21.3125C17.375 20.9375 17.5625 20.75 17.9375 20.75H19.0625C19.4375 20.75 19.625 20.9375 19.625 21.3125V30.3125C19.625 30.6875 19.4375 30.875 19.0625 30.875H17.9375C17.5625 30.875 17.375 30.6875 17.375 30.3125V21.3125ZM26.5156 7.39062C27.1719 8.04687 27.5 8.84375 27.5 9.78125V33.125C27.5 34.0625 27.1719 34.8594 26.5156 35.5156C25.8594 36.1719 25.0625 36.5 24.125 36.5H3.875C2.9375 36.5 2.14062 36.1719 1.48438 35.5156C0.828125 34.8594 0.5 34.0625 0.5 33.125V3.875C0.5 3.26562 0.640625 2.70312 0.921875 2.1875C1.25 1.67188 1.67188 1.27344 2.1875 0.992188C2.70312 0.664062 3.26562 0.5 3.875 0.5H18.2188C19.1562 0.5 19.9531 0.828125 20.6094 1.48438L26.5156 7.39062ZM18.5 2.82031V9.5H25.25C25.1562 9.3125 25.0391 9.14844 24.8984 9.00781L18.9922 3.10156C18.8516 2.96094 18.6875 2.86719 18.5 2.82031ZM25.25 33.125V11.75H17.9375C17.4688 11.75 17.0703 11.5859 16.7422 11.2578C16.4141 10.9297 16.25 10.5313 16.25 10.0625V2.75H3.875C3.54688 2.75 3.26562 2.86719 3.03125 3.10156C2.84375 3.28906 2.75 3.54687 2.75 3.875V33.125C2.75 33.4531 2.84375 33.7109 3.03125 33.8984C3.26562 34.1328 3.54688 34.25 3.875 34.25H24.125C24.4531 34.25 24.7109 34.1328 24.8984 33.8984C25.1328 33.7109 25.25 33.4531 25.25 33.125Z" fill="#ffffff"/>
</svg>
