<svg width="28px" height="22px" viewBox="0 0 28 22" fill="none" xmlns="http://www.w3.org/2000/svg">
    <path d="M3.0625 0.5C2.25 0.5 1.54688 0.796875 0.953125 1.39062C0.359375 1.98438 0.0625 2.6875 0.0625 3.5V18.5C0.0625 19.3125 0.359375 20.0156 0.953125 20.6094C1.54688 21.2031 2.25 21.5 3.0625 21.5H24.0625C24.875 21.5 25.5781 21.2031 26.1719 20.6094C26.7656 20.0156 27.0625 19.3125 27.0625 18.5V3.5C27.0625 2.6875 26.7656 1.98438 26.1719 1.39062C25.5781 0.796875 24.875 0.5 24.0625 0.5H3.0625ZM1.5625 18.5V3.5C1.5625 3.09375 1.71875 2.75 2.03125 2.46875C2.3125 2.15625 2.65625 2 3.0625 2H24.0625C24.4688 2 24.8281 2.15625 25.1406 2.46875C25.4219 2.75 25.5625 3.09375 25.5625 3.5V18.5C25.5625 18.9062 25.4219 19.2656 25.1406 19.5781C24.8281 19.8594 24.4688 20 24.0625 20H3.0625C2.65625 20 2.3125 19.8594 2.03125 19.5781C1.71875 19.2656 1.5625 18.9062 1.5625 18.5ZM4.9375 12.5C4.6875 12.5 4.5625 12.625 4.5625 12.875V13.625C4.5625 13.875 4.6875 14 4.9375 14H10.1875C10.4375 14 10.5625 13.875 10.5625 13.625V12.875C10.5625 12.625 10.4375 12.5 10.1875 12.5H4.9375ZM4.9375 9.5C4.6875 9.5 4.5625 9.625 4.5625 9.875V10.625C4.5625 10.875 4.6875 11 4.9375 11H10.1875C10.4375 11 10.5625 10.875 10.5625 10.625V9.875C10.5625 9.625 10.4375 9.5 10.1875 9.5H4.9375ZM4.9375 6.5C4.6875 6.5 4.5625 6.625 4.5625 6.875V7.625C4.5625 7.875 4.6875 8 4.9375 8H10.1875C10.4375 8 10.5625 7.875 10.5625 7.625V6.875C10.5625 6.625 10.4375 6.5 10.1875 6.5H4.9375ZM14.6875 11.4219C15.4062 12.1406 16.2812 12.5 17.3125 12.5C18.3438 12.5 19.2344 12.1406 19.9844 11.4219C20.7031 10.6719 21.0625 9.78125 21.0625 8.75C21.0625 7.71875 20.7031 6.84375 19.9844 6.125C19.2344 5.375 18.3438 5 17.3125 5C16.2812 5 15.4062 5.375 14.6875 6.125C13.9375 6.84375 13.5625 7.71875 13.5625 8.75C13.5625 9.78125 13.9375 10.6719 14.6875 11.4219ZM15.7188 7.15625C16.1562 6.71875 16.6875 6.5 17.3125 6.5C17.9375 6.5 18.4688 6.71875 18.9062 7.15625C19.3438 7.59375 19.5625 8.125 19.5625 8.75C19.5625 9.375 19.3438 9.90625 18.9062 10.3438C18.4688 10.7812 17.9375 11 17.3125 11C16.6875 11 16.1562 10.7812 15.7188 10.3438C15.2812 9.90625 15.0625 9.375 15.0625 8.75C15.0625 8.125 15.2812 7.59375 15.7188 7.15625ZM15.1094 13.25C14.0156 13.25 13.1719 13.6719 12.5781 14.5156C12.2344 15.0469 12.0625 15.6406 12.0625 16.2969V17.375C12.0625 17.625 12.1875 17.75 12.4375 17.75H13.1875C13.4375 17.75 13.5625 17.625 13.5625 17.375V16.2969C13.5625 15.9531 13.6562 15.6406 13.8438 15.3594C14.125 14.9531 14.5469 14.75 15.1094 14.75C15.2656 14.75 15.5625 14.8125 16 14.9375C16.4062 15.0312 16.8438 15.0781 17.3125 15.0781C17.7812 15.0781 18.2344 15.0312 18.6719 14.9375C19.0781 14.8125 19.3594 14.75 19.5156 14.75C20.0781 14.75 20.5 14.9531 20.7812 15.3594C20.9688 15.6406 21.0625 15.9531 21.0625 16.2969V17.375C21.0625 17.625 21.1875 17.75 21.4375 17.75H22.1875C22.4375 17.75 22.5625 17.625 22.5625 17.375V16.2969C22.5625 15.6406 22.3906 15.0469 22.0469 14.5156C21.4531 13.6719 20.6094 13.25 19.5156 13.25C19.2031 13.25 18.8594 13.3125 18.4844 13.4375C18.0781 13.5312 17.6875 13.5781 17.3125 13.5781C16.9375 13.5781 16.5625 13.5312 16.1875 13.4375C15.7812 13.3125 15.4219 13.25 15.1094 13.25Z" fill="#333333"/>
</svg>
