<svg width="205px" height="40px" viewBox="0 0 205px 40px" fill="none" xmlns="http://www.w3.org/2000/svg">
    <style>
    .cls-1 {
        fill: #FFC107;
    }
    .cls-2 {
        fill: #111111;
    }
    @media (prefers-color-scheme: dark) {
        .cls-2 {
            fill: #FFFFFF;
        }
    }
    </style>
    <g clip-path="url(#clip0)">
        <path d="M27.3094 35.1226H16.7813L15.7332 33.2979H26.9723H29.4842L22.8102 21.6686H15.3897H7.71444H1.08984L4.07199 26.8661H4.73103H12.4063H18.0753L19.0334 28.4077H11.5217H4.95789L11.6091 40.0001H12.5203H26.7315H33.3485L30.5501 35.1226H27.3094Z" class="cls-2"/>
        <path d="M20.1476 13.3763L21.6406 15.9763L32.6199 35.1111H40.2952L20.1476 0L8.76147 19.8425H16.438L20.1476 13.3763Z" class="cls-2"/>
        <path d="M0 35.1111H6.70824L3.35476 29.2659L0 35.1111Z" class="cls-2"/>
        <path d="M84.5254 7.80774L79.2569 29.2722H71.7147L76.9819 7.80774H71.2597L64.5793 35.0295H83.566L90.2476 7.80774H84.5254Z" class="cls-2"/>
        <path d="M105.825 7.80768L103.497 17.2744L102.608 20.9123L101.306 17.2744L98.6669 7.74902H92.5746L90.2325 17.2744L85.8929 34.9708H88.3289H91.6164L95.5238 19.0468L100.293 34.9708H104.881L109.219 17.2744L111.547 7.80768H105.825Z" class="cls-2"/>
        <path d="M117.177 17.2745L118.217 12.9964H131.424L132.705 7.74915H113.775L111.455 17.2745H111.433L109.722 24.2686H122.987L121.759 29.2723H108.552L107.139 35.0296H126.068L130.122 18.5114H116.858L117.155 17.2745H117.177Z" class="cls-1"/>
        <path d="M156.873 7.69043H151.15L148.687 17.5894H148.717L148.48 18.57H138.134L138.447 17.2744H138.427L140.805 7.69043H135.082L132.705 17.2744H132.725L128.358 35.0894H134.08L136.721 24.3272H147.067L144.455 34.9709H150.177L154.515 17.2744H154.487L156.873 7.69043Z" class="cls-1"/>
        <path d="M199.278 7.69043L197.019 16.8919L196.856 17.5575L194.544 26.9744C194.213 28.3248 193.008 29.2735 191.627 29.2735H188.983L191.838 17.7539H186.116L183.261 29.2735H178.263L181.139 17.5575L181.303 16.8919L183.561 7.69043H177.839L175.58 16.8919L175.417 17.5575L171.128 35.0308H192.935C196.08 35.0308 198.82 32.872 199.574 29.8001L202.579 17.5588L202.743 16.8931L205.001 7.6917H199.278V7.69043Z" class="cls-1"/>
        <path d="M164.719 18.9767C166.437 18.9767 167.829 17.5757 167.829 15.8475C167.829 14.1193 166.437 12.7183 164.719 12.7183C163.001 12.7183 161.609 14.1193 161.609 15.8475C161.609 17.5757 163.001 18.9767 164.719 18.9767Z" class="cls-1"/>
        <path d="M178.325 14.5086H176C175.39 9.27539 171.252 5.11205 166.051 4.4987V2.15881H163.389V4.4987C158.188 5.11205 154.05 9.27539 153.441 14.5086H151.115V17.1864H153.441C154.05 22.4196 158.188 26.5829 163.389 27.1963V29.5362H166.051V27.1963C171.252 26.5829 175.39 22.4196 176 17.1864H178.325V14.5086ZM166.05 24.4955V22.3367H163.388V24.4955C159.656 23.9166 156.699 20.9417 156.124 17.1864H158.269V14.5086H156.124C156.699 10.7533 159.656 7.77837 163.388 7.19946V9.35955H166.05V7.19946C169.782 7.77837 172.739 10.7533 173.314 14.5086H171.169V17.1864H173.314C172.739 20.9417 169.782 23.9166 166.05 24.4955Z" class="cls-2"/>
        <path d="M68.8745 7.8103H55.1234C52.2718 7.8103 49.3657 10.1553 48.6623 13.0231L44.5142 29.9251C43.8196 32.7547 45.523 35.0295 48.3353 35.0295H62.2486L66.2624 18.5406H56.4871L55.2197 23.7381H59.2677L57.9294 29.2519H52.1856C51.2186 29.2519 50.5101 28.3363 50.7484 27.3927L53.9866 14.5494C54.2122 13.653 55.0144 13.0256 55.9333 13.0256H67.6046L68.8745 7.8103Z" class="cls-2"/>
    </g>
    <defs>
        <clipPath id="clip0">
            <rect width="205" height="40" fill="white"/>
        </clipPath>
    </defs>
</svg>
