<svg width="24" height="18" viewBox="0 0 24 18" fill="none" xmlns="http://www.w3.org/2000/svg">
<path d="M21.75 0C22.375 0 22.9062 0.21875 23.3438 0.65625C23.7812 1.09375 24 1.625 24 2.25V15.75C24 16.375 23.7812 16.9062 23.3438 17.3438C22.9062 17.7812 22.375 18 21.75 18H2.25C1.625 18 1.09375 17.7812 0.65625 17.3438C0.21875 16.9062 0 16.375 0 15.75V2.25C0 1.625 0.21875 1.09375 0.65625 0.65625C1.09375 0.21875 1.625 0 2.25 0H21.75ZM21.75 2.25H2.25V4.17188C3.34375 5.04688 5.45312 6.70312 8.57812 9.14062C8.57812 9.17188 8.79688 9.375 9.23438 9.75C9.67188 10.0938 10 10.3438 10.2188 10.5C10.4375 10.625 10.7188 10.7812 11.0625 10.9688C11.4375 11.1562 11.75 11.25 12 11.25C12.25 11.25 12.5469 11.1562 12.8906 10.9688C13.2656 10.7812 13.5625 10.625 13.7812 10.5C14 10.3438 14.3281 10.0938 14.7656 9.75C15.2031 9.375 15.4219 9.17188 15.4219 9.14062C18.5469 6.70312 20.6562 5.04688 21.75 4.17188V2.25ZM2.25 15.75H21.75V7.03125C20.6562 7.90625 19.0156 9.20312 16.8281 10.9219C16.7656 10.9531 16.5312 11.1406 16.125 11.4844C15.75 11.8281 15.4531 12.0781 15.2344 12.2344C15.0156 12.3906 14.7031 12.5938 14.2969 12.8438C13.8906 13.0625 13.5 13.2344 13.125 13.3594C12.75 13.4531 12.375 13.5 12 13.5C11.625 13.5 11.2344 13.4531 10.8281 13.3594C10.4531 13.2344 10.0625 13.0469 9.65625 12.7969C9.28125 12.5469 8.98438 12.3438 8.76562 12.1875C8.54688 12.0312 8.23438 11.7969 7.82812 11.4844C7.45312 11.1406 7.23438 10.9531 7.17188 10.9219C4.98438 9.20312 3.34375 7.90625 2.25 7.03125V15.75Z" fill="white"/>
</svg>
