<svg width="32px" height="27px" viewBox="0 0 32 27" fill="none" xmlns="http://www.w3.org/2000/svg">
    <path d="M30.9062 4.21875H1.09375C0.53125 4.21875 0.25 3.9375 0.25 3.375V1.125C0.25 0.5625 0.53125 0.28125 1.09375 0.28125H30.9062C31.4688 0.28125 31.75 0.5625 31.75 1.125V3.375C31.75 3.9375 31.4688 4.21875 30.9062 4.21875ZM30.9062 15.4688H1.09375C0.53125 15.4688 0.25 15.1875 0.25 14.625V12.375C0.25 11.8125 0.53125 11.5312 1.09375 11.5312H30.9062C31.4688 11.5312 31.75 11.8125 31.75 12.375V14.625C31.75 15.1875 31.4688 15.4688 30.9062 15.4688ZM30.9062 26.7188H1.09375C0.53125 26.7188 0.25 26.4375 0.25 25.875V23.625C0.25 23.0625 0.53125 22.7812 1.09375 22.7812H30.9062C31.4688 22.7812 31.75 23.0625 31.75 23.625V25.875C31.75 26.4375 31.4688 26.7188 30.9062 26.7188Z" fill="black"/>
</svg>
