<svg width="24" height="24" viewBox="0 0 24 24" fill="none" xmlns="http://www.w3.org/2000/svg">
<path d="M7.64062 10.7812L10.4531 13.6406L17.0625 7.03125C17.3438 6.78125 17.6094 6.79688 17.8594 7.07812L18.9375 8.10938C19.1875 8.39062 19.1875 8.65625 18.9375 8.90625L10.8281 16.9688C10.5781 17.2188 10.3125 17.2031 10.0312 16.9219L5.76562 12.6562C5.51562 12.375 5.53125 12.1094 5.8125 11.8594L6.84375 10.7812C7.125 10.5312 7.39062 10.5312 7.64062 10.7812ZM21.8438 3.9375C22.2812 4.09375 22.625 4.35938 22.875 4.73438C23.125 5.10938 23.25 5.53125 23.25 6C23.25 7.96875 23.0156 9.85938 22.5469 11.6719C22.0781 13.4531 21.4844 15 20.7656 16.3125C20.0469 17.5938 19.2031 18.7656 18.2344 19.8281C17.2969 20.8594 16.375 21.6875 15.4688 22.3125C14.5938 22.9688 13.7188 23.4688 12.8438 23.8125C12.2812 24.0625 11.7188 24.0625 11.1562 23.8125C9.84375 23.2812 8.57812 22.4844 7.35938 21.4219C6.17188 20.3906 5.07812 19.1406 4.07812 17.6719C3.07812 16.1719 2.26562 14.4062 1.64062 12.375C1.04688 10.3438 0.75 8.21875 0.75 6C0.75 5.8125 0.765625 5.64062 0.796875 5.48438C0.859375 5.29688 0.921875 5.125 0.984375 4.96875C1.07812 4.8125 1.17188 4.67188 1.26562 4.54688C1.39062 4.42187 1.51562 4.3125 1.64062 4.21875C1.79688 4.09375 1.96875 4 2.15625 3.9375L11.1562 0.1875C11.4062 0.0625 11.6875 0 12 0C12.3125 0 12.5938 0.0625 12.8438 0.1875L21.8438 3.9375ZM12 21.75C14.4062 20.75 16.5 18.8281 18.2812 15.9844C20.0938 13.1406 21 9.8125 21 6L12 2.25L3 6C3 9.75 3.875 13.0625 5.625 15.9375C7.40625 18.7812 9.53125 20.7188 12 21.75Z" fill="white"/>
</svg>
