<svg width="38px" height="38px" viewBox="0 0 38px 38px" fill="none" xmlns="http://www.w3.org/2000/svg">
    <path d="M35.0156 16.3906C35.6719 17.0469 36 17.8438 36 18.7812C36 19.7188 35.6719 20.5156 35.0156 21.1719L20.6719 35.5156C20.0156 36.1719 19.2188 36.5 18.2812 36.5C17.3438 36.5 16.5469 36.1719 15.8906 35.5156L0.984375 20.6094C0.328125 19.9531 0 19.1562 0 18.2188V3.875C0 2.9375 0.328125 2.14062 0.984375 1.48438C1.64062 0.828125 2.4375 0.5 3.375 0.5H17.7188C18.6562 0.5 19.4531 0.828125 20.1094 1.48438L35.0156 16.3906ZM33.3984 19.5547C33.9609 19.0391 33.9609 18.5234 33.3984 18.0078L18.4922 3.10156C18.3047 2.86719 18.0469 2.75 17.7188 2.75H3.375C3.04688 2.75 2.76562 2.86719 2.53125 3.10156C2.34375 3.28906 2.25 3.54687 2.25 3.875V18.2188C2.25 18.5469 2.36719 18.8047 2.60156 18.9922L17.5078 33.8984C18.0234 34.4609 18.5391 34.4609 19.0547 33.8984L33.3984 19.5547ZM11.1094 9.64062C10.8281 9.35938 10.5 9.21875 10.125 9.21875C9.75 9.21875 9.42188 9.35938 9.14062 9.64062C8.85938 9.92188 8.71875 10.25 8.71875 10.625C8.71875 11 8.85938 11.3281 9.14062 11.6094C9.42188 11.8906 9.75 12.0312 10.125 12.0312C10.5 12.0312 10.8281 11.8906 11.1094 11.6094C11.3906 11.3281 11.5312 11 11.5312 10.625C11.5312 10.25 11.3906 9.92188 11.1094 9.64062ZM7.73438 8.23438C8.39062 7.57813 9.1875 7.25 10.125 7.25C11.0625 7.25 11.8594 7.57813 12.5156 8.23438C13.1719 8.89062 13.5 9.6875 13.5 10.625C13.5 11.5625 13.1719 12.3594 12.5156 13.0156C11.8594 13.6719 11.0625 14 10.125 14C9.1875 14 8.39062 13.6719 7.73438 13.0156C7.07812 12.3594 6.75 11.5625 6.75 10.625C6.75 9.6875 7.07812 8.89062 7.73438 8.23438Z" fill="white"/>
</svg>
