<svg width="80px" height="64px" viewBox="0 0 80px 64px" fill="none" xmlns="http://www.w3.org/2000/svg">
    <path d="M78.25 36.75L52.75 62.25C51.5833 63.4167 50.1667 64 48.5 64C46.8333 64 45.4167 63.4167 44.25 62.25L44 62L46.875 59.25L47.125 59.375C48.0417 60.375 48.9583 60.375 49.875 59.375L75.375 33.875C76.375 32.9583 76.375 32.0417 75.375 31.125L48.875 4.625C48.5417 4.20833 48.0833 4 47.5 4H45.125L41.125 0H47.5C49.1667 0 50.5833 0.583333 51.75 1.75L78.25 28.25C79.4167 29.4167 80 30.8333 80 32.5C80 34.1667 79.4167 35.5833 78.25 36.75ZM31.5 4H6C5.41667 4 4.91667 4.20833 4.5 4.625C4.16667 4.95833 4 5.41667 4 6V31.5C4 32.0833 4.20833 32.5417 4.625 32.875L31.125 59.375C32.0417 60.375 32.9583 60.375 33.875 59.375L59.375 33.875C60.375 32.9583 60.375 32.0417 59.375 31.125L32.875 4.625C32.5417 4.20833 32.0833 4 31.5 4ZM31.5 0C33.1667 0 34.5833 0.583333 35.75 1.75L62.25 28.25C63.4167 29.4167 64 30.8333 64 32.5C64 34.1667 63.4167 35.5833 62.25 36.75L36.75 62.25C35.5833 63.4167 34.1667 64 32.5 64C30.8333 64 29.4167 63.4167 28.25 62.25L1.75 35.75C0.583333 34.5833 0 33.1667 0 31.5V6C0 4.33333 0.583333 2.91667 1.75 1.75C2.91667 0.583333 4.33333 0 6 0H31.5ZM19.75 16.25C19.25 15.75 18.6667 15.5 18 15.5C17.3333 15.5 16.75 15.75 16.25 16.25C15.75 16.75 15.5 17.3333 15.5 18C15.5 18.6667 15.75 19.25 16.25 19.75C16.75 20.25 17.3333 20.5 18 20.5C18.6667 20.5 19.25 20.25 19.75 19.75C20.25 19.25 20.5 18.6667 20.5 18C20.5 17.3333 20.25 16.75 19.75 16.25ZM13.75 13.75C14.9167 12.5833 16.3333 12 18 12C19.6667 12 21.0833 12.5833 22.25 13.75C23.4167 14.9167 24 16.3333 24 18C24 19.6667 23.4167 21.0833 22.25 22.25C21.0833 23.4167 19.6667 24 18 24C16.3333 24 14.9167 23.4167 13.75 22.25C12.5833 21.0833 12 19.6667 12 18C12 16.3333 12.5833 14.9167 13.75 13.75Z" fill="#333333"/>
</svg>
