<svg width="72px" height="56px" viewBox="0 0 72px 56px" fill="none" xmlns="http://www.w3.org/2000/svg">
    <path d="M64 0C66.1667 0 68.0417 0.791667 69.625 2.375C71.2083 3.95833 72 5.83333 72 8V48C72 50.1667 71.2083 52.0417 69.625 53.625C68.0417 55.2083 66.1667 56 64 56H8C5.83333 56 3.95833 55.2083 2.375 53.625C0.791667 52.0417 0 50.1667 0 48V8C0 5.83333 0.791667 3.95833 2.375 2.375C3.95833 0.791667 5.83333 0 8 0H64ZM68 48V8C68 6.91667 67.5833 6 66.75 5.25C66 4.41667 65.0833 4 64 4H8C6.91667 4 5.95833 4.41667 5.125 5.25C4.375 6 4 6.91667 4 8V48C4 49.0833 4.375 50.0417 5.125 50.875C5.95833 51.625 6.91667 52 8 52H64C65.0833 52 66 51.625 66.75 50.875C67.5833 50.0417 68 49.0833 68 48ZM59 32C59.6667 32 60 32.3333 60 33V35C60 35.6667 59.6667 36 59 36H45C44.3333 36 44 35.6667 44 35V33C44 32.3333 44.3333 32 45 32H59ZM59 24C59.6667 24 60 24.3333 60 25V27C60 27.6667 59.6667 28 59 28H45C44.3333 28 44 27.6667 44 27V25C44 24.3333 44.3333 24 45 24H59ZM59 16C59.6667 16 60 16.3333 60 17V19C60 19.6667 59.6667 20 59 20H45C44.3333 20 44 19.6667 44 19V17C44 16.3333 44.3333 16 45 16H59ZM33 29.125C31.0833 31.0417 28.75 32 26 32C23.25 32 20.875 31.0417 18.875 29.125C16.9583 27.125 16 24.75 16 22C16 19.25 16.9583 16.9167 18.875 15C20.875 13 23.25 12 26 12C28.75 12 31.0833 13 33 15C35 16.9167 36 19.25 36 22C36 24.75 35 27.125 33 29.125ZM30.25 17.75C29.0833 16.5833 27.6667 16 26 16C24.3333 16 22.9167 16.5833 21.75 17.75C20.5833 18.9167 20 20.3333 20 22C20 23.6667 20.5833 25.0833 21.75 26.25C22.9167 27.4167 24.3333 28 26 28C27.6667 28 29.0833 27.4167 30.25 26.25C31.4167 25.0833 32 23.6667 32 22C32 20.3333 31.4167 18.9167 30.25 17.75ZM31.875 34C34.7917 34 37.0417 35.125 38.625 37.375C39.5417 38.7917 40 40.375 40 42.125V45C40 45.6667 39.6667 46 39 46H37C36.3333 46 36 45.6667 36 45V42.125C36 41.2083 35.75 40.375 35.25 39.625C34.5 38.5417 33.375 38 31.875 38C31.4583 38 30.6667 38.1667 29.5 38.5C28.4167 38.75 27.25 38.875 26 38.875C24.75 38.875 23.5417 38.75 22.375 38.5C21.2917 38.1667 20.5417 38 20.125 38C18.625 38 17.5 38.5417 16.75 39.625C16.25 40.375 16 41.2083 16 42.125V45C16 45.6667 15.6667 46 15 46H13C12.3333 46 12 45.6667 12 45V42.125C12 40.375 12.4583 38.7917 13.375 37.375C14.9583 35.125 17.2083 34 20.125 34C20.9583 34 21.875 34.1667 22.875 34.5C23.9583 34.75 25 34.875 26 34.875C27 34.875 28 34.75 29 34.5C30.0833 34.1667 31.0417 34 31.875 34Z" fill="#333333"/>
</svg>
