<svg width="64px" height="64px" viewBox="0 0 64px 64px" fill="none" xmlns="http://www.w3.org/2000/svg">
    <path d="M29 31V33C29 33.5833 28.7917 34.0833 28.375 34.5C28.0417 34.8333 27.5833 35 27 35H25C24.4167 35 23.9167 34.8333 23.5 34.5C23.1667 34.0833 23 33.5833 23 33V31C23 30.4167 23.1667 29.9583 23.5 29.625C23.9167 29.2083 24.4167 29 25 29H27C27.5833 29 28.0417 29.2083 28.375 29.625C28.7917 29.9583 29 30.4167 29 31ZM17 31V33C17 33.5833 16.7917 34.0833 16.375 34.5C16.0417 34.8333 15.5833 35 15 35H13C12.4167 35 11.9167 34.8333 11.5 34.5C11.1667 34.0833 11 33.5833 11 33V31C11 30.4167 11.1667 29.9583 11.5 29.625C11.9167 29.2083 12.4167 29 13 29H15C15.5833 29 16.0417 29.2083 16.375 29.625C16.7917 29.9583 17 30.4167 17 31ZM21 37C21.5833 37 22.0417 37.2083 22.375 37.625C22.7917 37.9583 23 38.4167 23 39V41C23 41.5833 22.7917 42.0833 22.375 42.5C22.0417 42.8333 21.5833 43 21 43H19C18.4167 43 17.9167 42.8333 17.5 42.5C17.1667 42.0833 17 41.5833 17 41V39C17 38.4167 17.1667 37.9583 17.5 37.625C17.9167 37.2083 18.4167 37 19 37H21ZM33 37C33.5833 37 34.0417 37.2083 34.375 37.625C34.7917 37.9583 35 38.4167 35 39V41C35 41.5833 34.7917 42.0833 34.375 42.5C34.0417 42.8333 33.5833 43 33 43H31C30.4167 43 29.9167 42.8333 29.5 42.5C29.1667 42.0833 29 41.5833 29 41V39C29 38.4167 29.1667 37.9583 29.5 37.625C29.9167 37.2083 30.4167 37 31 37H33ZM41 31V33C41 33.5833 40.7917 34.0833 40.375 34.5C40.0417 34.8333 39.5833 35 39 35H37C36.4167 35 35.9167 34.8333 35.5 34.5C35.1667 34.0833 35 33.5833 35 33V31C35 30.4167 35.1667 29.9583 35.5 29.625C35.9167 29.2083 36.4167 29 37 29H39C39.5833 29 40.0417 29.2083 40.375 29.625C40.7917 29.9583 41 30.4167 41 31ZM63.875 47.5C63.9583 47.8333 64 48.1667 64 48.5V58C64 59.6667 63.4167 61.0833 62.25 62.25C61.0833 63.4167 59.6667 64 58 64H6C4.33333 64 2.91667 63.4167 1.75 62.25C0.583333 61.0833 0 59.6667 0 58V48.625C0 48.2083 0.0416667 47.8333 0.125 47.5L3.25 25.125C3.5 23.625 4.16667 22.4167 5.25 21.5C6.41667 20.5 7.75 20 9.25 20H20V12H10C9.41667 12 8.91667 11.8333 8.5 11.5C8.16667 11.0833 8 10.5833 8 10V2C8 1.41667 8.16667 0.958333 8.5 0.625C8.91667 0.208333 9.41667 0 10 0H34C34.5833 0 35.0417 0.208333 35.375 0.625C35.7917 0.958333 36 1.41667 36 2V10C36 10.5833 35.7917 11.0833 35.375 11.5C35.0417 11.8333 34.5833 12 34 12H24V20H54.75C55.75 20 56.6667 20.25 57.5 20.75C58.4167 21.1667 59.125 21.7917 59.625 22.625C60.2083 23.375 60.5833 24.2083 60.75 25.125L63.875 47.5ZM12 8H32V4H12V8ZM7.25 25.75L4 48H60L56.75 25.75C56.5833 24.5833 55.9167 24 54.75 24H9.25C8.08333 24 7.41667 24.5833 7.25 25.75ZM60 58V52H4V58C4 58.5833 4.16667 59.0417 4.5 59.375C4.91667 59.7917 5.41667 60 6 60H58C58.5833 60 59.0417 59.7917 59.375 59.375C59.7917 59.0417 60 58.5833 60 58ZM51 29C51.5833 29 52.0417 29.2083 52.375 29.625C52.7917 29.9583 53 30.4167 53 31V33C53 33.5833 52.7917 34.0833 52.375 34.5C52.0417 34.8333 51.5833 35 51 35H49C48.4167 35 47.9167 34.8333 47.5 34.5C47.1667 34.0833 47 33.5833 47 33V31C47 30.4167 47.1667 29.9583 47.5 29.625C47.9167 29.2083 48.4167 29 49 29H51ZM45 37C45.5833 37 46.0417 37.2083 46.375 37.625C46.7917 37.9583 47 38.4167 47 39V41C47 41.5833 46.7917 42.0833 46.375 42.5C46.0417 42.8333 45.5833 43 45 43H43C42.4167 43 41.9167 42.8333 41.5 42.5C41.1667 42.0833 41 41.5833 41 41V39C41 38.4167 41.1667 37.9583 41.5 37.625C41.9167 37.2083 42.4167 37 43 37H45Z" fill="#333333"/>
</svg>
