<svg width="62px" height="64px" viewBox="0 0 64px 62px" fill="none" xmlns="http://www.w3.org/2000/svg">
    <path d="M9 9.125C15.0833 3.04167 22.4167 0 31 0C39.5833 0 46.875 3.04167 52.875 9.125C58.9583 15.125 62 22.4167 62 31C62 39.5833 58.9583 46.9167 52.875 53C46.875 59 39.5833 62 31 62C22.4167 62 15.0833 59 9 53C3 46.9167 0 39.5833 0 31C0 22.4167 3 15.125 9 9.125ZM55.125 19C51.7917 12.25 46.5833 7.70833 39.5 5.375C41.9167 8.79167 43.7083 13.3333 44.875 19H55.125ZM41.5 39C41.8333 36.3333 42 33.6667 42 31C42 28.3333 41.8333 25.6667 41.5 23H20.5C20.1667 25.6667 20 28.3333 20 31C20 33.6667 20.1667 36.3333 20.5 39H41.5ZM31 4C29.25 4 27.4167 5.375 25.5 8.125C23.6667 10.7917 22.25 14.4167 21.25 19H40.75C40.25 16.6667 39.5833 14.5417 38.75 12.625C38 10.7083 37.1667 9.125 36.25 7.875C35.4167 6.625 34.5417 5.66667 33.625 5C32.7083 4.33333 31.8333 4 31 4ZM22.5 5.375C15.4167 7.70833 10.2083 12.25 6.875 19H17.125C18.2917 13.4167 20.0833 8.875 22.5 5.375ZM5.25 23C4.41667 25.5833 4 28.25 4 31C4 33.75 4.41667 36.4167 5.25 39H16.5C16.1667 36.3333 16 33.6667 16 31C16 28.4167 16.1667 25.75 16.5 23H5.25ZM6.875 43C10.2083 49.75 15.4167 54.2917 22.5 56.625C20.0833 53.2083 18.2917 48.6667 17.125 43H6.875ZM31 58C32.75 58 34.5417 56.6667 36.375 54C38.2917 51.25 39.75 47.5833 40.75 43H21.25C21.9167 46.0833 22.7917 48.7917 23.875 51.125C25.0417 53.375 26.2083 55.0833 27.375 56.25C28.625 57.4167 29.8333 58 31 58ZM39.5 56.625C46.5833 54.2917 51.7917 49.75 55.125 43H44.875C43.7083 48.5833 41.9167 53.125 39.5 56.625ZM45.5 39H56.75C57.5833 36.4167 58 33.75 58 31C58 28.25 57.5833 25.5833 56.75 23H45.5C45.8333 25.6667 46 28.3333 46 31C46 33.5833 45.8333 36.25 45.5 39Z" fill="#333333"/>
</svg>
