<svg width="205" height="40" viewBox="0 0 205 40" fill="none" xmlns="http://www.w3.org/2000/svg">
    <g clip-path="url(#clip0)">
        <path d="M27.3095 35.1226H16.7813L15.7332 33.2979H26.9723H29.4843L22.8103 21.6685H15.3898H7.7145H1.0899L4.07205 26.866H4.73109H12.4063H18.0753L19.0335 28.4077H11.5217H4.95795L11.6092 40H12.5204H26.7315H33.3485L30.5502 35.1226H27.3095Z" fill="white"/>
        <path d="M20.1476 13.3763L21.6406 15.9763L32.6199 35.1111H40.2952L20.1476 0L8.76147 19.8425H16.438L20.1476 13.3763Z" fill="white"/>
        <path d="M0 35.1111H6.70824L3.35476 29.2658L0 35.1111Z" fill="white"/>
        <path d="M84.5253 7.80774L79.2568 29.2722H71.7146L76.9819 7.80774H71.2596L64.5793 35.0295H83.5659L90.2475 7.80774H84.5253Z" fill="white"/>
        <path d="M105.825 7.80771L103.497 17.2744L102.608 20.9124L101.306 17.2744L98.6668 7.74905H92.5745L90.2324 17.2744L85.8929 34.9708H88.3288H91.6164L95.5237 19.0468L100.293 34.9708H104.881L109.219 17.2744L111.547 7.80771H105.825Z" fill="white"/>
        <path d="M117.177 17.2744L118.217 12.9963H131.423L132.705 7.74905H113.775L111.455 17.2744H111.433L109.722 24.2686H122.987L121.758 29.2722H108.552L107.139 35.0295H126.068L130.122 18.5113H116.857L117.155 17.2744H117.177Z" fill="#FFD913"/>
        <path d="M156.873 7.69037H151.15L148.687 17.5893H148.717L148.48 18.5699H138.134L138.447 17.2744H138.427L140.805 7.69037H135.082L132.705 17.2744H132.725L128.358 35.0894H134.08L136.721 24.3272H147.067L144.455 34.9708H150.177L154.515 17.2744H154.487L156.873 7.69037Z" fill="#FFD913"/>
        <path d="M199.278 7.69037L197.019 16.8918L196.856 17.5574L194.544 26.9744C194.213 28.3248 193.008 29.2735 191.627 29.2735H188.983L191.838 17.7538H186.116L183.261 29.2735H178.263L181.139 17.5574L181.302 16.8918L183.561 7.69037H177.839L175.58 16.8918L175.417 17.5574L171.128 35.0307H192.934C196.08 35.0307 198.82 32.8719 199.574 29.8001L202.579 17.5587L202.743 16.8931L205.001 7.69164H199.278V7.69037Z" fill="#FFD913"/>
        <path d="M164.719 18.9767C166.437 18.9767 167.829 17.5757 167.829 15.8475C167.829 14.1193 166.437 12.7183 164.719 12.7183C163.001 12.7183 161.609 14.1193 161.609 15.8475C161.609 17.5757 163.001 18.9767 164.719 18.9767Z" fill="#FFD913"/>
        <path d="M178.325 14.5086H176C175.39 9.27536 171.252 5.11202 166.051 4.49867V2.15878H163.389V4.49867C158.188 5.11202 154.05 9.27536 153.44 14.5086H151.115V17.1864H153.44C154.05 22.4196 158.188 26.5829 163.389 27.1962V29.5361H166.051V27.1962C171.252 26.5829 175.39 22.4196 176 17.1864H178.325V14.5086ZM166.05 24.4955V22.3367H163.388V24.4955C159.656 23.9166 156.699 20.9417 156.123 17.1864H158.269V14.5086H156.123C156.699 10.7533 159.656 7.77835 163.388 7.19943V9.35953H166.05V7.19943C169.782 7.77835 172.739 10.7533 173.314 14.5086H171.169V17.1864H173.314C172.739 20.9417 169.782 23.9166 166.05 24.4955Z" fill="white"/>
        <path d="M68.8746 7.81027H55.1235C52.2719 7.81027 49.3658 10.1553 48.6624 13.0231L44.5142 29.9251C43.8197 32.7546 45.5231 35.0295 48.3354 35.0295H62.2487L66.2625 18.5406H56.4872L55.2198 23.7381H59.2678L57.9295 29.2518H52.1857C51.2187 29.2518 50.5102 28.3363 50.7485 27.3927L53.9866 14.5494C54.2122 13.653 55.0145 13.0256 55.9333 13.0256H67.6046L68.8746 7.81027Z" fill="white"/>
    </g>
    <defs>
        <clipPath id="clip0">
            <rect width="205" height="40" fill="white"/>
        </clipPath>
    </defs>
</svg>
