<svg width="148px" height="30px" viewBox="0 0 148px 30px" fill="none" xmlns="http://www.w3.org/2000/svg">
    <path d="M20.2493 25.8019H12.7232L11.974 24.4985H20.0083H21.804L17.033 16.1918H11.7284H6.2417H1.50604L3.63786 19.9043H4.10898H9.5957H13.6482L14.3332 21.0055H8.96332H4.27115L9.02583 29.2857H9.67724H19.8362H24.5664L22.566 25.8019H20.2493Z" fill="white"/>
    <path d="M15.1296 10.2688L16.1969 12.1259L24.0455 25.7936H29.5323L15.1296 0.714294L6.99011 14.8875H12.4777L15.1296 10.2688Z" fill="white"/>
    <path d="M0.726929 25.7936H5.52238L3.12511 21.6184L0.726929 25.7936Z" fill="white"/>
    <path d="M61.1506 6.29126L57.3844 21.623H51.9928L55.7581 6.29126H51.6676L46.892 25.7354H60.4648L65.2412 6.29126H61.1506Z" fill="white"/>
    <path d="M76.3769 6.29123L74.7126 13.0531L74.0775 15.6517L73.1462 13.0531L71.2599 6.24933H66.9047L65.2304 13.0531L62.1283 25.6935H63.8696H66.2198L69.013 14.3192L72.4223 25.6935H75.702L78.8032 13.0531L80.4675 6.29123H76.3769Z" fill="white"/>
    <path d="M84.4919 13.0531L85.2358 9.99731H94.6763L95.5922 6.2493H82.0602L80.4013 13.0531H80.3859L79.1628 18.0489H88.645L87.7671 21.623H78.3266L77.3164 25.7353H90.8475L93.7458 13.9366H84.2636L84.4765 13.0531H84.4919Z" fill="#FFE600"/>
    <path d="M112.869 6.2074H108.778L107.017 13.2781H107.039L106.869 13.9785H99.4735L99.6973 13.0531H99.6828L101.382 6.2074H97.2918L95.5922 13.0531H95.6067L92.4846 25.7781H96.5752L98.4633 18.0908H105.859L103.992 25.6934H108.082L111.184 13.0531H111.164L112.869 6.2074Z" fill="#FFE600"/>
    <path d="M143.182 6.2074L141.568 12.7799L141.451 13.2553L139.799 19.9817C139.562 20.9462 138.7 21.6239 137.713 21.6239H135.823L137.864 13.3956H133.774L131.732 21.6239H128.16L130.216 13.2553L130.333 12.7799L131.947 6.2074H127.857L126.242 12.7799L126.125 13.2553L123.059 25.7362H138.648C140.897 25.7362 142.855 24.1942 143.394 22.0001L145.543 13.2562L145.659 12.7808L147.274 6.20831H143.182V6.2074Z" fill="#FFE600"/>
    <path d="M118.478 14.2691C119.706 14.2691 120.701 13.2684 120.701 12.0339C120.701 10.7995 119.706 9.7988 118.478 9.7988C117.25 9.7988 116.254 10.7995 116.254 12.0339C116.254 13.2684 117.25 14.2691 118.478 14.2691Z" fill="#FFE600"/>
    <path d="M128.205 11.0776H126.542C126.106 7.33956 123.148 4.36574 119.43 3.92764V2.25629H117.527V3.92764C113.809 4.36574 110.851 7.33956 110.415 11.0776H108.753V12.9903H110.415C110.851 16.7283 113.809 19.7021 117.527 20.1402V21.8115H119.43V20.1402C123.148 19.7021 126.106 16.7283 126.542 12.9903H128.205V11.0776ZM119.429 18.2111V16.6691H117.527V18.2111C114.858 17.7976 112.745 15.6726 112.333 12.9903H113.867V11.0776H112.333C112.745 8.3952 114.858 6.27026 117.527 5.85675V7.39967H119.429V5.85675C122.097 6.27026 124.211 8.3952 124.622 11.0776H123.088V12.9903H124.622C124.211 15.6726 122.097 17.7976 119.429 18.2111Z" fill="white"/>
    <path d="M49.9626 6.29303H40.1325C38.094 6.29303 36.0166 7.96802 35.5137 10.0165L32.5484 22.0893C32.0519 24.1104 33.2696 25.7353 35.28 25.7353H45.226L48.0953 13.9576H41.1074L40.2014 17.67H43.0951L42.1384 21.6084H38.0324C37.3411 21.6084 36.8347 20.9545 37.005 20.2805L39.3198 11.1067C39.4811 10.4664 40.0546 10.0183 40.7114 10.0183H49.0548L49.9626 6.29303Z" fill="white"/>
</svg>
