<svg width="25" height="24" viewBox="0 0 25 24" fill="none" xmlns="http://www.w3.org/2000/svg">
    <path d="M3.59375 19.5938C3.40625 19.7812 3.3125 20 3.3125 20.25C3.3125 20.5 3.40625 20.7188 3.59375 20.9062C3.78125 21.0938 4 21.1875 4.25 21.1875C4.5 21.1875 4.71875 21.0938 4.90625 20.9062C5.09375 20.7188 5.1875 20.5 5.1875 20.25C5.1875 20 5.09375 19.7812 4.90625 19.5938C4.71875 19.4062 4.5 19.3125 4.25 19.3125C4 19.3125 3.78125 19.4062 3.59375 19.5938ZM7.90625 19.5938C7.71875 19.4062 7.5 19.3125 7.25 19.3125C7 19.3125 6.78125 19.4062 6.59375 19.5938C6.40625 19.7812 6.3125 20 6.3125 20.25C6.3125 20.5 6.40625 20.7188 6.59375 20.9062C6.78125 21.0938 7 21.1875 7.25 21.1875C7.5 21.1875 7.71875 21.0938 7.90625 20.9062C8.09375 20.7188 8.1875 20.5 8.1875 20.25C8.1875 20 8.09375 19.7812 7.90625 19.5938ZM0.5 17.0625V21.9375C0.5 22.5 0.703125 22.9844 1.10938 23.3906C1.51562 23.7969 2 24 2.5625 24H22.4375C23 24 23.4844 23.7969 23.8906 23.3906C24.2969 22.9844 24.5 22.5 24.5 21.9375V17.0625C24.5 16.5 24.2969 16.0156 23.8906 15.6094C23.4844 15.2031 23 15 22.4375 15H16.625V10.3594H19.1094C19.9219 10.3594 20.5 9.96875 20.8438 9.1875C21.1562 8.40625 21.0156 7.71875 20.4219 7.125L13.8125 0.5625C13.4688 0.1875 13.0312 0 12.5 0C11.9688 0 11.5312 0.1875 11.1875 0.5625L4.57812 7.125C3.98438 7.71875 3.85938 8.40625 4.20312 9.1875C4.51562 9.96875 5.07812 10.3594 5.89062 10.3594H8.375V15H2.5625C2 15 1.51562 15.2031 1.10938 15.6094C0.703125 16.0156 0.5 16.5 0.5 17.0625ZM15.125 8.85938V17.625C15.125 17.875 15 18 14.75 18H10.25C10 18 9.875 17.875 9.875 17.625V8.85938H5.89062C5.73438 8.85938 5.625 8.78125 5.5625 8.625C5.5 8.46875 5.53125 8.32812 5.65625 8.20312L12.2188 1.59375C12.4062 1.4375 12.5938 1.4375 12.7812 1.59375L19.3438 8.20312C19.4688 8.32812 19.5 8.46875 19.4375 8.625C19.375 8.78125 19.2656 8.85938 19.1094 8.85938H15.125ZM2 17.0625C2 16.6875 2.1875 16.5 2.5625 16.5H8.375V17.625C8.375 18.1562 8.5625 18.6094 8.9375 18.9844C9.28125 19.3281 9.71875 19.5 10.25 19.5H14.75C15.2812 19.5 15.7344 19.3281 16.1094 18.9844C16.4531 18.6094 16.625 18.1562 16.625 17.625V16.5H22.4375C22.8125 16.5 23 16.6875 23 17.0625V21.9375C23 22.3125 22.8125 22.5 22.4375 22.5H2.5625C2.1875 22.5 2 22.3125 2 21.9375V17.0625Z" fill="#A1887F"/>
</svg>
