<svg width="19" height="22" viewBox="0 0 19 22" fill="none" xmlns="http://www.w3.org/2000/svg">
<path d="M16.8125 10.625L9.875 3.6875C9.625 3.40625 9.375 3.40625 9.125 3.6875L2.1875 10.625C1.90625 10.875 1.90625 11.1406 2.1875 11.4219L2.51562 11.75C2.76562 12.0312 3.03125 12.0312 3.3125 11.75L8.70312 6.3125V20.9375C8.70312 21.3125 8.89062 21.5 9.26562 21.5H9.73438C10.1094 21.5 10.2969 21.3125 10.2969 20.9375V6.3125L15.6875 11.75C15.9688 12.0312 16.2344 12.0312 16.4844 11.75L16.8125 11.4219C17.0938 11.1719 17.0938 10.9062 16.8125 10.625ZM18.5 1.0625C18.5 0.6875 18.3125 0.5 17.9375 0.5H1.0625C0.6875 0.5 0.5 0.6875 0.5 1.0625V1.4375C0.5 1.8125 0.6875 2 1.0625 2H17.9375C18.3125 2 18.5 1.8125 18.5 1.4375V1.0625Z" fill="#666666"/>
</svg>
