<svg width="8" height="18" viewBox="0 0 8 18" fill="none" xmlns="http://www.w3.org/2000/svg">
    <path d="M3.368 17.08V15.208C2.20533 15.1867 1.18667 14.9307 0.312 14.44L0.456 13.208C1.33067 13.752 2.30133 14.0347 3.368 14.056V9.32C2.26933 8.89333 1.48533 8.424 1.016 7.912C0.546667 7.4 0.312 6.76533 0.312 6.008C0.312 5.16533 0.584 4.46667 1.128 3.912C1.672 3.35733 2.41867 3.02133 3.368 2.904V0.983999H4.376V2.872C5.38933 2.92533 6.25333 3.17067 6.968 3.608L6.776 4.76C6.008 4.312 5.208 4.06667 4.376 4.024V8.36C5.496 8.79733 6.312 9.29867 6.824 9.864C7.34667 10.4293 7.608 11.1067 7.608 11.896C7.608 12.7493 7.31467 13.4693 6.728 14.056C6.152 14.632 5.368 14.9947 4.376 15.144V17.08H3.368ZM4.376 13.976C4.97333 13.8587 5.43733 13.6187 5.768 13.256C6.10933 12.8933 6.28 12.4453 6.28 11.912C6.28 11.4 6.13067 10.9733 5.832 10.632C5.544 10.2907 5.05867 9.976 4.376 9.688V13.976ZM3.368 4.056C2.792 4.13067 2.34933 4.328 2.04 4.648C1.73067 4.95733 1.576 5.37333 1.576 5.896C1.576 6.41867 1.71467 6.84533 1.992 7.176C2.26933 7.496 2.728 7.77867 3.368 8.024V4.056Z" fill="#333333"/>
</svg>
