<svg width="45px" height="35px" viewBox="0 0 45px 35px" fill="none" xmlns="http://www.w3.org/2000/svg">
    <path d="M43.875 24.375C44.2031 24.375 44.4609 24.4922 44.6484 24.7266C44.8828 24.9141 45 25.1719 45 25.5V28.875C45 30.4219 44.4375 31.7344 43.3125 32.8125C42.2344 33.9375 40.9219 34.5 39.375 34.5H5.625C4.07812 34.5 2.74219 33.9375 1.61719 32.8125C0.539062 31.7344 0 30.4219 0 28.875V25.5C0 25.1719 0.09375 24.9141 0.28125 24.7266C0.515625 24.4922 0.796875 24.375 1.125 24.375H4.5V5.25C4.5 4.03125 4.94531 2.97656 5.83594 2.08594C6.72656 1.19531 7.78125 0.75 9 0.75H36C37.2188 0.75 38.2734 1.19531 39.1641 2.08594C40.0547 2.97656 40.5 4.03125 40.5 5.25V24.375H43.875ZM6.75 5.25V24.375H17.5078C17.7891 24.375 17.9766 24.5391 18.0703 24.8672C18.1641 25.3828 18.4219 25.8047 18.8438 26.1328C19.2656 26.4609 19.7344 26.625 20.25 26.625H24.75C25.2656 26.625 25.7344 26.4609 26.1562 26.1328C26.5781 25.8047 26.8359 25.3828 26.9297 24.8672C27.0234 24.5391 27.2109 24.375 27.4922 24.375H38.25V5.25C38.25 4.64062 38.0156 4.125 37.5469 3.70312C37.125 3.23437 36.6094 3 36 3H9C8.39062 3 7.85156 3.23437 7.38281 3.70312C6.96094 4.125 6.75 4.64062 6.75 5.25ZM42.75 28.875V26.625H29.0391C28.8047 27.2812 28.3828 27.8203 27.7734 28.2422C27.2109 28.6641 26.5781 28.875 25.875 28.875H19.125C18.4219 28.875 17.7656 28.6641 17.1562 28.2422C16.5938 27.8203 16.1953 27.2812 15.9609 26.625H2.25V28.875C2.25 29.8125 2.57812 30.6094 3.23438 31.2656C3.89062 31.9219 4.6875 32.25 5.625 32.25H39.375C40.3125 32.25 41.1094 31.9219 41.7656 31.2656C42.4219 30.6094 42.75 29.8125 42.75 28.875Z" fill="#333333"/>
</svg>
