<svg width="30px" height="22px" viewBox="0 0 30 22" fill="none" xmlns="http://www.w3.org/2000/svg">
    <path d="M0.75 0.5C0.53125 0.5 0.359375 0.578125 0.234375 0.734375C0.078125 0.859375 0 1.03125 0 1.25V20C0 20.4062 0.15625 20.75 0.46875 21.0312C0.75 21.3438 1.09375 21.5 1.5 21.5H28.5C28.9062 21.5 29.2656 21.3438 29.5781 21.0312C29.8594 20.75 30 20.4062 30 20V1.25C30 1.03125 29.9375 0.859375 29.8125 0.734375C29.6562 0.578125 29.4688 0.5 29.25 0.5H0.75ZM1.5 20V6.5H28.5V20H1.5ZM1.5 5V2H28.5V5H1.5ZM25.125 17C25.375 17 25.5 16.875 25.5 16.625V15.875C25.5 15.625 25.375 15.5 25.125 15.5H18.375C18.125 15.5 18 15.625 18 15.875V16.625C18 16.875 18.125 17 18.375 17H25.125ZM11.625 17C11.875 17 12 16.875 12 16.625V15.875C12 15.625 11.875 15.5 11.625 15.5H4.875C4.625 15.5 4.5 15.625 4.5 15.875V16.625C4.5 16.875 4.625 17 4.875 17H11.625ZM25.125 12.5C25.375 12.5 25.5 12.375 25.5 12.125V11.375C25.5 11.125 25.375 11 25.125 11H15.375C15.125 11 15 11.125 15 11.375V12.125C15 12.375 15.125 12.5 15.375 12.5H25.125ZM11.25 12.5C11.4688 12.5 11.6562 12.4375 11.8125 12.3125C11.9375 12.1562 12 11.9688 12 11.75V8.75C12 8.53125 11.9375 8.35938 11.8125 8.23438C11.6562 8.07812 11.4688 8 11.25 8H5.25C5.03125 8 4.85937 8.07812 4.73438 8.23438C4.57812 8.35938 4.5 8.53125 4.5 8.75V11.75C4.5 11.9688 4.57812 12.1562 4.73438 12.3125C4.85937 12.4375 5.03125 12.5 5.25 12.5H11.25ZM10.5 9.5V11H6V9.5H10.5Z" fill="#333333"/>
</svg>
