<svg width="45px" height="37px" viewBox="0 0 45px 37px" fill="none" xmlns="http://www.w3.org/2000/svg">
    <path d="M43.875 26.375C44.2031 26.375 44.4609 26.4922 44.6484 26.7266C44.8828 26.9141 45 27.1719 45 27.5V28.625C45 28.9531 44.8828 29.2344 44.6484 29.4688C44.4609 29.6562 44.2031 29.75 43.875 29.75H40.5C40.5 31.625 39.8438 33.2188 38.5312 34.5312C37.2188 35.8438 35.625 36.5 33.75 36.5C31.875 36.5 30.2812 35.8438 28.9688 34.5312C27.6562 33.2188 27 31.625 27 29.75H18C18 31.625 17.3438 33.2188 16.0312 34.5312C14.7188 35.8438 13.125 36.5 11.25 36.5C9.375 36.5 7.78125 35.8438 6.46875 34.5312C5.15625 33.2188 4.5 31.625 4.5 29.75H3.9375C2.85938 29.75 1.92188 29.375 1.125 28.625C0.375 27.8281 0 26.8906 0 25.8125V4.4375C0 3.35938 0.375 2.44531 1.125 1.69531C1.92188 0.898438 2.85938 0.5 3.9375 0.5H25.3125C26.3906 0.5 27.3047 0.898438 28.0547 1.69531C28.8516 2.44531 29.25 3.35938 29.25 4.4375V7.25H31.7812C33.1875 7.25 34.3828 7.74219 35.3672 8.72656L41.2734 14.6328C42.2578 15.6172 42.75 16.8125 42.75 18.2188V26.375H43.875ZM8.85938 32.1406C9.51562 32.7969 10.3125 33.125 11.25 33.125C12.1875 33.125 12.9844 32.7969 13.6406 32.1406C14.2969 31.4844 14.625 30.6875 14.625 29.75C14.625 28.8125 14.2969 28.0156 13.6406 27.3594C12.9844 26.7031 12.1875 26.375 11.25 26.375C10.3125 26.375 9.51562 26.7031 8.85938 27.3594C8.20312 28.0156 7.875 28.8125 7.875 29.75C7.875 30.6875 8.20312 31.4844 8.85938 32.1406ZM25.875 26.375V4.4375C25.875 4.0625 25.6875 3.875 25.3125 3.875H3.9375C3.5625 3.875 3.375 4.0625 3.375 4.4375V25.8125C3.375 26.1875 3.5625 26.375 3.9375 26.375H5.41406C6.02344 25.3438 6.84375 24.5234 7.875 23.9141C8.90625 23.3047 10.0312 23 11.25 23C12.4688 23 13.5938 23.3047 14.625 23.9141C15.6562 24.5234 16.4766 25.3438 17.0859 26.375H25.875ZM29.25 10.625V16.25H38.1094L32.9766 11.1172C32.6484 10.7891 32.25 10.625 31.7812 10.625H29.25ZM31.3594 32.1406C32.0156 32.7969 32.8125 33.125 33.75 33.125C34.6875 33.125 35.4844 32.7969 36.1406 32.1406C36.7969 31.4844 37.125 30.6875 37.125 29.75C37.125 28.8125 36.7969 28.0156 36.1406 27.3594C35.4844 26.7031 34.6875 26.375 33.75 26.375C32.8125 26.375 32.0156 26.7031 31.3594 27.3594C30.7031 28.0156 30.375 28.8125 30.375 29.75C30.375 30.6875 30.7031 31.4844 31.3594 32.1406ZM39.375 26.0234V19.625H29.25V24.7578C30.5625 23.5859 32.0625 23 33.75 23C36.1406 23 38.0156 24.0078 39.375 26.0234Z" fill="#2ECEE8"/>
</svg>
