<svg width="316" height="89" viewBox="0 0 316 89" fill="none" xmlns="http://www.w3.org/2000/svg">
<g clip-path="url(#clip0)">
<path d="M121.419 46.4344L131.85 22.6119L142.28 46.4344L149.003 31.0903L156.525 34.4512L142.28 66.9002L131.85 43.0777L121.419 66.9002L107.175 34.4512L114.697 31.0903L121.419 46.4344Z" fill="#4E342E"/>
<path d="M181.45 42.3751V34.0491H189.827V63.2854H181.45V50.7477H168.911V63.2854H160.534V23.5685H168.911V42.3751H181.45Z" fill="#4E342E"/>
<path d="M227.836 29.8374V67.4505H219.459V62.587C217.254 63.8399 214.743 64.5425 211.937 64.5425C203.161 64.5425 196.088 57.4694 196.088 48.6947C196.088 39.92 203.161 32.7961 211.937 32.7961C214.743 32.7961 217.254 33.4988 219.459 34.7517V29.8374H227.836ZM204.465 48.6905C204.465 52.8514 207.776 56.1615 211.937 56.1615C216.098 56.1615 219.459 52.8514 219.459 48.6905C219.459 44.5296 216.098 41.1687 211.937 41.1687C207.776 41.1687 204.465 44.5296 204.465 48.6905Z" fill="#4E342E"/>
<path d="M243.431 54.9128H253.862V63.2896H235.054V23.5685H243.431V54.9128Z" fill="#4E342E"/>
<path d="M267.251 48.6439C267.251 52.8556 270.562 56.1657 274.774 56.1657C278.986 56.1657 282.296 52.8556 282.296 48.6439C282.296 48.0937 282.296 34.049 282.296 34.049H290.673C290.673 34.049 290.673 48.0894 290.673 48.6439C290.673 57.4186 283.553 64.5425 274.774 64.5425C265.998 64.5425 258.874 57.4229 258.874 48.6439C258.874 48.0937 258.874 34.049 258.874 34.049H267.251C267.251 34.049 267.251 48.0894 267.251 48.6439Z" fill="#4E342E"/>
<path d="M298.847 23.5685H307.225V34.0491H316V42.3751H307.225V49.0969C307.225 53.1096 310.484 56.2165 314.747 56.2165C315.297 56.2165 315.45 56.2165 316 56.2165V64.5425C315.45 64.5425 315.297 64.5425 314.747 64.5425C306.221 64.5425 298.847 57.8716 298.847 49.0969V42.3751H294.686V34.0491H298.847V23.5685Z" fill="#4E342E"/>
<path d="M55.6405 0.910133C55.6405 0.910133 62.4051 -2.5989 65.9144 4.1652C69.4237 10.9293 71.1762 14.3114 71.1762 14.3114L6.91704 47.6409L0.338731 34.955C0.338731 34.955 -1.85404 30.7264 4.91053 27.2216C18.4397 20.2035 55.6405 0.910133 55.6405 0.910133Z" fill="#B71C1C"/>
<path d="M57.3449 23.7587L14.9727 10.3318L7.86362 32.7634L50.2359 46.1902L57.3449 23.7587Z" fill="#8BC34A"/>
<path d="M52.6477 27.7549C51.6148 27.429 51.0433 26.3242 51.3693 25.2914C51.437 25.0713 51.5428 24.8765 51.674 24.703L19.0577 14.3664C19.0661 14.5822 19.0365 14.8066 18.9688 15.0225C18.6428 16.0553 17.538 16.6267 16.5051 16.3008C16.285 16.2331 16.0902 16.1272 15.9167 15.996L11.8994 28.6734C12.1153 28.6649 12.3397 28.6946 12.5556 28.7623C13.5884 29.0882 14.1599 30.193 13.834 31.2258C13.7662 31.4459 13.6604 31.6406 13.5292 31.8142L46.1498 42.1508C46.1413 41.9349 46.171 41.7106 46.2387 41.4947C46.5646 40.4619 47.6695 39.8905 48.7024 40.2164C48.9225 40.2841 49.1172 40.39 49.2908 40.5212L53.308 27.8438C53.0879 27.8522 52.8678 27.8226 52.6477 27.7549Z" fill="#AED581"/>
<path d="M32.6039 33.4862C35.4912 33.4862 37.8319 31.1457 37.8319 28.2586C37.8319 25.3715 35.4912 23.031 32.6039 23.031C29.7166 23.031 27.376 25.3715 27.376 28.2586C27.376 31.1457 29.7166 33.4862 32.6039 33.4862Z" fill="#8BC34A"/>
<path d="M65.7366 19.4027L23.3643 5.97589L16.2552 28.4075L58.6275 41.8343L65.7366 19.4027Z" fill="#8BC34A"/>
<path d="M61.042 23.4035C60.0092 23.0776 59.4377 21.9728 59.7636 20.94C59.8314 20.7199 59.9372 20.5252 60.0684 20.3516L27.4478 10.015C27.4563 10.2309 27.4266 10.4552 27.3589 10.6711C27.0329 11.7039 25.9281 12.2754 24.8952 11.9494C24.6751 11.8817 24.4804 11.7759 24.3068 11.6447L20.2896 24.3221C20.5054 24.3136 20.7298 24.3432 20.9457 24.411C21.9786 24.7369 22.5501 25.8417 22.2241 26.8745C22.1564 27.0946 22.0505 27.2893 21.9193 27.4628L54.5399 37.7995C54.5315 37.5836 54.5611 37.3593 54.6288 37.1434C54.9548 36.1106 56.0596 35.5391 57.0925 35.8651C57.3126 35.9328 57.5074 36.0386 57.6809 36.1698L61.6982 23.4924C61.4823 23.4967 61.2579 23.4713 61.042 23.4035Z" fill="#AED581"/>
<path d="M40.994 29.1348C43.8814 29.1348 46.222 26.7943 46.222 23.9072C46.222 21.0201 43.8814 18.6797 40.994 18.6797C38.1067 18.6797 35.7661 21.0201 35.7661 23.9072C35.7661 26.7943 38.1067 29.1348 40.994 29.1348Z" fill="#8BC34A"/>
<path d="M29.9285 31.4544C29.9285 31.4544 29.048 34.2057 31.7996 35.0904C34.5511 35.9708 48.3131 40.3815 48.3131 40.3815C48.3131 40.3815 51.0646 41.2619 51.9493 38.5106C52.8298 35.7592 60.7712 10.9885 60.7712 10.9885C60.7712 10.9885 61.6517 8.23718 58.9002 7.35252C56.1486 6.46785 42.3867 2.06145 42.3867 2.06145C42.3867 2.06145 39.6351 1.18102 38.7504 3.93237C37.8657 6.68373 29.9285 31.4544 29.9285 31.4544Z" fill="#D7CCC8"/>
<path d="M42.3867 2.06161L31.8018 35.0872L37.3044 36.8506L47.8894 3.825L42.3867 2.06161Z" fill="#A1887F"/>
<path opacity="0.4" d="M3.59424 36.974L58.8368 8.40228C66.4564 4.59271 68.3614 10.3071 68.3614 10.3071L9.30898 38.8788L3.59424 36.974Z" fill="#B71C1C"/>
<path d="M0.779297 35.8015C0.779297 35.8015 3.41231 40.8725 10.1726 37.3677C16.933 33.8629 64.2849 9.30384 64.2849 9.30384C64.2849 9.30384 71.0495 5.7948 74.5588 12.5589C78.0681 19.323 93.8534 49.7572 93.8534 49.7572C93.8534 49.7572 97.3627 56.5213 90.5982 60.0304C83.8336 63.5394 36.4859 88.0942 36.4859 88.0942C36.4859 88.0942 29.7213 91.6032 26.212 84.8391C22.7028 78.075 0.779297 35.8015 0.779297 35.8015Z" fill="#F44336"/>
<path d="M64.2851 9.29966C64.2851 9.29966 63.0279 9.95152 60.9028 11.0521L87.2161 61.7786C88.7231 60.9955 89.8872 60.3945 90.5983 60.0262C97.3629 56.5172 93.8536 49.7531 93.8536 49.7531C93.8536 49.7531 78.064 19.3188 74.559 12.5547C71.0497 5.79062 64.2851 9.29966 64.2851 9.29966Z" fill="#E53935"/>
<path d="M77.1875 17.6299C77.1875 17.6299 80.5698 15.8775 82.3223 19.2595C83.1986 20.9484 84.9553 24.3305 84.9553 24.3305L81.573 26.0829L78.0638 19.3188L77.1875 17.6299Z" fill="#B71C1C"/>
<path d="M80.6968 24.394L79.0078 25.2702L72.2432 28.7792C71.1553 29.3422 70.0081 29.939 68.8609 30.5316C63.7896 33.1645 66.4184 38.2354 66.4184 38.2354C66.6301 38.6418 67.1169 39.5857 68.1709 41.6175C70.804 46.6884 75.8753 44.0598 75.8753 44.0598C75.8753 44.0598 80.9466 41.427 86.0221 38.7984C91.0977 36.1698 88.4646 31.0946 88.4646 31.0946C88.3249 30.8237 88.0583 30.3115 87.5884 29.4057L86.7121 27.7168L82.3266 19.2638C84.0791 22.6373 80.6968 24.394 80.6968 24.394Z" fill="#D32F2F"/>
<path d="M74.0593 40.2291C76.1635 40.2291 77.8692 38.5235 77.8692 36.4195C77.8692 34.3156 76.1635 32.61 74.0593 32.61C71.9552 32.61 70.2495 34.3156 70.2495 36.4195C70.2495 38.5235 71.9552 40.2291 74.0593 40.2291Z" fill="#B71C1C"/>
<path d="M41.5739 54.2779L40.5368 38.5063L52.8298 48.4408L52.161 38.2819L57.1603 37.9899L58.5573 59.4801L46.2642 49.5456L47.3013 65.3172L30.5381 51.7974L33.6579 47.8778L41.5739 54.2779Z" fill="#F2F2F2"/>
</g>
<defs>
<clipPath id="clip0">
<rect width="316" height="89" fill="white"/>
</clipPath>
</defs>
</svg>
