<svg width="21px" height="22px" viewBox="0 0 21px 22px" fill="none" xmlns="http://www.w3.org/2000/svg">
    <path d="M17.8594 3.54688C19.9531 5.64062 21 8.09375 21 10.9062C21 13.7812 19.9688 16.2344 17.9062 18.2656C15.8438 20.2969 13.375 21.3125 10.5 21.3125C8.71875 21.3125 7.0625 20.8906 5.53125 20.0469L0 21.5L1.5 16.1094C0.5625 14.5156 0.09375 12.7812 0.09375 10.9062C0.09375 8.03125 1.10938 5.57812 3.14062 3.54688C5.17188 1.51563 7.625 0.5 10.5 0.5C13.375 0.5 15.8281 1.51563 17.8594 3.54688ZM10.5 19.5781C12.875 19.5781 14.9219 18.7344 16.6406 17.0469C18.3594 15.3281 19.2188 13.2812 19.2188 10.9062C19.25 8.59375 18.375 6.5625 16.5938 4.8125C14.9062 3.125 12.875 2.28125 10.5 2.28125C8.125 2.28125 6.07812 3.125 4.35938 4.8125C2.67188 6.5 1.82812 8.53125 1.82812 10.9062C1.82812 12.5625 2.28125 14.0938 3.1875 15.5L3.375 15.8281L2.48438 19.0156L5.76562 18.1719L6.09375 18.3594C7.4375 19.1719 8.90625 19.5781 10.5 19.5781ZM15.2344 13.0625C15.5469 13.2188 15.7188 13.3281 15.75 13.3906C15.8438 13.5781 15.7812 14 15.5625 14.6562C15.4688 14.9062 15.2188 15.1719 14.8125 15.4531C14.4375 15.7031 14.1094 15.8438 13.8281 15.875C13.0156 16 11.9688 15.7812 10.6875 15.2188C9.15625 14.5625 7.6875 13.25 6.28125 11.2812C5.5625 10.3125 5.20312 9.42188 5.20312 8.60938C5.20312 7.82812 5.5 7.09375 6.09375 6.40625C6.3125 6.21875 6.54688 6.125 6.79688 6.125C7.04688 6.125 7.21875 6.125 7.3125 6.125C7.59375 6.125 7.78125 6.26562 7.875 6.54688C8.40625 7.82812 8.67188 8.46875 8.67188 8.46875C8.76562 8.65625 8.78125 8.8125 8.71875 8.9375C8.59375 9.21875 8.4375 9.46875 8.25 9.6875C8.0625 9.875 7.95312 9.98438 7.92188 10.0156C7.89062 10.0469 7.90625 10.1562 7.96875 10.3438C8.40625 11.1562 8.875 11.7656 9.375 12.1719C9.90625 12.5781 10.6094 13 11.4844 13.4375C11.7344 13.5625 11.9219 13.5469 12.0469 13.3906C12.4531 12.9219 12.7344 12.5781 12.8906 12.3594C13.0156 12.1719 13.2031 12.125 13.4531 12.2188C13.7031 12.3125 14.2969 12.5938 15.2344 13.0625Z" fill="#666666"/>
</svg>
