<svg width="25px" height="22px" viewBox="0 0 25px 22px" fill="none" xmlns="http://www.w3.org/2000/svg">
    <path d="M21.7031 1.95312C23.1719 3.20313 23.9531 4.79688 24.0469 6.73438C24.1406 8.67188 23.5156 10.3125 22.1719 11.6562L13.0781 21.0312C12.7969 21.3438 12.4531 21.5 12.0469 21.5C11.6406 21.5 11.2812 21.3438 10.9688 21.0312L1.92188 11.6562C0.578125 10.3125 -0.046875 8.67188 0.046875 6.73438C0.140625 4.79688 0.921875 3.20313 2.39062 1.95312C3.32812 1.14063 4.375 0.671875 5.53125 0.546875C6.6875 0.421875 7.73438 0.5625 8.67188 0.96875C9.64062 1.34375 10.4531 1.875 11.1094 2.5625L12.0469 3.54688L12.9844 2.5625C14.1719 1.34375 15.5938 0.671875 17.25 0.546875C18.9375 0.390625 20.4219 0.859375 21.7031 1.95312ZM21.0938 10.625C22.0625 9.625 22.5469 8.40625 22.5469 6.96875C22.5469 5.53125 21.9531 4.23438 20.7656 3.07812C19.9531 2.42188 19.0625 2.07813 18.0938 2.04688C17.1562 2.01562 16.3438 2.15625 15.6562 2.46875C15 2.78125 14.4688 3.17188 14.0625 3.64062L12.0469 5.70312L10.0312 3.64062C9.59375 3.17188 9.04688 2.78125 8.39062 2.46875C7.73438 2.125 6.92188 1.98438 5.95312 2.04688C5.01562 2.07813 4.14062 2.42188 3.32812 3.07812C2.14062 4.23438 1.54688 5.54688 1.54688 7.01562C1.54688 8.45312 2.03125 9.65625 3 10.625L12.0469 20L21.0938 10.625Z" fill="#333333"/>
</svg>
