<svg width="33px" height="38px" viewBox="0 0 33px 37px" fill="none" xmlns="http://www.w3.org/2000/svg">
    <path d="M10.7969 26.4453L8.40625 24.125C7.84375 23.5625 7.67969 22.9062 7.91406 22.1562C8.19531 21.3594 8.73438 20.8906 9.53125 20.75L12.7656 20.3281L14.2422 17.375C14.6172 16.625 15.2031 16.25 16 16.25C16.7969 16.25 17.3828 16.625 17.7578 17.375L19.2344 20.3281L22.4688 20.8203C23.3125 20.9141 23.8516 21.3594 24.0859 22.1562C24.3203 22.9062 24.1562 23.5625 23.5938 24.125L21.2031 26.4453L21.7656 29.6797C21.9062 30.4766 21.6484 31.1328 20.9922 31.6484C20.3359 32.1172 19.6562 32.1641 18.9531 31.7891L16 30.2422L13.0469 31.7891C12.7656 31.9297 12.4844 32 12.2031 32C11.7812 32 11.3828 31.8828 11.0078 31.6484C10.3516 31.1328 10.0938 30.4766 10.2344 29.6797L10.7969 26.4453ZM14.2422 22.3672L10.375 22.9297L13.1875 25.6719L12.5547 29.5391L16 27.7109L19.4453 29.5391L18.8125 25.6719L21.625 22.9297L17.7578 22.3672L16 18.8516L14.2422 22.3672ZM28.375 5C29.3125 5 30.1094 5.32813 30.7656 5.98438C31.4219 6.64062 31.75 7.4375 31.75 8.375V33.125C31.75 34.0625 31.4219 34.8594 30.7656 35.5156C30.1094 36.1719 29.3125 36.5 28.375 36.5H3.625C2.6875 36.5 1.89062 36.1719 1.23438 35.5156C0.578125 34.8594 0.25 34.0625 0.25 33.125V8.375C0.25 7.4375 0.578125 6.64062 1.23438 5.98438C1.89062 5.32813 2.6875 5 3.625 5H7V1.0625C7 0.6875 7.1875 0.5 7.5625 0.5H8.6875C9.0625 0.5 9.25 0.6875 9.25 1.0625V5H22.75V1.0625C22.75 0.6875 22.9375 0.5 23.3125 0.5H24.4375C24.8125 0.5 25 0.6875 25 1.0625V5H28.375ZM29.5 33.125V14H2.5V33.125C2.5 33.4531 2.59375 33.7109 2.78125 33.8984C3.01562 34.1328 3.29688 34.25 3.625 34.25H28.375C28.7031 34.25 28.9609 34.1328 29.1484 33.8984C29.3828 33.7109 29.5 33.4531 29.5 33.125ZM29.5 11.75V8.375C29.5 8.04687 29.3828 7.78906 29.1484 7.60156C28.9609 7.36719 28.7031 7.25 28.375 7.25H3.625C3.29688 7.25 3.01562 7.36719 2.78125 7.60156C2.59375 7.78906 2.5 8.04687 2.5 8.375V11.75H29.5Z" fill="#333333"/>
</svg>
