<?xml version="1.0" encoding="UTF-8"?>
<svg width="18px" height="18px" viewBox="0 0 18 18" fill="none" xmlns="http://www.w3.org/2000/svg">
<path d="M4.92188 10.2344C4.64062 10.2344 4.5 10.0938 4.5 9.8125V8.6875C4.5 8.40625 4.64062 8.26562 4.92188 8.26562H13.0781C13.3594 8.26562 13.5 8.40625 13.5 8.6875V9.8125C13.5 10.0938 13.3594 10.2344 13.0781 10.2344H4.92188ZM15.1523 3.09766C16.8633 4.78516 17.7188 6.83594 17.7188 9.25C17.7188 11.6641 16.8633 13.7266 15.1523 15.4375C13.4648 17.125 11.4141 17.9688 9 17.9688C6.58594 17.9688 4.52344 17.125 2.8125 15.4375C1.125 13.7266 0.28125 11.6641 0.28125 9.25C0.28125 6.83594 1.125 4.78516 2.8125 3.09766C4.52344 1.38672 6.58594 0.53125 9 0.53125C11.4141 0.53125 13.4648 1.38672 15.1523 3.09766ZM13.957 14.2422C15.3398 12.8594 16.0312 11.1953 16.0312 9.25C16.0312 7.30469 15.3398 5.65234 13.957 4.29297C12.5977 2.91016 10.9453 2.21875 9 2.21875C7.05469 2.21875 5.39062 2.91016 4.00781 4.29297C2.64844 5.65234 1.96875 7.30469 1.96875 9.25C1.96875 11.1953 2.64844 12.8594 4.00781 14.2422C5.39062 15.6016 7.05469 16.2812 9 16.2812C10.9453 16.2812 12.5977 15.6016 13.957 14.2422Z"
      fill="#4F4F4F"/>
</svg>
