<svg id="Layer_1" data-name="Layer 1" xmlns="http://www.w3.org/2000/svg" viewBox="0 0 10.5 12"><defs><style>.cls-1{fill:#111;}</style></defs><title>icon-calendar</title><path class="cls-1" d="M10.5,2.63v8.25A1.13,1.13,0,0,1,9.38,12H1.13a1.08,1.08,0,0,1-.8-.33A1.07,1.07,0,0,1,0,10.88V2.63a1.08,1.08,0,0,1,.33-.8,1.08,1.08,0,0,1,.8-.33H2.25V.28A.24.24,0,0,1,2.53,0h.94a.24.24,0,0,1,.28.28V1.5h3V.28A.24.24,0,0,1,7,0H8a.24.24,0,0,1,.28.28V1.5H9.38a1.07,1.07,0,0,1,.79.33A1.08,1.08,0,0,1,10.5,2.63Zm-1.12,8.1v-7H1.13v7c0,.1,0,.15.14.15h8A.13.13,0,0,0,9.38,10.73Zm-5.91-4H2.53a.24.24,0,0,1-.28-.28V5.53a.24.24,0,0,1,.28-.28h.94a.24.24,0,0,1,.28.28v.94A.24.24,0,0,1,3.47,6.75Zm.28,2A.24.24,0,0,1,3.47,9H2.53a.24.24,0,0,1-.28-.28V7.78a.24.24,0,0,1,.28-.28h.94a.24.24,0,0,1,.28.28ZM6,6.47a.24.24,0,0,1-.28.28H4.78a.24.24,0,0,1-.28-.28V5.53a.24.24,0,0,1,.28-.28h.94A.24.24,0,0,1,6,5.53ZM6,8.72A.24.24,0,0,1,5.72,9H4.78a.24.24,0,0,1-.28-.28V7.78a.24.24,0,0,1,.28-.28h.94A.24.24,0,0,1,6,7.78ZM8.25,6.47A.24.24,0,0,1,8,6.75H7a.24.24,0,0,1-.28-.28V5.53A.24.24,0,0,1,7,5.25H8a.24.24,0,0,1,.28.28Zm0,2.25A.24.24,0,0,1,8,9H7a.24.24,0,0,1-.28-.28V7.78A.24.24,0,0,1,7,7.5H8a.24.24,0,0,1,.28.28Z"/></svg>