<svg width="68" height="77" viewBox="0 0 68 77" fill="none" xmlns="http://www.w3.org/2000/svg">
<circle cx="32.5" cy="32.5" r="31" stroke="#FFD913" stroke-width="3"/>
<path d="M32.498 41.6741C33.8559 41.6741 34.9567 40.5733 34.9567 39.2154C34.9567 37.8576 33.8559 36.7568 32.498 36.7568C31.1402 36.7568 30.0394 37.8576 30.0394 39.2154C30.0394 40.5733 31.1402 41.6741 32.498 41.6741Z" fill="black"/>
<path d="M32.4981 45.6274C28.9431 45.6274 26.0858 42.7369 26.0858 39.2151C26.0858 35.6933 28.9763 32.8027 32.4981 32.8027C36.0199 32.8027 38.9105 35.6933 38.9105 39.2151C38.9105 42.7369 36.0532 45.6274 32.4981 45.6274ZM32.4981 34.763C30.0395 34.763 28.0793 36.7564 28.0793 39.1818C28.0793 41.6072 30.0728 43.6007 32.4981 43.6007C34.9235 43.6007 36.917 41.6072 36.917 39.1818C36.917 36.7564 34.9568 34.763 32.4981 34.763Z" fill="black"/>
<path d="M32.4981 49.5152C26.8167 49.5152 22.1985 44.897 22.1985 39.2156C22.1985 33.5342 26.8167 28.916 32.4981 28.916C38.1795 28.916 42.7977 33.5342 42.7977 39.2156C42.7977 44.897 38.1795 49.5152 32.4981 49.5152ZM32.4981 30.9095C27.9131 30.9095 24.192 34.6306 24.192 39.2156C24.192 43.8006 27.9131 47.5217 32.4981 47.5217C37.0831 47.5217 40.8042 43.8006 40.8042 39.2156C40.8042 34.6306 37.0831 30.9095 32.4981 30.9095Z" fill="black"/>
<path d="M40.4721 53.7684H24.5243C20.7367 53.7684 17.6801 50.7118 17.6801 46.9242V30.9764C17.6801 27.1888 20.7367 24.1322 24.5243 24.1322H25.7536C24.8565 22.8032 24.3582 21.2084 24.3582 19.5804C24.3582 15.0951 28.0129 11.4404 32.4982 11.4404C36.9835 11.4404 40.6382 15.0951 40.6382 19.5804C40.6382 21.2417 40.1398 22.8032 39.2428 24.1322H40.4721C44.2596 24.1322 47.3163 27.1888 47.3163 30.9764V46.9242C47.3163 50.7118 44.2264 53.7684 40.4721 53.7684ZM24.5243 26.4579C22.0325 26.4579 20.0058 28.4846 20.0058 30.9764V46.9242C20.0058 49.416 22.0325 51.4427 24.5243 51.4427H40.4721C42.9639 51.4427 44.9906 49.416 44.9906 46.9242V30.9764C44.9906 28.4846 42.9639 26.4579 40.4721 26.4579H36.4851C35.9867 26.4579 35.5216 26.1257 35.3887 25.6273C35.2558 25.1289 35.4219 24.6306 35.8206 24.3315C37.3822 23.2351 38.3125 21.4742 38.3125 19.5472C38.3125 16.3577 35.6877 13.7661 32.4982 13.7661C29.3086 13.7661 26.6839 16.3577 26.6839 19.5804C26.6839 21.4742 27.6142 23.2683 29.1757 24.3648C29.6076 24.6638 29.7738 25.1954 29.6076 25.6605C29.4415 26.1257 29.0096 26.4911 28.5112 26.4911H24.5243V26.4579Z" fill="black"/>
<path d="M45.0099 61.6934V76.9998L53.3361 72.1481L61.6623 76.9998V61.6934H45.0099Z" fill="#188831"/>
<circle cx="53" cy="53" r="8" fill="white"/>
<path d="M66.7957 50.5189C67.3904 51.3641 67.7035 52.3031 67.7035 53.3361C67.7035 54.369 67.3904 55.3394 66.7957 56.1532C66.201 56.9984 65.4185 57.5931 64.5107 57.9061C64.9176 58.8138 65.0428 59.7529 64.8863 60.7858C64.7298 61.8188 64.2603 62.6952 63.5091 63.4465C62.7578 64.1977 61.8814 64.6359 60.8797 64.8237C59.8781 64.9802 58.9077 64.855 57.9687 64.4481C57.7496 65.0741 57.4053 65.6376 56.9671 66.1071C56.5288 66.5766 55.9967 66.9522 55.3707 67.2339C54.7446 67.5156 54.0873 67.6409 53.3674 67.6409C52.3344 67.6409 51.3641 67.3278 50.5502 66.7331C49.7051 66.1384 49.1104 65.3558 48.7974 64.4481C47.8583 64.855 46.888 64.9802 45.8863 64.8237C44.8847 64.6672 44.0082 64.1977 43.257 63.4465C42.4432 62.7265 42.0049 61.8501 41.8171 60.8171C41.6606 59.7842 41.7545 58.8138 42.1928 57.9374C41.2537 57.5931 40.5025 56.9984 39.9077 56.1845C39.313 55.3394 39 54.4003 39 53.3361C39 52.3031 39.313 51.3328 39.9077 50.5189C40.5025 49.6738 41.285 49.0791 42.1928 48.7661C41.7858 47.8583 41.6606 46.9193 41.8171 45.8863C41.9736 44.8534 42.4432 43.9769 43.1944 43.2257C43.9456 42.4745 44.8221 42.0362 45.855 41.8484C46.888 41.6919 47.8583 41.8171 48.7348 42.2241C49.0791 41.285 49.6738 40.5338 50.4876 39.939C51.3641 39.313 52.3031 39 53.3361 39C54.369 39 55.3394 39.313 56.1532 39.9077C56.9984 40.5025 57.5931 41.285 57.9061 42.1928C58.8138 41.7858 59.7529 41.6606 60.7858 41.8171C61.8188 41.9736 62.6952 42.4432 63.4465 43.1944C64.1977 43.9456 64.6359 44.8221 64.8237 45.855C64.9802 46.888 64.855 47.8583 64.4481 48.7348C65.4185 49.0791 66.201 49.6738 66.7957 50.5189ZM59.5651 50.8633C59.8781 50.5502 59.8781 50.2685 59.5651 49.9555L58.0939 48.5156C57.8435 48.2026 57.5618 48.2026 57.2488 48.5156L51.8336 53.9621L49.486 51.5519C49.173 51.2389 48.8913 51.2389 48.5783 51.5519L47.1384 52.9918C46.8254 53.3048 46.8254 53.5865 47.1384 53.8369L51.3954 58.1565C51.6458 58.4069 51.9275 58.4069 52.2405 58.1565L59.5651 50.8633Z" fill="#28A745"/>
</svg>
