<svg width="69" height="77" viewBox="0 0 69 77" fill="none" xmlns="http://www.w3.org/2000/svg">
<circle cx="32.907" cy="32.5" r="31" stroke="#FFD913" stroke-width="3"/>
<path d="M54.6319 23.4053H21.5946C21.3594 23.3717 20.4183 23.338 19.3429 23.7753C18.8723 23.4389 18.0993 22.9681 17.1919 23.0017C16.4861 23.0017 15.8476 23.3044 15.3098 23.8762C14.5368 24.6834 14.2344 25.8605 14.5032 26.9031C14.7049 27.6767 15.1754 28.3157 15.8812 28.6857C15.7804 29.3247 15.7131 29.9974 15.7131 30.7373C15.7131 31.1073 15.982 31.4436 16.3517 31.5445C16.5197 31.5781 20.0823 32.4526 19.5445 35.4459L17.7297 44.9977C17.6624 45.2667 17.36 46.713 18.2338 47.8565C18.8051 48.5964 19.7462 49 20.9897 49H25.6277C25.6613 49 25.6613 49 25.6949 49C26.3334 49 27.4761 48.5628 27.913 46.8139V46.7802L29.291 39.9191C29.3582 39.6837 30.0304 37.8002 32.383 37.8002H33.5593H35.8783C36.2144 37.8002 38.903 37.8338 40.0457 35.1768C40.1466 34.9078 40.281 34.6387 40.3818 34.4033C41.1548 32.5198 41.4573 31.9144 42.5328 31.9144H45.0198C45.4567 31.9144 45.8264 31.5445 45.8264 31.1073V31.04H54.5983C55.0352 31.04 55.4049 30.67 55.4049 30.2328V24.2125C55.4385 23.7753 55.0688 23.4053 54.6319 23.4053ZM16.1164 26.4995C15.982 25.995 16.1501 25.3896 16.5534 24.9861C16.8558 24.6834 17.0911 24.6497 17.2591 24.6497C17.2591 24.6497 17.2591 24.6497 17.2927 24.6497C17.4272 24.6497 17.6288 24.6834 17.7969 24.7506C17.1919 25.356 16.6878 26.0959 16.3517 26.9704C16.2173 26.8359 16.1501 26.6677 16.1164 26.4995ZM27.6778 39.5155C27.6778 39.5491 27.6778 39.5491 27.6778 39.5828L26.2998 46.4439C26.1318 47.1166 25.8293 47.352 25.6613 47.352H20.9561C20.2503 47.352 19.7462 47.1838 19.5109 46.8475C19.1412 46.4103 19.242 45.6367 19.3093 45.3676V45.334L21.1913 35.7486C21.7627 32.5535 19.242 30.8046 17.4272 30.1655C17.528 28.2148 18.0321 26.7686 18.9732 25.9278C20.0823 24.9188 22.166 25.0533 22.166 25.0533V27.5758C22.166 28.013 22.5357 28.383 22.9726 28.383C23.4095 28.383 23.7792 28.013 23.7792 27.5758V25.0533H25.2244V27.5758C25.2244 28.013 25.5941 28.383 26.031 28.383C26.4679 28.383 26.8376 28.013 26.8376 27.5758V25.0533H28.2827V27.5758C28.2827 28.013 28.6524 28.383 29.0893 28.383C29.5263 28.383 29.896 28.013 29.896 27.5758V25.0533H53.758V27.2058H47.0027C46.8011 27.2058 45.7928 27.2058 45.0198 27.9458C44.4485 28.4839 44.146 29.2574 44.146 30.2328C44.146 30.2664 44.146 30.2664 44.146 30.3001H42.4656C42.432 30.3001 32.9879 30.3337 32.9879 30.3337H32.9543C31.8116 30.401 29.5935 31.2754 29.3582 34.2351C29.291 35.1096 29.5263 35.9168 30.0976 36.5222C30.1312 36.5558 30.1648 36.5894 30.232 36.6567C28.686 37.2957 27.8794 38.6747 27.6778 39.5155ZM33.1896 36.1522C32.6519 36.0849 31.7444 35.8831 31.3075 35.3786C31.0723 35.1096 30.9714 34.7732 31.005 34.336C31.1731 32.1499 32.8199 31.9481 33.0552 31.9144H33.2232C32.7191 32.9571 32.5174 34.3697 33.1896 36.1522ZM38.8022 33.7643C38.7014 33.9997 38.6006 34.2688 38.4661 34.5378C37.7268 36.2531 35.9455 36.1858 35.8447 36.1858C35.8111 36.1858 35.8111 36.1858 35.7775 36.1858H34.9372C33.7273 33.7643 34.6348 32.4189 35.1053 31.9481H39.6424C39.3736 32.4526 39.1047 33.0916 38.8022 33.7643ZM45.9609 29.392C46.0281 29.2911 46.0617 29.1902 46.1625 29.1229C46.465 28.8202 46.9355 28.8202 46.9691 28.8202H47.0027H53.7916V29.392H45.9609Z" fill="black"/>
<path d="M45.4169 61.6934V76.9998L53.7431 72.1481L62.0693 76.9998V61.6934H45.4169Z" fill="#188831"/>
<circle cx="53.407" cy="53" r="8" fill="white"/>
<path d="M67.2027 50.5189C67.7974 51.3641 68.1104 52.3031 68.1104 53.3361C68.1104 54.369 67.7974 55.3394 67.2027 56.1532C66.608 56.9984 65.8254 57.5931 64.9177 57.9061C65.3246 58.8138 65.4498 59.7529 65.2933 60.7858C65.1368 61.8188 64.6673 62.6952 63.916 63.4465C63.1648 64.1977 62.2884 64.6359 61.2867 64.8237C60.2851 64.9802 59.3147 64.855 58.3757 64.4481C58.1566 65.0741 57.8123 65.6376 57.374 66.1071C56.9358 66.5766 56.4037 66.9522 55.7777 67.2339C55.1516 67.5156 54.4943 67.6409 53.7744 67.6409C52.7414 67.6409 51.7711 67.3278 50.9572 66.7331C50.1121 66.1384 49.5174 65.3558 49.2043 64.4481C48.2653 64.855 47.295 64.9802 46.2933 64.8237C45.2917 64.6672 44.4152 64.1977 43.664 63.4465C42.8501 62.7265 42.4119 61.8501 42.2241 60.8171C42.0676 59.7842 42.1615 58.8138 42.5997 57.9374C41.6607 57.5931 40.9095 56.9984 40.3147 56.1845C39.72 55.3394 39.407 54.4003 39.407 53.3361C39.407 52.3031 39.72 51.3328 40.3147 50.5189C40.9095 49.6738 41.692 49.0791 42.5997 48.7661C42.1928 47.8583 42.0676 46.9193 42.2241 45.8863C42.3806 44.8534 42.8501 43.9769 43.6014 43.2257C44.3526 42.4745 45.2291 42.0362 46.262 41.8484C47.295 41.6919 48.2653 41.8171 49.1417 42.2241C49.4861 41.285 50.0808 40.5338 50.8946 39.939C51.7711 39.313 52.7101 39 53.7431 39C54.776 39 55.7464 39.313 56.5602 39.9077C57.4053 40.5025 58.0001 41.285 58.3131 42.1928C59.2208 41.7858 60.1599 41.6606 61.1928 41.8171C62.2258 41.9736 63.1022 42.4432 63.8534 43.1944C64.6047 43.9456 65.0429 44.8221 65.2307 45.855C65.3872 46.888 65.262 47.8583 64.8551 48.7348C65.8254 49.0791 66.608 49.6738 67.2027 50.5189ZM59.9721 50.8633C60.2851 50.5502 60.2851 50.2685 59.9721 49.9555L58.5009 48.5156C58.2505 48.2026 57.9688 48.2026 57.6557 48.5156L52.2406 53.9621L49.893 51.5519C49.58 51.2389 49.2983 51.2389 48.9852 51.5519L47.5454 52.9918C47.2324 53.3048 47.2324 53.5865 47.5454 53.8369L51.8024 58.1565C52.0528 58.4069 52.3345 58.4069 52.6475 58.1565L59.9721 50.8633Z" fill="#28A745"/>
</svg>
