<svg id="Layer_1" data-name="Layer 1" xmlns="http://www.w3.org/2000/svg" viewBox="0 0 17 17"><defs><style>.cls-1{fill:#fff;}</style></defs><title>mp-parler-alt</title><path class="cls-1" d="M14.68,0H2.32A2.32,2.32,0,0,0,0,2.32V14.68A2.32,2.32,0,0,0,2.32,17H14.68A2.32,2.32,0,0,0,17,14.68V2.32A2.32,2.32,0,0,0,14.68,0Zm-10,9.44v4.73a1.89,1.89,0,0,1-1.89-1.89V8A1.45,1.45,0,0,1,4.25,6.61H9.44a.95.95,0,1,1,0,1.89H5.67A1,1,0,0,0,4.72,9.44Zm4.72,2.84H6.61v-.95a1,1,0,0,1,.95-.94H9.44a2.9,2.9,0,0,0,2.84-2.83A2.9,2.9,0,0,0,9.44,4.72H2.83A1.89,1.89,0,0,1,4.72,2.83H9.44a4.68,4.68,0,0,1,4.73,4.73A4.68,4.68,0,0,1,9.44,12.28Z"/></svg>