<svg width="18" height="19" viewBox="0 0 18 19" fill="none" xmlns="http://www.w3.org/2000/svg">
<path d="M8.9993 11.1248C10.1356 11.1248 11.0567 10.1981 11.0567 9.05485C11.0567 7.91163 10.1356 6.98486 8.9993 6.98486C7.86303 6.98486 6.94189 7.91163 6.94189 9.05485C6.94189 10.1981 7.86303 11.1248 8.9993 11.1248Z" fill="#FAE31B"/>
<path d="M18 8.16946H16.4616C16.0583 4.70767 13.321 1.95358 9.88029 1.54785V0H8.1197V1.54785C4.67899 1.95358 1.94168 4.70767 1.53842 8.16946H0V9.94084H1.53842C1.94168 13.4026 4.67899 16.1567 8.1197 16.5624V18.1103H9.88029V16.5624C13.321 16.1567 16.0583 13.4026 16.4616 9.94084H18V8.16946ZM9.87946 14.7759V13.3478H8.11887V14.7759C5.64984 14.3929 3.6939 12.425 3.31327 9.94084H4.73265V8.16946H3.31327C3.6939 5.6853 5.64984 3.71738 8.11887 3.33442V4.76334H9.87946V3.33442C12.3485 3.71738 14.3044 5.6853 14.685 8.16946H13.2657V9.94084H14.685C14.3044 12.425 12.3485 14.3929 9.87946 14.7759Z" fill="#333333"/>
</svg>
