<?xml version="1.0" encoding="UTF-8"?>
<svg width="36px" height="36px" viewBox="0 0 36 36" version="1.1" xmlns="http://www.w3.org/2000/svg" xmlns:xlink="http://www.w3.org/1999/xlink">
    <!-- Generator: Sketch 51.1 (57501) - http://www.bohemiancoding.com/sketch -->
    <title>instagram</title>
    <desc>Created with Sketch.</desc>
    <defs></defs>
    <g id="instagram" stroke="none" stroke-width="1" fill="none" fill-rule="evenodd">
        <path d="M17.875,13.8320312 C18.6015661,13.8320312 19.2753875,14.0136701 19.8964844,14.3769531 C20.5175812,14.7402362 21.0097638,15.2324188 21.3730469,15.8535156 C21.7363299,16.4746125 21.9179688,17.1484339 21.9179688,17.875 C21.9179688,18.6015661 21.7363299,19.2753875 21.3730469,19.8964844 C21.0097638,20.5175812 20.5175812,21.0097638 19.8964844,21.3730469 C19.2753875,21.7363299 18.6015661,21.9179688 17.875,21.9179688 C17.1484339,21.9179688 16.4746125,21.7363299 15.8535156,21.3730469 C15.2324188,21.0097638 14.7402362,20.5175812 14.3769531,19.8964844 C14.0136701,19.2753875 13.8320312,18.6015661 13.8320312,17.875 C13.8320312,17.1484339 14.0136701,16.4746125 14.3769531,15.8535156 C14.7402362,15.2324188 15.2324188,14.7402362 15.8535156,14.3769531 C16.4746125,14.0136701 17.1484339,13.8320312 17.875,13.8320312 Z M17.875,20.5117188 C18.6015661,20.5117188 19.2226537,20.2539088 19.7382812,19.7382812 C20.2539088,19.2226537 20.5117188,18.6015661 20.5117188,17.875 C20.5117188,17.1484339 20.2539088,16.5273463 19.7382812,16.0117188 C19.2226537,15.4960912 18.6015661,15.2382812 17.875,15.2382812 C17.1484339,15.2382812 16.5273463,15.4960912 16.0117188,16.0117188 C15.4960912,16.5273463 15.2382812,17.1484339 15.2382812,17.875 C15.2382812,18.6015661 15.4960912,19.2226537 16.0117188,19.7382812 C16.5273463,20.2539088 17.1484339,20.5117188 17.875,20.5117188 Z M23.0429688,13.65625 C23.0195311,13.9140638 22.9199228,14.1367178 22.7441406,14.3242188 C22.5683585,14.5117197 22.3515638,14.6054688 22.09375,14.6054688 C21.8359362,14.6054688 21.6132822,14.5117197 21.4257812,14.3242188 C21.2382803,14.1367178 21.1445312,13.9140638 21.1445312,13.65625 C21.1445312,13.3984362 21.2382803,13.1757822 21.4257812,12.9882812 C21.6132822,12.8007803 21.8359362,12.7070312 22.09375,12.7070312 C22.3515638,12.7070312 22.5742178,12.8007803 22.7617188,12.9882812 C22.9492197,13.1757822 23.0429688,13.3984362 23.0429688,13.65625 Z M25.7148438,14.6054688 C25.7382814,15.261722 25.75,16.3515549 25.75,17.875 C25.75,19.3984451 25.7324221,20.4941373 25.6972656,21.1621094 C25.6621092,21.8300815 25.5625008,22.4101538 25.3984375,22.9023438 C25.1874989,23.4882842 24.8652365,23.9980447 24.4316406,24.4316406 C23.9980447,24.8652365 23.4882842,25.1874989 22.9023438,25.3984375 C22.4101538,25.5625008 21.8300815,25.6621092 21.1621094,25.6972656 C20.4941373,25.7324221 19.3984451,25.75 17.875,25.75 C16.3515549,25.75 15.2558627,25.7324221 14.5878906,25.6972656 C13.9199185,25.6621092 13.3398462,25.5507822 12.8476562,25.3632812 C12.2617158,25.1757803 11.7519553,24.8652365 11.3183594,24.4316406 C10.8847635,23.9980447 10.5625011,23.4882842 10.3515625,22.9023438 C10.1874992,22.4101538 10.0878908,21.8300815 10.0527344,21.1621094 C10.0175779,20.4941373 10,19.3984451 10,17.875 C10,16.3515549 10.0175779,15.2558627 10.0527344,14.5878906 C10.0878908,13.9199185 10.1874992,13.3398462 10.3515625,12.8476562 C10.5625011,12.2617158 10.8847635,11.7519553 11.3183594,11.3183594 C11.7519553,10.8847635 12.2617158,10.5625011 12.8476562,10.3515625 C13.3398462,10.1874992 13.9199185,10.0878908 14.5878906,10.0527344 C15.2558627,10.0175779 16.3515549,10 17.875,10 C19.3984451,10 20.4941373,10.0175779 21.1621094,10.0527344 C21.8300815,10.0878908 22.4101538,10.1874992 22.9023438,10.3515625 C23.4882842,10.5625011 23.9980447,10.8847635 24.4316406,11.3183594 C24.8652365,11.7519553 25.1874989,12.2617158 25.3984375,12.8476562 C25.5625008,13.3398462 25.6679685,13.9257779 25.7148438,14.6054688 Z M24.0273438,22.515625 C24.1679695,22.1171855 24.2617185,21.4843793 24.3085938,20.6171875 C24.3320314,20.1015599 24.34375,19.3750047 24.34375,18.4375 L24.34375,17.3125 C24.34375,16.3515577 24.3320314,15.6250025 24.3085938,15.1328125 C24.2617185,14.242183 24.1679695,13.6093769 24.0273438,13.234375 C23.7460923,12.5078089 23.2421911,12.0039077 22.515625,11.7226562 C22.1406231,11.5820305 21.507817,11.4882815 20.6171875,11.4414062 C20.1015599,11.4179686 19.3750047,11.40625 18.4375,11.40625 L17.3125,11.40625 C16.3749953,11.40625 15.6484401,11.4179686 15.1328125,11.4414062 C14.2656207,11.4882815 13.6328145,11.5820305 13.234375,11.7226562 C12.5078089,12.0039077 12.0039077,12.5078089 11.7226562,13.234375 C11.5820305,13.6093769 11.4882815,14.242183 11.4414062,15.1328125 C11.4179686,15.6484401 11.40625,16.3749953 11.40625,17.3125 L11.40625,18.4375 C11.40625,19.3750047 11.4179686,20.1015599 11.4414062,20.6171875 C11.4882815,21.4843793 11.5820305,22.1171855 11.7226562,22.515625 C12.0273453,23.2421911 12.5312465,23.7460923 13.234375,24.0273438 C13.6328145,24.1679695 14.2656207,24.2617185 15.1328125,24.3085938 C15.6484401,24.3320314 16.3749953,24.34375 17.3125,24.34375 L18.4375,24.34375 C19.3984423,24.34375 20.1249975,24.3320314 20.6171875,24.3085938 C21.507817,24.2617185 22.1406231,24.1679695 22.515625,24.0273438 C23.2421911,23.7226547 23.7460923,23.2187535 24.0273438,22.515625 Z" id="" fill="#5B5B5B"></path>
    </g>
</svg>