<?xml version="1.0" encoding="UTF-8"?>
<svg width="36px" height="36px" viewBox="0 0 36 36" version="1.1" xmlns="http://www.w3.org/2000/svg" xmlns:xlink="http://www.w3.org/1999/xlink">
    <!-- Generator: Sketch 51.1 (57501) - http://www.bohemiancoding.com/sketch -->
    <title>pintrest</title>
    <desc>Created with Sketch.</desc>
    <defs></defs>
    <g id="pintrest" stroke="none" stroke-width="1" fill="none" fill-rule="evenodd">
        <path d="M18.171875,9 C19.273443,9.02343762 20.310542,9.27538822 21.2832031,9.75585938 C22.2558642,10.2363305 23.0234347,10.8984333 23.5859375,11.7421875 C24.1953155,12.6562546 24.5,13.6816349 24.5,14.8183594 C24.5,15.9550838 24.3125019,17.0273387 23.9375,18.0351562 C23.5156229,19.1367243 22.9179726,20.0039031 22.1445312,20.6367188 C21.2773394,21.3398473 20.2578184,21.6914062 19.0859375,21.6914062 C18.6171852,21.6914062 18.1484398,21.5800792 17.6796875,21.3574219 C17.2109352,21.1347645 16.8710948,20.8242207 16.6601562,20.4257812 L16.3789062,21.5507812 C16.0742172,22.7695373 15.8281259,23.6132789 15.640625,24.0820312 C15.3593736,24.7148469 14.8554724,25.5234326 14.1289062,26.5078125 L13.9882812,26.578125 L13.8828125,26.4726562 L13.8476562,25.9453125 C13.7773434,25.2890592 13.7421875,24.7968766 13.7421875,24.46875 C13.7421875,23.7656215 13.8593738,22.8515681 14.09375,21.7265625 C14.2343757,21.0703092 14.4687484,20.0976627 14.796875,18.8085938 L15.21875,17.1210938 C14.9843738,16.675779 14.8671875,16.0898474 14.8671875,15.3632812 C14.8671875,14.6835904 15.042967,14.121096 15.3945313,13.6757812 C15.6992203,13.3007794 16.0742165,13.0664067 16.5195312,12.9726562 C16.964846,12.8789058 17.3515609,12.9609362 17.6796875,13.21875 C18.0078141,13.4765638 18.171875,13.8867159 18.171875,14.4492188 C18.171875,14.7539078 18.1250005,15.0937481 18.03125,15.46875 C17.9843748,15.6796886 17.8789071,16.0078103 17.7148438,16.453125 C17.5507804,16.8984397 17.4453127,17.2265614 17.3984375,17.4375 C17.304687,17.8125019 17.2578125,18.1406236 17.2578125,18.421875 C17.2578125,18.8671897 17.416014,19.2363267 17.7324219,19.5292969 C18.0488297,19.8222671 18.4296853,19.96875 18.875,19.96875 C19.6250038,19.96875 20.2578099,19.6406283 20.7734375,18.984375 C21.2187522,18.4453098 21.5468739,17.7187546 21.7578125,16.8046875 C21.9453134,16.0546838 22.0390625,15.3164099 22.0390625,14.5898438 C22.0390625,13.3710877 21.6582069,12.4218784 20.8964844,11.7421875 C20.1347618,11.0624966 19.1328187,10.7226562 17.890625,10.7226562 C16.9765579,10.7226562 16.1386757,10.9335916 15.3769531,11.3554688 C14.6152306,11.7773459 14.0234396,12.3515589 13.6015625,13.078125 C13.1796854,13.8046911 12.96875,14.6367141 12.96875,15.5742188 C12.96875,15.9726582 13.0390618,16.3593731 13.1796875,16.734375 C13.2500004,16.9453136 13.3789053,17.2031235 13.5664062,17.5078125 C13.707032,17.7421887 13.7773438,17.8945309 13.7773438,17.9648438 C13.7773438,18.1523447 13.7304692,18.3867173 13.6367188,18.6679688 C13.5195307,19.019533 13.3906257,19.1953125 13.25,19.1953125 C12.945311,19.1953125 12.6171893,19.037111 12.265625,18.7207031 C11.9140607,18.4042953 11.6210949,17.9765652 11.3867188,17.4375 C11.128905,16.8046843 11,16.1015664 11,15.328125 C11,14.0624937 11.351559,12.9375049 12.0546875,11.953125 C12.7109408,11.0390579 13.5898382,10.318362 14.6914062,9.79101562 C15.7929743,9.26366924 16.9531189,9 18.171875,9 Z" id="" fill="#5B5B5B"></path>
    </g>
</svg>