<?xml version="1.0" encoding="UTF-8"?>
<svg width="36px" height="36px" viewBox="0 0 36 36" version="1.1" xmlns="http://www.w3.org/2000/svg" xmlns:xlink="http://www.w3.org/1999/xlink">
    <!-- Generator: Sketch 51.1 (57501) - http://www.bohemiancoding.com/sketch -->
    <title>skype</title>
    <desc>Created with Sketch.</desc>
    <defs></defs>
    <g id="skype" stroke="none" stroke-width="1" fill="none" fill-rule="evenodd">
        <path d="M24.9414062,19.421875 C25.4804714,20.1250035 25.75,20.9218705 25.75,21.8125 C25.75,22.5156285 25.5742205,23.171872 25.2226562,23.78125 C24.871092,24.390628 24.390628,24.871092 23.78125,25.2226562 C23.171872,25.5742205 22.5156285,25.75 21.8125,25.75 C20.9218705,25.75 20.1250035,25.4804714 19.421875,24.9414062 C18.9062474,25.0351567 18.3906276,25.0820312 17.875,25.0820312 C16.5624934,25.0820312 15.3554743,24.7597688 14.2539062,24.1152344 C13.1523382,23.4706999 12.2793001,22.5976618 11.6347656,21.4960938 C10.9902312,20.3945257 10.6679688,19.1875066 10.6679688,17.875 C10.6679688,17.38281 10.7148433,16.8671902 10.8085938,16.328125 C10.2695286,15.6249965 10,14.8281295 10,13.9375 C10,13.2343715 10.1757795,12.578128 10.5273438,11.96875 C10.878908,11.359372 11.359372,10.878908 11.96875,10.5273438 C12.578128,10.1757795 13.2343715,10 13.9375,10 C14.8281295,10 15.6249965,10.2695286 16.328125,10.8085938 C16.8437526,10.7148433 17.3593724,10.6679688 17.875,10.6679688 C19.1875066,10.6679688 20.3945257,10.9902312 21.4960938,11.6347656 C22.5976618,12.2793001 23.4706999,13.1523382 24.1152344,14.2539062 C24.7597688,15.3554743 25.0820312,16.5624934 25.0820312,17.875 C25.0820312,18.36719 25.0351567,18.8828098 24.9414062,19.421875 Z M18.0859375,22.6210938 C19.1406303,22.6210938 20.042965,22.3750025 20.7929688,21.8828125 C21.6132854,21.3203097 22.0234375,20.5585986 22.0234375,19.5976562 C22.0234375,18.8007773 21.6718785,18.1562525 20.96875,17.6640625 C20.47656,17.3359359 19.7617234,17.0664073 18.8242188,16.8554688 L18.2617188,16.75 C17.5351526,16.5624991 17.0664073,16.4218755 16.8554688,16.328125 C16.5507797,16.1874993 16.3984375,15.9765639 16.3984375,15.6953125 C16.3984375,15.1796849 16.8906201,14.921875 17.875,14.921875 C18.2734395,14.921875 18.6249985,14.9921868 18.9296875,15.1328125 C19.0937508,15.226563 19.3046862,15.3789052 19.5625,15.5898438 C19.7265633,15.7773447 19.8671869,15.894531 19.984375,15.9414062 C20.1484383,16.0351567 20.3242178,16.0820312 20.5117188,16.0820312 C20.8398454,16.0820312 21.1035146,15.9765636 21.3027344,15.765625 C21.5019541,15.5546864 21.6015625,15.2851579 21.6015625,14.9570312 C21.6015625,14.3945284 21.1914104,13.9257831 20.3710938,13.5507812 C19.5976524,13.199217 18.701177,13.0234375 17.6816406,13.0234375 C16.6621043,13.0234375 15.8007848,13.2343729 15.0976562,13.65625 C14.2773396,14.1718776 13.8671875,14.9101514 13.8671875,15.8710938 C13.8671875,16.527347 14.0312484,17.0546855 14.359375,17.453125 C14.6171888,17.8046893 15.0390596,18.0859364 15.625,18.296875 C15.9765643,18.4375007 16.5742145,18.6015616 17.4179688,18.7890625 L18.1210938,18.9648438 C18.6367213,19.0820318 18.964843,19.1874995 19.1054688,19.28125 C19.3632825,19.4218757 19.4921875,19.6328111 19.4921875,19.9140625 C19.4921875,20.1953139 19.3515639,20.4238272 19.0703125,20.5996094 C18.7890611,20.7753915 18.4199242,20.8632812 17.9628906,20.8632812 C17.5058571,20.8632812 17.1015643,20.7578136 16.75,20.546875 C16.5390614,20.4296869 16.2812515,20.2187515 15.9765625,19.9140625 C15.7656239,19.6796863 15.6015631,19.5273441 15.484375,19.4570312 C15.2968741,19.3398432 15.0976573,19.28125 14.8867188,19.28125 C14.5585921,19.28125 14.3066415,19.3808584 14.1308594,19.5800781 C13.9550772,19.7792979 13.8671875,20.0312485 13.8671875,20.3359375 C13.8671875,20.7578146 14.0546856,21.1445295 14.4296875,21.4960938 C14.8046894,21.847658 15.3203092,22.1230459 15.9765625,22.3222656 C16.6328158,22.5214854 17.3359337,22.6210938 18.0859375,22.6210938 Z" id="" fill="#5B5B5B"></path>
    </g>
</svg>