<?xml version="1.0" encoding="UTF-8"?>
<svg width="36px" height="36px" viewBox="0 0 36 36" version="1.1" xmlns="http://www.w3.org/2000/svg" xmlns:xlink="http://www.w3.org/1999/xlink">
    <!-- Generator: Sketch 51.1 (57501) - http://www.bohemiancoding.com/sketch -->
    <title>twiter</title>
    <desc>Created with Sketch.</desc>
    <defs></defs>
    <g id="twiter" stroke="none" stroke-width="1" fill="none" fill-rule="evenodd">
        <path d="M25.1367188,14.65625 C25.1601564,14.7500005 25.171875,14.9023427 25.171875,15.1132812 C25.171875,16.8007897 24.7617229,18.4296796 23.9414062,20 C23.097652,21.6640708 21.9140701,22.9882763 20.390625,23.9726562 C18.7265542,25.0742243 16.816417,25.625 14.6601562,25.625 C12.5976459,25.625 10.7109461,25.0742243 9,23.9726562 C9.25781379,23.9960939 9.55077961,24.0078125 9.87890625,24.0078125 C11.5898523,24.0078125 13.1249932,23.480474 14.484375,22.4257812 C13.6640584,22.4257812 12.9433625,22.1855493 12.3222656,21.7050781 C11.7011688,21.224607 11.2734387,20.6210974 11.0390625,19.8945312 C11.2734387,19.9179689 11.4960927,19.9296875 11.7070312,19.9296875 C12.0351579,19.9296875 12.3632796,19.8945316 12.6914062,19.8242188 C11.847652,19.6367178 11.1445341,19.2031284 10.5820312,18.5234375 C10.0195284,17.8437466 9.73828125,17.0703168 9.73828125,16.203125 L9.73828125,16.1328125 C10.2539088,16.4375015 10.8046846,16.6015624 11.390625,16.625 C10.898435,16.2734357 10.5000015,15.8281277 10.1953125,15.2890625 C9.89062348,14.7499973 9.73828125,14.1582063 9.73828125,13.5136719 C9.73828125,12.8691374 9.91406074,12.2539092 10.265625,11.6679688 C11.1796921,12.816412 12.2988215,13.7304654 13.6230469,14.4101562 C14.9472722,15.0898471 16.3593675,15.4648434 17.859375,15.5351562 C17.8124998,15.2539048 17.7890625,14.9726577 17.7890625,14.6914062 C17.7890625,14.035153 17.9531234,13.4199247 18.28125,12.8457031 C18.6093766,12.2714815 19.0546847,11.8203141 19.6171875,11.4921875 C20.1796903,11.1640609 20.7890592,11 21.4453125,11 C21.9843777,11 22.4824196,11.1054677 22.9394531,11.3164062 C23.3964867,11.5273448 23.8007795,11.808592 24.1523438,12.1601562 C24.996098,11.9960929 25.7812464,11.7031271 26.5078125,11.28125 C26.2265611,12.1484418 25.687504,12.8281225 24.890625,13.3203125 C25.5937535,13.226562 26.2968715,13.0273453 27,12.7226562 C26.4843724,13.47266 25.8632849,14.1171848 25.1367188,14.65625 Z" id="" fill="#5B5B5B"></path>
    </g>
</svg>