<?xml version="1.0" encoding="UTF-8"?>
<svg width="880px" height="500px" viewBox="0 0 880 500" version="1.1" xmlns="http://www.w3.org/2000/svg" xmlns:xlink="http://www.w3.org/1999/xlink">
    <!-- Generator: Sketch 51.1 (57501) - http://www.bohemiancoding.com/sketch -->
    <title>default-banner</title>
    <desc>Created with Sketch.</desc>
    <defs>
        <rect id="path-1" x="0" y="0" width="880" height="500"></rect>
        <rect id="path-3" x="0" y="0" width="880" height="500"></rect>
    </defs>
    <g id="Marketplace-Front" stroke="none" stroke-width="1" fill="none" fill-rule="evenodd">
        <g id="seller-profile-default" transform="translate(-520.000000, -186.000000)">
            <g id="Banner" transform="translate(520.000000, 186.000000)">
                <g id="default-banner">
                    <g id="Banner">
                        <g id="default-banner">
                            <mask id="mask-2" fill="white">
                                <use xlink:href="#path-1"></use>
                            </mask>
                            <use id="Mask" fill="#D8D8D8" xlink:href="#path-1"></use>
                            <g id="Group-+-Group-Copy-Mask" mask="url(#mask-2)">
                                <mask id="mask-4" fill="white">
                                    <use xlink:href="#path-3"></use>
                                </mask>
                                <use id="Mask" fill="#E8E8E8" fill-rule="nonzero" xlink:href="#path-3"></use>
                                <g id="Group" mask="url(#mask-4)">
                                    <g transform="translate(-133.000000, -304.000000)">
                                        <g id="feature-bg-2" transform="translate(0.000000, 278.000000)">
                                            <polygon id="Combined-Shape" fill="#DDDDDD" points="95.6444444 189.090909 64 125.818182 192 125.818182 160.355556 189.090909"></polygon>
                                            <path d="M150.518255,43.3397571 L192,126.545455 L150.518255,126.545455 L150.518255,43.3397571 Z M107.146762,126.545455 L64,126.545455 L107.146762,40 L107.146762,126.545455 Z" id="Combined-Shape" fill="#F1F1F1"></path>
                                            <path d="M224.355556,447.972863 L287.644444,447.972863 L272.355556,478.545455 L239.644444,478.545455 L224.355556,447.972863 Z M208,415.2673 L192,383.272727 L320,383.272727 L304,415.2673 L208,415.2673 Z" id="Combined-Shape" fill="#DDDDDD"></path>
                                            <path d="M298.559142,341.090909 L255.272727,254.545455 L298.559142,254.545455 L298.559142,341.090909 Z M340.079381,254.770862 L383.272727,254.770862 L340.079381,341.021152 L340.079381,254.770862 Z" id="Combined-Shape" fill="#DDDDDD"></path>
                                            <path d="M351.644444,189.845319 L288.355556,189.845319 L303.644444,159.272727 L336.355556,159.272727 L351.644444,189.845319 Z M368,222.550882 L384,254.545455 L256,254.545455 L272,222.550882 L368,222.550882 Z" id="Combined-Shape" fill="#F1F1F1"></path>
                                            <path d="M214.518255,171.339757 L256,254.545455 L214.518255,254.545455 L214.518255,171.339757 Z M171.146762,254.545455 L128,254.545455 L171.146762,168 L171.146762,254.545455 Z" id="Combined-Shape" fill="#F1F1F1"></path>
                                            <polygon id="Combined-Shape" fill="#F1F1F1" points="298.909091 341.090909 213.090909 341.090909 234.191039 298.909091 277.808961 298.909091"></polygon>
                                            <polygon id="Combined-Shape" fill="#DDDDDD" points="149.336476 552 128 509.090909 256 509.090909 234.663524 552"></polygon>
                                            <path d="M256.027137,126.545455 L225.454545,126.545455 L225.454545,61.1399387 L256.027137,0 L256.027137,126.545455 Z M288.7327,126.545455 L288.7327,62.5617978 L320.727273,126.545455 L288.7327,126.545455 Z" id="Combined-Shape" fill="#F1F1F1"></path>
                                            <path d="M235.022222,212.589899 L276.977778,212.589899 L256,254.545455 L235.022222,212.589899 Z M213.336476,169.218406 L192,126.545455 L320,126.545455 L298.663524,169.218406 L213.336476,169.218406 Z" id="Combined-Shape" fill="#DDDDDD"></path>
                                            <path d="M127.299864,383.272727 L96.7272727,383.272727 L96.7272727,317.147791 L127.299864,256 L127.299864,383.272727 Z M160.005427,383.272727 L160.005427,318.569832 L192,383.272727 L160.005427,383.272727 Z" id="Combined-Shape" fill="#F1F1F1"></path>
                                            <path d="M192.021873,509.090909 L161.454545,509.090909 L161.454545,443.685393 L192.021873,382.545455 L192.021873,509.090909 Z M224.010936,509.090909 L224.010936,445.107252 L256,509.090909 L224.010936,509.090909 Z" id="Combined-Shape" fill="#F1F1F1"></path>
                                            <path d="M160.355556,64.7001357 L223.644444,64.7001357 L208.355556,95.2727273 L175.644444,95.2727273 L160.355556,64.7001357 Z M144,31.9945726 L128,0 L256,0 L240,31.9945726 L144,31.9945726 Z" id="Combined-Shape" fill="#DDDDDD"></path>
                                            <path d="M161.082828,319.24559 L224.371717,319.24559 L209.082828,349.818182 L176.371717,349.818182 L161.082828,319.24559 Z M144.727273,286.540027 L128.727273,254.545455 L256.727273,254.545455 L240.727273,286.540027 L144.727273,286.540027 Z" id="Combined-Shape" fill="#DDDDDD"></path>
                                            <path d="M106.666667,467.151515 L148.622222,467.151515 L127.644444,509.090909 L106.666667,467.151515 Z M85.3364757,425.929241 L64,383.272727 L192,383.272727 L170.663524,425.929241 L85.3364757,425.929241 Z" id="Combined-Shape" fill="#DDDDDD"></path>
                                        </g>
                                        <g id="feature-bg-2" transform="translate(245.000000, 550.000000)">
                                            <polygon id="Combined-Shape" fill="#DDDDDD" points="95.6444444 189.090909 64 125.818182 192 125.818182 160.355556 189.090909"></polygon>
                                            <path d="M150.518255,43.3397571 L192,126.545455 L150.518255,126.545455 L150.518255,43.3397571 Z M107.146762,126.545455 L64,126.545455 L107.146762,40 L107.146762,126.545455 Z" id="Combined-Shape" fill="#F1F1F1"></path>
                                            <path d="M95.6444444,189.118046 L32.3555556,189.118046 L47.6444444,158.545455 L80.3555556,158.545455 L95.6444444,189.118046 Z M112,221.823609 L128,253.818182 L0,253.818182 L16,221.823609 L112,221.823609 Z" id="Combined-Shape" fill="#F1F1F1"></path>
                                            <path d="M351.644444,189.845319 L288.355556,189.845319 L303.644444,159.272727 L336.355556,159.272727 L351.644444,189.845319 Z M368,222.550882 L384,254.545455 L256,254.545455 L272,222.550882 L368,222.550882 Z" id="Combined-Shape" fill="#F1F1F1"></path>
                                            <path d="M214.518255,171.339757 L256,254.545455 L214.518255,254.545455 L214.518255,171.339757 Z M171.146762,254.545455 L128,254.545455 L171.146762,168 L171.146762,254.545455 Z" id="Combined-Shape" fill="#F1F1F1"></path>
                                            <path d="M256.027137,126.545455 L225.454545,126.545455 L225.454545,61.1399387 L256.027137,0 L256.027137,126.545455 Z M288.7327,126.545455 L288.7327,62.5617978 L320.727273,126.545455 L288.7327,126.545455 Z" id="Combined-Shape" fill="#F1F1F1"></path>
                                            <path d="M235.022222,212.589899 L276.977778,212.589899 L256,254.545455 L235.022222,212.589899 Z M213.336476,169.218406 L192,126.545455 L320,126.545455 L298.663524,169.218406 L213.336476,169.218406 Z" id="Combined-Shape" fill="#DDDDDD"></path>
                                            <polygon id="Combined-Shape" fill="#DDDDDD" points="150 43 234 43 213.707865 83.5773863 170.292135 83.5773863"></polygon>
                                        </g>
                                        <g id="feature-bg-2-copy" transform="translate(245.000000, 0.000000)">
                                            <path d="M224.355556,447.972863 L287.644444,447.972863 L272.355556,478.545455 L239.644444,478.545455 L224.355556,447.972863 Z M208,415.2673 L192,383.272727 L320,383.272727 L304,415.2673 L208,415.2673 Z" id="Combined-Shape" fill="#DDDDDD"></path>
                                            <path d="M298.559142,341.090909 L255.272727,254.545455 L298.559142,254.545455 L298.559142,341.090909 Z M340.079381,254.770862 L383.272727,254.770862 L340.079381,341.021152 L340.079381,254.770862 Z" id="Combined-Shape" fill="#DDDDDD"></path>
                                            <polygon id="Combined-Shape" fill="#F1F1F1" points="298.909091 341.090909 213.090909 341.090909 234.191039 298.909091 277.808961 298.909091"></polygon>
                                            <path d="M43.0222222,341.311904 L84.9777778,341.311904 L64,383.272727 L43.0222222,341.311904 Z M21.3364757,297.223764 L0,254.545455 L128,254.545455 L106.663524,297.223764 L21.3364757,297.223764 Z" id="Combined-Shape" fill="#DDDDDD"></path>
                                            <polygon id="Combined-Shape" fill="#DDDDDD" points="149.336476 552 128 509.090909 256 509.090909 234.663524 552"></polygon>
                                            <path d="M127.299864,383.272727 L96.7272727,383.272727 L96.7272727,317.147791 L127.299864,256 L127.299864,383.272727 Z M160.005427,383.272727 L160.005427,318.569832 L192,383.272727 L160.005427,383.272727 Z" id="Combined-Shape" fill="#F1F1F1"></path>
                                            <path d="M192.021873,509.090909 L161.454545,509.090909 L161.454545,443.685393 L192.021873,382.545455 L192.021873,509.090909 Z M224.010936,509.090909 L224.010936,445.107252 L256,509.090909 L224.010936,509.090909 Z" id="Combined-Shape" fill="#F1F1F1"></path>
                                            <path d="M161.082828,319.24559 L224.371717,319.24559 L209.082828,349.818182 L176.371717,349.818182 L161.082828,319.24559 Z M144.727273,286.540027 L128.727273,254.545455 L256.727273,254.545455 L240.727273,286.540027 L144.727273,286.540027 Z" id="Combined-Shape" fill="#DDDDDD"></path>
                                            <path d="M106.666667,467.151515 L148.622222,467.151515 L127.644444,509.090909 L106.666667,467.151515 Z M85.3364757,425.929241 L64,383.272727 L192,383.272727 L170.663524,425.929241 L85.3364757,425.929241 Z" id="Combined-Shape" fill="#DDDDDD"></path>
                                        </g>
                                    </g>
                                </g>
                                <g id="Group-Copy" mask="url(#mask-4)">
                                    <g transform="translate(357.000000, -304.000000)">
                                        <g id="feature-bg-2" transform="translate(0.000000, 278.000000)">
                                            <polygon id="Combined-Shape" fill="#DDDDDD" points="95.6444444 189.090909 64 125.818182 192 125.818182 160.355556 189.090909"></polygon>
                                            <path d="M150.518255,43.3397571 L192,126.545455 L150.518255,126.545455 L150.518255,43.3397571 Z M107.146762,126.545455 L64,126.545455 L107.146762,40 L107.146762,126.545455 Z" id="Combined-Shape" fill="#F1F1F1"></path>
                                            <path d="M224.355556,447.972863 L287.644444,447.972863 L272.355556,478.545455 L239.644444,478.545455 L224.355556,447.972863 Z M208,415.2673 L192,383.272727 L320,383.272727 L304,415.2673 L208,415.2673 Z" id="Combined-Shape" fill="#DDDDDD"></path>
                                            <path d="M298.559142,341.090909 L255.272727,254.545455 L298.559142,254.545455 L298.559142,341.090909 Z M340.079381,254.770862 L383.272727,254.770862 L340.079381,341.021152 L340.079381,254.770862 Z" id="Combined-Shape" fill="#DDDDDD"></path>
                                            <path d="M95.6444444,189.118046 L32.3555556,189.118046 L47.6444444,158.545455 L80.3555556,158.545455 L95.6444444,189.118046 Z M112,221.823609 L128,253.818182 L0,253.818182 L16,221.823609 L112,221.823609 Z" id="Combined-Shape" fill="#F1F1F1"></path>
                                            <path d="M351.644444,189.845319 L288.355556,189.845319 L303.644444,159.272727 L336.355556,159.272727 L351.644444,189.845319 Z M368,222.550882 L384,254.545455 L256,254.545455 L272,222.550882 L368,222.550882 Z" id="Combined-Shape" fill="#F1F1F1"></path>
                                            <path d="M214.518255,171.339757 L256,254.545455 L214.518255,254.545455 L214.518255,171.339757 Z M171.146762,254.545455 L128,254.545455 L171.146762,168 L171.146762,254.545455 Z" id="Combined-Shape" fill="#F1F1F1"></path>
                                            <polygon id="Combined-Shape" fill="#F1F1F1" points="298.909091 341.090909 213.090909 341.090909 234.191039 298.909091 277.808961 298.909091"></polygon>
                                            <path d="M43,334.545455 L84.9555556,334.545455 L63.9777778,376.506278 L43,334.545455 Z M21.3364757,297.223764 L0,254.545455 L128,254.545455 L106.663524,297.223764 L21.3364757,297.223764 Z" id="Combined-Shape" fill="#DDDDDD"></path>
                                            <polygon id="Combined-Shape" fill="#DDDDDD" points="149.336476 552 128 509.090909 256 509.090909 234.663524 552"></polygon>
                                            <path d="M256.027137,126.545455 L225.454545,126.545455 L225.454545,61.1399387 L256.027137,0 L256.027137,126.545455 Z M288.7327,126.545455 L288.7327,62.5617978 L320.727273,126.545455 L288.7327,126.545455 Z" id="Combined-Shape" fill="#F1F1F1"></path>
                                            <path d="M235.022222,212.589899 L276.977778,212.589899 L256,254.545455 L235.022222,212.589899 Z M213.336476,169.218406 L192,126.545455 L320,126.545455 L298.663524,169.218406 L213.336476,169.218406 Z" id="Combined-Shape" fill="#DDDDDD"></path>
                                            <path d="M127.299864,383.272727 L96.7272727,383.272727 L96.7272727,317.147791 L127.299864,256 L127.299864,383.272727 Z M160.005427,383.272727 L160.005427,318.569832 L192,383.272727 L160.005427,383.272727 Z" id="Combined-Shape" fill="#F1F1F1"></path>
                                            <path d="M192.021873,509.090909 L161.454545,509.090909 L161.454545,443.685393 L192.021873,382.545455 L192.021873,509.090909 Z M224.010936,509.090909 L224.010936,445.107252 L256,509.090909 L224.010936,509.090909 Z" id="Combined-Shape" fill="#F1F1F1"></path>
                                            <path d="M160.355556,64.7001357 L223.644444,64.7001357 L208.355556,95.2727273 L175.644444,95.2727273 L160.355556,64.7001357 Z M144,31.9945726 L128,0 L256,0 L240,31.9945726 L144,31.9945726 Z" id="Combined-Shape" fill="#DDDDDD"></path>
                                            <path d="M161.082828,319.24559 L224.371717,319.24559 L209.082828,349.818182 L176.371717,349.818182 L161.082828,319.24559 Z M144.727273,286.540027 L128.727273,254.545455 L256.727273,254.545455 L240.727273,286.540027 L144.727273,286.540027 Z" id="Combined-Shape" fill="#DDDDDD"></path>
                                            <path d="M109.333333,466.496212 L150.961111,466.496212 L130.147222,508.107955 L109.333333,466.496212 Z M88.1697845,425.595987 L67,383.272727 L194,383.272727 L172.830215,425.595987 L88.1697845,425.595987 Z" id="Combined-Shape" fill="#DDDDDD"></path>
                                        </g>
                                        <g id="feature-bg-2" transform="translate(247.000000, 550.000000)">
                                            <polygon id="Combined-Shape" fill="#DDDDDD" points="95.6444444 189.090909 64 125.818182 192 125.818182 160.355556 189.090909"></polygon>
                                            <path d="M150.518255,43.3397571 L192,126.545455 L150.518255,126.545455 L150.518255,43.3397571 Z M107.146762,126.545455 L64,126.545455 L107.146762,40 L107.146762,126.545455 Z" id="Combined-Shape" fill="#F1F1F1"></path>
                                            <path d="M95.6444444,189.118046 L32.3555556,189.118046 L47.6444444,158.545455 L80.3555556,158.545455 L95.6444444,189.118046 Z M112,221.823609 L128,253.818182 L0,253.818182 L16,221.823609 L112,221.823609 Z" id="Combined-Shape" fill="#F1F1F1"></path>
                                            <path d="M351.644444,189.845319 L288.355556,189.845319 L303.644444,159.272727 L336.355556,159.272727 L351.644444,189.845319 Z M368,222.550882 L384,254.545455 L256,254.545455 L272,222.550882 L368,222.550882 Z" id="Combined-Shape" fill="#F1F1F1"></path>
                                            <path d="M214.518255,171.339757 L256,254.545455 L214.518255,254.545455 L214.518255,171.339757 Z M171.146762,254.545455 L128,254.545455 L171.146762,168 L171.146762,254.545455 Z" id="Combined-Shape" fill="#F1F1F1"></path>
                                            <path d="M256.027137,126.545455 L225.454545,126.545455 L225.454545,61.1399387 L256.027137,0 L256.027137,126.545455 Z M288.7327,126.545455 L288.7327,62.5617978 L320.727273,126.545455 L288.7327,126.545455 Z" id="Combined-Shape" fill="#F1F1F1"></path>
                                            <path d="M235.022222,212.589899 L276.977778,212.589899 L256,254.545455 L235.022222,212.589899 Z M213.336476,169.218406 L192,126.545455 L320,126.545455 L298.663524,169.218406 L213.336476,169.218406 Z" id="Combined-Shape" fill="#DDDDDD"></path>
                                            <polygon id="Combined-Shape" fill="#DDDDDD" points="150 43 234 43 213.707865 83.5773863 170.292135 83.5773863"></polygon>
                                        </g>
                                        <g id="feature-bg-2-copy" transform="translate(247.000000, 0.000000)">
                                            <path d="M224.355556,447.972863 L287.644444,447.972863 L272.355556,478.545455 L239.644444,478.545455 L224.355556,447.972863 Z M208,415.2673 L192,383.272727 L320,383.272727 L304,415.2673 L208,415.2673 Z" id="Combined-Shape" fill="#DDDDDD"></path>
                                            <path d="M298.559142,341.090909 L255.272727,254.545455 L298.559142,254.545455 L298.559142,341.090909 Z M340.079381,254.770862 L383.272727,254.770862 L340.079381,341.021152 L340.079381,254.770862 Z" id="Combined-Shape" fill="#DDDDDD"></path>
                                            <polygon id="Combined-Shape" fill="#F1F1F1" points="298.909091 341.090909 213.090909 341.090909 234.191039 298.909091 277.808961 298.909091"></polygon>
                                            <path d="M43.0222222,341.311904 L84.9777778,341.311904 L64,383.272727 L43.0222222,341.311904 Z M21.3364757,297.223764 L0,254.545455 L128,254.545455 L106.663524,297.223764 L21.3364757,297.223764 Z" id="Combined-Shape" fill="#DDDDDD"></path>
                                            <polygon id="Combined-Shape" fill="#DDDDDD" points="149.336476 552 128 509.090909 256 509.090909 234.663524 552"></polygon>
                                            <path d="M127.299864,383.272727 L96.7272727,383.272727 L96.7272727,317.147791 L127.299864,256 L127.299864,383.272727 Z M160.005427,383.272727 L160.005427,318.569832 L192,383.272727 L160.005427,383.272727 Z" id="Combined-Shape" fill="#F1F1F1"></path>
                                            <path d="M192.021873,509.090909 L161.454545,509.090909 L161.454545,443.685393 L192.021873,382.545455 L192.021873,509.090909 Z M224.010936,509.090909 L224.010936,445.107252 L256,509.090909 L224.010936,509.090909 Z" id="Combined-Shape" fill="#F1F1F1"></path>
                                            <path d="M161.082828,319.24559 L224.371717,319.24559 L209.082828,349.818182 L176.371717,349.818182 L161.082828,319.24559 Z M144.727273,286.540027 L128.727273,254.545455 L256.727273,254.545455 L240.727273,286.540027 L144.727273,286.540027 Z" id="Combined-Shape" fill="#DDDDDD"></path>
                                            <path d="M106.666667,467.151515 L148.622222,467.151515 L127.644444,509.090909 L106.666667,467.151515 Z M85.3364757,425.929241 L64,383.272727 L192,383.272727 L170.663524,425.929241 L85.3364757,425.929241 Z" id="Combined-Shape" fill="#DDDDDD"></path>
                                        </g>
                                    </g>
                                </g>
                            </g>
                        </g>
                    </g>
                </g>
            </g>
        </g>
    </g>
</svg>