<?xml version="1.0" encoding="UTF-8"?>
<svg width="120px" height="120px" viewBox="0 0 120 120" version="1.1" xmlns="http://www.w3.org/2000/svg" xmlns:xlink="http://www.w3.org/1999/xlink">
    <!-- Generator: Sketch 51.1 (57501) - http://www.bohemiancoding.com/sketch -->
    <title>seller-logo-defautl</title>
    <desc>Created with Sketch.</desc>
    <defs></defs>
    <g id="Marketplace-Front" stroke="none" stroke-width="1" fill="none" fill-rule="evenodd">
        <g id="seller-profile-default" transform="translate(-290.000000, -186.000000)">
            <g id="seller-info" transform="translate(200.000000, 186.000000)">
                <g id="seller-logo-defautl" transform="translate(90.000000, 0.000000)">
                    <rect id="Mask" fill="#E8E8E8" fill-rule="nonzero" x="0" y="0" width="120" height="120"></rect>
                    <g id="Group-6" transform="translate(38.000000, 29.000000)">
                        <rect id="Rectangle" fill="#FFFFFF" x="0" y="17" width="45" height="45"></rect>
                        <rect id="Rectangle" fill="#D0D0D0" x="0" y="56" width="45" height="6"></rect>
                        <path d="M37,15.7651007 L37,26.4697987 C37,27.8671903 35.922167,29 34.5925926,29 C33.2630182,29 32.1851852,27.8671903 32.1851852,26.4697987 L32.1851852,15.7651007 C32.1851852,9.85305922 27.6251225,5.06040268 22,5.06040268 C16.3748775,5.06040268 11.8148148,9.85305922 11.8148148,15.7651007 L11.8148148,26.4697987 C11.8148148,27.8671903 10.7369818,29 9.40740741,29 C8.07783301,29 7,27.8671903 7,26.4697987 L7,15.7651007 C7,7.05827599 13.7157288,0 22,0 C30.2842712,0 37,7.05827599 37,15.7651007 Z" id="Combined-Shape" fill="#D0D0D0"></path>
                    </g>
                </g>
            </g>
        </g>
    </g>
</svg>