<?xml version="1.0" encoding="UTF-8"?>
<svg width="36px" height="36px" viewBox="0 0 36 36" version="1.1" xmlns="http://www.w3.org/2000/svg" xmlns:xlink="http://www.w3.org/1999/xlink">
    <!-- Generator: Sketch 51.1 (57501) - http://www.bohemiancoding.com/sketch -->
    <title>facebook</title>
    <desc>Created with Sketch.</desc>
    <defs></defs>
    <g id="facebook" stroke="none" stroke-width="1" fill="none" fill-rule="evenodd">
        <path d="M15.8904061,28.25 L15.8904061,20.1992188 L13.1833749,20.1992188 L13.1833749,17 L15.8904061,17 L15.8904061,14.46875 C15.8904061,13.1328058 16.2654024,12.0957068 17.0154061,11.3574219 C17.7654099,10.6191369 18.7614937,10.25 20.0036874,10.25 C21.0115049,10.25 21.8318092,10.2968745 22.4646249,10.390625 L22.4646249,13.2382812 L20.7771249,13.2382812 C20.1443092,13.2382812 19.7107198,13.3789048 19.4763436,13.6601562 C19.2888427,13.8945324 19.1950936,14.2695287 19.1950936,14.7851562 L19.1950936,17 L22.1833749,17 L21.7614999,20.1992188 L19.1950936,20.1992188 L19.1950936,28.25 L15.8904061,28.25 Z" id="" fill="#5B5B5B"></path>
    </g>
</svg>