<?xml version="1.0" encoding="UTF-8"?>
<svg width="36px" height="36px" viewBox="0 0 36 36" version="1.1" xmlns="http://www.w3.org/2000/svg" xmlns:xlink="http://www.w3.org/1999/xlink">
    <!-- Generator: Sketch 51.1 (57501) - http://www.bohemiancoding.com/sketch -->
    <title>google+</title>
    <desc>Created with Sketch.</desc>
    <defs></defs>
    <g id="google+" stroke="none" stroke-width="1" fill="none" fill-rule="evenodd">
        <path d="M20.1132812,16.765625 C20.1835941,17.1640645 20.21875,17.5390607 20.21875,17.890625 C20.21875,19.1796939 19.9492214,20.3222606 19.4101563,21.3183594 C18.8710911,22.3144581 18.1093799,23.0937472 17.125,23.65625 C16.1406201,24.2187528 15.0156313,24.5 13.75,24.5 C12.5312439,24.5 11.4003958,24.1953155 10.3574219,23.5859375 C9.31444791,22.9765595 8.49414361,22.1562552 7.89648438,21.125 C7.29882514,20.0937448 7,18.9687561 7,17.75 C7,16.5312439 7.29882514,15.4062552 7.89648438,14.375 C8.49414361,13.3437448 9.31444791,12.5234405 10.3574219,11.9140625 C11.4003958,11.3046845 12.5312439,11 13.75,11 C15.5078213,11 17.0078063,11.5859316 18.25,12.7578125 L16.421875,14.515625 C15.7187465,13.8359341 14.8281304,13.4960938 13.75,13.4960938 C12.9999962,13.4960938 12.3027376,13.6835919 11.6582031,14.0585938 C11.0136687,14.4335956 10.5039081,14.9492155 10.1289062,15.6054688 C9.75390437,16.261722 9.56640625,16.9765586 9.56640625,17.75 C9.56640625,18.5234414 9.75390437,19.238278 10.1289062,19.8945312 C10.5039081,20.5507845 11.0136687,21.0664044 11.6582031,21.4414062 C12.3027376,21.8164081 12.9999962,22.0039062 13.75,22.0039062 C14.5703166,22.0039062 15.2851532,21.8281268 15.8945313,21.4765625 C16.3867212,21.1953111 16.7851547,20.7968776 17.0898438,20.28125 C17.3476575,19.8828105 17.5117184,19.4960956 17.5820312,19.1210938 L13.75,19.1210938 L13.75,16.765625 L20.1132812,16.765625 Z M28.5859375,17.0117188 L28.5859375,18.9804688 L26.6171875,18.9804688 L26.6171875,20.9492188 L24.6484375,20.9492188 L24.6484375,18.9804688 L22.7148437,18.9804688 L22.7148437,17.0117188 L24.6484375,17.0117188 L24.6484375,15.0429688 L26.6171875,15.0429688 L26.6171875,17.0117188 L28.5859375,17.0117188 Z" id="" fill="#5B5B5B"></path>
    </g>
</svg>