<?xml version="1.0" encoding="UTF-8"?>
<svg width="36px" height="36px" viewBox="0 0 36 36" version="1.1" xmlns="http://www.w3.org/2000/svg" xmlns:xlink="http://www.w3.org/1999/xlink">
    <!-- Generator: Sketch 51.1 (57501) - http://www.bohemiancoding.com/sketch -->
    <title>linked-in</title>
    <desc>Created with Sketch.</desc>
    <defs></defs>
    <g id="linked-in" stroke="none" stroke-width="1" fill="none" fill-rule="evenodd">
        <path d="M13.515625,25.75 L10.2460938,25.75 L10.2460938,15.2382812 L13.515625,15.2382812 L13.515625,25.75 Z M11.8984375,13.796875 C11.3828099,13.796875 10.9375019,13.6093769 10.5625,13.234375 C10.1874981,12.8593731 10,12.4140651 10,11.8984375 C10,11.3828099 10.1874981,10.9375019 10.5625,10.5625 C10.9375019,10.1874981 11.3828099,10 11.8984375,10 C12.4140651,10 12.8593731,10.1874981 13.234375,10.5625 C13.6093769,10.9375019 13.796875,11.3828099 13.796875,11.8984375 C13.796875,12.4140651 13.6093769,12.8593731 13.234375,13.234375 C12.8593731,13.6093769 12.4140651,13.796875 11.8984375,13.796875 Z M25.75,25.75 L22.4804688,25.75 L22.4804688,20.6171875 C22.4804688,19.7734333 22.410157,19.1640644 22.2695312,18.7890625 C22.0117175,18.1562468 21.5078162,17.8398438 20.7578125,17.8398438 C20.0078087,17.8398438 19.4804703,18.1210909 19.1757812,18.6835938 C18.9414051,19.1054709 18.8242188,19.7265584 18.8242188,20.546875 L18.8242188,25.75 L15.5898438,25.75 L15.5898438,15.2382812 L18.71875,15.2382812 L18.71875,16.6796875 L18.7539062,16.6796875 C18.9882824,16.2109352 19.3632787,15.8242203 19.8789062,15.5195312 C20.4414091,15.1445294 21.0976525,14.9570312 21.8476562,14.9570312 C23.3711014,14.9570312 24.437497,15.4374952 25.046875,16.3984375 C25.5156273,17.1718789 25.75,18.3671794 25.75,19.984375 L25.75,25.75 Z" id="" fill="#5B5B5B"></path>
    </g>
</svg>