<?xml version="1.0" encoding="UTF-8"?>
<svg width="36px" height="36px" viewBox="0 0 36 36" version="1.1" xmlns="http://www.w3.org/2000/svg" xmlns:xlink="http://www.w3.org/1999/xlink">
    <!-- Generator: Sketch 51.1 (57501) - http://www.bohemiancoding.com/sketch -->
    <title>youtube</title>
    <desc>Created with Sketch.</desc>
    <defs></defs>
    <g id="youtube" stroke="none" stroke-width="1" fill="none" fill-rule="evenodd" opacity="0.900000036">
        <path d="M26.8085938,13.109375 C26.9726571,13.7421907 27.0898434,14.7031186 27.1601562,15.9921875 L27.1953125,17.75 L27.1601562,19.5078125 C27.0898434,20.8203191 26.9726571,21.7929656 26.8085938,22.4257812 C26.6914057,22.8242207 26.4804703,23.1757797 26.1757812,23.4804688 C25.8710922,23.7851578 25.5078146,23.9960932 25.0859375,24.1132812 C24.4765595,24.2773446 23.0468863,24.3945309 20.796875,24.4648438 L17.5976562,24.5 L14.3984375,24.4648438 C12.1484262,24.3945309 10.718753,24.2773446 10.109375,24.1132812 C9.68749789,23.9960932 9.32422027,23.7851578 9.01953125,23.4804688 C8.71484223,23.1757797 8.50390684,22.8242207 8.38671875,22.4257812 C8.22265543,21.7929656 8.1054691,20.8203191 8.03515625,19.5078125 L8,17.75 C8,17.2343724 8.01171863,16.6484408 8.03515625,15.9921875 C8.1054691,14.7031186 8.22265543,13.7421907 8.38671875,13.109375 C8.50390684,12.6874979 8.71484223,12.3242203 9.01953125,12.0195312 C9.32422027,11.7148422 9.68749789,11.5039068 10.109375,11.3867188 C10.718753,11.2226554 12.1484262,11.1054691 14.3984375,11.0351562 L17.5976562,11 L20.796875,11.0351562 C23.0468863,11.1054691 24.4765595,11.2226554 25.0859375,11.3867188 C25.5078146,11.5039068 25.8710922,11.7148422 26.1757812,12.0195312 C26.4804703,12.3242203 26.6914057,12.6874979 26.8085938,13.109375 Z M15.6289062,20.6328125 L20.65625,17.75 L15.6289062,14.9023438 L15.6289062,20.6328125 Z" id="" fill="#5B5B5B"></path>
    </g>
</svg>