<svg width="15" height="16" viewBox="0 0 15 16" fill="none" xmlns="http://www.w3.org/2000/svg">
<path d="M4.95801 9H3.70801C3.45801 9 3.33301 8.875 3.33301 8.625V7.375C3.33301 7.125 3.45801 7 3.70801 7H4.95801C5.20801 7 5.33301 7.125 5.33301 7.375V8.625C5.33301 8.875 5.20801 9 4.95801 9ZM8.33301 8.625C8.33301 8.875 8.20801 9 7.95801 9H6.70801C6.45801 9 6.33301 8.875 6.33301 8.625V7.375C6.33301 7.125 6.45801 7 6.70801 7H7.95801C8.20801 7 8.33301 7.125 8.33301 7.375V8.625ZM11.333 8.625C11.333 8.875 11.208 9 10.958 9H9.70801C9.45801 9 9.33301 8.875 9.33301 8.625V7.375C9.33301 7.125 9.45801 7 9.70801 7H10.958C11.208 7 11.333 7.125 11.333 7.375V8.625ZM8.33301 11.625C8.33301 11.875 8.20801 12 7.95801 12H6.70801C6.45801 12 6.33301 11.875 6.33301 11.625V10.375C6.33301 10.125 6.45801 10 6.70801 10H7.95801C8.20801 10 8.33301 10.125 8.33301 10.375V11.625ZM5.33301 11.625C5.33301 11.875 5.20801 12 4.95801 12H3.70801C3.45801 12 3.33301 11.875 3.33301 11.625V10.375C3.33301 10.125 3.45801 10 3.70801 10H4.95801C5.20801 10 5.33301 10.125 5.33301 10.375V11.625ZM11.333 11.625C11.333 11.875 11.208 12 10.958 12H9.70801C9.45801 12 9.33301 11.875 9.33301 11.625V10.375C9.33301 10.125 9.45801 10 9.70801 10H10.958C11.208 10 11.333 10.125 11.333 10.375V11.625ZM14.333 3.5V14.5C14.333 14.9167 14.1872 15.2708 13.8955 15.5625C13.6038 15.8542 13.2497 16 12.833 16H1.83301C1.41634 16 1.06217 15.8542 0.770508 15.5625C0.478841 15.2708 0.333008 14.9167 0.333008 14.5V3.5C0.333008 3.08333 0.478841 2.72917 0.770508 2.4375C1.06217 2.14583 1.41634 2 1.83301 2H3.33301V0.375C3.33301 0.125 3.45801 0 3.70801 0H4.95801C5.20801 0 5.33301 0.125 5.33301 0.375V2H9.33301V0.375C9.33301 0.125 9.45801 0 9.70801 0H10.958C11.208 0 11.333 0.125 11.333 0.375V2H12.833C13.2497 2 13.6038 2.14583 13.8955 2.4375C14.1872 2.72917 14.333 3.08333 14.333 3.5ZM12.833 14.3125V5H1.83301V14.3125C1.83301 14.4375 1.89551 14.5 2.02051 14.5H12.6455C12.7705 14.5 12.833 14.4375 12.833 14.3125Z" fill="#111111"/>
</svg>
