<svg width="147" height="30" viewBox="0 0 147 30" fill="none" xmlns="http://www.w3.org/2000/svg">
<path d="M20.0513 25.8019H12.5675L11.8224 24.4985H19.8117H21.5973L16.8531 16.1919H11.5783H6.12238H1.41333L3.53317 19.9044H4.00164H9.45754H13.4873L14.1684 21.0056H8.82871H4.1629L8.89087 29.2858H9.53863H19.6405H24.3442L22.355 25.8019H20.0513Z" fill="white"/>
<path d="M14.9603 10.2688L16.0216 12.126L23.8262 25.7937H29.2821L14.9603 0.714355L6.86658 14.8876H12.3234L14.9603 10.2688Z" fill="white"/>
<path d="M0.63855 25.7938H5.40706L3.02326 21.6187L0.63855 25.7938Z" fill="white"/>
<path d="M60.7228 6.2915L56.9777 21.6233H51.6164L55.3606 6.2915H51.293L46.5443 25.7356H60.0408L64.7904 6.2915H60.7228Z" fill="white"/>
<path d="M75.8635 6.29141L74.2086 13.0533L73.577 15.6519L72.6509 13.0533L70.7752 6.24951H66.4445L64.7797 13.0533L61.6949 25.6936H63.4265H65.7635L68.541 14.3194L71.9311 25.6936H75.1924L78.2762 13.0533L79.9312 6.29141H75.8635Z" fill="white"/>
<path d="M83.9329 13.0533L84.6726 9.99753H94.0601L94.9709 6.24951H81.5149L79.8653 13.0533H79.85L78.6338 18.0492H88.0627L87.1897 21.6232H77.8022L76.7977 25.7355H90.2528L93.1348 13.9368H83.7059L83.9176 13.0533H83.9329Z" fill="#FFD913"/>
<path d="M112.15 6.20752H108.083L106.331 13.2782H106.353L106.184 13.9786H98.8304L99.0529 13.0532H99.0385L100.729 6.20752H96.661L94.9709 13.0532H94.9853L91.8807 25.7783H95.9483L97.8258 18.091H105.18L103.323 25.6935H107.391L110.475 13.0532H110.455L112.15 6.20752Z" fill="#FFD913"/>
<path d="M142.294 6.20752L140.688 12.78L140.572 13.2554L138.929 19.9818C138.694 20.9464 137.837 21.624 136.855 21.624H134.976L137.005 13.3957H132.938L130.908 21.624H127.356L129.4 13.2554L129.516 12.78L131.122 6.20752H127.054L125.449 12.78L125.332 13.2554L122.284 25.7364H137.785C140.021 25.7364 141.969 24.1943 142.505 22.0002L144.641 13.2563L144.757 12.7809L146.362 6.20843H142.294V6.20752Z" fill="#FFD913"/>
<path d="M117.728 14.2691C118.949 14.2691 119.939 13.2684 119.939 12.034C119.939 10.7995 118.949 9.79883 117.728 9.79883C116.507 9.79883 115.517 10.7995 115.517 12.034C115.517 13.2684 116.507 14.2691 117.728 14.2691Z" fill="#FFD913"/>
<path d="M127.4 11.0776H125.747C125.314 7.33962 122.372 4.3658 118.675 3.9277V2.25635H116.783V3.9277C113.086 4.3658 110.144 7.33962 109.711 11.0776H108.058V12.9903H109.711C110.144 16.7283 113.086 19.7021 116.783 20.1403V21.8116H118.675V20.1403C122.372 19.7021 125.314 16.7283 125.747 12.9903H127.4V11.0776ZM118.674 18.2111V16.6691H116.782V18.2111C114.129 17.7976 112.027 15.6727 111.618 12.9903H113.143V11.0776H111.618C112.027 8.39526 114.129 6.27032 116.782 5.85681V7.39973H118.674V5.85681C121.327 6.27032 123.429 8.39526 123.838 11.0776H122.313V12.9903H123.838C123.429 15.6727 121.327 17.7976 118.674 18.2111Z" fill="white"/>
<path d="M49.5976 6.29297H39.8227C37.7957 6.29297 35.7299 7.96796 35.2299 10.0164L32.2812 22.0893C31.7875 24.1104 32.9983 25.7353 34.9975 25.7353H44.8877L47.7408 13.9575H40.7921L39.8912 17.67H42.7687L41.8174 21.6084H37.7344C37.047 21.6084 36.5434 20.9544 36.7128 20.2804L39.0146 11.1066C39.175 10.4663 39.7453 10.0182 40.3984 10.0182H48.6949L49.5976 6.29297Z" fill="white"/>
</svg>
