<svg width="124" height="25" viewBox="0 0 124 25" fill="none" xmlns="http://www.w3.org/2000/svg">
<g clip-path="url(#clip0)">
<path d="M16.7043 21.4434H10.3621L9.7307 20.3432H16.5013H18.0145L13.994 13.3311H9.52379H4.90014H0.909424L2.7059 16.465H3.10291H7.72656H11.1416L11.7188 17.3945H7.19365H3.23957L7.24633 24.3844H7.79527H16.3562H20.3423L18.6566 21.4434H16.7043Z" fill="white"/>
<path d="M12.3901 8.33109L13.2895 9.89882L19.9036 21.4365H24.5272L12.3901 0.265625L5.53101 12.23H10.1554L12.3901 8.33109Z" fill="white"/>
<path d="M0.25293 21.4366H4.29404L2.27387 17.9121L0.25293 21.4366Z" fill="white"/>
<path d="M51.1717 4.97363L47.9979 17.916H43.4544L46.6274 4.97363H43.1803L39.156 21.3875H50.5937L54.6188 4.97363H51.1717Z" fill="white"/>
<path d="M64.0029 4.97384L62.6004 10.682L62.0652 12.8755L61.2803 10.682L59.6907 4.93848H56.0207L54.6098 10.682L51.9956 21.3524H53.463H55.4435L57.7973 11.7507L60.6703 21.3524H63.4341L66.0475 10.682L67.45 4.97384H64.0029Z" fill="white"/>
<path d="M70.8415 10.681L71.4683 8.10141H79.4238L80.1956 4.9375H68.7923L67.3943 10.681H67.3814L66.3507 14.8982H74.3413L73.6014 17.9153H65.646L64.7947 21.3867H76.1973L78.6397 11.4268H70.6491L70.8285 10.681H70.8415Z" fill="#CED4DA"/>
<path d="M94.7545 4.90234H91.3074L89.8232 10.8711H89.8415L89.6987 11.4624H83.4664L83.655 10.6812H83.6428L85.0751 4.90234H81.6279L80.1956 10.6812H80.2079L77.5769 21.4231H81.024L82.6151 14.9338H88.8474L87.2739 21.3516H90.721L93.3344 10.6812H93.3176L94.7545 4.90234Z" fill="#CED4DA"/>
<path d="M120.3 4.90234L118.939 10.4505L118.841 10.8519L117.448 16.53C117.249 17.3442 116.523 17.9163 115.691 17.9163H114.098L115.818 10.9703H112.371L110.651 17.9163H107.64L109.373 10.8519L109.471 10.4505L110.832 4.90234H107.385L106.024 10.4505L105.926 10.8519L103.342 21.3877H116.479C118.373 21.3877 120.024 20.086 120.478 18.2338L122.289 10.8526L122.387 10.4513L123.748 4.90311H120.3V4.90234Z" fill="#CED4DA"/>
<path d="M99.481 11.7082C100.516 11.7082 101.355 10.8634 101.355 9.82138C101.355 8.77932 100.516 7.93457 99.481 7.93457C98.4463 7.93457 97.6074 8.77932 97.6074 9.82138C97.6074 10.8634 98.4463 11.7082 99.481 11.7082Z" fill="#CED4DA"/>
<path d="M107.678 9.01391H106.277C105.91 5.85846 103.417 3.34809 100.284 2.97826V1.56738H98.6802V2.97826C95.5469 3.34809 93.0541 5.85846 92.6869 9.01391H91.2859V10.6285H92.6869C93.0541 13.784 95.5469 16.2944 98.6802 16.6642V18.0751H100.284V16.6642C103.417 16.2944 105.91 13.784 106.277 10.6285H107.678V9.01391ZM100.283 15.0357V13.734H98.6795V15.0357C96.431 14.6867 94.6498 12.8929 94.3032 10.6285H95.5957V9.01391H94.3032C94.6498 6.74958 96.431 4.9558 98.6795 4.60673V5.9092H100.283V4.60673C102.531 4.9558 104.312 6.74958 104.659 9.01391H103.366V10.6285H104.659C104.312 12.8929 102.531 14.6867 100.283 15.0357Z" fill="white"/>
<path d="M41.7436 4.97461H33.4598C31.742 4.97461 29.9913 6.38856 29.5676 8.11776L27.0687 18.3092C26.6503 20.0153 27.6765 21.3869 29.3706 21.3869H37.7521L40.1701 11.4447H34.2814L33.5179 14.5786H35.9564L35.1502 17.9032H31.6901C31.1076 17.9032 30.6808 17.3511 30.8243 16.7822L32.775 9.0381C32.9109 8.49758 33.3942 8.1193 33.9477 8.1193H40.9786L41.7436 4.97461Z" fill="white"/>
</g>
<defs>
<clipPath id="clip0">
<rect width="123.494" height="24.1187" fill="white" transform="translate(0.25293 0.265625)"/>
</clipPath>
</defs>
</svg>
