<svg width="69" height="77" viewBox="0 0 69 77" fill="none" xmlns="http://www.w3.org/2000/svg">
<circle cx="33.2035" cy="32.5" r="31" stroke="#FFD913" stroke-width="3"/>
<path d="M36.9654 36.541C36.9654 35.9031 36.8728 35.3259 36.6259 34.7792C36.0396 33.4123 34.9287 32.6529 33.54 32.2884C30.3924 31.4986 27.2756 33.5338 26.8127 36.7232C26.751 37.2092 26.7819 37.7256 26.751 38.2116C26.751 38.242 26.751 38.2724 26.751 38.3331C26.6585 38.3331 26.5967 38.3331 26.5042 38.3331C25.0538 38.3331 23.5725 38.3331 22.1222 38.3331C21.937 38.3331 21.8444 38.2724 21.7827 38.1205C20.1472 34.9614 19.0363 31.6201 18.4499 28.1269C18.1722 26.6081 18.0179 25.0893 17.9871 23.5402C17.9871 22.8111 17.9871 22.0821 17.9871 21.3531C17.9871 21.1709 18.0488 21.0797 18.2648 21.0494C23.7268 19.6521 28.5717 17.1005 32.8303 13.4858C32.9846 13.3643 33.1389 13.2124 33.324 13.0605C33.324 13.1517 33.324 13.2124 33.324 13.2732C33.324 14.3971 33.324 15.4906 33.324 16.6145C33.324 16.736 33.2931 16.8271 33.1697 16.9183C31.8736 17.951 30.485 18.8623 29.0655 19.7128C29.0037 19.7432 28.942 19.7736 28.8803 19.8343C28.942 19.8647 28.9729 19.8951 29.0037 19.8951C30.701 20.4722 32.3365 21.1709 33.7869 22.2036C34.3424 22.5985 34.8361 23.0542 35.2373 23.6009C35.8236 24.4818 35.8545 25.3627 35.2373 26.274C35.2064 26.3044 35.2064 26.3347 35.1756 26.3651C35.1756 26.3651 35.1756 26.3651 35.1756 26.3955C35.5459 26.5474 35.9162 26.6992 36.2556 26.8815C37.3048 27.3979 38.3232 27.975 39.1564 28.8255C39.9587 29.6457 40.4216 30.6177 40.3599 31.772C40.2982 32.501 40.0513 33.1693 39.681 33.7768C39.0021 34.8703 38.1072 35.7512 37.0888 36.541C37.0271 36.5106 36.9962 36.5106 36.9654 36.541ZM24.2206 26.2436C24.2206 26.274 24.2206 26.274 24.1897 26.3044C24.9921 26.9119 25.8253 27.489 26.6276 28.0965C26.319 29.0382 26.0104 29.9798 25.671 30.9215C25.7635 30.8911 25.8253 30.8607 25.8561 30.8303C26.5659 30.3139 27.2448 29.8279 27.9545 29.3115C28.078 29.2204 28.1397 29.2204 28.2631 29.3115C28.9729 29.8279 29.6826 30.3443 30.3615 30.8303C30.4233 30.8607 30.485 30.8911 30.5776 30.9822C30.269 30.0406 29.9912 29.1597 29.6826 28.2788C29.6209 28.1269 29.6518 28.0358 29.7752 27.9446C30.485 27.4283 31.1947 26.9119 31.9045 26.3955C31.9354 26.3651 31.9971 26.3347 32.0896 26.2436C31.9662 26.2436 31.8736 26.2436 31.8119 26.2436C31.0096 26.2436 30.2072 26.2436 29.4049 26.2436C28.9729 26.2436 29.0655 26.3044 28.942 25.9095C28.9112 25.788 28.8494 25.6361 28.8186 25.5146C28.6026 24.8463 28.3866 24.1477 28.1397 23.4187C28.078 23.5705 28.0471 23.6313 28.0471 23.7224C27.8002 24.5122 27.5225 25.302 27.2756 26.0917C27.2448 26.2132 27.1831 26.274 27.0288 26.274C26.4733 26.274 25.887 26.274 25.3315 26.274C24.9612 26.2436 24.5909 26.2436 24.2206 26.2436Z" fill="black"/>
<path d="M42.7052 38.3333C42.9521 37.8777 43.1681 37.4828 43.3841 37.0879C44.7111 34.5667 45.6677 31.9241 46.3157 29.1902C46.7169 27.4285 46.9946 25.6059 47.0564 23.7834C47.0564 23.2974 47.0872 23.2974 46.6552 23.1759C42.3349 21.809 38.4158 19.713 34.8362 16.9792C34.6202 16.797 34.5276 16.6451 34.5276 16.3717C34.5584 15.3389 34.5276 14.3062 34.5276 13.2734C34.5276 13.2126 34.5276 13.1215 34.5276 13C34.651 13.0911 34.7127 13.1519 34.7745 13.243C36.7186 14.9744 38.8479 16.4325 41.1314 17.6779C43.8162 19.1663 46.6243 20.2902 49.6177 21.0496C49.772 21.0799 49.8337 21.1711 49.8337 21.3229C49.9263 23.1151 49.8337 24.9073 49.5868 26.6691C49.0931 30.6483 47.9204 34.4149 46.0997 38.0296C45.9763 38.303 45.822 38.3941 45.5134 38.3941C44.6494 38.3637 43.7544 38.3941 42.8904 38.3941C42.8904 38.3333 42.7978 38.3333 42.7052 38.3333Z" fill="black"/>
<path d="M29.6518 39.1533C29.4049 39.5482 29.158 39.9127 28.9729 40.2772C28.7877 40.6721 28.51 40.7936 28.078 40.7936C27.1213 40.7632 26.1647 40.7936 25.2081 40.7936C25.1464 40.7936 25.0538 40.7936 24.9921 40.7936C24.6835 40.824 24.56 40.9759 24.5909 41.31C24.6218 41.553 24.7761 41.6745 25.0538 41.6745C25.9796 41.6745 26.9053 41.6745 27.8311 41.6745C28.1088 41.6745 28.4174 41.7049 28.6952 41.796C29.3432 41.9479 29.7135 42.4035 29.7752 43.0718C29.8061 43.4059 29.8061 43.7704 29.7135 44.1046C29.5592 44.8943 28.942 45.4107 28.078 45.4715C27.6768 45.5018 27.2756 45.5018 26.8745 45.5018C25.6092 45.5018 24.3749 45.5018 23.1097 45.5018C23.0479 45.5018 22.9554 45.5018 22.8628 45.5018C23.2022 44.9551 23.5108 44.4387 23.8503 43.9527C23.8811 43.8919 24.0046 43.8919 24.0663 43.8919C25.2698 43.8919 26.4424 43.8919 27.6459 43.8919C27.7385 43.8919 27.8002 43.8919 27.8928 43.8919C28.2014 43.8312 28.3248 43.6793 28.294 43.4059C28.2631 43.1325 28.1088 42.9807 27.8002 42.9807C26.8745 42.9807 25.9796 42.9807 25.0538 42.9807C24.8378 42.9807 24.6218 42.9807 24.4057 42.9199C23.5726 42.768 23.0788 42.1909 23.0788 41.3404C23.0788 41.0974 23.0788 40.8544 23.1405 40.6114C23.2948 39.852 23.8194 39.366 24.6218 39.2748C24.8069 39.2444 25.0229 39.2444 25.2389 39.2444C26.6585 39.2444 28.0471 39.2444 29.4666 39.2444C29.4666 39.1533 29.5283 39.1533 29.6518 39.1533Z" fill="black"/>
<path d="M52.7035 45.4713C52.2097 45.4713 51.7777 45.4409 51.3148 45.4713C50.8828 45.5017 50.6668 45.3802 50.5125 44.9853C50.4199 44.7423 50.2656 44.4993 50.1422 44.2563C50.0805 44.1044 49.9879 44.074 49.8336 44.074C49.1238 44.074 48.4141 44.074 47.7043 44.074C47.6426 44.074 47.55 44.074 47.4574 44.074C47.6117 43.831 47.7352 43.588 47.8586 43.3754C48.0129 43.102 48.1981 42.8286 48.3523 42.5553C48.4141 42.4338 48.5066 42.4034 48.6301 42.4034C48.7844 42.4034 48.9387 42.4034 49.1547 42.4034C48.9387 42.0085 48.7227 41.644 48.5066 41.2187C48.3215 41.5225 48.1672 41.8262 47.982 42.0996C47.3649 43.1628 46.7785 44.1955 46.1614 45.2587C46.1305 45.3194 46.0071 45.4106 45.9453 45.4106C45.3282 45.4106 44.7418 45.4106 44.1247 45.4106C44.0938 45.4106 44.0629 45.4106 44.0012 45.4106C44.2481 44.9853 44.495 44.5904 44.7418 44.1652C45.6368 42.6768 46.5625 41.1883 47.4883 39.6999C47.5809 39.5481 47.7043 39.3962 47.8277 39.2747C48.1981 38.8798 48.8152 38.8798 49.1855 39.2747C49.309 39.3962 49.4324 39.5481 49.525 39.6999C50.5742 41.5529 51.5925 43.4058 52.6418 45.2891C52.6418 45.3498 52.6726 45.3802 52.7035 45.4713Z" fill="black"/>
<path d="M15.7035 39.1836C16.2281 39.1836 16.7219 39.1836 17.2465 39.1836C17.2465 39.2747 17.2465 39.3355 17.2465 39.4266C17.2465 40.4897 17.2465 41.5529 17.2465 42.616C17.2465 42.6768 17.2465 42.7072 17.2465 42.7679C17.2773 43.4666 17.4933 43.7703 18.2031 43.8918C18.7894 43.983 19.3757 44.0133 19.9621 43.8918C20.4558 43.8007 20.7027 43.5273 20.7644 43.0413C20.7953 42.8894 20.7953 42.7679 20.7953 42.616C20.7953 41.5529 20.7953 40.5201 20.7953 39.457C20.7953 39.3658 20.7953 39.3051 20.7953 39.214C21.3199 39.214 21.8445 39.214 22.3691 39.214C22.3691 39.2747 22.3691 39.3355 22.3691 39.3962C22.3691 40.5201 22.3691 41.644 22.3691 42.7679C22.3691 43.2539 22.3074 43.7096 22.0913 44.1348C21.7827 44.8335 21.2273 45.2284 20.5175 45.4106C19.4683 45.684 18.3883 45.6536 17.3699 45.3195C16.3516 44.9854 15.7961 44.2563 15.7344 43.2539C15.6727 42.0997 15.7035 41.0061 15.7035 39.9126C15.7035 39.6696 15.7035 39.4266 15.7035 39.1836Z" fill="black"/>
<path d="M36.9345 43.8623C36.595 44.409 36.2865 44.895 35.947 45.381C35.9161 45.4114 35.8544 45.4722 35.7927 45.4722C34.8669 45.4722 33.972 45.5025 33.0463 45.4418C31.6576 45.3507 30.6392 44.4394 30.3307 43.1029C30.1146 42.1005 30.2381 41.1284 30.8553 40.2779C31.3799 39.5793 32.0896 39.2148 32.9537 39.1844C34.2498 39.154 35.515 39.1844 36.8419 39.1844C36.8111 39.2452 36.8111 39.2755 36.7802 39.3363C36.5025 39.7919 36.2247 40.2172 35.947 40.6728C35.8853 40.7639 35.8236 40.8247 35.7001 40.8247C34.8978 40.8247 34.0955 40.8247 33.2931 40.8247C32.5216 40.8247 31.9662 41.3411 31.8427 42.1005C31.7193 42.8295 32.0896 43.5281 32.7685 43.7711C32.9845 43.8319 33.2005 43.8623 33.4166 43.8623C34.4966 43.8623 35.5767 43.8623 36.6568 43.8623C36.7493 43.8319 36.8419 43.8319 36.9345 43.8623Z" fill="black"/>
<path d="M44.1865 43.831C43.847 44.3778 43.5076 44.8638 43.199 45.3802C43.1681 45.4105 43.1064 45.4409 43.0447 45.4409C42.1189 45.4409 41.224 45.4713 40.2982 45.4105C38.9404 45.3194 37.953 44.4385 37.6444 43.1627C37.3666 42.0085 37.5209 40.9453 38.3541 40.034C38.8787 39.4569 39.5576 39.1835 40.36 39.1531C41.5943 39.1228 42.8287 39.1531 44.063 39.1531C44.0939 39.1531 44.1248 39.1531 44.1556 39.1531C43.9396 39.4873 43.7545 39.8214 43.5384 40.1555C43.415 40.3682 43.3224 40.6112 43.1681 40.7327C42.983 40.8238 42.7052 40.7631 42.4584 40.7631C41.8412 40.7631 41.224 40.7631 40.6068 40.7631C39.8354 40.7631 39.2182 41.3098 39.1256 42.0692C39.033 42.8894 39.465 43.5576 40.2365 43.7399C40.3908 43.7703 40.5451 43.8006 40.7303 43.8006C41.8103 43.8006 42.8904 43.8006 43.9705 43.8006C44.0013 43.831 44.063 43.831 44.1865 43.831Z" fill="black"/>
<path d="M45.7603 24.1787C45.6986 24.6343 45.6677 25.1204 45.606 25.576C45.0505 29.4337 43.8162 33.1092 42.0263 36.572C41.7486 37.1188 41.44 37.6655 41.1314 38.1819C41.1006 38.2427 41.008 38.3338 40.9463 38.3338C40.2365 38.3338 39.5267 38.3338 38.817 38.3338C38.7553 38.3338 38.7244 38.3338 38.6318 38.3338C42.2115 34.1723 44.5259 29.4337 45.7603 24.1787Z" fill="black"/>
<path d="M27.5842 46.2617C27.7385 46.2617 27.8311 46.2617 27.9237 46.2617C29.0655 46.2617 30.2381 46.2617 31.3799 46.2617C31.5342 46.2617 31.6576 46.2921 31.7811 46.4136C32.2131 46.8085 32.676 47.173 33.1389 47.5375C33.2006 47.5982 33.2623 47.659 33.2623 47.7198C33.2623 48.7829 33.2623 49.8764 33.2623 50.97C31.1947 49.603 29.3432 48.0539 27.5842 46.2617Z" fill="black"/>
<path d="M40.2057 46.2918C38.4775 48.0536 36.626 49.6027 34.5584 51C34.5584 50.9393 34.5276 50.8785 34.5276 50.8481C34.5276 49.8457 34.5276 48.8433 34.5276 47.8409C34.5276 47.7498 34.5893 47.6283 34.651 47.5676C35.1139 47.1727 35.5768 46.7778 36.0397 46.4133C36.1014 46.3525 36.194 46.3221 36.2866 46.3221C37.5518 46.3221 38.817 46.3221 40.0822 46.3221C40.1131 46.2614 40.1439 46.2918 40.2057 46.2918Z" fill="black"/>
<path d="M45.7134 61.6934V76.9998L54.0396 72.1481L62.3658 76.9998V61.6934H45.7134Z" fill="#188831"/>
<circle cx="53.7035" cy="53" r="8" fill="white"/>
<path d="M67.4992 50.5189C68.0939 51.3641 68.4069 52.3031 68.4069 53.3361C68.4069 54.369 68.0939 55.3394 67.4992 56.1532C66.9045 56.9984 66.1219 57.5931 65.2142 57.9061C65.6211 58.8138 65.7463 59.7529 65.5898 60.7858C65.4333 61.8188 64.9638 62.6952 64.2126 63.4465C63.4613 64.1977 62.5849 64.6359 61.5832 64.8237C60.5816 64.9802 59.6112 64.855 58.6722 64.4481C58.4531 65.0741 58.1088 65.6376 57.6705 66.1071C57.2323 66.5766 56.7002 66.9522 56.0742 67.2339C55.4481 67.5156 54.7908 67.6409 54.0709 67.6409C53.0379 67.6409 52.0676 67.3278 51.2537 66.7331C50.4086 66.1384 49.8139 65.3558 49.5009 64.4481C48.5618 64.855 47.5915 64.9802 46.5898 64.8237C45.5882 64.6672 44.7117 64.1977 43.9605 63.4465C43.1467 62.7265 42.7084 61.8501 42.5206 60.8171C42.3641 59.7842 42.458 58.8138 42.8962 57.9374C41.9572 57.5931 41.206 56.9984 40.6112 56.1845C40.0165 55.3394 39.7035 54.4003 39.7035 53.3361C39.7035 52.3031 40.0165 51.3328 40.6112 50.5189C41.206 49.6738 41.9885 49.0791 42.8962 48.7661C42.4893 47.8583 42.3641 46.9193 42.5206 45.8863C42.6771 44.8534 43.1467 43.9769 43.8979 43.2257C44.6491 42.4745 45.5256 42.0362 46.5585 41.8484C47.5915 41.6919 48.5618 41.8171 49.4383 42.2241C49.7826 41.285 50.3773 40.5338 51.1911 39.939C52.0676 39.313 53.0066 39 54.0396 39C55.0725 39 56.0429 39.313 56.8567 39.9077C57.7018 40.5025 58.2966 41.285 58.6096 42.1928C59.5173 41.7858 60.4564 41.6606 61.4893 41.8171C62.5223 41.9736 63.3987 42.4432 64.15 43.1944C64.9012 43.9456 65.3394 44.8221 65.5272 45.855C65.6837 46.888 65.5585 47.8583 65.1516 48.7348C66.1219 49.0791 66.9045 49.6738 67.4992 50.5189ZM60.2686 50.8633C60.5816 50.5502 60.5816 50.2685 60.2686 49.9555L58.7974 48.5156C58.547 48.2026 58.2653 48.2026 57.9523 48.5156L52.5371 53.9621L50.1895 51.5519C49.8765 51.2389 49.5948 51.2389 49.2817 51.5519L47.8419 52.9918C47.5289 53.3048 47.5289 53.5865 47.8419 53.8369L52.0989 58.1565C52.3493 58.4069 52.631 58.4069 52.944 58.1565L60.2686 50.8633Z" fill="#28A745"/>
</svg>
