<svg id="Layer_1" data-name="Layer 1" xmlns="http://www.w3.org/2000/svg" viewBox="0 0 30 17"><defs><style>.cls-1{fill:#fff;}</style></defs><title>mp-gab-alt</title><path class="cls-1" d="M6.81,4.82H9.65v7.42c0,3.56-2,5.26-5.11,5.26a5.51,5.51,0,0,1-3.4-1.08l1.13-2a3.7,3.7,0,0,0,2.11.67,2.32,2.32,0,0,0,2.43-2.51V12.1a3.26,3.26,0,0,1-2.53,1.08A4.25,4.25,0,0,1,0,8.87,4.25,4.25,0,0,1,4.28,4.55,3.26,3.26,0,0,1,6.81,5.63V4.82Zm-2,5.93a2,2,0,0,0,2-1.88A2,2,0,0,0,4.83,7a2,2,0,0,0-2,1.89A2,2,0,0,0,4.83,10.75ZM18.9,12.91H16.06v-.67a3,3,0,0,1-2.3.94,2.82,2.82,0,0,1-3.09-2.81C10.67,8.14,13.54,7.31,16,8,16,7.3,15.5,6.77,14.5,6.77a4.53,4.53,0,0,0-2,.53l-.86-1.94a6.56,6.56,0,0,1,3.27-.81c2.08,0,4,1.11,4,4.15v4.21Zm-2.84-3.2c-1.33-.41-2.55-.19-2.55.71a.93.93,0,0,0,1,.87A1.63,1.63,0,0,0,16.06,9.71ZM23.19.5V5.63a3.26,3.26,0,0,1,2.53-1.08A4.25,4.25,0,0,1,30,8.87a4.25,4.25,0,0,1-4.28,4.31,3.26,3.26,0,0,1-2.53-1.08v.81H20.35V.5Zm2,10.25a2,2,0,0,0,2-1.88,2,2,0,0,0-4,0A2,2,0,0,0,25.17,10.75Z" transform="translate(0 -0.5)"/></svg>