<svg width="30" height="18" viewBox="0 0 30 18" fill="none" xmlns="http://www.w3.org/2000/svg">
<path d="M6.81437 4.81746H9.65369V12.2381C9.65369 15.7966 7.61293 17.5 4.54291 17.5C3.141 17.5 1.89879 17.0446 1.13572 16.4206L2.27145 14.3968C2.92805 14.8185 3.54915 15.0714 4.3832 15.0714C5.89159 15.0714 6.81437 14.0427 6.81437 12.5585V12.1032C6.17552 12.8284 5.27049 13.1825 4.27672 13.1825C1.84556 13.1825 0 11.2599 0 8.86508C0 6.47024 1.84556 4.54762 4.27672 4.54762C5.27049 4.54762 6.17552 4.90179 6.81437 5.62699V4.81746V4.81746ZM4.82684 10.754C5.90934 10.754 6.81437 9.89385 6.81437 8.86508C6.81437 7.83631 5.90934 6.97619 4.82684 6.97619C3.74435 6.97619 2.83932 7.83631 2.83932 8.86508C2.83932 9.89385 3.74435 10.754 4.82684 10.754ZM18.9041 12.9127H16.0647V12.2381C15.5146 12.8284 14.7516 13.1825 13.7578 13.1825C11.7703 13.1825 10.67 11.8671 10.67 10.3661C10.67 8.13988 13.5448 7.31349 16.0293 8.02182C15.976 7.29663 15.4969 6.77381 14.5031 6.77381C13.811 6.77381 13.0125 7.02679 12.5156 7.29663L11.6638 5.35714C12.3204 4.95238 13.5271 4.54762 14.929 4.54762C17.0053 4.54762 18.9041 5.66071 18.9041 8.69643V12.9127V12.9127ZM16.0647 9.70833C14.7338 9.30357 13.5094 9.52282 13.5094 10.4167C13.5094 10.9395 13.9707 11.2937 14.5209 11.2937C15.1775 11.2937 15.9228 10.7877 16.0647 9.70833ZM23.1856 0.5V5.62699C23.8245 4.90179 24.7295 4.54762 25.7233 4.54762C28.1544 4.54762 30 6.47024 30 8.86508C30 11.2599 28.1544 13.1825 25.7233 13.1825C24.7295 13.1825 23.8245 12.8284 23.1856 12.1032V12.9127H20.3463V0.5H23.1856V0.5ZM25.1732 10.754C26.2556 10.754 27.1607 9.89385 27.1607 8.86508C27.1607 7.83631 26.2556 6.97619 25.1732 6.97619C24.0907 6.97619 23.1856 7.83631 23.1856 8.86508C23.1856 9.89385 24.0907 10.754 25.1732 10.754Z" fill="#666666"/>
</svg>
