<svg width="17" height="17" viewBox="0 0 22 22" fill="none" xmlns="http://www.w3.org/2000/svg">
<path d="M0 3C0 1.34315 1.34315 0 3 0H19C20.6569 0 22 1.34315 22 3V19C22 20.6569 20.6569 22 19 22H3C1.34315 22 0 20.6569 0 19V3Z" fill="#666666"/>
<path d="M6.11119 3.66669C4.76675 3.66669 3.66675 4.76669 3.66675 6.11113H12.2223C14.1779 6.11113 15.889 7.82224 15.889 9.7778C15.889 11.7334 14.1779 13.4445 12.2223 13.4445H9.77786C9.10564 13.4445 8.55564 13.9945 8.55564 14.6667V15.8889H12.2223C15.6445 15.8889 18.3334 13.2 18.3334 9.7778C18.3334 6.35558 15.6445 3.66669 12.2223 3.66669H6.11119ZM5.50008 8.55558C4.5223 8.55558 3.66675 9.41113 3.66675 10.3889V15.8889C3.66675 17.2334 4.76675 18.3334 6.11119 18.3334V12.2222C6.11119 11.55 6.66119 11 7.33341 11H12.2223C12.8945 11 13.4445 10.45 13.4445 9.7778C13.4445 9.10558 12.8945 8.55558 12.2223 8.55558H5.50008Z" fill="white"/>
</svg>
