<svg width="156" height="156" viewBox="0 0 156 156" fill="none" xmlns="http://www.w3.org/2000/svg">
<path d="M52.7846 26.3923L129.322 102.93L129.322 155.715L2.37543e-05 26.3923L52.7846 26.3923Z" fill="#FFD913"/>
<path d="M42.9314 38.9174L45.0273 41.0132C45.7684 41.7543 46.1672 42.5208 46.2237 43.3127C46.286 44.099 45.9975 44.8118 45.3582 45.451C44.9792 45.83 44.5436 46.0789 44.0515 46.1977C43.565 46.3109 43.0559 46.2882 42.5241 46.1299L41.6077 50.4913L40.1483 49.0318L41.0816 45.3322C40.9798 45.2417 40.8921 45.1654 40.8186 45.1031C40.7564 45.0409 40.697 44.9815 40.6404 44.9249L40.021 44.3055L37.7215 46.605L36.4826 45.3662L42.9314 38.9174ZM41.0647 43.2618L41.7011 43.8982C42.5892 44.7864 43.3812 44.8825 44.077 44.1867C44.4107 43.853 44.5521 43.4909 44.5012 43.1006C44.4616 42.7103 44.2297 42.303 43.8054 41.8787L43.1266 41.1999L41.0647 43.2618ZM49.0385 45.0244L53.2981 49.2841L52.212 50.3702L49.2082 47.3664L47.6639 48.9107L50.3198 51.5666L49.2422 52.6442L46.5863 49.9883L44.9316 51.643L48.0542 54.7656L46.9681 55.8517L42.5897 51.4733L49.0385 45.0244ZM51.1947 60.2649C50.5272 59.5974 50.0662 58.8762 49.8116 58.1012C49.5627 57.3205 49.5401 56.5342 49.7437 55.7423C49.9474 54.9503 50.383 54.2206 51.0505 53.5531C51.684 52.9195 52.394 52.4924 53.1803 52.2718C53.9779 52.0512 54.7896 52.0597 55.6155 52.2973C56.4414 52.5348 57.2023 53.0015 57.8981 53.6973C58.2488 54.0481 58.5571 54.4525 58.823 54.9107C59.1002 55.3689 59.2897 55.8073 59.3915 56.2259L58.0848 57.1084C57.7736 56.1863 57.3324 55.4396 56.7611 54.8683C56.3424 54.4497 55.8814 54.164 55.378 54.0113C54.8745 53.8586 54.3654 53.8529 53.8506 53.9943C53.3358 54.1357 52.8578 54.4271 52.4166 54.8683C51.7547 55.5302 51.4266 56.2542 51.4323 57.0405C51.4436 57.8212 51.7859 58.5481 52.459 59.2213C52.7532 59.5154 53.1096 59.7869 53.5282 60.0358C53.9468 60.2847 54.3795 60.4799 54.8264 60.6213L53.8421 61.8771C53.3896 61.7527 52.9314 61.549 52.4675 61.2662C52.0036 60.9834 51.5794 60.6496 51.1947 60.2649ZM58.6779 65.525C59.0626 65.9097 59.501 66.1671 59.9932 66.2972C60.491 66.4329 61.0001 66.4216 61.5205 66.2632C62.0466 66.1105 62.5246 65.8192 62.9545 65.3893C63.3618 64.982 63.6475 64.5266 63.8115 64.0231C63.9756 63.5197 63.9982 63.0105 63.8794 62.4958C63.7606 61.981 63.4976 61.52 63.0903 61.1127C62.7056 60.728 62.2672 60.4706 61.7751 60.3405C61.2829 60.2104 60.7738 60.2217 60.2477 60.3745C59.7329 60.5272 59.2578 60.8213 58.8222 61.2569C58.4149 61.6642 58.1292 62.1196 57.9652 62.6231C57.8011 63.1265 57.7757 63.6328 57.8888 64.1419C58.0076 64.6567 58.2706 65.1177 58.6779 65.525ZM57.5239 66.679C56.9017 66.0568 56.4718 65.3497 56.2342 64.5577C56.0022 63.7601 55.9853 62.9512 56.1833 62.1309C56.3926 61.3107 56.8253 60.5724 57.4815 59.9162C58.0868 59.311 58.7854 58.8952 59.5774 58.6689C60.375 58.4483 61.1867 58.4455 62.0126 58.6604C62.8442 58.8697 63.5881 59.3025 64.2443 59.9587C64.8722 60.5866 65.3021 61.2993 65.534 62.097C65.7716 62.8889 65.7858 63.695 65.5765 64.5153C65.3785 65.3355 64.9514 66.0737 64.2952 66.7299C63.6899 67.3352 62.9885 67.7482 62.1908 67.9688C61.3989 68.1951 60.5843 68.2007 59.7471 67.9858C58.9212 67.7708 58.1801 67.3352 57.5239 66.679ZM68.7187 64.7047L70.0594 66.0453L68.2011 72.0784L74.2511 70.2371L75.5154 71.5014L69.0666 77.9502L67.8787 76.7623L72.4098 72.2311L67.5817 73.6991L66.521 72.6384L67.989 67.8103L63.4579 72.3414L62.2699 71.1535L68.7187 64.7047ZM77.0632 73.0491L78.4038 74.3898L76.5455 80.4228L82.5956 78.5815L83.8599 79.8458L77.411 86.2946L76.2231 85.1067L80.7542 80.5755L75.9261 82.0435L74.8655 80.9828L76.3334 76.1547L71.8023 80.6858L70.6143 79.4979L77.0632 73.0491ZM85.4076 81.3935L89.6672 85.6531L88.5811 86.7392L85.5773 83.7354L84.0329 85.2797L86.6888 87.9356L85.6112 89.0133L82.9553 86.3574L81.3007 88.012L84.4233 91.1346L83.3372 92.2207L78.9587 87.8423L85.4076 81.3935ZM91.1086 87.0945L92.2626 88.2485L91.1595 96.1059L95.6398 91.6257L96.8701 92.856L90.4213 99.3049L89.2673 98.1509L90.3534 90.3105L85.8902 94.7737L84.6598 93.5434L91.1086 87.0945ZM98.4172 94.4031L100.886 96.8724C102.006 97.9924 102.592 99.1436 102.643 100.326C102.705 101.508 102.227 102.608 101.209 103.627C100.185 104.651 99.0706 105.126 97.8657 105.052C96.6664 104.984 95.4926 104.376 94.3443 103.228L91.9684 100.852L98.4172 94.4031ZM94.3019 101.098L95.3625 102.159C96.9068 103.703 98.4059 103.748 99.8597 102.294C101.314 100.841 101.271 99.3444 99.7324 97.8057L98.6633 96.7366L94.3019 101.098ZM105.618 101.604L109.878 105.864L108.792 106.95L105.788 103.946L104.243 105.49L106.899 108.146L105.822 109.224L103.166 106.568L101.511 108.223L104.634 111.345L103.548 112.431L99.1693 108.053L105.618 101.604ZM111.319 107.305L113.788 109.774C114.908 110.894 115.494 112.046 115.545 113.228C115.607 114.41 115.129 115.51 114.111 116.529C113.087 117.552 111.973 118.028 110.768 117.954C109.568 117.886 108.395 117.278 107.246 116.13L104.87 113.754L111.319 107.305ZM107.204 114L108.264 115.061C109.809 116.605 111.308 116.65 112.762 115.196C114.215 113.743 114.173 112.246 112.634 110.708L111.565 109.639L107.204 114Z" fill="#111111"/>
</svg>
